<svg xmlns="http://www.w3.org/2000/svg" xmlns:xlink="http://www.w3.org/1999/xlink" version="1.1" width="41.17173433303833" height="33.40178918838501" viewBox="0.5166281461715698 1.6728556156158447 41.17173433303833 33.40178918838501">
  <!-- Exported by Scratch - http://scratch.mit.edu/ -->
  <path id="ID0.4909940124489367" fill="#FF0000" stroke="#000000" stroke-width="1.1146791017092053" stroke-linecap="round" d="M 16.5121 2.4598 C 17.9959 2.1546 19.5043 3.0726 20.9247 3.6913 C 22.2078 4.2488 25.056 5.2599 24.5013 6.0754 C 23.6742 7.3414 20.3248 7.3623 18.1614 7.8534 C 17.5635 7.9892 16.6579 8.4576 16.3118 7.8519 C 15.7503 6.864 16.2411 5.6563 16.328 4.5945 C 16.3079 3.8552 15.9072 2.5851 16.5121 2.4598 Z "/>
  <path id="ID0.4909940124489367" fill="#FF0000" stroke="#000000" stroke-width="1.2078696794822363" stroke-linecap="round" d="M 26.1276 25.2376 C 27.149 25.14 28.1529 25.8697 28.9496 27.1276 C 29.746 28.3851 30.4631 30.3639 30.5279 32.1854 C 30.5316 33.1745 29.7278 33.2886 29.2169 33.4159 C 27.7547 33.9505 26.1968 34.0814 24.6431 33.853 C 24.122 33.8946 23.2773 33.8221 23.1228 32.893 C 22.8436 31.0946 23.1587 29.0441 23.7146 27.6278 C 24.2436 26.2801 25.1061 25.3352 26.1276 25.2376 Z "/>
  <path id="ID0.4021690208464861" fill="#820000" stroke="#000000" stroke-width="1.0799822476319783" stroke-linecap="round" d="M 22.3586 6.1054 C 25.696 6.2302 29.3465 6.7867 31.9979 8.6119 C 34.5676 10.3798 36.8107 13.2106 36.9309 16.1315 C 37.0613 19.2826 35.3104 22.6393 32.7429 24.8103 C 30.2163 26.9485 26.4388 27.8059 23.039 27.7435 C 20.0519 27.8151 17.1896 26.349 14.7605 24.8277 C 12.5049 23.4455 11.3346 20.9195 9.147 19.4565 C 8.5914 19.0862 8.2999 20.5921 7.8996 19.9681 C 5.4433 8.9137 6.9935 14.2051 7.3893 11.7323 C 7.5027 11.0294 8.199 13.7641 9.0903 13.625 C 10.5181 13.3999 11.3414 11.8663 12.4925 11.0161 C 13.859 10.0053 15.137 8.7869 16.7451 7.9981 C 18.462 7.1315 20.3298 6.0297 22.3586 6.1054 Z "/>
  <path id="ID0.3849619720131159" fill="#FF0000" stroke="#000000" stroke-width="1.4529309272766113" d="M 29.8833 6.9478 C 32.9396 6.9478 35.7096 8.0266 37.7154 9.7687 C 39.7204 11.5115 40.9619 13.9175 40.9619 16.5735 C 40.9619 19.2294 39.7204 21.6355 37.7154 23.3783 C 35.7096 25.1203 32.9396 26.1991 29.8833 26.1991 C 26.8271 26.1991 24.0571 25.1203 22.0513 23.3783 C 20.0463 21.6355 18.8047 19.2294 18.8047 16.5735 C 18.8047 13.9175 20.0463 11.5115 22.0513 9.7687 C 24.0571 8.0266 26.8271 6.9478 29.8833 6.9478 Z "/>
  <path id="ID0.257101490162313" fill="#FFFFFF" stroke="#000000" stroke-width="1.3835861632155322" d="M 33.4589 4.6638 C 35.308 3.6588 37.839 5.553 39.3594 7.0002 C 40.4785 8.146 40.556 10.0947 40.5601 11.6381 C 40.5656 13.2534 40.2706 14.9404 39.3903 16.343 C 38.7145 17.4184 37.4678 18.4381 36.2376 18.4381 C 35.0075 18.4381 33.8925 17.6367 33.085 16.343 C 32.2774 15.0485 31.7402 13.0288 31.778 11.2894 C 31.8274 9.0576 31.5145 5.7211 33.4589 4.6638 Z "/>
  <path id="ID0.13991053588688374" fill="#000000" stroke="none" d="M 37.3176 12.4954 C 37.7433 12.4954 38.1298 12.6952 38.4087 13.017 C 38.6884 13.3395 38.8613 13.7841 38.8613 14.2752 C 38.8613 14.7663 38.6884 15.2109 38.4087 15.5335 C 38.1298 15.8553 37.7433 16.0551 37.3176 16.0551 C 36.8919 16.0551 36.5054 15.8553 36.2264 15.5335 C 35.9467 15.2109 35.7738 14.7663 35.7738 14.2752 C 35.7738 13.7841 35.9467 13.3395 36.2264 13.017 C 36.5054 12.6952 36.8919 12.4954 37.3176 12.4954 Z " stroke-width="0.7264654636383057"/>
  <path id="ID0.257101490162313" fill="#FFFFFF" stroke="#000000" stroke-width="1.4529309272766113" d="M 25.6929 5.8375 C 27.5127 4.4361 30.481 3.4111 32.3728 4.5996 C 34.2129 5.8491 33.7538 8.9467 33.753 11.1014 C 33.7523 12.9212 33.2242 15.0171 32.3691 16.3654 C 31.5141 17.713 30.3336 18.5477 29.031 18.5477 C 27.7285 18.5477 26.548 17.713 25.6929 16.3654 C 24.8379 15.0171 24.309 13.0956 24.309 11.1014 C 24.309 9.1073 24.2741 6.9584 25.6929 5.8375 Z "/>
  <path id="ID0.13991053588688374" fill="#000000" stroke="none" d="M 30.1176 12.4454 C 30.5433 12.4454 30.9298 12.6452 31.2087 12.967 C 31.4884 13.2895 31.6613 13.7341 31.6613 14.2252 C 31.6613 14.7163 31.4884 15.1609 31.2087 15.4835 C 30.9298 15.8053 30.5433 16.0051 30.1176 16.0051 C 29.6919 16.0051 29.3054 15.8053 29.0264 15.4835 C 28.7467 15.1609 28.5738 14.7163 28.5738 14.2252 C 28.5738 13.7341 28.7467 13.2895 29.0264 12.967 C 29.3054 12.6452 29.6919 12.4454 30.1176 12.4454 Z " stroke-width="0.7264654636383057"/>
  <path id="ID0.5298761413432658" fill="none" stroke="#000000" stroke-width="1.4529309272766113" stroke-linecap="round" d="M 28.7679 21.0677 C 30.4402 22.1981 30.4344 22.3114 31.4195 22.5206 C 31.9244 22.6231 32.8724 21.9758 32.8724 21.9758 "/>
  <path id="ID0.4909940124489367" fill="#FF0000" stroke="#000000" stroke-width="1.2078696677943175" stroke-linecap="round" d="M 20.009 25.5407 C 20.9486 25.953 21.4698 27.0793 21.5529 28.5659 C 21.6358 30.0522 21.2981 32.1295 20.4674 33.7519 C 19.9888 34.6176 19.2312 34.3256 18.723 34.1879 C 17.1856 33.9425 15.7613 33.2979 14.5157 32.3415 C 14.0403 32.1241 13.3379 31.6492 13.6556 30.7625 C 14.2879 29.0559 15.5619 27.4187 16.7373 26.4526 C 17.8559 25.5333 19.0694 25.1283 20.009 25.5407 Z "/>
  <path id="ID0.4021690208464861" fill="#FF0000" stroke="#000000" stroke-width="0.9658908770801479" stroke-linecap="round" d="M 8.1288 11.7323 C 9.0447 15.5525 9.0203 17.9935 8.5361 19.9681 C 7.8907 22.0398 7.0653 24.175 5.8208 25.8508 C 4.7763 27.3393 3.2385 28.8801 1.8383 29.2269 C 1.2889 29.3609 1.851 27.9869 1.9288 27.0785 C 2.2402 23.4404 2.976 19.7778 2.9245 16.0804 C 2.8403 12.4495 1.9216 8.8871 1.5216 5.2358 C 1.4211 4.3232 0.9486 2.9308 1.5216 3.0873 C 3.0883 3.5231 4.6568 5.1498 5.8208 6.7192 C 6.9159 8.1065 7.4536 10.0217 8.1288 11.7323 Z "/>
</svg>