<svg xmlns="http://www.w3.org/2000/svg" xmlns:xlink="http://www.w3.org/1999/xlink" version="1.1" width="65.51631593704224" height="62.96891450881958" viewBox="5.474212408065796 2.5490310192108154 65.51631593704224 62.96891450881958">
  <!-- Exported by Scratch - http://scratch.mit.edu/ -->
  <g id="ID0.7131451372988522">
    <path id="ID0.9395314259454608" fill="#F6F6C6" stroke="#000000" stroke-linecap="round" d="M 45.5518 63.0126 C 48.5105 64.1092 53.5358 66.1501 55.4479 63.4627 C 58.8186 58.7247 58.7243 51.7802 57.3284 46.171 C 56.6227 42.9981 52.9513 41.0807 49.8445 40.0497 C 46.9375 39.0844 43.6276 39.691 40.6588 40.521 C 39.6353 40.728 39.1836 41.9519 38.6662 42.9535 C 38.0517 44.1424 37.2942 45.3842 37.3648 46.7563 C 37.5526 50.4075 37.6903 54.5209 39.2894 57.5666 C 40.7126 60.2629 42.9645 62.0459 45.5518 63.0126 Z " stroke-width="0.4983599137063113"/>
    <path id="ID0.9395314259454608" fill="#FFFFCC" stroke="#000000" stroke-linecap="round" d="M 54.1211 12.5627 C 58.691 11.833 66.5042 10.3369 68.4847 14.7503 C 71.9758 22.5312 69.8506 32.4933 66.2358 40.1617 C 64.3118 44.5235 58.4814 46.2298 53.7172 46.8227 C 49.2592 47.3783 44.672 45.5577 40.6394 43.5133 C 39.2265 42.9223 38.9274 41.0323 38.4701 39.4434 C 37.9268 37.5573 37.193 35.554 37.6875 33.6006 C 39.0036 28.4025 40.3801 22.5251 43.5528 18.6023 C 46.3725 15.1316 50.1225 13.212 54.1211 12.5627 Z " stroke-width="0.7309278259336417"/>
  </g>
  <g id="ID0.7131451372988522">
    <path id="ID0.9395314259454608" fill="#F6F6C6" stroke="#000000" stroke-linecap="round" d="M 15.6208 57.7805 C 12.474 57.5488 7.0549 57.3176 6.4321 54.0788 C 5.3343 48.3687 8.3051 42.0909 11.905 37.5686 C 13.8651 34.9756 18.0012 34.7566 21.2556 35.1095 C 24.3008 35.4391 27.0596 37.3659 29.4153 39.3542 C 30.2603 39.9677 30.1627 41.2687 30.2173 42.3947 C 30.2823 43.7314 30.4554 45.1757 29.8213 46.3945 C 28.1337 49.6376 26.2996 53.3221 23.5797 55.4282 C 21.165 57.2896 18.3759 57.9759 15.6208 57.7805 Z " stroke-width="0.49835989997965435"/>
    <path id="ID0.9395314259454608" fill="#FFFFCC" stroke="#000000" stroke-linecap="round" d="M 28.8609 8.3392 C 25.0071 5.7771 18.5215 1.1703 14.8866 4.3621 C 8.4786 9.9894 6.2732 19.9341 6.3756 28.4112 C 6.3138 33.1781 10.9083 37.1523 14.9957 39.6709 C 18.8199 42.0282 23.7489 42.2777 28.2664 42.0934 C 29.7971 42.1427 30.8543 40.5479 31.9304 39.2925 C 33.2082 37.8026 34.7078 36.2852 35.0695 34.3029 C 36.0318 29.0278 37.2213 23.1097 35.965 18.2234 C 34.842 13.895 32.2284 10.5911 28.8609 8.3392 Z " stroke-width="0.7309278431040265"/>
  </g>
  <path id="ID0.6544284904375672" fill="#CC0000" stroke="#000000" stroke-width="1.1657290203927664" stroke-linecap="round" d="M 38.5941 32.9771 C 40.3119 33.3969 41.8703 36.2811 41.9322 38.4095 C 42.0292 41.6757 40.0372 44.5429 38.7696 47.4805 C 38.0175 49.2275 37.3074 50.8756 36.0798 52.1032 C 34.971 53.1979 33.5354 54.3339 32.0335 54.1744 C 30.6813 54.0312 29.6572 52.4716 29.3597 51.1209 C 28.7053 49.1729 28.8144 47.0179 29.3694 44.9431 C 30.1806 41.8988 31.1882 38.7682 33.1266 36.2574 C 34.5164 34.4502 36.8762 32.5573 38.5941 32.9771 Z "/>
  <g id="ID0.7732332311570644">
    <path id="ID0.3849619720131159" fill="#FF0000" stroke="#000000" stroke-width="1.4529309272766113" d="M 42.1333 22.4478 C 45.1896 22.4478 47.9596 23.5266 49.9654 25.2687 C 51.9704 27.0115 53.2119 29.4175 53.2119 32.0735 C 53.2119 34.7294 51.9704 37.1355 49.9654 38.8783 C 47.9596 40.6203 45.1896 41.6991 42.1333 41.6991 C 39.0771 41.6991 36.3071 40.6203 34.3013 38.8783 C 32.2963 37.1355 31.0547 34.7294 31.0547 32.0735 C 31.0547 29.4175 32.2963 27.0115 34.3013 25.2687 C 36.3071 23.5266 39.0771 22.4478 42.1333 22.4478 Z "/>
    <path id="ID0.257101490162313" fill="#FFFFFF" stroke="#000000" stroke-width="1.3835861632155322" d="M 45.7089 20.1638 C 47.558 19.1588 50.089 21.053 51.6094 22.5002 C 52.7285 23.646 52.806 25.5947 52.8101 27.1381 C 52.8156 28.7534 52.5206 30.4404 51.6403 31.843 C 50.9645 32.9184 49.7178 33.9381 48.4876 33.9381 C 47.2575 33.9381 46.1425 33.1367 45.335 31.843 C 44.5274 30.5485 43.9902 28.5288 44.028 26.7894 C 44.0774 24.5576 43.7645 21.2211 45.7089 20.1638 Z "/>
    <path id="ID0.13991053588688374" fill="#000000" stroke="none" d="M 49.5676 27.9954 C 49.9933 27.9954 50.3798 28.1952 50.6587 28.517 C 50.9384 28.8395 51.1113 29.2841 51.1113 29.7752 C 51.1113 30.2663 50.9384 30.7109 50.6587 31.0335 C 50.3798 31.3553 49.9933 31.5551 49.5676 31.5551 C 49.1419 31.5551 48.7554 31.3553 48.4764 31.0335 C 48.1967 30.7109 48.0238 30.2663 48.0238 29.7752 C 48.0238 29.2841 48.1967 28.8395 48.4764 28.517 C 48.7554 28.1952 49.1419 27.9954 49.5676 27.9954 Z " stroke-width="0.7264654636383057"/>
    <path id="ID0.257101490162313" fill="#FFFFFF" stroke="#000000" stroke-width="1.4529309272766113" d="M 37.9429 21.3375 C 39.7627 19.9361 42.731 18.9111 44.6228 20.0996 C 46.4629 21.3491 46.0038 24.4467 46.003 26.6014 C 46.0023 28.4212 45.4742 30.5171 44.6191 31.8654 C 43.7641 33.213 42.5836 34.0477 41.281 34.0477 C 39.9785 34.0477 38.798 33.213 37.9429 31.8654 C 37.0879 30.5171 36.559 28.5956 36.559 26.6014 C 36.559 24.6073 36.5241 22.4584 37.9429 21.3375 Z "/>
    <path id="ID0.13991053588688374" fill="#000000" stroke="none" d="M 42.3676 27.9454 C 42.7933 27.9454 43.1798 28.1452 43.4587 28.467 C 43.7384 28.7895 43.9113 29.2341 43.9113 29.7252 C 43.9113 30.2163 43.7384 30.6609 43.4587 30.9835 C 43.1798 31.3053 42.7933 31.5051 42.3676 31.5051 C 41.9419 31.5051 41.5554 31.3053 41.2764 30.9835 C 40.9967 30.6609 40.8238 30.2163 40.8238 29.7252 C 40.8238 29.2341 40.9967 28.7895 41.2764 28.467 C 41.5554 28.1452 41.9419 27.9454 42.3676 27.9454 Z " stroke-width="0.7264654636383057"/>
    <path id="ID0.5298761413432658" fill="none" stroke="#000000" stroke-width="1.4529309272766113" stroke-linecap="round" d="M 41.0179 36.5677 C 42.6902 37.6981 42.6844 37.8114 43.6695 38.0206 C 44.1744 38.1231 45.1224 37.4758 45.1224 37.4758 "/>
  </g>
  <path id="ID0.996023275423795" fill="#CCCC00" stroke="none" d="M 14.7638 44.579 C 15.8328 44.9172 16.6254 45.7789 17.0425 46.8982 C 17.46 48.0177 17.5016 49.3947 17.0688 50.7625 C 16.636 52.1302 15.8099 53.2327 14.8244 53.9082 C 13.8393 54.5838 12.6953 54.8327 11.6263 54.4944 C 10.5574 54.1562 9.7648 53.2945 9.3477 52.1752 C 8.9301 51.0557 8.8885 49.6787 9.3213 48.311 C 9.7541 46.9432 10.5802 45.8408 11.5658 45.1653 C 12.5509 44.4896 13.6949 44.2407 14.7638 44.579 Z " stroke-width="0.53623315989521"/>
  <path id="ID0.996023275423795" fill="#CCCC00" stroke="none" d="M 52.4922 51.7913 C 53.5932 52.0032 54.4805 52.7669 55.0248 53.8303 C 55.5695 54.8937 55.7707 56.2565 55.4997 57.6653 C 55.2287 59.0741 54.5362 60.265 53.6358 61.0504 C 52.7358 61.8358 51.6284 62.2159 50.5274 62.0041 C 49.4265 61.7923 48.5391 61.0285 47.9948 59.9652 C 47.4501 58.9017 47.2489 57.5389 47.5199 56.1301 C 47.7909 54.7214 48.4834 53.5304 49.3839 52.7451 C 50.2838 51.9596 51.3912 51.5795 52.4922 51.7913 Z " stroke-width="0.536233171530285"/>
  <path id="ID0.6398694114759564" fill="#CCCC00" stroke="none" d="M 18.75 7.5 C 19.578 7.5 20.328 7.85 20.871 8.416 C 21.414 8.982 21.75 9.763 21.75 10.625 C 21.75 11.487 21.414 12.268 20.871 12.834 C 20.328 13.4 19.578 13.75 18.75 13.75 C 17.922 13.75 17.172 13.4 16.629 12.834 C 16.086 12.268 15.75 11.487 15.75 10.625 C 15.75 9.763 16.086 8.982 16.629 8.416 C 17.172 7.85 17.922 7.5 18.75 7.5 Z " stroke-width="1"/>
  <path id="ID0.6398694114759564" fill="#CCCC00" stroke="none" d="M 62.71 17.54 C 63.4718 17.54 64.1618 17.862 64.6613 18.3827 C 65.1609 18.9034 65.47 19.622 65.47 20.415 C 65.47 21.208 65.1609 21.9266 64.6613 22.4473 C 64.1618 22.968 63.4718 23.29 62.71 23.29 C 61.9482 23.29 61.2582 22.968 60.7587 22.4473 C 60.2591 21.9266 59.95 21.208 59.95 20.415 C 59.95 19.622 60.2591 18.9034 60.7587 18.3827 C 61.2582 17.862 61.9482 17.54 62.71 17.54 Z " stroke-width="0.9200000166893005"/>
</svg>