<svg xmlns="http://www.w3.org/2000/svg" xmlns:xlink="http://www.w3.org/1999/xlink" version="1.1" width="57.273544493269" height="57.82446307237056" viewBox="7.956648735726342 0.2852062270288317 57.273544493269 57.82446307237056">
  <!-- Exported by Scratch - http://scratch.mit.edu/ -->
  <path id="ID0.6192862591706216" fill="#000000" stroke="none" stroke-linecap="round" d="M 23.0311 25.6433 C 23.7356 24.6928 24.7033 24.006 25.5754 23.1631 C 26.1746 22.5835 26.6336 21.8475 27.3376 21.3835 C 28.0527 20.9108 28.9296 20.7403 29.6964 20.3448 C 30.5411 19.9105 31.2386 19.2669 32.1824 18.9237 C 33.6739 18.3826 35.2303 18.2573 36.8121 17.7977 C 39.1158 17.1292 41.52 16.7198 43.6928 15.6624 C 45.2682 14.8958 46.3021 11.63 47.8371 12.4205 C 52.0427 14.5861 55.9506 18.2748 57.6461 22.698 C 58.3996 24.665 54.9209 25.8905 53.3534 27.3481 C 52.0309 28.5769 50.6631 29.8811 48.9974 30.5783 C 47.9622 31.0114 46.6797 30.0995 45.6378 30.4996 C 43.1699 31.5542 40.9979 33.2645 38.8152 34.798 C 37.042 36.0438 35.311 37.3981 33.7731 38.9111 C 32.9181 39.7521 32.2506 40.8519 31.6252 41.9088 C 31.02 42.9328 30.6994 44.1113 30.0677 45.1161 C 29.4486 46.1981 28.5405 47.0907 27.8825 48.1472 C 27.2975 49.0873 26.887 50.1503 26.3739 51.1093 C 25.8251 52.0854 25.501 53.2523 24.6946 53.9558 C 23.0267 55.412 21.1713 56.8388 19.0482 57.4691 C 17.6099 57.8941 16.102 57.1383 14.6491 56.979 C 13.6528 56.8739 12.4856 57.2225 11.6915 56.6746 C 10.3208 55.7288 8.8662 54.4434 8.5419 52.7832 C 8.2088 51.2692 9.0787 49.592 9.9575 48.2934 C 10.9559 46.818 13.1839 46.3904 13.9389 44.7947 C 14.5747 43.4601 13.4094 41.8578 13.6818 40.4607 C 13.9815 38.9921 14.8416 37.6861 15.6017 36.4589 C 16.8602 34.4256 18.4074 32.5768 19.7486 30.5969 C 20.8455 28.9768 21.7834 27.1836 23.0311 25.6433 Z " stroke-width="1.0000000111147251"/>
  <path id="ID0.20554033666849136" fill="#6CB552" stroke="none" stroke-linecap="round" d="M 56.0539 23.1811 C 55.9945 24.4032 54.2938 25.1465 53.0564 25.3072 C 52.2886 25.4056 51.8433 24.3869 51.3881 23.6865 C 49.5705 20.885 47.7385 17.9671 46.4427 14.9622 C 46.119 14.2109 46.6879 13.7234 47.1313 13.7999 C 48.1596 13.9782 48.8924 14.8518 49.6419 15.5346 C 50.947 16.6395 52.2044 17.8485 53.2758 19.1457 C 54.3137 20.4042 56.1282 21.6026 56.0539 23.1811 Z " stroke-width="0.9999999838422141"/>
  <path id="ID0.20554033666849136" fill="#186D2E" stroke="none" stroke-linecap="round" d="M 39.8177 17.6343 C 40.5559 17.5112 41.5969 17.3722 42.049 17.9409 C 43.0168 19.163 43.1117 20.8781 43.6317 22.3477 C 44.1443 23.7966 45.0397 25.1925 45.0669 26.7275 C 45.1365 27.647 44.7771 28.8947 43.9014 29.2082 C 42.8464 29.5845 41.1732 29.2672 40.6601 28.3102 C 39.0635 25.3292 38.38 21.8362 38.086 18.4866 C 38.0125 17.6497 39.1934 17.7458 39.8177 17.6343 Z " stroke-width="0.9999999790095434"/>
  <path id="ID0.20554033666849136" fill="#2BB14B" stroke="none" stroke-linecap="round" d="M 44.3281 16.6855 C 44.4876 16.6039 44.3983 16.101 44.8356 16.8725 C 46.5831 19.9595 48.6951 22.9355 49.7968 26.3113 C 50.0815 27.1841 49.6245 28.6098 48.7407 28.9371 C 47.6762 29.3305 46.3639 28.6623 45.615 27.8742 C 44.5042 26.7831 44.0133 25.1944 43.5816 23.726 C 43.0278 21.8404 42.3728 19.8738 42.5611 17.9114 C 42.6549 17.2133 43.7013 17.0038 44.3281 16.6855 Z " stroke-width="1.0000000089504582"/>
  <path id="ID0.20554033666849136" fill="#189364" stroke="none" stroke-linecap="round" d="M 36.9925 19.1128 C 37.467 18.9092 38.1163 19.2484 38.4276 19.7007 C 39.337 21.0281 39.6141 22.7009 40.3113 24.1518 C 41.0843 25.7606 42.4256 27.2114 42.8855 28.9711 C 43.0291 29.523 42.532 30.7374 42.0464 30.4495 C 40.6027 29.5803 39.6103 27.8696 38.7027 26.3603 C 37.6623 24.5733 36.7666 22.7211 36.252 20.6439 C 36.1137 20.0851 36.4604 19.3389 36.9925 19.1128 Z " stroke-width="0.9999999809292521"/>
  <path id="ID0.20554033666849136" fill="#6CB552" stroke="none" stroke-linecap="round" d="M 34.5902 19.4866 C 35.0776 19.3153 35.7216 19.5232 36.0712 19.9465 C 37.0935 21.189 37.5355 22.82 38.3377 24.2153 C 39.4004 26.0655 41.0959 27.6814 41.6354 29.7732 C 41.8176 30.4062 40.7747 31.4653 40.1651 31.1161 C 37.7968 29.752 35.9267 27.5778 34.2539 25.4185 C 33.3353 24.2317 32.5835 22.7611 32.6423 21.2095 C 32.6763 20.3448 33.7723 19.7744 34.5902 19.4866 Z " stroke-width="1.0000000186609"/>
  <path id="ID0.20554033666849136" fill="#186D2E" stroke="none" stroke-linecap="round" d="M 46.2447 14.6558 C 46.7261 14.4274 47.1807 15.0324 47.5767 15.5435 C 49.0795 17.731 50.5526 19.9664 51.6633 22.3546 C 52.08 23.25 52.6188 24.4871 52.1021 25.3177 C 51.3677 26.3338 49.7311 27.3513 48.6571 26.7922 C 47.0055 25.9329 46.4018 23.7645 45.7326 22.0281 C 45.1043 20.3958 44.6388 18.6515 44.7377 16.9452 C 44.8209 16.0249 45.46 15.0297 46.2447 14.6558 Z " stroke-width="1.0000000111147251"/>
  <path id="ID0.20554033666849136" fill="#2BB14B" stroke="none" stroke-linecap="round" d="M 33.9287 20.0691 C 34.6143 20.2519 34.5769 21.3541 34.826 22.0376 C 35.1617 22.7493 35.3305 23.5221 35.6833 24.2528 C 36.249 25.4221 37.0363 26.4794 37.6724 27.6134 C 38.3866 28.8847 39.5932 30.0057 39.639 31.4262 C 39.7006 32.2547 38.7569 33.0665 37.9377 33.1771 C 36.9737 33.3069 35.9343 32.7184 35.228 32.0805 C 33.0822 30.1219 30.6643 28.1415 29.5492 25.5402 C 28.9064 24.0404 29.31 21.9763 30.3313 20.703 C 31.105 19.7402 32.7554 19.7508 33.9287 20.0691 Z " stroke-width="0.9999999529225712"/>
  <path id="ID0.20554033666849136" fill="#6CB552" stroke="none" stroke-linecap="round" d="M 28.9725 21.8863 C 29.8803 21.3861 31.4357 20.9193 32.0613 21.7377 C 33.2702 23.3183 32.6647 25.7629 33.437 27.6205 C 34.3393 29.794 36.6532 31.3059 37.1093 33.5943 C 37.2799 34.4712 35.7283 35.5387 35.0097 35.0721 C 32.2228 33.416 30.1739 30.7176 28.1657 28.1801 C 27.3718 27.1768 26.4738 25.9299 26.6244 24.6606 C 26.7665 23.4822 27.9135 22.4711 28.9725 21.8863 Z " stroke-width="1.0000000111147251"/>
  <path id="ID0.20554033666849136" fill="#189364" stroke="none" stroke-linecap="round" d="M 24.3278 25.6887 C 24.9248 24.9298 25.9178 24.0405 26.81 24.3382 C 27.7548 24.6586 27.5972 26.067 28.0899 26.8165 C 29.0264 28.2398 30.0649 29.5971 31.0905 30.8412 C 32.2563 32.2538 33.8108 33.3719 34.76 34.9382 C 35.0021 35.3375 34.9027 36.5515 34.2958 36.2936 C 31.924 35.1652 29.9589 33.2979 27.8551 31.7254 C 26.4539 30.678 24.6949 29.8652 23.8271 28.3522 C 23.3889 27.5781 23.7718 26.3989 24.3278 25.6887 Z " stroke-width="1.0000000111147251"/>
  <path id="ID0.20554033666849136" fill="#2BB14B" stroke="none" stroke-linecap="round" d="M 25.0585 28.6323 C 27.2365 30.1577 29.3507 31.8817 31.2982 33.5161 C 32.3184 34.3736 34.0155 34.9799 34.268 36.2003 C 34.4236 36.9671 33.2151 37.7891 32.3206 37.5633 C 28.4638 36.659 24.6089 35.2655 21.3977 33.138 C 20.5929 32.6048 20.9959 31.2136 21.3192 30.3404 C 21.7003 29.3211 22.2887 28.1533 23.2883 27.7428 C 23.9958 27.4705 24.5586 28.228 25.0585 28.6323 Z " stroke-width="0.9999999838422141"/>
  <path id="ID0.20554033666849136" fill="#186D2E" stroke="none" stroke-linecap="round" d="M 23.3314 29.8151 C 25.0779 30.4859 25.9791 32.3889 27.3854 33.5787 C 29.0581 34.9938 31.7626 35.6275 32.6828 37.653 C 33.1677 38.7239 31.6307 40.7124 30.4449 40.526 C 28.0576 40.0794 26.5295 37.6313 24.5669 36.2162 C 23.2385 35.2589 21.5615 34.6244 20.6095 33.297 C 20.1856 32.6973 20.5307 31.6584 21.0109 31.0871 C 21.641 30.3567 22.5092 29.4995 23.3314 29.8151 Z " stroke-width="0.9999999824340041"/>
  <path id="ID0.20554033666849136" fill="#6CB552" stroke="none" stroke-linecap="round" d="M 28.9333 40.6974 C 29.4394 41.36 29.2306 42.9865 28.5506 42.8225 C 26.554 42.3396 25.0267 40.5745 23.3743 39.4129 C 21.429 38.0465 19.0789 37.0389 17.6626 35.1281 C 17.215 34.4828 17.9239 33.2195 18.6769 32.9709 C 19.657 32.6484 20.8535 33.2578 21.6853 33.9102 C 24.3345 35.8811 26.9068 38.0464 28.9333 40.6974 Z " stroke-width="0.9999999999845954"/>
  <path id="ID0.20554033666849136" fill="#189364" stroke="none" stroke-linecap="round" d="M 28.6377 43.416 C 29.0957 43.9231 27.8014 44.5589 27.2781 44.3876 C 25.2764 43.6054 23.6832 42.0254 21.8743 40.8629 C 20.0936 39.7186 18.1195 38.7957 16.5668 37.365 C 16.1514 37.0182 16.0468 36.2927 16.3981 35.917 C 16.775 35.5204 17.5567 35.5871 18.0388 35.8019 C 19.5102 36.4566 20.7839 37.5617 22.0696 38.4782 C 24.2981 40.0655 26.8069 41.3871 28.6377 43.416 Z " stroke-width="0.9999999999845954"/>
  <path id="ID0.20554033666849136" fill="#186D2E" stroke="none" stroke-linecap="round" d="M 27.4884 44.4934 C 27.9237 45.0076 26.637 45.9559 25.9736 45.837 C 23.8004 45.4482 21.813 44.2632 19.8418 43.2518 C 18.054 42.3349 16.0349 41.6527 14.7297 40.1714 C 14.1968 39.5304 14.5713 38.3838 15.0481 37.717 C 15.3822 37.2504 16.2259 37.0489 16.7824 37.2647 C 18.3803 37.8901 19.7384 39.0841 21.1987 40.048 C 23.3052 41.4914 25.8175 42.5202 27.4884 44.4934 Z " stroke-width="0.9999999999845954"/>
  <path id="ID0.20554033666849136" fill="#189364" stroke="none" stroke-linecap="round" d="M 25.9116 45.7787 C 26.452 46.342 25.9352 47.3923 25.6229 48.1044 C 25.2125 49.0065 24.724 50.9079 23.7694 50.5488 C 21.5005 49.6852 20.5702 46.8052 18.6516 45.2935 C 17.3715 44.3509 15.4141 44.4345 14.3091 43.2915 C 13.6314 42.5916 13.4168 41.3521 13.7254 40.4167 C 14.0064 39.7522 15.0182 39.2272 15.7286 39.4421 C 17.3939 39.9447 18.6603 41.4332 20.1864 42.3764 C 22.0515 43.5443 24.3485 44.1519 25.9116 45.7787 Z " stroke-width="1.0000000424205515"/>
  <path id="ID0.20554033666849136" fill="#2BB14B" stroke="none" stroke-linecap="round" d="M 24.0378 49.8377 C 23.7651 50.5455 23.3589 51.9288 22.5893 51.5543 C 19.5096 50.0567 16.9211 47.6428 14.4833 45.2253 C 13.914 44.6061 14.2533 43.6634 14.776 43.6635 C 16.5153 43.6635 18.2118 44.439 19.7684 45.2184 C 21.2702 45.9709 22.6409 47.06 23.7724 48.3073 C 24.1195 48.6891 24.1968 49.3606 24.0378 49.8377 Z " stroke-width="0.9999999855495217"/>
  <path id="ID0.20554033666849136" fill="#6CB552" stroke="none" stroke-linecap="round" d="M 23.8669 51.5269 C 23.116 52.2831 21.8058 53.2001 20.8513 52.7178 C 18.5208 51.4432 16.9063 49.1012 15.3332 46.9635 C 14.9367 46.4248 14.9343 45.6285 15.328 45.3067 C 15.7144 44.9983 16.2535 45.2835 16.8091 45.5872 C 19.1164 46.932 21.4486 48.3132 23.4502 49.9845 C 23.9505 50.4029 24.2413 51.1501 23.8669 51.5269 Z " stroke-width="0.9999999816544347"/>
  <path id="ID0.20554033666849136" fill="#189364" stroke="none" stroke-linecap="round" d="M 13.9828 46.4941 C 13.9432 46.1202 14.5111 45.8908 15.0574 46.27 C 17.243 47.7855 19.6866 49.1423 21.4121 51.1168 C 21.939 51.7201 21.7775 52.8528 21.3505 53.5212 C 21.046 53.998 20.1933 54.2032 19.6994 53.926 C 18.1777 53.0739 16.7706 51.7996 15.6459 50.3744 C 14.8217 49.2654 14.2503 47.9125 13.9828 46.4941 Z " stroke-width="1.0000000111147251"/>
  <path id="ID0.20554033666849136" fill="#186D2E" stroke="none" stroke-linecap="round" d="M 13.6168 46.6253 C 14.3361 46.8993 14.5566 47.8845 15.0357 48.5092 C 15.7388 49.5536 16.3748 50.6579 17.1651 51.6362 C 17.8553 52.4908 19.5665 53.1423 19.3667 54.0944 C 19.1598 55.049 17.3017 55.9466 16.2825 55.4472 C 14.7212 54.6587 14.084 52.6627 13.3013 51.0694 C 12.801 50.0341 12.5057 48.8246 12.5662 47.7005 C 12.5929 47.2013 13.1611 46.4522 13.6168 46.6253 Z " stroke-width="1.0000000111147251"/>
  <path id="ID0.20554033666849136" fill="#2BB14B" stroke="none" stroke-linecap="round" d="M 13.2059 51.4432 C 13.7505 52.6544 15.1237 53.7532 14.9087 55.0245 C 14.7682 55.8585 13.2621 55.991 12.4659 55.7713 C 11.4151 55.4809 10.455 54.696 9.8977 53.738 C 9.4301 52.9324 9.4959 51.8136 9.8192 50.9404 C 10.2003 49.9211 10.9757 48.1996 11.7883 48.3428 C 12.6567 48.4983 12.712 50.4287 13.2059 51.4432 Z " stroke-width="0.9999999838422141"/>
  <path id="ID0.786614784039557" fill="#866E93" stroke="#000000" stroke-width="1.0000000240103846" stroke-linecap="round" d="M 53.1862 1.5734 C 53.8919 1.4646 54.8637 2.6931 55.097 3.5837 C 55.649 6.0878 55.8056 11.2273 55.432 11.2852 C 55.0596 11.344 52.801 6.6511 52.1471 4.1318 C 51.9987 3.2096 52.5122 1.6779 53.1862 1.5734 Z "/>
  <path id="ID0.786614784039557" fill="#866E93" stroke="#000000" stroke-width="1.0000000240103846" stroke-linecap="round" d="M 59.5192 0.8143 C 60.1501 0.9655 60.4653 2.3179 60.255 3.0734 C 59.3636 5.8705 56.6622 11.0507 56.3653 10.98 C 56.0694 10.9093 56.7431 5.1968 57.5659 2.4619 C 57.8422 1.6527 58.8588 0.6569 59.5192 0.8143 Z "/>
  <g id="ID0.9991875886917114">
    <path id="ID0.3849619720131159" fill="#FF0000" stroke="#000000" stroke-width="1.0250551133861843" d="M 55.7983 10.7033 C 57.9245 10.3449 59.9781 10.7705 61.5779 11.7472 C 63.1772 12.7245 64.3231 14.2527 64.6346 16.1004 C 64.9461 17.9482 64.3646 19.7676 63.1741 21.2153 C 61.9831 22.6625 60.1825 23.7379 58.0563 24.0963 C 55.9301 24.4548 53.8765 24.0292 52.2768 23.0525 C 50.6775 22.0752 49.5316 20.547 49.2201 18.6992 C 48.9085 16.8515 49.4901 15.032 50.6805 13.5844 C 51.8716 12.1372 53.6721 11.0618 55.7983 10.7033 Z "/>
    <path id="ID0.257101490162313" fill="#FFFFFF" stroke="#000000" stroke-width="0.9761317661782946" d="M 58.083 8.7946 C 59.2515 7.8785 61.2345 8.8995 62.462 9.7279 C 63.3749 10.3939 63.6574 11.7404 63.8413 12.8137 C 64.0345 13.9367 64.0272 15.145 63.5793 16.224 C 63.2353 17.0515 62.4876 17.907 61.6317 18.0513 C 60.7759 18.1956 59.9063 17.7689 59.1927 16.9636 C 58.4791 16.1578 57.8685 14.8156 57.6907 13.6011 C 57.4633 12.0427 56.8543 9.7582 58.083 8.7946 Z "/>
    <path id="ID0.13991053588688374" fill="#000000" stroke="none" d="M 61.649 13.7361 C 61.9451 13.6862 62.2374 13.7798 62.4692 13.971 C 62.7017 14.1626 62.8741 14.4516 62.9317 14.7932 C 62.9893 15.1349 62.9211 15.4645 62.7644 15.7217 C 62.6081 15.9783 62.3626 16.1626 62.0665 16.2125 C 61.7703 16.2625 61.478 16.1688 61.2462 15.9776 C 61.0138 15.786 60.8414 15.497 60.7838 15.1554 C 60.7262 14.8137 60.7943 14.4841 60.951 14.2269 C 61.1074 13.9703 61.3528 13.786 61.649 13.7361 Z " stroke-width="0.5125275566930921"/>
    <path id="ID0.257101490162313" fill="#FFFFFF" stroke="#000000" stroke-width="1.0250551133861843" d="M 53.0653 10.4114 C 54.167 9.223 56.1118 8.1617 57.5673 8.7667 C 58.994 9.4201 59.0379 11.629 59.2901 13.1281 C 59.503 14.3942 59.3814 15.9142 58.9447 16.9525 C 58.5079 17.9903 57.7846 18.7095 56.8784 18.8622 C 55.9722 19.015 55.0531 18.5728 54.3002 17.7356 C 53.5472 16.8978 52.9539 15.6231 52.72 14.2358 C 52.4861 12.8485 52.2098 11.3576 53.0653 10.4114 Z "/>
    <path id="ID0.13991053588688374" fill="#000000" stroke="none" d="M 56.799 14.4861 C 57.0951 14.4362 57.3874 14.5298 57.6192 14.721 C 57.8517 14.9126 58.0241 15.2016 58.0817 15.5432 C 58.1393 15.8849 58.0711 16.2145 57.9144 16.4717 C 57.7581 16.7283 57.5126 16.9126 57.2165 16.9625 C 56.9203 17.0125 56.628 16.9188 56.3962 16.7276 C 56.1638 16.536 55.9914 16.247 55.9338 15.9054 C 55.8762 15.5637 55.9443 15.2341 56.101 14.9769 C 56.2574 14.7203 56.5028 14.536 56.799 14.4861 Z " stroke-width="0.5125275566930921"/>
    <path id="ID0.5298761413432658" fill="none" stroke="#000000" stroke-width="1.0250551133861843" stroke-linecap="round" d="M 56.6737 20.7217 C 57.9697 21.3119 57.9789 21.3915 58.6888 21.4215 C 59.0521 21.4335 59.6357 20.872 59.6357 20.872 "/>
  </g>
  <path id="ID0.44839267572388053" fill="#8C5340" stroke="none" stroke-linecap="round" d="M 47.6912 28.1277 C 48.0345 28.1827 48.1541 28.7509 48.4996 28.8804 C 48.8126 28.9585 49.1971 28.5349 49.4664 28.6857 C 49.6633 28.8007 49.6956 29.1905 49.5726 29.3289 C 49.2299 29.6868 48.723 29.9301 48.3001 29.9316 C 47.9952 29.9255 47.7445 29.6291 47.5507 29.3947 C 47.3694 29.1758 47.2356 28.8781 47.2715 28.6003 C 47.3006 28.3795 47.4841 28.0957 47.6912 28.1277 Z " stroke-width="1.0000000111147251"/>
  <path id="ID0.44839267572388053" fill="#8C5340" stroke="none" stroke-linecap="round" d="M 49.8912 26.4277 C 50.2345 26.4827 50.3541 27.0509 50.6996 27.1804 C 51.0126 27.2585 51.3971 26.8349 51.6664 26.9857 C 51.8633 27.1007 51.8956 27.4905 51.7726 27.6289 C 51.4299 27.9868 50.923 28.2301 50.5001 28.2316 C 50.1952 28.2255 49.9445 27.9291 49.7507 27.6947 C 49.5694 27.4758 49.4356 27.1781 49.4715 26.9003 C 49.5006 26.6795 49.6841 26.3957 49.8912 26.4277 Z " stroke-width="1.0000000111147251"/>
  <path id="ID0.44839267572388053" fill="#8C5340" stroke="none" stroke-linecap="round" d="M 51.9412 24.7777 C 52.2845 24.8327 52.4041 25.4009 52.7496 25.5304 C 53.0626 25.6085 53.4471 25.1849 53.7164 25.3357 C 53.9133 25.4507 53.9456 25.8405 53.8226 25.9789 C 53.4799 26.3368 52.973 26.5801 52.5501 26.5816 C 52.2452 26.5755 51.9945 26.2791 51.8007 26.0447 C 51.6194 25.8258 51.4856 25.5281 51.5215 25.2503 C 51.5506 25.0295 51.7341 24.7457 51.9412 24.7777 Z " stroke-width="1.0000000111147251"/>
  <path id="ID0.44839267572388053" fill="#8C5340" stroke="none" stroke-linecap="round" d="M 55.1412 22.6777 C 55.4845 22.7327 55.6041 23.3009 55.9496 23.4304 C 56.2626 23.5085 56.6471 23.0849 56.9164 23.2357 C 57.1133 23.3507 57.1456 23.7405 57.0226 23.8789 C 56.6799 24.2368 56.173 24.4801 55.7501 24.4816 C 55.4452 24.4755 55.1945 24.1791 55.0007 23.9447 C 54.8194 23.7258 54.6856 23.4281 54.7215 23.1503 C 54.7506 22.9295 54.9341 22.6457 55.1412 22.6777 Z " stroke-width="1.0000000111147251"/>
  <path id="ID0.44839267572388053" fill="#8C5340" stroke="none" stroke-linecap="round" d="M 22.0912 52.2777 C 22.4345 52.3327 22.5541 52.9009 22.8996 53.0304 C 23.2126 53.1085 23.5971 52.6849 23.8664 52.8357 C 24.0633 52.9507 24.0956 53.3405 23.9726 53.4789 C 23.6299 53.8368 23.123 54.0801 22.7001 54.0816 C 22.3952 54.0755 22.1445 53.7791 21.9507 53.5447 C 21.7694 53.3258 21.6356 53.0281 21.6715 52.7503 C 21.7006 52.5295 21.8841 52.2457 22.0912 52.2777 Z " stroke-width="1.0000000111147251"/>
  <path id="ID0.44839267572388053" fill="#8C5340" stroke="none" stroke-linecap="round" d="M 18.5912 54.7777 C 18.9345 54.8327 19.0541 55.4009 19.3996 55.5304 C 19.7126 55.6085 20.0971 55.1849 20.3664 55.3357 C 20.5633 55.4507 20.5956 55.8405 20.4726 55.9789 C 20.1299 56.3368 19.623 56.5801 19.2001 56.5816 C 18.8952 56.5755 18.6445 56.2791 18.4507 56.0447 C 18.2694 55.8258 18.1356 55.5281 18.1715 55.2503 C 18.2006 55.0295 18.3841 54.7457 18.5912 54.7777 Z " stroke-width="1.0000000111147251"/>
</svg>