<svg version="1.1" xmlns="http://www.w3.org/2000/svg" xmlns:xlink="http://www.w3.org/1999/xlink" width="67.23641" height="67.25422" viewBox="0,0,67.23641,67.25422"><g transform="translate(-204.1679,-142.33208)"><g data-paper-data="{&quot;isPaintingLayer&quot;:true}" fill="none" fill-rule="nonzero" stroke="none" stroke-width="none" stroke-linecap="none" stroke-linejoin="miter" stroke-miterlimit="10" stroke-dasharray="" stroke-dashoffset="0" font-family="none" font-weight="none" font-size="none" text-anchor="none" style="mix-blend-mode: normal"><path d="M261.35427,164.92673c1.073,0.813 3.348,0.732 3.467,2.117c1.313,1.343 4.506,0.8 5.769,1.499c-1.781,1.024 -2.429,2.775 -2.479,4.474c-4.256,-3.613 -2.186,-1.533 -4.678,-3.38c-1.735,0.344 -4.422,-0.595 -5.439,-1.201c-3.079,-1.837 -5.378,-6.358 -4.264,-7.831c0.924,-1.221 5.29,-0.463 7.624,4.322z" fill="#03b000" stroke="#000000" stroke-width="0.8" stroke-linecap="butt"/><path d="M243.28027,179.55273c-1.324,2.416 -3.111,4.173 -4.667,4.784c-0.697,1.79 -2.166,4.053 -4.176,6.25c-1.558,1.704 -3.184,3.087 -4.639,4.023c0.001,0 0.002,0.001 0.002,0.001c0.902,-0.412 -1.626,1.79 -2.579,5.315c-0.088,0.323 -1.325,10.829 -1.55,9.06c-0.499,-4.406 -3.695,-1.562 -3.458,-2.092c4.212,-9.465 1.149,-11.699 3.261,-14.808c0.07,-0.102 0.165,-0.16 0.271,-0.196c0.769,-1.683 2.134,-3.699 3.928,-5.661c1.961,-2.143 4.027,-3.778 5.726,-4.649c0.006,-1.551 0.549,-3.518 1.616,-5.464c1.974,-3.601 4.977,-5.751 6.708,-4.803c1.73,0.95 1.531,4.638 -0.443,8.24z" fill="#03b000" stroke="#000000" stroke-width="0.8" stroke-linecap="butt"/><path d="M268.53727,156.86973c0,2.323 -1.921,1.156 -3.674,2.68c-7.576,6.939 -5.847,9.006 -13.951,15.32c-3.432,2.674 -4.792,4.719 -13.563,6.041c-1.459,0.22 -2.44,-0.219 -3.113,-0.993c-0.22,0.224 -0.447,0.445 -0.689,0.662c-2.052,1.839 -4.32,2.903 -5.991,2.964c-1.252,1.457 -3.39,3.104 -6.015,4.509c-2.035,1.09 -4.028,1.856 -5.711,2.255c0.001,0 0.001,0.001 0.001,0.002c0.988,-0.088 -2.128,1.148 -4.197,4.157c-0.19,0.275 -4.845,9.774 -4.47,8.031c0.992,-4.322 -2.967,-2.7 -2.568,-3.122c7.117,-7.53 4.968,-10.653 7.993,-12.885c0.1,-0.074 0.209,-0.096 0.321,-0.095c1.284,-1.333 3.24,-2.78 5.584,-4.035c2.561,-1.371 5.053,-2.227 6.945,-2.485c0.52,-1.461 1.686,-3.136 3.338,-4.617c1.355,-1.214 2.805,-2.091 4.116,-2.566c0.007,-0.188 -0.031,-0.367 0.018,-0.51c4.708,-13.667 14.829,-22.535 18.255,-24.532c2.248,-1.312 6.182,-1.718 7.667,-1.169c2.507,0.927 3.927,2.803 5.681,4.326c1.753,1.522 4.023,3.739 4.023,6.062z" fill="#03b000" stroke="#000000" stroke-width="0.8" stroke-linecap="butt"/><path d="M260.00027,143.10873c1.377,-0.747 3.256,0.66 4.387,1.737c0.832,0.852 0.89,2.3 0.893,3.447c0.004,1.201 -0.215,2.455 -0.87,3.498c-0.502,0.8 -1.429,1.558 -2.343,1.558c-0.915,0 -1.744,-0.596 -2.345,-1.558c-0.599,-0.962 -0.999,-2.464 -0.971,-3.757c0.037,-1.658 -0.196,-4.138 1.249,-4.925z" id="ID0.257101490162313_9_" fill="#ffffff" stroke="#000000" stroke-width="0.6802" stroke-linecap="butt"/><path d="M262.87027,148.93173c0.316,0 0.604,0.148 0.811,0.388c0.208,0.24 0.336,0.57 0.336,0.937c0,0.364 -0.129,0.695 -0.336,0.935c-0.207,0.24 -0.495,0.388 -0.811,0.388c-0.316,0 -0.604,-0.148 -0.811,-0.388c-0.208,-0.239 -0.337,-0.57 -0.337,-0.935c0,-0.366 0.129,-0.696 0.337,-0.937c0.206,-0.24 0.494,-0.388 0.811,-0.388z" id="ID0.13991053588688374_9_" fill="#000000" stroke="none" stroke-width="1" stroke-linecap="butt"/><path d="M254.56327,143.98173c1.354,-1.04 3.557,-1.807 4.965,-0.921c1.368,0.929 1.026,3.231 1.026,4.834c0,1.353 -0.393,2.911 -1.029,3.913c-0.635,1.002 -1.513,1.623 -2.481,1.623c-0.968,0 -1.847,-0.621 -2.481,-1.623c-0.636,-1.002 -1.03,-2.431 -1.03,-3.913c0,-1.482 -0.026,-3.08 1.03,-3.913z" id="ID0.257101490162313_8_" fill="#ffffff" stroke="#000000" stroke-width="0.6802" stroke-linecap="butt"/><path d="M257.66527,148.89473c0.317,0 0.604,0.148 0.812,0.388c0.208,0.24 0.336,0.57 0.336,0.936c0,0.366 -0.129,0.694 -0.336,0.934c-0.208,0.239 -0.494,0.388 -0.812,0.388c-0.316,0 -0.604,-0.148 -0.811,-0.388c-0.208,-0.24 -0.336,-0.57 -0.336,-0.936c0,-0.366 0.129,-0.695 0.336,-0.936c0.208,-0.238 0.495,-0.386 0.811,-0.386z" id="ID0.13991053588688374_8_" fill="#000000" stroke="none" stroke-width="1" stroke-linecap="butt"/><path d="M266.14127,158.82773c0,0 -2.633,0.987 -4.563,0.982c-4.535,0.01 -8.415,-2.285 -9.98,-4.002" id="ID0.5298761413432658_4_" fill="none" stroke="#000000" stroke-width="0.8" stroke-linecap="round"/><path d="M266.14327,158.82673c-0.417,0.142 -0.853,0.352 -1.28,0.723c-7.576,6.939 -5.847,8.772 -13.951,15.32c-3.384,2.734 -4.446,4.719 -13.563,6.041c-0.831,0.121 -1.499,-0.377 -2.055,-0.721c8.194,-3.388 11.409,-7.424 15.025,-12.945c1.608,-2.455 2.794,-6.493 5.387,-8.533c0.001,0 0.003,0.001 0.004,0.001c1.337,0.699 3.128,1.103 5.869,1.097c1.929,0.004 4.563,-0.983 4.564,-0.983z" fill="#54e851" stroke="#000000" stroke-width="0.8" stroke-linecap="round"/><path d="M238.19227,165.87773c0,-1.10457 0.89543,-2 2,-2c1.10457,0 2,0.89543 2,2c0,1.10457 -0.89543,2 -2,2c-1.10457,0 -2,-0.89543 -2,-2z" fill="#026b00" stroke="none" stroke-width="1" stroke-linecap="butt"/><path d="M243.44227,162.08873c0,-1.31223 1.06377,-2.376 2.376,-2.376c1.31223,0 2.376,1.06377 2.376,2.376c0,1.31223 -1.06377,2.376 -2.376,2.376c-1.31223,0 -2.376,-1.06377 -2.376,-2.376z" fill="#026b00" stroke="none" stroke-width="1" stroke-linecap="butt"/><path d="M244.28927,156.43173c0,-1.10457 0.89543,-2 2,-2c1.10457,0 2,0.89543 2,2c0,1.10457 -0.89543,2 -2,2c-1.10457,0 -2,-0.89543 -2,-2z" fill="#026b00" stroke="none" stroke-width="1" stroke-linecap="butt"/><path d="M248.95527,153.55873c0,-0.74061 0.60039,-1.341 1.341,-1.341c0.74061,0 1.341,0.60039 1.341,1.341c0,0.74061 -0.60039,1.341 -1.341,1.341c-0.74061,0 -1.341,-0.60039 -1.341,-1.341z" fill="#026b00" stroke="none" stroke-width="1" stroke-linecap="butt"/><path d="M254.04927,170.79373c0.388,1.289 2.273,2.565 1.552,3.754c0.27,1.859 3.169,3.303 3.777,4.611c-2.043,-0.222 -3.598,0.811 -4.639,2.153c-1.308,-5.428 -0.862,-2.526 -1.787,-5.488c-1.605,-0.744 -3.223,-3.086 -3.687,-4.176c-1.404,-3.299 -0.597,-8.307 1.171,-8.84c1.467,-0.441 4.547,2.745 3.613,7.986z" fill="#03b000" stroke="#000000" stroke-width="0.8" stroke-linecap="butt"/></g></g></svg>