<svg version="1.1" xmlns="http://www.w3.org/2000/svg" xmlns:xlink="http://www.w3.org/1999/xlink" width="39.33554" height="31.94241" viewBox="0,0,39.33554,31.94241"><g transform="translate(-218.3546,-133.33608)"><g data-paper-data="{&quot;isPaintingLayer&quot;:true}" fill-rule="nonzero" stroke-linejoin="miter" stroke-miterlimit="10" stroke-dasharray="" stroke-dashoffset="0" style="mix-blend-mode: normal"><path d="M231.33959,162.0915l-0.103,-12.06516l16.90591,-1.40418l1.978,12.06516z" fill="#ff0000" stroke="#000000" stroke-width="1.45293" stroke-linecap="butt"/><path d="M224.83439,164.49989l-0.34794,-4.65368l32.07714,-2.39829l0.34794,4.65368z" fill="#ff0000" stroke="#000000" stroke-width="1.45293" stroke-linecap="butt"/><path d="M231.49079,152.01037c0,0 -2.52122,-3.77176 -3.99186,-6.12419c-3.64149,-5.82491 -8.04563,-11.88826 -8.04563,-11.88826c0,0 7.89604,1.12667 13.14233,8.58175c2.94314,4.18226 3.66018,6.56151 3.66018,6.56151l-0.72733,3.85602z" fill="#455cc6" stroke="#101d55" stroke-width="1" stroke-linecap="butt"/><path d="M220.61547,134.80661c0,0 2.26401,0.84587 8.39052,8.39601c3.25532,4.01176 9.07472,14.39209 9.07472,14.39209" fill="none" stroke="#1a2d86" stroke-width="1" stroke-linecap="round"/><path d="M231.14017,156.57941c0,0 6.10888,-0.50744 9.17181,-0.76188c3.07429,-0.25537 9.23995,-0.76754 9.23995,-0.76754" fill="none" stroke="#d30000" stroke-width="2" stroke-linecap="round"/></g></g></svg>