<svg xmlns="http://www.w3.org/2000/svg" xmlns:xlink="http://www.w3.org/1999/xlink" version="1.1" width="27.684763431549072" height="36.10580492019653" viewBox="0.08112019300460815 0.851227879524231 27.684763431549072 36.10580492019653">
  <defs>
    <radialGradient id="grad_1" cx="0.4416" cy="0.4515" r="0.72592">
      <stop offset="0" stop-color="#990000" stop-opacity="1"/>
      <stop offset="1" stop-color="#660000" stop-opacity="1"/>
    </radialGradient>
  <radialGradient id="grad_1-.7264654636383057,0,0,0.7264654636383057,-162.6,-92.85" cx="11.7568" cy="25.7377" r="15.5128" gradientUnits="userSpaceOnUse">
      <stop offset="0" stop-color="#990000" stop-opacity="1"/>
      <stop offset="1" stop-color="#660000" stop-opacity="1"/>
    </radialGradient></defs>
  <!-- Exported by Scratch - http://scratch.mit.edu/ -->
  <path id="ID0.4909940124489367" fill="url(#grad_1-.7264654636383057,0,0,0.7264654636383057,-162.6,-92.85)" stroke="#000000" stroke-width="1.4529309272766113" stroke-linecap="round" d="M 13.2046 17.936 C 16.6118 17.936 19.6992 19.564 21.9353 22.1945 C 24.1706 24.8243 25.9156 28.8613 25.5546 32.4653 C 25.2545 34.4166 22.5615 34.49 20.8325 34.6447 C 15.8308 35.4235 10.6402 35.3879 5.5768 34.6447 C 3.8412 34.6287 1.0719 34.3265 0.8547 32.4653 C 0.5002 28.8664 2.1892 24.8824 4.474 22.1945 C 6.6483 19.6366 9.7975 17.936 13.2046 17.936 Z "/>
  <path id="ID0.3849619720131159" fill="#FF0000" stroke="#000000" stroke-width="1.4529309272766113" d="M 15.1833 4.4478 C 18.2396 4.4478 21.0096 5.5266 23.0154 7.2687 C 25.0204 9.0115 26.2619 11.4175 26.2619 14.0735 C 26.2619 16.7294 25.0204 19.1355 23.0154 20.8783 C 21.0096 22.6203 18.2396 23.6991 15.1833 23.6991 C 12.1271 23.6991 9.3571 22.6203 7.3513 20.8783 C 5.3463 19.1355 4.1047 16.7294 4.1047 14.0735 C 4.1047 11.4175 5.3463 9.0115 7.3513 7.2687 C 9.3571 5.5266 12.1271 4.4478 15.1833 4.4478 Z "/>
  <path id="ID0.257101490162313" fill="#FFFFFF" stroke="#000000" stroke-width="1.3835861632155322" d="M 18.7589 2.1638 C 20.608 1.1588 23.139 3.053 24.6594 4.5002 C 25.7785 5.646 25.856 7.5947 25.8601 9.1381 C 25.8656 10.7534 25.5706 12.4404 24.6903 13.843 C 24.0145 14.9184 22.7678 15.9381 21.5376 15.9381 C 20.3075 15.9381 19.1925 15.1367 18.385 13.843 C 17.5774 12.5485 17.0402 10.5288 17.078 8.7894 C 17.1274 6.5576 16.8145 3.2211 18.7589 2.1638 Z "/>
  <path id="ID0.13991053588688374" fill="#000000" stroke="none" d="M 22.6176 9.9954 C 23.0433 9.9954 23.4298 10.1952 23.7087 10.517 C 23.9884 10.8395 24.1613 11.2841 24.1613 11.7752 C 24.1613 12.2663 23.9884 12.7109 23.7087 13.0335 C 23.4298 13.3553 23.0433 13.5551 22.6176 13.5551 C 22.1919 13.5551 21.8054 13.3553 21.5264 13.0335 C 21.2467 12.7109 21.0738 12.2663 21.0738 11.7752 C 21.0738 11.2841 21.2467 10.8395 21.5264 10.517 C 21.8054 10.1952 22.1919 9.9954 22.6176 9.9954 Z " stroke-width="0.7264654636383057"/>
  <path id="ID0.257101490162313" fill="#FFFFFF" stroke="#000000" stroke-width="1.4529309272766113" d="M 11.4429 3.3375 C 13.2627 1.9361 16.231 0.9111 18.1228 2.0996 C 19.9629 3.3491 19.5038 6.4467 19.503 8.6014 C 19.5023 10.4212 18.9742 12.5171 18.1191 13.8654 C 17.2641 15.213 16.0836 16.0477 14.781 16.0477 C 13.4785 16.0477 12.298 15.213 11.4429 13.8654 C 10.5879 12.5171 10.059 10.5956 10.059 8.6014 C 10.059 6.6073 10.0241 4.4584 11.4429 3.3375 Z "/>
  <path id="ID0.13991053588688374" fill="#000000" stroke="none" d="M 15.6176 9.9454 C 16.0433 9.9454 16.4298 10.1452 16.7087 10.467 C 16.9884 10.7895 17.1613 11.2341 17.1613 11.7252 C 17.1613 12.2163 16.9884 12.6609 16.7087 12.9835 C 16.4298 13.3053 16.0433 13.5051 15.6176 13.5051 C 15.1919 13.5051 14.8054 13.3053 14.5264 12.9835 C 14.2467 12.6609 14.0738 12.2163 14.0738 11.7252 C 14.0738 11.2341 14.2467 10.7895 14.5264 10.467 C 14.8054 10.1452 15.1919 9.9454 15.6176 9.9454 Z " stroke-width="0.7264654636383057"/>
  <path id="ID0.5298761413432658" fill="none" stroke="#000000" stroke-width="1.4529309272766113" stroke-linecap="round" d="M 14.0679 18.5677 C 15.7402 19.6981 15.7344 19.8114 16.7195 20.0206 C 17.2244 20.1231 18.1724 19.4758 18.1724 19.4758 "/>
  <path id="ID0.4909940124489367" fill="#FF0000" stroke="#000000" stroke-width="1.3285603471918477" stroke-linecap="round" d="M 20.6966 27.2491 C 22.4397 27.2491 24.0194 27.8927 25.1634 28.9327 C 26.3071 29.9724 27.1999 31.5684 27.0151 32.9933 C 26.8616 33.7647 25.4838 33.7937 24.5992 33.8549 C 22.0402 34.1628 19.3845 34.1487 16.7939 33.8549 C 15.906 33.8486 14.4891 33.7291 14.378 32.9933 C 14.1966 31.5704 15.0608 29.9954 16.2297 28.9327 C 17.3422 27.9215 18.9534 27.2491 20.6966 27.2491 Z "/>
  <path id="ID0.4909940124489367" fill="#FF0000" stroke="#000000" stroke-width="1.3285603471918477" stroke-linecap="round" d="M 8.8966 29.3991 C 10.6397 29.3991 12.2194 30.0427 13.3634 31.0827 C 14.5071 32.1224 15.3999 33.7184 15.2151 35.1433 C 15.0616 35.9147 13.6838 35.9437 12.7992 36.0049 C 10.2402 36.3128 7.5845 36.2987 4.9939 36.0049 C 4.106 35.9986 2.6891 35.8791 2.578 35.1433 C 2.3966 33.7204 3.2608 32.1454 4.4297 31.0827 C 5.5422 30.0715 7.1534 29.3991 8.8966 29.3991 Z "/>
</svg>