<svg version="1.1" xmlns="http://www.w3.org/2000/svg" xmlns:xlink="http://www.w3.org/1999/xlink" width="99.33" height="37.23602" viewBox="0,0,99.33,37.23602"><defs><radialGradient cx="233.6854" cy="172.4654" r="17.28727" fx="241.30667" fy="164.02217" gradientUnits="userSpaceOnUse" id="color-1"><stop offset="0.15" stop-color="#990000"/><stop offset="0.42" stop-color="#8d0000"/><stop offset="0.89" stop-color="#6e0000"/><stop offset="1" stop-color="#660000"/></radialGradient></defs><g transform="translate(-213.585,-160.40271)"><g data-paper-data="{&quot;isPaintingLayer&quot;:true}" fill="none" fill-rule="nonzero" stroke="none" stroke-width="none" stroke-linecap="none" stroke-linejoin="miter" stroke-miterlimit="10" stroke-dasharray="" stroke-dashoffset="0" font-family="none" font-weight="none" font-size="none" text-anchor="none" style="mix-blend-mode: normal"><path d="M287.075,191.31c-2.77,1.77 -38,3 -50.45,3c-12.45,0 -22.54,0.09 -22.54,-2.24c0,-2.33 15.13,-4.22 27.5,-5.21c4.46,-0.35 34.5,-0.83 37.75,0.05c5.94,1.61 9.25,3.43 7.74,4.4z" fill="#ff0000" stroke="#000000" stroke-width="1" stroke-linecap="butt"/><path d="M249.975,172.46c1.46,8.4 2.4,15.26 -15.38,18.36c-8.88,1.58 -15.29,-4.35 -16.75,-12.75c-1.46,-8.4 3.74,-15.31 12.59,-16.86c8.85,-1.55 18.07,2.85 19.54,11.25z" fill="url(#color-1)" stroke="#000000" stroke-width="1" stroke-linecap="round"/><path d="M290.915,183.15c1.38758,2.07967 1.98036,4.58926 1.67,7.07c-0.22093,2.30047 -1.46998,4.37776 -3.39825,5.65163c-1.92827,1.27386 -4.32906,1.60774 -6.53175,0.90837c-4.89496,-1.51803 -8.03538,-6.28309 -7.5,-11.38c0.22093,-2.30047 1.46998,-4.37776 3.39825,-5.65163c1.92827,-1.27386 4.32906,-1.60774 6.53175,-0.90837c2.39701,0.69166 4.4659,2.22116 5.83,4.31z" id="ID0.3849619720131159" fill="#ff0000" stroke="#000000" stroke-width="1" stroke-linecap="butt"/><path d="M281.385,192.57c0,0 -0.93,-0.38 -1.09,-0.8c-0.33,-0.82 -0.22,-0.87 -0.22,-2.64" id="ID0.5298761413432658" fill="none" stroke="#000000" stroke-width="1" stroke-linecap="round"/><path d="M302.065,177.89c-2.71,3.29 -10.23,4.74 -13.7,6.54" fill="#ff0000" stroke="none" stroke-width="1" stroke-linecap="butt"/><path d="M302.065,177.89c-2.71,3.29 -10.23,4.74 -13.7,6.54" fill="none" stroke="#000000" stroke-width="3.5" stroke-linecap="butt"/><path d="M302.065,177.89c-2.71,3.29 -10.23,4.74 -13.7,6.54" fill="none" stroke="#ff0000" stroke-width="1.5" stroke-linecap="butt"/><path d="M290.465,187.62c3.48,-1.8 11.93,-3.54 14.8,-4.87" fill="#ff0000" stroke="none" stroke-width="1" stroke-linecap="butt"/><path d="M290.465,187.62c3.48,-1.8 11.93,-3.54 14.8,-4.87" fill="none" stroke="#000000" stroke-width="3.5" stroke-linecap="butt"/><path d="M290.465,187.62c3.48,-1.8 11.93,-3.54 14.8,-4.87" fill="none" stroke="#ff0000" stroke-width="1.5" stroke-linecap="butt"/><path d="M310.215,176.09c1.58,0.37 2.07,2.75 2.2,4.35c0.06,1.23 -0.89,2.39 -1.67,3.28c-0.80584,0.97891 -1.87437,1.70746 -3.08,2.1c-0.96519,0.33731 -2.03382,0.18837 -2.87,-0.4c-0.71767,-0.74476 -1.0011,-1.80667 -0.75,-2.81c0.2811,-1.33177 0.91288,-2.56426 1.83,-3.57c1.17,-1.26 2.71,-3.33 4.34,-2.95z" id="ID0.257101490162313" fill="#ffffff" stroke="#000000" stroke-width="1" stroke-linecap="butt"/><path d="M308.445,182.56c0.23448,0.2199 0.36521,0.52858 0.36,0.85c0.00069,0.37058 -0.1386,0.72774 -0.39,1c-0.23036,0.26743 -0.55036,0.44165 -0.9,0.49c-0.31984,0.05125 -0.64579,-0.04376 -0.88799,-0.25884c-0.2422,-0.21508 -0.37509,-0.52751 -0.36201,-0.85116c-0.00441,-0.3694 0.13138,-0.72675 0.38,-1c0.23208,-0.26529 0.55122,-0.43905 0.9,-0.49c0.32349,-0.04763 0.65175,0.0472 0.9,0.26z" id="ID0.13991053588688374" fill="#000000" stroke="none" stroke-width="1" stroke-linecap="butt"/><path d="M304.105,171.87c1.76,0.12 4,1 4.47,2.69c0.47,1.69 -1.43,3.21 -2.53,4.44c-0.9301,1.06317 -2.12329,1.86323 -3.46,2.32c-1.01031,0.38095 -2.14592,0.21061 -3,-0.45c-0.75971,-0.7784 -1.06569,-1.8928 -0.81,-2.95c0.25388,-1.38448 0.87955,-2.67383 1.81,-3.73c1.06,-1.15 2.13,-2.4 3.52,-2.32z" id="ID0.257101490162313-2" fill="#ffffff" stroke="#000000" stroke-width="1" stroke-linecap="butt"/><path d="M303.135,177.79c0.23603,0.22299 0.36679,0.53537 0.36,0.86c-0.02524,0.7252 -0.56276,1.32991 -1.28,1.44c-0.32209,0.05171 -0.65072,-0.03957 -0.9,-0.25c-0.23603,-0.22299 -0.36679,-0.53537 -0.36,-0.86c0.01056,-0.35159 0.14517,-0.68811 0.38,-0.95c0.23402,-0.2681 0.55735,-0.4422 0.91,-0.49c0.31891,-0.05005 0.6438,0.04122 0.89,0.25z" id="ID0.13991053588688374-2" fill="#000000" stroke="none" stroke-width="1" stroke-linecap="butt"/><path d="M234.565,178.95c-0.69,2.9 -3.53,3.86 -5.26,2c-1.73,-1.86 -1.37,-4.55 -0.88,-6.39c0.35,-1.24 1.75,-2.89 4.65,-3c1.15796,-0.12525 2.3292,-0.0268 3.45,0.29c1.85927,0.7919 3.23992,2.40943 3.73,4.37c0.47347,1.93199 0.61883,3.92982 0.43,5.91c-0.05169,2.7302 -0.88455,5.38842 -2.4,7.66" fill="none" stroke="#000000" stroke-width="1" stroke-linecap="round"/></g></g></svg>