<svg xmlns="http://www.w3.org/2000/svg" xmlns:xlink="http://www.w3.org/1999/xlink" version="1.1" width="74.47817659378052" height="70.40992403030396" viewBox="0.0036262869834899902 1.4639036655426025 74.47817659378052 70.40992403030396">
  <!-- Exported by Scratch - http://scratch.mit.edu/ -->
  <g id="ID0.8807225120253861">
    <path id="ID0.9395314259454608" fill="#99B2FF" stroke="#000000" stroke-linecap="round" d="M 45.4883 61.3408 C 47.7192 62.9293 50.889 63.5911 53.0778 65.4546 C 54.9128 67.0198 56.3097 72.0399 57.0361 71.0091 C 58.0909 69.8277 56.8108 64.2514 56.9101 60.6944 C 57.0598 55.472 59.3877 50.0995 58.0057 45.0423 C 57.1525 41.9387 53.8605 39.7614 50.8028 38.5926 C 47.9419 37.4984 44.6082 37.9564 41.6053 38.6529 C 40.5736 38.814 40.0676 40.0165 39.5059 40.994 C 38.8389 42.1542 38.0267 43.361 38.0359 44.7348 C 38.0603 48.3907 38.014 52.5062 39.4754 55.6203 C 40.7767 58.3775 43.2361 59.7391 45.4883 61.3408 Z " stroke-width="0.4983599057083078"/>
    <path id="ID0.9395314259454608" fill="#99FFFF" stroke="#000000" stroke-linecap="round" d="M 56.2312 11.2975 C 62.0233 10.8547 72.2951 9.43 73.5311 15.0069 C 75.1818 23.3596 67.3545 32.0246 62.0046 39.1567 C 59.4828 42.5206 54.9727 44.2668 50.7985 44.6693 C 47.5439 45.1526 44.1901 43.4837 41.3798 41.6147 C 40.1011 40.766 39.7804 39.0598 39.3946 37.4519 C 38.9361 35.5435 38.2926 33.5094 38.8739 31.58 C 40.421 26.4459 42.0587 20.6359 45.4036 16.8588 C 48.3755 13.5176 52.1902 11.6063 56.2312 11.2975 Z " stroke-width="0.7309278515060514"/>
    <path id="ID0.996023275423795" fill="#FFFF00" stroke="none" d="M 53.7549 47.1733 C 53.0214 47.0499 52.2928 47.3191 51.7081 47.8541 C 51.123 48.389 50.6822 49.1896 50.5243 50.1283 C 50.3664 51.0669 50.521 51.9677 50.8988 52.6646 C 51.2763 53.3614 51.8767 53.8542 52.6103 53.9776 C 53.3438 54.101 54.0724 53.8318 54.6572 53.2968 C 55.2422 52.7619 55.6831 51.9613 55.8409 51.0226 C 55.9988 50.084 55.8442 49.1832 55.4664 48.4863 C 55.0889 47.7895 54.4885 47.2967 53.7549 47.1733 Z " stroke-width="0.35577008821065603"/>
    <path id="ID0.6398694114759564" fill="#FFFF00" stroke="none" d="M 65.6139 15.1577 C 64.8768 14.7804 64.0497 14.7502 63.3085 15.0066 C 62.5672 15.263 61.9122 15.8051 61.5194 16.5724 C 61.1267 17.3397 61.0699 18.188 61.2953 18.9393 C 61.5208 19.6905 62.0289 20.3438 62.7659 20.7211 C 63.503 21.0984 64.3301 21.1286 65.0713 20.8722 C 65.8126 20.6158 66.4676 20.0737 66.8603 19.3064 C 67.2531 18.5391 67.3099 17.6908 67.0845 16.9395 C 66.859 16.1883 66.3509 15.535 65.6139 15.1577 Z " stroke-width="1.000000011495013"/>
    <path id="ID0.996023275423795" fill="#FFFF00" stroke="none" d="M 53.2159 55.8071 C 52.7481 55.7284 52.2835 55.9001 51.9106 56.2412 C 51.5376 56.5823 51.2564 57.0929 51.1558 57.6914 C 51.0551 58.2899 51.1537 58.8644 51.3946 59.3088 C 51.6353 59.7531 52.0182 60.0674 52.486 60.1461 C 52.9537 60.2248 53.4183 60.0531 53.7912 59.7119 C 54.1643 59.3708 54.4454 58.8603 54.5461 58.2617 C 54.6468 57.6632 54.5482 57.0888 54.3073 56.6444 C 54.0665 56.2 53.6837 55.8857 53.2159 55.8071 Z " stroke-width="0.2268678931378263"/>
  </g>
  <g id="ID0.8807225120253861">
    <path id="ID0.9395314259454608" fill="#99B2FF" stroke="#000000" stroke-linecap="round" d="M 19.6208 57.7805 C 16.9111 58.178 13.6846 56.986 10.9904 57.9841 C 7.1973 59.3911 0.9769 65.3697 0.7334 64.2417 C 0.56 63.3609 7.25 56.5191 9.7482 52.0006 C 12.2779 47.4297 12.3704 41.4406 15.905 37.5686 C 18.0787 35.1947 22.0012 34.7566 25.2556 35.1095 C 28.3008 35.4391 31.0596 37.3659 33.4153 39.3542 C 34.2603 39.9677 34.1627 41.2687 34.2173 42.3947 C 34.2823 43.7314 34.4554 45.1757 33.8213 46.3945 C 32.1337 49.6376 30.2996 53.3221 27.5797 55.4282 C 25.165 57.2896 22.3553 57.381 19.6208 57.7805 Z " stroke-width="0.49835989997965435"/>
    <path id="ID0.9395314259454608" fill="#99FFFF" stroke="#000000" stroke-linecap="round" d="M 32.8609 8.3392 C 27.9069 5.3058 19.4125 -0.6429 15.7712 3.7582 C 10.4957 10.4411 13.5149 21.721 15.0273 30.5073 C 15.7392 34.6508 18.9582 38.2603 22.4904 40.5207 C 25.1673 42.4339 28.9132 42.4765 32.2664 42.0934 C 33.7913 41.9205 34.8543 40.5479 35.9304 39.2925 C 37.2082 37.8026 38.7078 36.2852 39.0695 34.3029 C 40.0318 29.0278 41.2213 23.1097 39.965 18.2234 C 38.842 13.895 36.3173 10.4554 32.8609 8.3392 Z " stroke-width="0.7309278431040265"/>
    <path id="ID0.996023275423795" fill="#FFFF00" stroke="none" d="M 18.7178 41.4024 C 19.427 41.6268 19.9529 42.1985 20.2296 42.9411 C 20.5067 43.6839 20.5343 44.5974 20.2471 45.5049 C 19.96 46.4124 19.4119 47.1438 18.758 47.592 C 18.1044 48.0402 17.3454 48.2053 16.6362 47.9809 C 15.927 47.7565 15.4011 47.1848 15.1244 46.4422 C 14.8474 45.6995 14.8198 44.7859 15.1069 43.8784 C 15.3941 42.971 15.9422 42.2395 16.596 41.7914 C 17.2496 41.3431 18.0086 41.178 18.7178 41.4024 Z " stroke-width="0.35577008412107436"/>
    <path id="ID0.6398694114759564" fill="#FFFF00" stroke="none" d="M 22.75 7.5 C 23.578 7.5 24.328 7.85 24.871 8.416 C 25.414 8.982 25.75 9.763 25.75 10.625 C 25.75 11.487 25.414 12.268 24.871 12.834 C 24.328 13.4 23.578 13.75 22.75 13.75 C 21.922 13.75 21.172 13.4 20.629 12.834 C 20.086 12.268 19.75 11.487 19.75 10.625 C 19.75 9.763 20.086 8.982 20.629 8.416 C 21.172 7.85 21.922 7.5 22.75 7.5 Z " stroke-width="1"/>
    <path id="ID0.996023275423795" fill="#FFFF00" stroke="none" d="M 15.2635 49.3334 C 15.7158 49.4765 16.0511 49.8411 16.2276 50.3146 C 16.4043 50.7883 16.4218 51.3708 16.2387 51.9495 C 16.0556 52.5282 15.7061 52.9946 15.2892 53.2804 C 14.8724 53.5662 14.3884 53.6715 13.9361 53.5284 C 13.4839 53.3853 13.1486 53.0208 12.9721 52.5472 C 12.7954 52.0736 12.7778 51.491 12.9609 50.9123 C 13.144 50.3337 13.4936 49.8672 13.9105 49.5815 C 14.3273 49.2956 14.8113 49.1903 15.2635 49.3334 Z " stroke-width="0.226867890529977"/>
  </g>
  <path id="ID0.6544284904375672" fill="#0033CC" stroke="#000000" stroke-width="1.1657290203927664" stroke-linecap="round" d="M 42.5941 32.9771 C 44.3119 33.3969 45.8703 36.2811 45.9322 38.4095 C 46.0292 41.6757 44.0372 44.5429 42.7696 47.4805 C 42.0175 49.2275 41.3074 50.8756 40.0798 52.1032 C 38.971 53.1979 37.5354 54.3339 36.0335 54.1744 C 34.6813 54.0312 33.6572 52.4716 33.3597 51.1209 C 32.7053 49.1729 32.8144 47.0179 33.3694 44.9431 C 34.1806 41.8988 35.1882 38.7682 37.1266 36.2574 C 38.5164 34.4502 40.8762 32.5573 42.5941 32.9771 Z "/>
  <g id="ID0.7732332311570644">
    <path id="ID0.3849619720131159" fill="#003FFF" stroke="#000000" stroke-width="1.4529309272766113" d="M 46.1333 22.4478 C 49.1896 22.4478 51.9596 23.5266 53.9654 25.2687 C 55.9704 27.0115 57.2119 29.4175 57.2119 32.0735 C 57.2119 34.7294 55.9704 37.1355 53.9654 38.8783 C 51.9596 40.6203 49.1896 41.6991 46.1333 41.6991 C 43.0771 41.6991 40.3071 40.6203 38.3013 38.8783 C 36.2963 37.1355 35.0547 34.7294 35.0547 32.0735 C 35.0547 29.4175 36.2963 27.0115 38.3013 25.2687 C 40.3071 23.5266 43.0771 22.4478 46.1333 22.4478 Z "/>
    <path id="ID0.257101490162313" fill="#FFFFFF" stroke="#000000" stroke-width="1.3835861632155322" d="M 49.7089 20.1638 C 51.558 19.1588 54.089 21.053 55.6094 22.5002 C 56.7285 23.646 56.806 25.5947 56.8101 27.1381 C 56.8156 28.7534 56.5206 30.4404 55.6403 31.843 C 54.9645 32.9184 53.7178 33.9381 52.4876 33.9381 C 51.2575 33.9381 50.1425 33.1367 49.335 31.843 C 48.5274 30.5485 47.9902 28.5288 48.028 26.7894 C 48.0774 24.5576 47.7645 21.2211 49.7089 20.1638 Z "/>
    <path id="ID0.13991053588688374" fill="#000000" stroke="none" d="M 53.5676 27.9954 C 53.9933 27.9954 54.3798 28.1952 54.6587 28.517 C 54.9384 28.8395 55.1113 29.2841 55.1113 29.7752 C 55.1113 30.2663 54.9384 30.7109 54.6587 31.0335 C 54.3798 31.3553 53.9933 31.5551 53.5676 31.5551 C 53.1419 31.5551 52.7554 31.3553 52.4764 31.0335 C 52.1967 30.7109 52.0238 30.2663 52.0238 29.7752 C 52.0238 29.2841 52.1967 28.8395 52.4764 28.517 C 52.7554 28.1952 53.1419 27.9954 53.5676 27.9954 Z " stroke-width="0.7264654636383057"/>
    <path id="ID0.257101490162313" fill="#FFFFFF" stroke="#000000" stroke-width="1.4529309272766113" d="M 41.9429 21.3375 C 43.7627 19.9361 46.731 18.9111 48.6228 20.0996 C 50.4629 21.3491 50.0038 24.4467 50.003 26.6014 C 50.0023 28.4212 49.4742 30.5171 48.6191 31.8654 C 47.7641 33.213 46.5836 34.0477 45.281 34.0477 C 43.9785 34.0477 42.798 33.213 41.9429 31.8654 C 41.0879 30.5171 40.559 28.5956 40.559 26.6014 C 40.559 24.6073 40.5241 22.4584 41.9429 21.3375 Z "/>
    <path id="ID0.13991053588688374" fill="#000000" stroke="none" d="M 46.3676 27.9454 C 46.7933 27.9454 47.1798 28.1452 47.4587 28.467 C 47.7384 28.7895 47.9113 29.2341 47.9113 29.7252 C 47.9113 30.2163 47.7384 30.6609 47.4587 30.9835 C 47.1798 31.3053 46.7933 31.5051 46.3676 31.5051 C 45.9419 31.5051 45.5554 31.3053 45.2764 30.9835 C 44.9967 30.6609 44.8238 30.2163 44.8238 29.7252 C 44.8238 29.2341 44.9967 28.7895 45.2764 28.467 C 45.5554 28.1452 45.9419 27.9454 46.3676 27.9454 Z " stroke-width="0.7264654636383057"/>
    <path id="ID0.5298761413432658" fill="none" stroke="#000000" stroke-width="1.4529309272766113" stroke-linecap="round" d="M 45.0179 36.5677 C 46.6902 37.6981 46.6844 37.8114 47.6695 38.0206 C 48.1744 38.1231 49.1224 37.4758 49.1224 37.4758 "/>
  </g>
</svg>