<svg xmlns="http://www.w3.org/2000/svg" xmlns:xlink="http://www.w3.org/1999/xlink" version="1.1" width="38.534225940704346" height="33.48467302322388" viewBox="0.15413731336593628 1.6728556156158447 38.534225940704346 33.48467302322388">
  <!-- Exported by Scratch - http://scratch.mit.edu/ -->
  <path id="ID0.4909940124489367" fill="#FF9400" stroke="#000000" stroke-width="1.1146791017092053" stroke-linecap="round" d="M 13.5121 2.4598 C 14.9959 2.1546 16.5043 3.0726 17.9247 3.6913 C 19.2078 4.2488 22.056 5.2599 21.5013 6.0754 C 20.6742 7.3414 17.3248 7.3623 15.1614 7.8534 C 14.5635 7.9892 13.6579 8.4576 13.3118 7.8519 C 12.7503 6.864 13.2411 5.6563 13.328 4.5945 C 13.3079 3.8552 12.9072 2.5851 13.5121 2.4598 Z "/>
  <path id="ID0.4909940124489367" fill="#FF9400" stroke="#000000" stroke-width="1.2078696524970278" stroke-linecap="round" d="M 22.9898 25.2918 C 23.9986 25.104 25.0632 25.7417 25.9683 26.924 C 26.8732 28.106 27.7628 30.0133 27.989 31.8219 C 28.0804 32.8069 27.2899 32.9917 26.7922 33.1638 C 25.3833 33.8261 23.8431 34.0945 22.2753 34.0048 C 21.7599 34.0926 20.9121 34.0952 20.6758 33.1835 C 20.2382 31.4169 20.3702 29.3466 20.7983 27.8866 C 21.2057 26.4972 21.981 25.4796 22.9898 25.2918 Z "/>
  <path id="ID0.4021690208464861" fill="#995900" stroke="#000000" stroke-width="1.0799822476319783" stroke-linecap="round" d="M 19.3586 6.1054 C 22.696 6.2302 26.3465 6.7867 28.9979 8.6119 C 31.5676 10.3798 33.8107 13.2106 33.9309 16.1315 C 34.0613 19.2826 32.3104 22.6393 29.7429 24.8103 C 27.2163 26.9485 23.4388 27.8059 20.039 27.7435 C 17.0519 27.8151 14.1896 26.349 11.7605 24.8277 C 9.5049 23.4455 8.3346 20.9195 6.147 19.4565 C 5.5914 19.0862 5.2999 20.5921 4.8996 19.9681 C 2.4433 8.9137 3.9935 14.2051 4.3893 11.7323 C 4.5027 11.0294 5.199 13.7641 6.0903 13.625 C 7.5181 13.3999 8.3414 11.8663 9.4925 11.0161 C 10.859 10.0053 12.137 8.7869 13.7451 7.9981 C 15.462 7.1315 17.3298 6.0297 19.3586 6.1054 Z "/>
  <path id="ID0.3849619720131159" fill="#FF9400" stroke="#000000" stroke-width="1.4529309272766113" d="M 26.8833 6.9478 C 29.9396 6.9478 32.7096 8.0266 34.7154 9.7687 C 36.7204 11.5115 37.9619 13.9175 37.9619 16.5735 C 37.9619 19.2294 36.7204 21.6355 34.7154 23.3783 C 32.7096 25.1203 29.9396 26.1991 26.8833 26.1991 C 23.8271 26.1991 21.0571 25.1203 19.0513 23.3783 C 17.0463 21.6355 15.8047 19.2294 15.8047 16.5735 C 15.8047 13.9175 17.0463 11.5115 19.0513 9.7687 C 21.0571 8.0266 23.8271 6.9478 26.8833 6.9478 Z "/>
  <path id="ID0.257101490162313" fill="#FFFFFF" stroke="#000000" stroke-width="1.3835861632155322" d="M 30.4589 4.6638 C 32.308 3.6588 34.839 5.553 36.3594 7.0002 C 37.4785 8.146 37.556 10.0947 37.5601 11.6381 C 37.5656 13.2534 37.2706 14.9404 36.3903 16.343 C 35.7145 17.4184 34.4678 18.4381 33.2376 18.4381 C 32.0075 18.4381 30.8925 17.6367 30.085 16.343 C 29.2774 15.0485 28.7402 13.0288 28.778 11.2894 C 28.8274 9.0576 28.5145 5.7211 30.4589 4.6638 Z "/>
  <path id="ID0.13991053588688374" fill="#000000" stroke="none" d="M 34.3176 12.4954 C 34.7433 12.4954 35.1298 12.6952 35.4087 13.017 C 35.6884 13.3395 35.8613 13.7841 35.8613 14.2752 C 35.8613 14.7663 35.6884 15.2109 35.4087 15.5335 C 35.1298 15.8553 34.7433 16.0551 34.3176 16.0551 C 33.8919 16.0551 33.5054 15.8553 33.2264 15.5335 C 32.9467 15.2109 32.7738 14.7663 32.7738 14.2752 C 32.7738 13.7841 32.9467 13.3395 33.2264 13.017 C 33.5054 12.6952 33.8919 12.4954 34.3176 12.4954 Z " stroke-width="0.7264654636383057"/>
  <path id="ID0.257101490162313" fill="#FFFFFF" stroke="#000000" stroke-width="1.4529309272766113" d="M 22.6929 5.8375 C 24.5127 4.4361 27.481 3.4111 29.3728 4.5996 C 31.2129 5.8491 30.7538 8.9467 30.753 11.1014 C 30.7523 12.9212 30.2242 15.0171 29.3691 16.3654 C 28.5141 17.713 27.3336 18.5477 26.031 18.5477 C 24.7285 18.5477 23.548 17.713 22.6929 16.3654 C 21.8379 15.0171 21.309 13.0956 21.309 11.1014 C 21.309 9.1073 21.2741 6.9584 22.6929 5.8375 Z "/>
  <path id="ID0.13991053588688374" fill="#000000" stroke="none" d="M 27.1176 12.4454 C 27.5433 12.4454 27.9298 12.6452 28.2087 12.967 C 28.4884 13.2895 28.6613 13.7341 28.6613 14.2252 C 28.6613 14.7163 28.4884 15.1609 28.2087 15.4835 C 27.9298 15.8053 27.5433 16.0051 27.1176 16.0051 C 26.6919 16.0051 26.3054 15.8053 26.0264 15.4835 C 25.7467 15.1609 25.5738 14.7163 25.5738 14.2252 C 25.5738 13.7341 25.7467 13.2895 26.0264 12.967 C 26.3054 12.6452 26.6919 12.4454 27.1176 12.4454 Z " stroke-width="0.7264654636383057"/>
  <path id="ID0.5298761413432658" fill="none" stroke="#000000" stroke-width="1.4529309272766113" stroke-linecap="round" d="M 25.7679 21.0677 C 27.4402 22.1981 27.4344 22.3114 28.4195 22.5206 C 28.9244 22.6231 29.8724 21.9758 29.8724 21.9758 "/>
  <path id="ID0.4909940124489367" fill="#FF9400" stroke="#000000" stroke-width="1.207869660918849" stroke-linecap="round" d="M 17.032 25.7225 C 17.9202 26.2363 18.3137 27.4133 18.2317 28.9 C 18.1498 30.3863 17.5844 32.4136 16.5794 33.9341 C 16.0079 34.7415 15.2873 34.3675 14.7975 34.1744 C 13.2966 33.7606 11.9524 32.9623 10.8202 31.8741 C 10.3718 31.6054 9.7262 31.0558 10.14 30.2097 C 10.9572 28.5835 12.4045 27.0972 13.6795 26.2671 C 14.8928 25.4771 16.1437 25.2088 17.032 25.7225 Z "/>
  <path id="ID0.4021690208464861" fill="#FF9400" stroke="#000000" stroke-width="0.843078972324556" stroke-linecap="round" d="M 5.5386 11.7323 C 6.1582 15.5525 6.1417 17.9935 5.8141 19.9681 C 5.3776 22.0398 4.8192 24.175 3.9773 25.8508 C 3.2707 27.3393 2.2305 28.8801 1.2833 29.2269 C 0.9116 29.3609 1.2919 27.9869 1.3445 27.0785 C 1.5551 23.4404 2.0529 19.7778 2.018 16.0804 C 1.9611 12.4495 1.3396 8.8871 1.069 5.2358 C 1.001 4.3232 0.6814 2.9308 1.069 3.0873 C 2.1288 3.5231 3.1899 5.1498 3.9773 6.7192 C 4.7181 8.1065 5.0818 10.0217 5.5386 11.7323 Z "/>
</svg>