<svg xmlns="http://www.w3.org/2000/svg" xmlns:xlink="http://www.w3.org/1999/xlink" version="1.1" width="30.88941764831543" height="50.0929069519043" viewBox="0.1499999761581421 0.07769370079040527 30.88941764831543 50.0929069519043">
  <defs>
    <radialGradient id="grad_1" cx="0.4416" cy="0.4515" r="0.72592">
      <stop offset="0" stop-color="#990000" stop-opacity="1"/>
      <stop offset="1" stop-color="#660000" stop-opacity="1"/>
    </radialGradient>
  <radialGradient id="grad_1-.7264654636383057,0,0,0.7264654636383057,-159.6,-92.85" cx="14.7568" cy="25.7377" r="15.5128" gradientUnits="userSpaceOnUse">
      <stop offset="0" stop-color="#990000" stop-opacity="1"/>
      <stop offset="1" stop-color="#660000" stop-opacity="1"/>
    </radialGradient></defs>
  <!-- Exported by Scratch - http://scratch.mit.edu/ -->
  <g id="ID0.5483849048614502">
    <path id="ID0.20042628794908524" fill="#FF0000" stroke="none" stroke-linecap="round" d="M 2.2121 32.2706 L 13.5242 32.2706 L 7.8681 49.1706 L 2.2121 32.2706 Z " stroke-width="1.3629032373428345"/>
    <path id="ID0.20042628794908524" fill="#FFFF00" stroke="none" stroke-linecap="round" d="M 3.7 32.322 L 12 32.322 L 7.85 41.872 L 3.7 32.322 Z " stroke-width="0.892510051342586"/>
    <path id="ID0.20042628794908524" fill="#99B2FF" stroke="none" stroke-linecap="round" d="M 5.5364 32.2337 L 9.8923 32.2337 L 7.7143 37.2456 L 5.5364 32.2337 Z " stroke-width="0.46840017676437357"/>
  </g>
  <g id="ID0.5483849048614502">
    <path id="ID0.20042628794908524" fill="#FF0000" stroke="none" stroke-linecap="round" d="M 10.1121 32.2706 L 21.4242 32.2706 L 15.7681 49.1706 L 10.1121 32.2706 Z " stroke-width="1.3629032373428345"/>
    <path id="ID0.20042628794908524" fill="#FFFF00" stroke="none" stroke-linecap="round" d="M 11.6 32.322 L 19.9 32.322 L 15.75 41.872 L 11.6 32.322 Z " stroke-width="0.892510051342586"/>
    <path id="ID0.20042628794908524" fill="#99B2FF" stroke="none" stroke-linecap="round" d="M 13.4364 32.2337 L 17.7923 32.2337 L 15.6143 37.2456 L 13.4364 32.2337 Z " stroke-width="0.46840017676437357"/>
  </g>
  <path id="ID0.06457260437309742" fill="#B2B2B2" stroke="#000000" stroke-width="1" stroke-linecap="round" d="M 1.15 16.15 L 4.15 14.3 L 16 14.3 L 19.15 16.15 L 19.15 32 L 1.15 32 L 1.15 16.15 Z "/>
  <path id="ID0.4909940124489367" fill="url(#grad_1-.7264654636383057,0,0,0.7264654636383057,-159.6,-92.85)" stroke="#000000" stroke-width="1.4529309272766113" stroke-linecap="round" d="M 16.2046 17.936 C 19.6118 17.936 22.6992 19.564 24.9353 22.1945 C 27.1706 24.8243 28.9156 28.8613 28.5546 32.4653 C 28.2545 34.4166 25.5615 34.49 23.8325 34.6447 C 18.8308 35.4235 13.6402 35.3879 8.5768 34.6447 C 6.8412 34.6287 4.0719 34.3265 3.8547 32.4653 C 3.5002 28.8664 5.1892 24.8824 7.474 22.1945 C 9.6483 19.6366 12.7975 17.936 16.2046 17.936 Z "/>
  <path id="ID0.5450070141814649" fill="none" stroke="#B2B2B2" stroke-width="2" stroke-linecap="round" d="M 25.25 21.3 L 23 28.65 "/>
  <path id="ID0.3849619720131159" fill="#FF0000" stroke="#000000" stroke-width="1.4529309272766113" d="M 17.1833 3.9478 C 20.2396 3.9478 23.0096 5.0266 25.0154 6.7687 C 27.0204 8.5115 28.2619 10.9175 28.2619 13.5735 C 28.2619 16.2294 27.0204 18.6355 25.0154 20.3783 C 23.0096 22.1203 20.2396 23.1991 17.1833 23.1991 C 14.1271 23.1991 11.3571 22.1203 9.3513 20.3783 C 7.3463 18.6355 6.1047 16.2294 6.1047 13.5735 C 6.1047 10.9175 7.3463 8.5115 9.3513 6.7687 C 11.3571 5.0266 14.1271 3.9478 17.1833 3.9478 Z "/>
  <path id="ID0.257101490162313" fill="#FFFFFF" stroke="#000000" stroke-width="1.3835861632155322" d="M 20.7589 1.6638 C 22.608 0.6588 25.139 2.553 26.6594 4.0002 C 27.7785 5.146 27.856 7.0947 27.8601 8.6381 C 27.8656 10.2534 27.5706 11.9404 26.6903 13.343 C 26.0145 14.4184 24.7678 15.4381 23.5376 15.4381 C 22.3075 15.4381 21.1925 14.6367 20.385 13.343 C 19.5774 12.0485 19.0402 10.0288 19.078 8.2894 C 19.1274 6.0576 18.8145 2.7211 20.7589 1.6638 Z "/>
  <path id="ID0.13991053588688374" fill="#000000" stroke="none" d="M 24.6176 9.4954 C 25.0433 9.4954 25.4298 9.6952 25.7087 10.017 C 25.9884 10.3395 26.1613 10.7841 26.1613 11.2752 C 26.1613 11.7663 25.9884 12.2109 25.7087 12.5335 C 25.4298 12.8553 25.0433 13.0551 24.6176 13.0551 C 24.1919 13.0551 23.8054 12.8553 23.5264 12.5335 C 23.2467 12.2109 23.0738 11.7663 23.0738 11.2752 C 23.0738 10.7841 23.2467 10.3395 23.5264 10.017 C 23.8054 9.6952 24.1919 9.4954 24.6176 9.4954 Z " stroke-width="0.7264654636383057"/>
  <path id="ID0.257101490162313" fill="#FFFFFF" stroke="#000000" stroke-width="1.4529309272766113" d="M 13.4429 2.8375 C 15.2627 1.4361 18.231 0.4111 20.1228 1.5996 C 21.9629 2.8491 21.5038 5.9467 21.503 8.1014 C 21.5023 9.9212 20.9742 12.0171 20.1191 13.3654 C 19.2641 14.713 18.0836 15.5477 16.781 15.5477 C 15.4785 15.5477 14.298 14.713 13.4429 13.3654 C 12.5879 12.0171 12.059 10.0956 12.059 8.1014 C 12.059 6.1073 12.0241 3.9584 13.4429 2.8375 Z "/>
  <path id="ID0.13991053588688374" fill="#000000" stroke="none" d="M 17.6176 9.4454 C 18.0433 9.4454 18.4298 9.6452 18.7087 9.967 C 18.9884 10.2895 19.1613 10.7341 19.1613 11.2252 C 19.1613 11.7163 18.9884 12.1609 18.7087 12.4835 C 18.4298 12.8053 18.0433 13.0051 17.6176 13.0051 C 17.1919 13.0051 16.8054 12.8053 16.5264 12.4835 C 16.2467 12.1609 16.0738 11.7163 16.0738 11.2252 C 16.0738 10.7341 16.2467 10.2895 16.5264 9.967 C 16.8054 9.6452 17.1919 9.4454 17.6176 9.4454 Z " stroke-width="0.7264654636383057"/>
  <path id="ID0.5298761413432658" fill="none" stroke="#000000" stroke-width="1.4529309272766113" stroke-linecap="round" d="M 16.0679 18.0677 C 17.7402 19.1981 17.7344 19.3114 18.7195 19.5206 C 19.2244 19.6231 20.1724 18.9758 20.1724 18.9758 "/>
  <path id="ID0.2725327303633094" fill="none" stroke="#B2B2B2" stroke-width="2" stroke-linecap="round" d="M 6 19.3 L 12.75 29.5 "/>
  <path id="ID0.4909940124489367" fill="#FF0000" stroke="#000000" stroke-width="1.3285603471918477" stroke-linecap="round" d="M 11.8966 29.3991 C 13.6397 29.3991 15.2194 30.0427 16.3634 31.0827 C 17.5071 32.1224 18.3999 33.7184 18.2151 35.1433 C 18.0616 35.9147 16.6838 35.9437 15.7992 36.0049 C 13.2402 36.3128 10.5845 36.2987 7.9939 36.0049 C 7.106 35.9986 5.6891 35.8791 5.578 35.1433 C 5.3966 33.7204 6.2608 32.1454 7.4297 31.0827 C 8.5422 30.0715 10.1534 29.3991 11.8966 29.3991 Z "/>
  <path id="ID0.4909940124489367" fill="#FF0000" stroke="#000000" stroke-width="1.3285603471918477" stroke-linecap="round" d="M 23.6966 29.2491 C 25.4397 29.2491 27.0194 29.8927 28.1634 30.9327 C 29.3071 31.9724 30.1999 33.5684 30.0151 34.9933 C 29.8616 35.7647 28.4838 35.7937 27.5992 35.8549 C 25.0402 36.1628 22.3845 36.1487 19.7939 35.8549 C 18.906 35.8486 17.4891 35.7291 17.378 34.9933 C 17.1966 33.5704 18.0608 31.9954 19.2297 30.9327 C 20.3422 29.9215 21.9534 29.2491 23.6966 29.2491 Z "/>
</svg>