<svg xmlns="http://www.w3.org/2000/svg" xmlns:xlink="http://www.w3.org/1999/xlink" version="1.1" width="65.63009262084961" height="47.20973205566406" viewBox="-0.9331934452056885 7.630186080932617 65.63009262084961 47.20973205566406">
  <!-- Exported by Scratch - http://scratch.mit.edu/ -->
  <path id="ID0.4909940124489367" fill="#182BB1" stroke="#000000" stroke-width="1.2078697030621093" stroke-linecap="round" d="M 29.0337 43.6323 C 30.0594 43.6028 31.0125 44.3976 31.7239 45.7057 C 32.435 47.0134 33.0189 49.0354 32.9625 50.8572 C 32.9006 51.8444 32.0909 51.9048 31.5726 51.9978 C 30.0782 52.4342 28.5151 52.4611 26.9799 52.13 C 26.4572 52.1369 25.6192 52.0084 25.5268 51.0711 C 25.3678 49.2581 25.8184 47.2331 26.4672 45.8569 C 27.0846 44.5473 28.008 43.6619 29.0337 43.6323 Z "/>
  <path id="ID0.4021690208464861" fill="#0144D8" stroke="#000000" stroke-width="1.29092494318226" stroke-linecap="round" d="M 39.6529 32.3792 C 42.7193 32.1552 46.253 31.8216 48.8764 32.9931 C 51.9065 34.3466 53.9795 36.7631 54.9246 39.1315 C 56.2128 42.3614 59.6437 46.7985 56.361 49.1577 C 51.8884 51.9977 43.9622 50.7005 38.292 50.2831 C 34.6752 50.016 31.6632 48.1438 28.3881 47.1627 C 24.168 45.8982 19.6591 44.9825 15.6113 43.5308 C 14.6013 43.0827 14.7162 42.5496 14.6285 41.9961 C 14.4077 40.5812 14.2535 39.3095 14.6285 38.0061 C 14.8115 37.3831 15.2182 36.7795 15.9893 36.5227 C 18.8637 35.5671 22.0239 34.941 25.1372 34.3742 C 29.8669 33.5138 34.7236 32.6196 39.6529 32.3792 Z "/>
  <path id="ID0.39371468499302864" fill="none" stroke="#01248D" stroke-width="4" stroke-linecap="round" d="M 50.1 48.5 L 37.85 47.9 L 27.6 44.3 L 16.85 41.35 L 24.6 42.7 L 33.35 43.85 L 43 44.7 L 50.1 48.5 Z "/>
  <path id="ID0.3849619720131159" fill="#4170FF" stroke="#000000" stroke-width="1.368016922899868" d="M 52.9562 31.4978 C 55.6434 31.4978 58.0789 32.5766 59.8424 34.3187 C 61.6053 36.0615 62.6969 38.4675 62.6969 41.1235 C 62.6969 43.7794 61.6053 46.1855 59.8424 47.9283 C 58.0789 49.6703 55.6434 50.7491 52.9562 50.7491 C 50.2691 50.7491 47.8336 49.6703 46.07 47.9283 C 44.3071 46.1855 43.2155 43.7794 43.2155 41.1235 C 43.2155 38.4675 44.3071 36.0615 46.07 34.3187 C 47.8336 32.5766 50.2691 31.4978 52.9562 31.4978 Z "/>
  <path id="ID0.257101490162313" fill="#FFFFFF" stroke="#000000" stroke-width="1.3835861632155322" d="M 55.8764 31.0968 C 57.486 30.4336 59.5985 31.433 60.9879 32.4917 C 62.0191 33.2917 62.3368 34.9041 62.3601 36.1881 C 62.3896 37.8034 62.0706 39.4904 61.1903 40.893 C 60.5145 41.9684 59.2678 42.9881 58.0376 42.9881 C 56.8075 42.9881 55.6925 42.1867 54.885 40.893 C 54.0774 39.5985 53.3948 37.5697 53.578 35.8394 C 53.7605 34.1111 54.3135 31.8661 55.8764 31.0968 Z "/>
  <path id="ID0.13991053588688374" fill="#000000" stroke="none" d="M 59.0176 37.0954 C 59.4433 37.0954 59.8298 37.2952 60.1087 37.617 C 60.3884 37.9395 60.5613 38.3841 60.5613 38.8752 C 60.5613 39.3663 60.3884 39.8109 60.1087 40.1335 C 59.8298 40.4553 59.4433 40.6551 59.0176 40.6551 C 58.5919 40.6551 58.2054 40.4553 57.9264 40.1335 C 57.6467 39.8109 57.4738 39.3663 57.4738 38.8752 C 57.4738 38.3841 57.6467 37.9395 57.9264 37.617 C 58.2054 37.2952 58.5919 37.0954 59.0176 37.0954 Z " stroke-width="0.7264654636383057"/>
  <path id="ID0.257101490162313" fill="#FFFFFF" stroke="#000000" stroke-width="1.4529309272766113" d="M 47.5162 31.9012 C 49.4849 30.834 52.1539 30.085 54.127 31.0294 C 55.577 31.79 55.3032 34.1946 55.253 35.7514 C 55.1942 37.5632 54.7242 39.6671 53.8691 41.0154 C 53.0141 42.363 51.8336 43.1977 50.531 43.1977 C 49.2285 43.1977 48.048 42.363 47.1929 41.0154 C 46.3379 39.6671 45.748 37.5683 45.809 35.7514 C 45.8584 34.2636 46.2776 32.5543 47.5162 31.9012 Z "/>
  <path id="ID0.13991053588688374" fill="#000000" stroke="none" d="M 51.6176 37.0954 C 52.0433 37.0954 52.4298 37.2952 52.7087 37.617 C 52.9884 37.9395 53.1613 38.3841 53.1613 38.8752 C 53.1613 39.3663 52.9884 39.8109 52.7087 40.1335 C 52.4298 40.4553 52.0433 40.6551 51.6176 40.6551 C 51.1919 40.6551 50.8054 40.4553 50.5264 40.1335 C 50.2467 39.8109 50.0738 39.3663 50.0738 38.8752 C 50.0738 38.3841 50.2467 37.9395 50.5264 37.617 C 50.8054 37.2952 51.1919 37.0954 51.6176 37.0954 Z " stroke-width="0.7264654636383057"/>
  <path id="ID0.5298761413432658" fill="none" stroke="#000000" stroke-width="1.4529309272766113" stroke-linecap="round" d="M 50.4679 45.6677 C 52.1402 46.7981 52.1344 46.9114 53.1195 47.1206 C 53.6244 47.2231 54.5724 46.5758 54.5724 46.5758 "/>
  <path id="ID0.4909940124489367" fill="#4170FF" stroke="#000000" stroke-width="1.2078697161705334" stroke-linecap="round" d="M 28.7473 44.1981 C 29.6116 44.7513 29.9518 45.9448 29.8031 47.4263 C 29.6545 48.9074 28.9985 50.9072 27.9262 52.381 C 27.3191 53.162 26.616 52.756 26.1353 52.5411 C 24.6546 52.0602 23.3476 51.2024 22.2654 50.0643 C 21.8295 49.7758 21.2093 49.1977 21.6607 48.371 C 22.5501 46.7832 24.0627 45.3635 25.3738 44.5915 C 26.6214 43.8568 27.8831 43.645 28.7473 44.1981 Z "/>
  <path id="ID0.4021690208464861" fill="#4170FF" stroke="#000000" stroke-width="1.0799822476319783" stroke-linecap="round" d="M 13.9893 33.2323 C 15.1369 37.0525 15.1063 39.4935 14.4996 41.4681 C 13.691 43.5398 12.6387 45.633 11.0975 47.3508 C 9.5631 49.0613 7.6534 50.5458 5.484 51.4942 C 4.2082 52.0559 1.6249 52.4754 1.118 51.75 C 0.6905 50.9919 3.0651 49.6967 3.6129 48.5273 C 5.4534 44.6519 7.9868 40.8246 8.3758 36.6085 C 8.6865 33.2364 6.4842 30.0342 5.7108 26.7358 C 5.518 25.9112 4.993 24.4308 5.7108 24.5873 C 7.6738 25.0231 9.6391 26.6498 11.0975 28.2192 C 12.4697 29.6065 13.1433 31.5217 13.9893 33.2323 Z "/>
  <path id="ID0.4909940124489367" fill="#7A9BFF" stroke="#000000" stroke-width="1.4431326007562046" stroke-linecap="round" d="M 12.271 11.5643 C 11.7118 10.3716 12.4784 9.2275 13.9426 9.7679 C 19.8 11.9298 25.7269 14.5799 31.41 18.7251 C 36.1693 22.1098 40.7788 26.8655 44.5673 31.8517 C 45.5144 33.0984 43.6376 33.152 43.0531 33.6472 C 42.1385 34.4209 41.2617 35.503 39.9033 35.5464 C 37.2883 35.636 34.4442 34.6282 31.6549 33.8893 C 28.4529 33.0433 25.0095 33.629 22.0631 30.602 C 19.6659 28.137 21.0664 24.2412 19.4935 21.0665 C 17.6529 17.6047 13.9219 15.0854 12.271 11.5643 Z "/>
</svg>