<svg version="1.1" xmlns="http://www.w3.org/2000/svg" xmlns:xlink="http://www.w3.org/1999/xlink" width="122.8334" height="37.42437" viewBox="0,0,122.8334,37.42437"><defs><radialGradient cx="233.3607" cy="172.1293" r="17.28727" fx="240.98273" fy="163.68566" gradientUnits="userSpaceOnUse" id="color-1"><stop offset="0.15" stop-color="#990000"/><stop offset="0.42" stop-color="#8d0000"/><stop offset="0.89" stop-color="#6e0000"/><stop offset="1" stop-color="#660000"/></radialGradient></defs><g transform="translate(-213.34,-160.28271)"><g data-paper-data="{&quot;isPaintingLayer&quot;:true}" fill="none" fill-rule="nonzero" stroke="none" stroke-width="none" stroke-linecap="none" stroke-linejoin="miter" stroke-miterlimit="10" stroke-dasharray="" stroke-dashoffset="0" font-family="none" font-weight="none" font-size="none" text-anchor="none" style="mix-blend-mode: normal"><path d="M299.83,191.19c-2.77,1.77 -51,3 -63.45,3c-12.45,0 -22.54,0.09 -22.54,-2.24c0,-2.33 15.13,-4.22 27.5,-5.21c4.46,-0.35 47.5,-0.83 50.75,0.05c5.94,1.61 9.25,3.43 7.74,4.4z" fill="#ff0000" stroke="#000000" stroke-width="1" stroke-linecap="butt"/><path d="M249.73,172.34c1.46,8.4 2.4,15.26 -15.38,18.36c-8.88,1.58 -15.29,-4.35 -16.75,-12.75c-1.46,-8.4 3.74,-15.31 12.59,-16.86c8.85,-1.55 18.07,2.85 19.54,11.25z" fill="url(#color-1)" stroke="#000000" stroke-width="1" stroke-linecap="round"/><path d="M308.01,185.14c0.92494,2.32435 0.98878,4.90273 0.18,7.27c-0.70613,2.19824 -2.36613,3.9607 -4.51819,4.79708c-2.15206,0.83637 -4.56657,0.65742 -6.57181,-0.48708c-4.51961,-2.49637 -6.62042,-7.85766 -5,-12.76c0.69663,-2.20542 2.356,-3.97583 4.51175,-4.81364c2.15575,-0.83781 4.57516,-0.65257 6.57825,0.50364c2.21429,1.19121 3.92539,3.14017 4.82,5.49z" id="ID0.3849619720131159" fill="#ff0000" stroke="#000000" stroke-width="1" stroke-linecap="butt"/><path d="M296.71,192.32c0,0 -0.83,-0.56 -0.91,-1c-0.14,-0.87 -0.05,-0.9 0.35,-2.62" id="ID0.5298761413432658" fill="none" stroke="#000000" stroke-width="1" stroke-linecap="round"/><path d="M325,184.85c-3.33,2.65 -16,0 -19.76,1" fill="#ff0000" stroke="none" stroke-width="1" stroke-linecap="butt"/><path d="M325,184.85c-3.33,2.65 -16,0 -19.76,1" fill="none" stroke="#000000" stroke-width="3.5" stroke-linecap="butt"/><path d="M325,184.85c-3.33,2.65 -16,0 -19.76,1" fill="none" stroke="#ff0000" stroke-width="1.5" stroke-linecap="butt"/><path d="M306.63,189.42c3.77,-1.03 17.4,1.55 20.48,0.86" fill="#ff0000" stroke="none" stroke-width="1" stroke-linecap="butt"/><path d="M306.63,189.42c3.77,-1.03 17.4,1.55 20.48,0.86" fill="none" stroke="#000000" stroke-width="3.5" stroke-linecap="butt"/><path d="M306.63,189.42c3.77,-1.03 17.4,1.55 20.48,0.86" fill="none" stroke="#ff0000" stroke-width="1.5" stroke-linecap="butt"/><path d="M334.34,185.03c1.46,0.7 1.44,3.12 1.23,4.72c-0.2,1.21 -1.37,2.15 -2.33,2.85c-0.99624,0.78213 -2.19113,1.27047 -3.45,1.41c-1.01469,0.12318 -2.02674,-0.2489 -2.72,-1c-0.54248,-0.87821 -0.59536,-1.97362 -0.14,-2.9c0.55614,-1.24069 1.4329,-2.31074 2.54,-3.1c1.4,-0.99 3.33,-2.73 4.87,-1.98z" id="ID0.257101490162313" fill="#ffffff" stroke="#000000" stroke-width="1" stroke-linecap="butt"/><path d="M333.34,190.28c0.18776,0.26356 0.24995,0.59643 0.17,0.91c-0.08313,0.3447 -0.28492,0.64915 -0.57,0.86c-0.28992,0.20908 -0.6432,0.31153 -1,0.29c-0.32822,-0.01303 -0.63267,-0.17473 -0.82726,-0.43937c-0.19459,-0.26464 -0.25816,-0.60345 -0.17274,-0.92063c0.08544,-0.34359 0.29122,-0.64516 0.58,-0.85c0.2888,-0.21138 0.64292,-0.31407 1,-0.29c0.32421,0.0208 0.62342,0.18135 0.82,0.44z" id="ID0.13991053588688374" fill="#000000" stroke="none" stroke-width="1" stroke-linecap="butt"/><path d="M329.25,179.62c1.69,0.49 3.68,1.86 3.8,3.57c0.12,1.71 -2.07,2.83 -3.41,3.81c-1.14093,0.84073 -2.48203,1.36821 -3.89,1.53c-1.07605,0.15972 -2.15811,-0.24889 -2.86,-1.08c-0.57927,-0.92359 -0.63979,-2.08104 -0.16,-3.06c0.55555,-1.30215 1.45846,-2.42647 2.61,-3.25c1.26,-0.86 2.57,-1.86 3.91,-1.52z" id="ID0.257101490162313-2" fill="#ffffff" stroke="#000000" stroke-width="1" stroke-linecap="butt"/><path d="M329.18,184.52c0.18449,0.26872 0.24627,0.6031 0.17,0.92c-0.08368,0.34175 -0.2856,0.64285 -0.57,0.85c-0.28992,0.20908 -0.6432,0.31153 -1,0.29c-0.32822,-0.01303 -0.63267,-0.17473 -0.82726,-0.43937c-0.19459,-0.26464 -0.25816,-0.60345 -0.17274,-0.92063c0.09015,-0.34146 0.29492,-0.64155 0.58,-0.85c0.28802,-0.21297 0.64273,-0.31583 1,-0.29c0.32421,0.0208 0.62342,0.18135 0.82,0.44z" id="ID0.13991053588688374-2" fill="#000000" stroke="none" stroke-width="1" stroke-linecap="butt"/><path d="M234.32,178.83c-0.69,2.9 -3.53,3.86 -5.26,2c-1.73,-1.86 -1.37,-4.55 -0.88,-6.39c0.35,-1.24 1.75,-2.89 4.65,-3c1.15796,-0.12525 2.3292,-0.0268 3.45,0.29c1.85927,0.7919 3.23992,2.40943 3.73,4.37c0.47347,1.93199 0.61883,3.92982 0.43,5.91c-0.05169,2.7302 -0.88455,5.38842 -2.4,7.66" fill="none" stroke="#000000" stroke-width="1" stroke-linecap="round"/></g></g></svg>