<svg version="1.1" xmlns="http://www.w3.org/2000/svg" xmlns:xlink="http://www.w3.org/1999/xlink" width="25.0893" height="21.72566" viewBox="0,0,25.0893,21.72566"><g transform="translate(-227.31898,-139.18262)"><g data-paper-data="{&quot;isPaintingLayer&quot;:true}" fill="none" fill-rule="nonzero" stroke="#ffffff" stroke-width="1.45293" stroke-linecap="round" stroke-linejoin="miter" stroke-miterlimit="10" stroke-dasharray="" stroke-dashoffset="0" style="mix-blend-mode: normal"><g><path d="M233.95454,140.18182l-1.81818,-0.09091"/><path d="M237.5,140.36363h-1.18182"/><path d="M241.68182,139.90909h-1.45455"/><path d="M243.95455,140.18182h1.27273"/><path d="M247.86364,140.09091l0.09091,1.36364"/><path d="M247.95455,144.27273l-0.09091,1.27273"/><path d="M247.77273,149.27273v-1"/><path d="M247.95455,153.45455v-1.36364"/><path d="M248.13636,155.90909l1.27273,-0.09091"/><path d="M251.68182,156.18182l-0.09091,1.45455"/><path d="M251.40909,159.90909l-1.18182,-0.09091"/><path d="M247.77273,159.63636h-1.54545"/><path d="M242.59091,160.09091l1.18182,-0.09091"/><path d="M239.40909,159.90909h-1.09091"/><path d="M235.59091,160h-1.09091"/><path d="M230.5,160.18182h1.09091"/><path d="M228.04545,160.18182l0.09091,-1.36364"/><path d="M228.04545,156.36363l1.36364,-0.09091"/><path d="M231.59091,156v-1.27273"/><path d="M231.68182,150.72728v1.54545"/><path d="M231.59091,148.09091v-1.72727"/><path d="M231.5,144.18182v-1.54545"/></g></g></g></svg>