<svg version="1.1" xmlns="http://www.w3.org/2000/svg" xmlns:xlink="http://www.w3.org/1999/xlink" width="83.75081" height="72.461" viewBox="0,0,83.75081,72.461"><defs><radialGradient cx="228.6943" cy="170.14384" r="12.4706" gradientUnits="userSpaceOnUse" id="color-1"><stop offset="0" stop-color="#990000"/><stop offset="1" stop-color="#660000"/></radialGradient><radialGradient cx="234.7222" cy="161.35384" r="10.7262" gradientUnits="userSpaceOnUse" id="color-2"><stop offset="0" stop-color="#990000"/><stop offset="1" stop-color="#660000"/></radialGradient><radialGradient cx="242.3389" cy="156.35774" r="7.6434" gradientUnits="userSpaceOnUse" id="color-3"><stop offset="0" stop-color="#990000"/><stop offset="1" stop-color="#660000"/></radialGradient><radialGradient cx="248.0557" cy="154.23374" r="7.2359" gradientUnits="userSpaceOnUse" id="color-4"><stop offset="0" stop-color="#990000"/><stop offset="1" stop-color="#660000"/></radialGradient></defs><g transform="translate(-194.50284,-119.33233)"><g data-paper-data="{&quot;isPaintingLayer&quot;:true}" fill="none" fill-rule="nonzero" stroke="none" stroke-width="none" stroke-linecap="none" stroke-linejoin="miter" stroke-miterlimit="10" stroke-dasharray="" stroke-dashoffset="0" font-family="none" font-weight="none" font-size="none" text-anchor="none" style="mix-blend-mode: normal"><path d="M251.16,169.72334c-5.38,0.29 -3.21,3.64 -5.38,1.67c-1.39,-1.26 -2.79,-2.27 -3.28,-3.22c-0.63,-0.65 -1.21,-1.6 -1.6,-2.74c-0.36,-1.07 -0.49,-2.1 -0.42,-2.96c-0.17,-1.13 0.92,-2.55 2.66,-3.33c1.94,-0.88 3.95,-0.63 4.48,0.55c0.53,1.17 -0.59,2.81 -2.49,3.69c0.08,0.18 0.16,0.35 0.22,0.54c0.24,0.69 0.37,1.36 0.42,1.99c0.53,0.04 1.09,0.14 1.66,0.3c2.43,0.69 5.04,3.44 3.73,3.51z" fill="#ff0000" stroke="#000000" stroke-width="0.8" stroke-linecap="butt"/><path d="M246.39,171.32334c-0.14,-0.49 0.55,-0.49 1.25,-0.54c0.7,-0.04 1.38,-0.03 1.29,0.37c-0.45,2 -0.82,3.4 -1.13,3.42c-0.23,0.03 -0.86,-1.41 -1.41,-3.25z" fill="#ffffff" stroke="#000000" stroke-width="0.8" stroke-linecap="round"/><path d="M249.43,170.78334c-0.31,-0.38 0.32,-0.71 0.94,-1.07c0.62,-0.36 1.24,-0.66 1.3,-0.24c0.31,2.05 0.49,3.51 0.21,3.67c-0.21,0.12 -1.29,-0.92 -2.45,-2.36z" fill="#ffffff" stroke="#000000" stroke-width="0.8" stroke-linecap="round"/><path d="M217.45,151.85333c0,6.79 -3.99,13.29 -8.92,13.29c-4.92,0 -10.78,-7.08 -9,-18.92c1.42,-9.42 -4.09,-6.28 -4.58,-7.42c-0.53,-1.23 3.5,-3.83 7.42,-3.25c9.87,1.48 15.08,9.51 15.08,16.3z" fill="#ff0000" stroke="#000000" stroke-width="0.8" stroke-linecap="butt"/><path d="M243.4,187.88334c3.38,2.34 -4.19,2.92 -8.13,2.92c-3.93,0 -8.88,-0.85 -6.13,-3.92c2.71,-3.01 -0.13,-3.16 6.99,-2.83c3.95,0.19 2,0.18 7.27,3.83z" fill="#ff0000" stroke="#000000" stroke-width="0.8" stroke-linecap="butt"/><path d="M225.61,176.39334c0,-4.83249 3.88169,-8.75 8.67,-8.75c4.78831,0 8.67,3.91751 8.67,8.75c0,4.83249 -3.88169,8.75 -8.67,8.75c-4.78831,0 -8.67,-3.91751 -8.67,-8.75z" fill="#ff0000" stroke="#000000" stroke-width="0.8" stroke-linecap="butt"/><path d="M239.53,165.14334c0,10.45 -8.32,18.92 -18.58,18.92c-10.26,0 -18.58,-8.47 -18.58,-18.92c0,-10.45 9.54,-19.48 19.67,-17.79c5.95,0.99 17.49,7.34 17.49,17.79z" fill="#ff0000" stroke="#000000" stroke-width="0.8" stroke-linecap="butt"/><path d="M245.86,159.29334c0,6.59 -5.46,10.28 -11.7,11.94c-7.55,2 -14.7,-3.34 -14.7,-9.94c0,-6.6 4.07,-14.14 14.7,-13.94c6.46,0.12 11.7,5.34 11.7,11.94z" fill="#ff0000" stroke="#000000" stroke-width="0.8" stroke-linecap="butt"/><path d="M230.36,152.63333c0,-5.39582 4.68758,-9.77 10.47,-9.77c5.78242,0 10.47,4.37418 10.47,9.77c0,5.39582 -4.68758,9.77 -10.47,9.77c-5.78242,0 -10.47,-4.37418 -10.47,-9.77z" fill="#ff0000" stroke="#000000" stroke-width="0.8" stroke-linecap="butt"/><path d="M261.77,143.78334c0.18,0.79 0.27,1.61 0.27,2.44c0,6.6 -5.78,11.94 -12.92,11.94c-7.14,0 -12.92,-5.35 -12.92,-11.94c0,-4.11 2.25,-7.73 5.67,-9.88c0.98,-4.53 5.45,-7.95 10.81,-7.95c6.09,0 11.02,4.4 11.02,9.83c0,2.07 -0.72,3.98 -1.93,5.56z" fill="#ff0000" stroke="#000000" stroke-width="0.8" stroke-linecap="butt"/><path d="M236.4,156.22334c1.88,2.5 3.13,5.48 3.13,8.91c0,10.45 -8.32,18.92 -18.58,18.92c-1.06,0 -2.08,-0.11 -3.09,-0.28c0.37,-4.52 2.12,-12.77 7.31,-15.81c3.33,-1.95 8.02,-2.17 8.27,-9.25c1.61,-0.55 2.34,-1.45 2.96,-2.49z" fill="url(#color-1)" stroke="#000000" stroke-width="0.8" stroke-linecap="round"/><path d="M234.16,171.23334c-3.96,1.05 -7.81,0.06 -10.58,-2.06c0.49,-0.46 1.01,-0.87 1.59,-1.21c3.33,-1.95 8.02,-2.17 8.27,-9.25c4.34,-1.47 2.27,-5.57 9.14,-7.65c2.03,2.13 3.28,5.01 3.28,8.23c0,6.59 -5.45,10.28 -11.7,11.94z" fill="url(#color-2)" stroke="#000000" stroke-width="0.8" stroke-linecap="round"/><path d="M240.84,162.40334c-2.92,0 -5.55,-1.11 -7.45,-2.9c0.02,-0.26 0.05,-0.51 0.06,-0.79c4.66,-1.58 1.91,-6.2 10.83,-8.08c2.54,-0.54 4.84,-0.37 6.84,0.23c0.11,0.57 0.18,1.16 0.18,1.77c0,5.4 -4.69,9.77 -10.46,9.77z" fill="url(#color-3)" stroke="#000000" stroke-width="0.8" stroke-linecap="round"/><path d="M249.12,158.16333c-4.34,0 -8.17,-1.98 -10.51,-5.01c1.09,-1 2.75,-1.91 5.67,-2.52c6.18,-1.3 11.01,1.57 13.23,4.66c-2.26,1.78 -5.19,2.87 -8.39,2.87z" fill="url(#color-4)" stroke="#000000" stroke-width="0.8" stroke-linecap="round"/><path d="M216.28333,187.47334c2.48,2.09 -3.19,3.92 -7.13,3.92c-3.93,0 -7.13,0.21 -7.13,-3.92c0,-5.48 0,-10.25 7.13,-9.92c3.93,0.19 1.88,5.5 7.13,9.92z" data-paper-data="{&quot;origPos&quot;:null}" fill="#ff0000" stroke="#000000" stroke-width="0.8" stroke-linecap="butt"/><path d="M205.44,176.22334c0,-5.29089 3.88169,-9.58 8.67,-9.58c4.78831,0 8.67,4.28911 8.67,9.58c0,5.29089 -3.88169,9.58 -8.67,9.58c-4.78831,0 -8.67,-4.28911 -8.67,-9.58z" fill="#ff0000" stroke="#000000" stroke-width="0.8" stroke-linecap="butt"/><path d="M233.87,170.60334c-5.38,0.29 -3.21,3.64 -5.38,1.67c-1.39,-1.26 -2.79,-2.27 -3.28,-3.22c-0.63,-0.65 -1.21,-1.6 -1.6,-2.74c-0.36,-1.07 -0.49,-2.1 -0.42,-2.96c-0.18,-1.13 0.91,-2.55 2.65,-3.33c1.95,-0.88 3.95,-0.63 4.48,0.55c0.53,1.17 -0.59,2.81 -2.49,3.69c0.07,0.18 0.15,0.35 0.21,0.54c0.24,0.69 0.37,1.36 0.42,1.99c0.53,0.04 1.09,0.14 1.66,0.3c2.43,0.69 5.05,3.44 3.75,3.51z" fill="#ff0000" stroke="#000000" stroke-width="0.8" stroke-linecap="butt"/><path d="M229.09,172.20334c-0.14,-0.49 0.55,-0.49 1.25,-0.54c0.7,-0.04 1.38,-0.03 1.29,0.37c-0.45,2 -0.81,3.4 -1.13,3.42c-0.23,0.03 -0.86,-1.41 -1.41,-3.25z" fill="#ffffff" stroke="#000000" stroke-width="0.8" stroke-linecap="round"/><path d="M232.12,171.66334c-0.31,-0.38 0.32,-0.71 0.94,-1.07c0.62,-0.36 1.24,-0.66 1.3,-0.24c0.31,2.05 0.49,3.51 0.21,3.67c-0.2,0.12 -1.28,-0.92 -2.45,-2.36z" fill="#ffffff" stroke="#000000" stroke-width="0.8" stroke-linecap="round"/><path d="M265.77259,131.5298c-0.76522,-2.3645 -0.12472,-4.68934 1.43059,-5.19268c1.55531,-0.50334 3.43648,1.00542 4.20169,3.36992c0.76522,2.3645 0.12472,4.68934 -1.43059,5.19268c-1.55531,0.50334 -3.43648,-1.00542 -4.20169,-3.36992z" fill="#ff0000" stroke="#000000" stroke-width="0.8" stroke-linecap="butt"/><path d="M275.62,136.44333c0.67,1.56 -0.87,1.9 1.53,4.34c1.25,1.26 0.42,2.98 0.58,5.38c0.58,9.14 -11.79,14.04 -25.3,14.15c-13.02,0.11 -23.6,-10.21 -22.57,-19.47c0.73,-6.54 6.07,-6.58 6.92,-10.38c0.87,-3.91 4.8,-5.34 8.16,-5.03c5.37,0.5 7.73,5.04 11,3.36c10.18,-5.24 16.62,0.52 19.68,7.65z" fill="#ff0000" stroke="#000000" stroke-width="0.8" stroke-linecap="butt"/><path d="M247.62,120.21334c1.64,-0.91 3.93,0.73 5.3,1.99c1.02,1 1.11,2.72 1.14,4.09c0.03,1.43 -0.21,2.93 -0.98,4.18c-0.59,0.96 -1.69,1.88 -2.79,1.9c-1.1,0.02 -2.11,-0.68 -2.85,-1.81c-0.74,-1.13 -1.25,-2.91 -1.24,-4.45c0.03,-1.99 -0.3,-4.93 1.42,-5.9z" id="ID0.257101490162313_3_" fill="#ffffff" stroke="#000000" stroke-width="0.8" stroke-linecap="butt"/><path d="M251.03,126.21334c0.38,0 0.73,0.23 0.98,0.62c0.26,0.39 0.42,0.93 0.43,1.53c0.01,0.6 -0.14,1.14 -0.38,1.54c-0.24,0.4 -0.58,0.65 -0.96,0.65c-0.38,0.01 -0.73,-0.23 -0.99,-0.62c-0.26,-0.39 -0.42,-0.93 -0.43,-1.53c-0.01,-0.6 0.14,-1.14 0.38,-1.54c0.25,-0.39 0.59,-0.64 0.97,-0.65z" id="ID0.13991053588688374_3_" fill="#000000" stroke="none" stroke-width="1" stroke-linecap="butt"/><path d="M241.11,121.35334c1.61,-1.26 4.25,-2.21 5.95,-1.19c1.66,1.08 1.29,3.82 1.32,5.73c0.02,1.61 -0.42,3.47 -1.17,4.68c-0.75,1.2 -1.79,1.96 -2.95,1.98c-1.16,0.02 -2.23,-0.7 -3.01,-1.88c-0.78,-1.18 -1.28,-2.87 -1.31,-4.64c-0.03,-1.77 -0.09,-3.67 1.17,-4.68z" id="ID0.257101490162313_2_" fill="#ffffff" stroke="#000000" stroke-width="0.8" stroke-linecap="butt"/><path d="M244.77,126.25334c0.38,-0.01 0.73,0.23 0.98,0.62c0.25,0.39 0.42,0.93 0.43,1.53c0.01,0.6 -0.14,1.14 -0.38,1.54c-0.24,0.39 -0.58,0.64 -0.96,0.65c-0.38,0.01 -0.73,-0.23 -0.98,-0.62c-0.26,-0.39 -0.42,-0.93 -0.43,-1.53c-0.01,-0.6 0.14,-1.14 0.38,-1.54c0.24,-0.4 0.58,-0.64 0.96,-0.65z" id="ID0.13991053588688374_2_" fill="#000000" stroke="none" stroke-width="1" stroke-linecap="butt"/><path d="M275.3,139.85333c0,0 -1.52,0.81 -2.25,0.57c-0.47,-0.16 -4.05,-1.76 -11.78,2.21c-3.55,-0.12 -5.8,-1.45 -11.68,-0.48c-8.82,0 -9.76,-2.79 -10.03,-4.33" id="ID0.5298761413432658_2_" fill="none" stroke="#000000" stroke-width="0.8" stroke-linecap="round"/><path d="M261.86,141.91333c0.17,0.7 -1.01,0.57 -2.2,0.49c-1.19,-0.08 -2.34,-0.23 -2.12,-0.78c1.1,-2.65 1.94,-4.52 2.47,-4.48c0.41,0.03 1.23,2.12 1.85,4.77z" fill="#ffffff" stroke="#000000" stroke-width="0.8" stroke-linecap="round"/><path d="M267.45,140.23334c0.28,0.45 -0.56,0.64 -1.42,0.88c-0.85,0.24 -1.69,0.41 -1.67,-0.02c0.12,-2.12 0.25,-3.62 0.63,-3.73c0.29,-0.08 1.38,1.18 2.46,2.87z" fill="#ffffff" stroke="#000000" stroke-width="0.8" stroke-linecap="round"/><path d="M275.18,139.30334c0.23,0.48 -0.63,0.57 -1.51,0.71c-0.87,0.14 -1.73,0.21 -1.65,-0.21c0.36,-2.09 0.66,-3.57 1.05,-3.63c0.29,-0.05 1.23,1.33 2.11,3.13z" fill="#ffffff" stroke="#000000" stroke-width="0.8" stroke-linecap="round"/><path d="M252.92,141.40334c0.14,0.4 -0.56,0.39 -1.26,0.42c-0.7,0.02 -1.38,0 -1.29,-0.33c0.49,-1.62 0.87,-2.76 1.18,-2.77c0.24,-0.01 0.85,1.17 1.37,2.68z" fill="#ffffff" stroke="#000000" stroke-width="0.8" stroke-linecap="round"/><path d="M246.32,141.55334c0,0.71 -1.1,0.33 -2.24,-0.01c-1.14,-0.34 -2.22,-0.74 -1.88,-1.22c1.65,-2.33 2.88,-3.95 3.38,-3.8c0.38,0.12 0.72,2.33 0.74,5.03z" fill="#ffffff" stroke="#000000" stroke-width="0.8" stroke-linecap="round"/><path d="M254.40981,129.65503c0.27438,-2.47012 1.81395,-4.32624 3.43874,-4.14577c1.62479,0.18048 2.71952,2.32921 2.44514,4.79933c-0.27438,2.47012 -1.81395,4.32624 -3.43874,4.14577c-1.62479,-0.18048 -2.71952,-2.32921 -2.44514,-4.79933z" fill="#ff0000" stroke="#000000" stroke-width="0.8" stroke-linecap="butt"/><path d="M255.95812,129.87545c0.1485,-1.33935 0.90522,-2.35456 1.69016,-2.26753c0.78495,0.08703 1.30089,1.24335 1.15239,2.5827c-0.1485,1.33935 -0.90522,2.35456 -1.69016,2.26753c-0.78495,-0.08703 -1.30089,-1.24335 -1.15239,-2.5827z" fill="#000000" stroke="none" stroke-width="1" stroke-linecap="butt"/></g></g></svg>