<svg version="1.1" xmlns="http://www.w3.org/2000/svg" xmlns:xlink="http://www.w3.org/1999/xlink" width="35.85034" height="41.69274" viewBox="0,0,35.85034,41.69274"><g transform="translate(-217.30071,-129.03673)"><g data-paper-data="{&quot;isPaintingLayer&quot;:true}" fill-rule="nonzero" stroke-linejoin="miter" stroke-miterlimit="10" stroke-dasharray="" stroke-dashoffset="0" style="mix-blend-mode: normal"><path d="M245.57652,146.5908c-0.18601,2.66309 -0.37503,5.88022 -0.92979,7.87592c-0.86886,3.12569 -6.40118,2.29194 -6.80064,-1.14856c-0.22693,-1.95459 0.07818,-5.33804 0.25111,-7.81395c0.47733,-6.83405 3.45908,-15.85692 4.87698,-15.73988c1.22578,0.10118 3.07966,9.99242 2.60233,16.82647z" fill="#ffd900" stroke="#947e00" stroke-width="1.45293" stroke-linecap="butt"/><path d="M232.53361,146.00654c1.81174,1.96286 4.0275,4.30485 5.06978,6.11606c1.63242,2.83673 -3.18025,6.80185 -6.00671,4.79007c-1.60574,-1.14291 -3.85531,-3.69308 -5.53971,-5.51798c-4.64931,-5.03711 -9.00195,-13.61383 -7.83937,-14.69577c1.00506,-0.93534 9.6667,4.2705 14.31601,9.30761z" fill="#ffd900" stroke="#947e00" stroke-width="1.45293" stroke-linecap="butt"/><path d="M221.00125,143.79247c-1.69345,-3.03087 -2.28059,-5.38526 -2.21857,-6.40578c1.04804,0.15587 3.60162,1.1269 6.79819,3.31359c2.3231,1.58916 -3.1825,5.59272 -4.57962,3.09219z" fill="#000000" stroke="none" stroke-width="0" stroke-linecap="butt"/><path d="M240.40808,136.39939c0.86143,-3.30658 1.90668,-5.34347 2.52317,-5.99531c0.45189,0.87152 1.2143,3.39888 1.61249,7.22603c0.28939,2.78137 -4.84636,1.49727 -4.13566,-1.23072z" fill="#000000" stroke="none" stroke-width="0" stroke-linecap="butt"/><path d="M229.26248,169.97251c-1.3802,0.48819 -2.80655,-5.02949 -1.32402,-6.15812c-2.1625,-8.21464 2.31422,-14.73825 7.40202,-15.83263c6.00773,-1.29226 11.71914,0.67226 14.4628,8.13187c2.43559,0.34246 3.46799,6.72636 1.81823,6.30591c-1.56548,-0.39897 -5.05211,-0.36034 -11.69411,1.83365c-4.23986,1.40052 -8.38496,4.36378 -10.66492,5.71932z" fill="#ffd900" stroke="#947e00" stroke-width="1.45293" stroke-linecap="butt"/><path d="M237.53916,156.91663c-0.51409,1.6273 -1.89248,2.66718 -3.0787,2.32261c-1.18623,-0.34456 -1.73109,-1.94307 -1.21699,-3.57037c0.51409,-1.6273 1.89247,-2.66717 3.0787,-2.32261c1.18623,0.34456 1.73109,1.94307 1.21699,3.57037z" fill="#ff1f1f" stroke="none" stroke-width="0" stroke-linecap="butt"/><path d="M248.32446,153.44184c0.71741,1.14702 0.98896,2.32009 0.60654,2.6201c-0.38242,0.30002 -1.27401,-0.38662 -1.99142,-1.53365c-0.71741,-1.14702 -0.98896,-2.32008 -0.60654,-2.6201c0.38242,-0.30002 1.27401,0.38662 1.99142,1.53365z" fill="#ff1f1f" stroke="none" stroke-width="0" stroke-linecap="butt"/><path d="M243.71089,152.44477c0.06447,0.46499 -0.56298,2.40566 -1.60238,2.54979c-1.0394,0.14413 -2.09712,-1.56287 -2.16161,-2.02786c-0.06447,-0.46499 0.72585,-0.95879 1.76524,-1.10291c1.0394,-0.14413 1.93426,0.11599 1.99874,0.58098z" fill="#000000" stroke="none" stroke-width="0" stroke-linecap="butt"/><path d="M238.88796,154.88855c0.40718,-0.29019 0.69737,0.11699 0.69737,0.11699l-0.01628,0.08555c1.34475,0.65085 1.49923,1.59975 2.06729,-0.22054c-0.02039,-0.05758 -0.03987,-0.11651 -0.05844,-0.17678c0,0 -0.14654,-0.47805 0.3315,-0.62458c0.34933,-0.10708 0.52164,0.11935 0.5891,0.24906c0.1841,0.14312 0.17729,0.38193 0.17042,0.4546c0.51652,1.20539 1.45246,1.31339 1.94012,-0.30355l0.01881,-0.14242c0,0 0.08272,-0.49311 0.57583,-0.41038c0.49311,0.08273 0.41038,0.57584 0.41038,0.57584l-0.05211,0.28023c-0.66645,2.01685 -2.22658,2.35884 -3.25447,1.25495c-1.05849,1.80897 -1.64172,0.6789 -3.16845,-0.03359l-0.36804,-0.40802c0,0 -0.29019,-0.40717 0.11699,-0.69735z" fill="#000000" stroke="none" stroke-width="0.5" stroke-linecap="butt"/><path d="M238.9509,150.27469c0.21088,0.76645 -0.65172,1.69956 -1.92667,2.08419c-1.27495,0.38462 -2.47946,0.07509 -2.69034,-0.69135c-0.21088,-0.76645 0.6517,-1.69957 1.92667,-2.08419c1.27495,-0.38462 2.47947,-0.07509 2.69035,0.69135z" fill="#000000" stroke="none" stroke-width="0" stroke-linecap="butt"/><path d="M237.70041,149.98182c0.11429,0.41541 -0.35322,0.92116 -1.04424,1.12962c-0.69102,0.20845 -1.34385,0.04071 -1.45815,-0.3747c-0.11429,-0.41541 0.35322,-0.92117 1.04424,-1.12963c0.69102,-0.20845 1.34385,-0.04071 1.45815,0.37471z" fill="#ffffff" stroke="none" stroke-width="0" stroke-linecap="butt"/><path d="M230.65995,154.65118l-2.84505,-2.4149l4.34382,-5.35146l2.09505,2.3524c0,0 -1.44762,1.52755 -2.07609,2.37219c-0.58754,0.78964 -1.51773,3.04177 -1.51773,3.04177z" fill="#ffd900" stroke="none" stroke-width="0" stroke-linecap="butt"/><path d="M238.24412,148.62665l0.68292,-3.24312l5.79288,1.43449l-0.40317,3.05563c0,0 -2.02036,-0.66974 -3.06417,-0.88407c-0.97583,-0.20038 -3.00846,-0.36292 -3.00846,-0.36292z" fill="#ffd900" stroke="none" stroke-width="0" stroke-linecap="butt"/><path d="M228.88045,163.19169c3.2814,-2.50709 7.2818,-4.63545 10.14548,-5.4718c2.74572,-0.8019 6.18211,-1.79575 9.56998,-1.62661" fill="none" stroke="#c9ab00" stroke-width="1.45293" stroke-linecap="round"/><path d="M245.87972,150.54446c-0.28704,0.67625 -1.50926,0.90133 -2.72992,0.50273c-1.22065,-0.3986 -1.97749,-1.26993 -1.69045,-1.94617c0.28704,-0.67625 1.50927,-0.90134 2.72992,-0.50273c1.22065,0.3986 1.97749,1.26993 1.69045,1.94619z" fill="#000000" stroke="none" stroke-width="0" stroke-linecap="butt"/><path d="M245.07722,149.66081c-0.15558,0.36653 -0.81802,0.48852 -1.47961,0.27248c-0.66159,-0.21604 -1.07179,-0.68829 -0.91621,-1.05482c0.15558,-0.36653 0.81801,-0.48852 1.4796,-0.27248c0.66159,0.21604 1.0718,0.68829 0.91622,1.05482z" fill="#ffffff" stroke="none" stroke-width="0" stroke-linecap="butt"/></g></g></svg>