<svg version="1.1" xmlns="http://www.w3.org/2000/svg" xmlns:xlink="http://www.w3.org/1999/xlink" width="43.10618" height="79.72393" viewBox="0,0,43.10618,79.72393"><g transform="translate(-222.93184,-130.27505)"><g data-paper-data="{&quot;isPaintingLayer&quot;:true}" fill="none" fill-rule="nonzero" stroke="none" stroke-width="none" stroke-linecap="none" stroke-linejoin="miter" stroke-miterlimit="10" stroke-dasharray="" stroke-dashoffset="0" font-family="none" font-weight="none" font-size="none" text-anchor="none" style="mix-blend-mode: normal"><path d="M255.4045,149.84875c1.33534,0.17075 3.26791,-1.03231 4.06076,0.10952c1.80738,0.51087 4.30601,-1.54995 5.74935,-1.57267c-1.03461,1.77486 -0.72467,3.61601 0.07797,5.1143c-5.48991,-1.014 -2.65907,-0.24094 -5.73985,-0.6018c-1.33332,1.16225 -4.13108,1.68591 -5.31479,1.66678c-3.58486,-0.05991 -7.82977,-2.8358 -7.59716,-4.66791c0.19332,-1.51896 4.357,-3.03563 8.76372,-0.04822z" data-paper-data="{&quot;origRot&quot;:0}" fill="#03b000" stroke="#000000" stroke-width="0.8" stroke-linecap="butt"/><path d="M247.01341,171.53237c0.05484,2.75446 -0.61998,5.16797 -1.66512,6.47263c0.28687,1.89937 0.13978,4.59335 -0.50934,7.49947c-0.50262,2.25352 -1.22406,4.26252 -2.01977,5.79874c0.00087,-0.0005 0.00223,-0.00013 0.00223,-0.00013c0.57707,-0.80643 -0.51877,2.36196 0.41002,5.89342c0.08452,0.32393 4.24315,10.0508 3.16717,8.62874c-2.62667,-3.57246 -3.98213,0.48531 -4.04051,-0.09232c-1.06032,-10.30548 -4.82899,-10.71763 -4.54554,-14.46544c0.00991,-0.12331 0.06342,-0.22091 0.13742,-0.30492c-0.17115,-1.84243 0.00874,-4.27042 0.58756,-6.86519c0.63351,-2.8349 1.61104,-5.28153 2.65072,-6.88287c-0.7671,-1.34803 -1.27566,-3.32422 -1.31934,-5.54311c-0.08121,-4.10576 1.45245,-7.46558 3.42564,-7.5054c1.97332,-0.03759 3.63715,3.25978 3.71886,7.36641z" data-paper-data="{&quot;origRot&quot;:0}" fill="#03b000" stroke="#000000" stroke-width="0.8" stroke-linecap="butt"/><path d="M257.62176,139.28492c1.15672,2.01453 -1.09029,1.95904 -1.85165,4.15356c-3.11478,9.78998 -0.58612,10.72156 -4.47,20.23245c-1.64477,4.02786 -1.80589,6.4785 -8.75392,11.9924c-1.15571,0.91728 -2.22504,1.02506 -3.19408,0.68895c-0.07925,0.3038 -0.16606,0.60849 -0.26787,0.91717c-0.8638,2.61658 -2.30083,4.66862 -3.71956,5.55358c-0.36025,1.88695 -1.39424,4.37984 -2.97106,6.90537c-1.22202,1.95857 -2.56895,3.61525 -3.82978,4.7993c0.00087,-0.0005 0.00137,0.00037 0.00186,0.00124c0.81299,-0.56828 -1.27379,2.05518 -1.56974,5.69485c-0.02784,0.33309 0.66524,10.88864 0.12253,9.19037c-1.29183,-4.24204 -3.91746,-0.86408 -3.78157,-1.42872c2.42244,-10.07394 -0.99626,-11.71217 0.51565,-15.15406c0.04987,-0.11397 0.13344,-0.18732 0.23107,-0.24222c0.44974,-1.79535 1.42549,-4.02418 2.83331,-6.2797c1.53825,-2.46417 3.2731,-4.44737 4.7854,-5.61322c-0.27654,-1.52592 -0.09943,-3.5591 0.59576,-5.66604c0.57057,-1.7275 1.39133,-3.21006 2.29172,-4.27479c-0.08754,-0.16652 -0.20963,-0.30283 -0.23834,-0.45124c-2.72253,-14.19648 1.63877,-26.92657 3.61544,-30.36433c1.29619,-2.25715 4.50563,-4.56814 6.06681,-4.83148c2.63569,-0.44443 4.80127,0.47538 7.08072,0.92275c2.27809,0.447 5.35059,1.23928 6.50731,3.25382z" data-paper-data="{&quot;origRot&quot;:0}" fill="#03b000" stroke="#000000" stroke-width="0.8" stroke-linecap="butt"/><path d="M243.36621,131.60216c0.82219,-1.33347 3.15228,-1.04894 4.66938,-0.67812c1.14577,0.32458 1.91708,1.55142 2.49082,2.54461c0.6015,1.03953 1.036,2.23606 0.98732,3.46671c-0.03699,0.94374 -0.46345,2.06267 -1.25608,2.51779c-0.7935,0.45562 -1.80919,0.35155 -2.8094,-0.18344c-0.99848,-0.53599 -2.09327,-1.63936 -2.71283,-2.77461c-0.7935,-1.45626 -2.23045,-3.49092 -1.36921,-4.89294z" data-paper-data="{&quot;origRot&quot;:0}" id="ID0.257101490162313_9_" fill="#ffffff" stroke="#000000" stroke-width="0.6802" stroke-linecap="butt"/><path d="M248.75462,135.22284c0.27404,-0.15735 0.59749,-0.17241 0.89651,-0.06735c0.29989,0.10456 0.57521,0.327 0.75795,0.64527c0.18125,0.31566 0.2342,0.66695 0.17419,0.97815c-0.06001,0.3112 -0.23607,0.58296 -0.51011,0.74031c-0.27404,0.15735 -0.59749,0.17241 -0.89651,0.06735c-0.29939,-0.10369 -0.57608,-0.3265 -0.75782,-0.64304c-0.18225,-0.3174 -0.2347,-0.66781 -0.17432,-0.98038c0.05914,-0.31071 0.2352,-0.58246 0.51011,-0.74031z" data-paper-data="{&quot;origRot&quot;:0}" id="ID0.13991053588688374_9_" fill="#000000" stroke="none" stroke-width="1" stroke-linecap="butt"/><path d="M239.08589,135.06654c0.65634,-1.57611 2.18489,-3.33823 3.8471,-3.27098c1.64893,0.12446 2.49861,2.29107 3.29681,3.68121c0.67371,1.17334 1.10869,2.72014 1.05608,3.90578c-0.05174,1.18514 -0.50393,2.16087 -1.34339,2.64288c-0.83946,0.48201 -1.91096,0.38116 -2.95971,-0.17209c-1.05048,-0.55225 -2.10372,-1.59531 -2.84167,-2.88052c-0.73795,-1.28521 -1.55621,-2.65806 -1.05522,-3.90628z" data-paper-data="{&quot;origRot&quot;:0}" id="ID0.257101490162313_8_" fill="#ffffff" stroke="#000000" stroke-width="0.6802" stroke-linecap="butt"/><path d="M244.22236,137.78253c0.27491,-0.15785 0.59749,-0.17241 0.89738,-0.06785c0.29989,0.10456 0.57521,0.327 0.75746,0.6444c0.18225,0.3174 0.2337,0.66608 0.17369,0.97728c-0.06137,0.31084 -0.2352,0.58246 -0.51097,0.74081c-0.27404,0.15735 -0.59749,0.17241 -0.89651,0.06735c-0.29989,-0.10456 -0.57521,-0.327 -0.75746,-0.6444c-0.18225,-0.3174 -0.2342,-0.66695 -0.17469,-0.97902c0.06187,-0.30997 0.23706,-0.58122 0.5111,-0.73857z" data-paper-data="{&quot;origRot&quot;:0}" id="ID0.13991053588688374_8_" fill="#000000" stroke="none" stroke-width="1" stroke-linecap="butt"/><path d="M256.51889,142.17599c0,0 -1.7919,2.16702 -3.46811,3.12371c-3.92782,2.26683 -8.43537,2.2086 -10.64752,1.49887" data-paper-data="{&quot;origRot&quot;:0}" id="ID0.5298761413432658_4_" fill="none" stroke="#000000" stroke-width="0.8" stroke-linecap="round"/><path d="M256.52013,142.17413c-0.29092,0.33079 -0.56446,0.73 -0.75002,1.26436c-3.11478,9.78998 -0.70264,10.51864 -4.47,20.23245c-1.57327,4.05599 -1.50584,6.30621 -8.75392,11.9924c-0.6604,0.51872 -1.48767,0.41948 -2.14113,0.39801c5.4189,-7.01824 6.19729,-12.11918 6.584,-18.70761c0.17203,-2.92969 -0.81014,-7.02205 0.42273,-10.08232c0.00087,-0.0005 0.0031,-0.00063 0.00397,-0.00112c1.50752,-0.05957 3.26186,-0.60103 5.6359,-1.97109c1.67484,-0.95706 3.46761,-3.12457 3.46847,-3.12507z" data-paper-data="{&quot;origRot&quot;:0}" fill="#54e851" stroke="#000000" stroke-width="0.8" stroke-linecap="round"/><path d="M235.7917,162.20678c-0.55001,-0.9579 -0.21936,-2.18029 0.73854,-2.7303c0.9579,-0.55001 2.18029,-0.21936 2.7303,0.73854c0.55001,0.9579 0.21936,2.18029 -0.73854,2.7303c-0.9579,0.55001 -2.18029,0.21936 -2.7303,-0.73854z" data-paper-data="{&quot;origRot&quot;:0}" fill="#026b00" stroke="none" stroke-width="1" stroke-linecap="butt"/><path d="M238.45786,156.30673c-0.65341,-1.13798 -0.2606,-2.59019 0.87738,-3.2436c1.13798,-0.65341 2.59019,-0.2606 3.2436,0.87738c0.65341,1.13798 0.2606,2.59019 -0.87738,3.2436c-1.13798,0.65341 -2.59019,0.2606 -3.2436,-0.87738z" data-paper-data="{&quot;origRot&quot;:0}" fill="#026b00" stroke="none" stroke-width="1" stroke-linecap="butt"/><path d="M236.37553,150.97916c-0.55001,-0.9579 -0.21936,-2.18029 0.73854,-2.7303c0.9579,-0.55001 2.18029,-0.21936 2.7303,0.73854c0.55001,0.9579 0.21936,2.18029 -0.73854,2.7303c-0.9579,0.55001 -2.18029,0.21936 -2.7303,-0.73854z" data-paper-data="{&quot;origRot&quot;:0}" fill="#026b00" stroke="none" stroke-width="1" stroke-linecap="butt"/><path d="M238.99135,146.16427c-0.36878,-0.64227 -0.14707,-1.46189 0.49519,-1.83067c0.64227,-0.36878 1.46189,-0.14707 1.83067,0.49519c0.36878,0.64227 0.14707,1.46189 -0.49519,1.83067c-0.64227,0.36878 -1.46189,0.14707 -1.83067,-0.49519z" data-paper-data="{&quot;origRot&quot;:0}" fill="#026b00" stroke="none" stroke-width="1" stroke-linecap="butt"/><path d="M251.99094,158.57414c0.97832,0.92463 3.24839,1.09258 3.21518,2.48271c1.15982,1.4777 4.39289,1.28642 5.57146,2.11799c-1.88225,0.82477 -2.71639,2.4949 -2.95092,4.17705c-3.83714,-4.05591 -2.00533,-1.76135 -4.28241,-3.86943c-1.76234,0.15399 -4.33167,-1.07135 -5.27681,-1.78556c-2.86027,-2.16182 -4.65412,-6.90665 -3.3863,-8.24923c1.05261,-1.11292 5.31006,0.11636 7.10979,5.12648z" data-paper-data="{&quot;origRot&quot;:0}" fill="#03b000" stroke="#000000" stroke-width="0.8" stroke-linecap="butt"/></g></g></svg>