<svg version="1.1" xmlns="http://www.w3.org/2000/svg" xmlns:xlink="http://www.w3.org/1999/xlink" width="31.32123" height="18.14219" viewBox="0,0,31.32123,18.14219"><g transform="translate(-227.65317,-149.31784)"><g data-paper-data="{&quot;isPaintingLayer&quot;:true}" fill-rule="nonzero" stroke="#000000" stroke-width="1.45293" stroke-linejoin="miter" stroke-miterlimit="10" stroke-dasharray="" stroke-dashoffset="0" style="mix-blend-mode: normal"><path d="M229.55659,166.44309c0,0 -0.57971,-2.20135 -0.97108,-3.68753c-0.5983,-2.27196 -0.44502,-9.89507 8.33732,-12.16204c8.93443,-2.30623 13.22503,3.25462 13.82163,5.52011c3.67323,-0.59587 6.41119,-0.36381 7.1176,0.40134c0.68355,1.22748 0.72321,2.29748 0.38588,3.21568c-1.08534,2.95434 -6.07334,4.33713 -6.07334,4.33713c0,0 0.03785,-2.16897 -1.61191,-2.58942c-1.56548,-0.39897 -10.34118,0.12777 -10.34118,0.12777z" fill="#ff0000" stroke-linecap="butt"/><path d="M250.74964,156.17024c-6.22433,1.08347 -10.36314,3.08198 -10.36314,3.08198" fill="none" stroke-linecap="round"/></g></g></svg>