<svg version="1.1" xmlns="http://www.w3.org/2000/svg" xmlns:xlink="http://www.w3.org/1999/xlink" width="47.14435" height="39.90625" viewBox="0,0,47.14435,39.90625"><g transform="translate(-218.79723,-124.50731)"><g data-paper-data="{&quot;isPaintingLayer&quot;:true}" fill-rule="nonzero" stroke-width="1" stroke-linecap="round" stroke-linejoin="miter" stroke-miterlimit="10" stroke-dasharray="" stroke-dashoffset="0" style="mix-blend-mode: normal"><path d="M239.47245,163.81358c-8.33837,-0.24147 -11.11631,-0.50725 -11.02461,-1.86739c0.05421,-2.10973 1.19144,-1.56918 1.3242,-3.67215c0.1174,-1.87093 -1.12402,-5.78498 -1.12892,-7.62626c0.03446,-1.89546 1.38094,-2.39508 2.0183,-4.09091c0.5558,-1.48077 1.9807,-2.60666 2.37033,-3.61211c0.53381,-1.3775 0.0891,-2.52891 1.62607,-4.0571c0.77277,-0.76646 1.32037,0.41876 2.33156,-0.67804c0.7231,-0.78431 0.41821,-0.22141 0.73878,-1.46707c0.27697,-1.07624 1.37294,-1.70958 1.98035,-1.95555c1.56944,-0.643 1.72936,-0.6995 3.35295,-0.52019c2.80229,0.30961 3.10236,0.558 4.91833,2.77225c1.71173,1.98943 3.06133,5.58778 1.59372,6.52884c-0.30379,3.00058 1.51823,1.42641 1.67379,4.41102c0.0221,3.55589 0.58414,2.73178 1.58905,4.81822c0.0689,0.14306 2.22719,3.18805 2.2731,3.3357c0.73209,2.42956 -0.56154,5.14056 -0.70957,7.58c-0.0784,1.29957 -4.07462,0.41522 -8.02742,0.30075z" data-paper-data="{&quot;index&quot;:null}" fill="#000000" stroke="none"/><path d="M220.09052,160.80171c-2.00386,-0.41703 0.17969,-2.86349 2.22661,-3.21867c6.70422,-1.16496 14.09187,-0.99384 21.17132,-1.06848c6.42,-0.06827 13.135,-0.67212 19.05214,0.48818c2.47072,0.52772 3.1544,2.53756 2.82288,3.91409c-0.23293,0.96359 -2.30147,1.94136 -4.19461,2.0664c-5.44375,0.35035 -11.07439,-0.33939 -16.64405,-0.60403c-8.11458,-0.4606 -16.74268,0.02238 -24.43427,-1.5775z" data-paper-data="{&quot;index&quot;:null}" fill="#186d2e" stroke="#000000"/><path d="M231.63251,157.5329c-1.2578,-0.3468 -1.33055,-2.03927 -1.4366,-3.16071c-0.11244,-1.43061 -0.91061,-4.18778 0.80076,-4.3851c4.07518,-0.45639 7.7736,2.57423 11.84692,3.1837c2.66475,0.3226 5.5154,-1.12652 8.07988,-0.42845c1.57199,0.42665 2.88689,1.85826 3.17753,3.26155c0.11463,1.03934 -0.97216,2.4021 -2.20352,2.61567c-2.88586,0.50211 -5.96821,-0.52523 -9.00015,-0.67992c-3.71753,-0.20837 -7.62917,0.59333 -11.26482,-0.40673z" data-paper-data="{&quot;index&quot;:null}" fill="#189364" stroke="none"/><path d="M231.31672,150.52144c-0.16156,-1.04454 -0.66644,-3.00208 0.78128,-3.05085c5.79265,-0.19662 11.58883,1.04986 17.16302,2.39988c1.34554,0.38195 1.59654,1.75721 0.81732,2.10104c-2.59258,1.1445 -5.74395,1.31312 -8.68988,1.38509c-2.84242,0.06868 -5.75982,-0.36027 -8.44759,-1.13986c-0.82392,-0.23807 -1.4782,-1.00774 -1.62416,-1.69531z" data-paper-data="{&quot;index&quot;:null}" fill="#2bb14b" stroke="none"/><path d="M232.33166,145.67786c0.65177,-1.17083 2.06002,-2.74976 3.86183,-2.5747c4.46452,0.53937 8.5412,2.59408 12.41626,4.42992c0.97639,0.46257 1.51718,1.37904 1.1253,1.90676c-0.38989,0.5095 -1.41612,0.39587 -2.48047,0.26738c-4.47596,-0.62948 -9.01497,-1.29091 -13.23808,-2.41848c-1.05616,-0.28254 -2.00984,-1.02751 -1.68484,-1.61086z" data-paper-data="{&quot;index&quot;:null}" fill="#6cb552" stroke="none"/><path d="M250.10106,146.72223c0.28725,0.46896 -0.46841,0.98561 -1.55633,0.70589c-4.35095,-1.11703 -9.01254,-1.92887 -12.91554,-3.81835c-1.19216,-0.57747 -1.61926,-2.10676 -1.34928,-3.13747c0.19251,-0.7353 1.41089,-1.33079 2.35489,-1.16291c2.90726,0.51488 5.88807,1.62075 8.51527,3.03123c1.96405,1.11739 3.67695,2.64837 4.951,4.38161z" data-paper-data="{&quot;index&quot;:null}" fill="#189364" stroke="none"/><path d="M245.62467,144.52204c-1.53752,-0.18657 -5.77685,-2.86884 -6.61709,-3.84025c-0.7836,-0.90985 -0.32657,-3.60877 0.54907,-4.46473c0.75227,-0.72963 1.98227,-1.24991 3.26069,-1.01218c1.52096,0.28417 3.15137,1.11597 4.28513,2.25081c0.85854,0.86016 2.47947,3.82606 2.25679,4.77589c-0.46554,1.98574 -1.93352,2.4595 -3.73459,2.29047z" data-paper-data="{&quot;index&quot;:null}" fill="#ff0000" stroke="none"/><path d="M248.11538,129.41112c-0.77854,2.46728 -3.04035,6.91878 -3.32459,6.8075c-0.28523,-0.1106 0.38454,-5.30716 1.08192,-7.77307c0.27688,-0.8719 1.1658,-1.9845 1.7047,-1.77612c0.51461,0.19958 0.75196,1.82596 0.53797,2.74169z" data-paper-data="{&quot;index&quot;:null}" fill="#866e93" stroke="#000000"/><path d="M244.04564,126.95112c0.3504,2.89088 0.26723,8.78439 0.02889,8.81522c-0.2391,0.03053 -1.79433,-5.60372 -2.19162,-8.56735c-0.08357,-0.79623 0.30642,-2.12565 0.81467,-2.19168c0.53188,-0.06824 1.21874,1.08389 1.34806,1.94381z" data-paper-data="{&quot;index&quot;:null}" fill="#866e93" stroke="#000000"/></g></g></svg>