<svg version="1.1" xmlns="http://www.w3.org/2000/svg" xmlns:xlink="http://www.w3.org/1999/xlink" width="16.01866" height="15.92294" viewBox="0,0,16.01866,15.92294"><g transform="translate(-231.16978,-170.07733)"><g data-paper-data="{&quot;isPaintingLayer&quot;:true}" fill="none" fill-rule="nonzero" stroke="none" stroke-width="none" stroke-linecap="butt" stroke-linejoin="miter" stroke-miterlimit="10" stroke-dasharray="" stroke-dashoffset="0" font-family="none" font-weight="none" font-size="none" text-anchor="none" style="mix-blend-mode: normal"><path d="M240.59614,171.3899c1.8491,-1.005 4.3801,0.8892 5.9005,2.3364c1.1191,1.1458 1.1966,3.0945 1.2007,4.6379c0.0055,1.6153 -0.2895,3.3023 -1.1698,4.7049c-0.6758,1.0754 -1.9225,2.0951 -3.1527,2.0951c-1.2301,0 -2.3451,-0.8014 -3.1526,-2.0951c-0.8076,-1.2945 -1.3448,-3.3142 -1.307,-5.0536c0.0494,-2.2318 -0.2635,-5.5683 1.6809,-6.6256z" data-paper-data="{&quot;origPos&quot;:null}" id="ID0.257101490162313" fill="#ffffff" stroke="#000000" stroke-width="1.38359"/><path d="M244.38296,178.33694c0.44552,0 0.85002,0.2091 1.1419,0.54589c0.29272,0.33752 0.47367,0.80282 0.47367,1.31679c0,0.51397 -0.18095,0.97927 -0.47367,1.31689c-0.29189,0.33678 -0.69638,0.54589 -1.1419,0.54589c-0.44552,0 -0.85002,-0.2091 -1.14201,-0.54589c-0.29272,-0.33762 -0.47367,-0.80292 -0.47367,-1.31689c0,-0.51397 0.18095,-0.97927 0.47367,-1.31679c0.29199,-0.33678 0.69649,-0.54589 1.14201,-0.54589z" data-paper-data="{&quot;origPos&quot;:null}" id="ID0.13991053588688374" fill="#000000" stroke="none" stroke-width="0.72647"/><path d="M233.28014,172.5636c1.8198,-1.4014 4.7881,-2.4264 6.6799,-1.2379c1.8401,1.2495 1.381,4.3471 1.3802,6.5018c-0.0007,1.8198 -0.5288,3.9157 -1.3839,5.264c-0.855,1.3476 -2.0355,2.1823 -3.3381,2.1823c-1.3025,0 -2.483,-0.8347 -3.3381,-2.1823c-0.855,-1.3483 -1.3839,-3.2698 -1.3839,-5.264c0,-1.9941 -0.0349,-4.143 1.3839,-5.2639z" data-paper-data="{&quot;origPos&quot;:null}" id="ID0.257101490162313" fill="#ffffff" stroke="#000000" stroke-width="1.45293"/><path d="M237.31108,178.12119c0.46534,0 0.88784,0.21841 1.19271,0.57017c0.30575,0.35253 0.49475,0.83854 0.49475,1.37537c0,0.53683 -0.189,1.02284 -0.49475,1.37548c-0.30487,0.35177 -0.72737,0.57017 -1.19271,0.57017c-0.46534,0 -0.88784,-0.21841 -1.19282,-0.57017c-0.30575,-0.35264 -0.49475,-0.83865 -0.49475,-1.37548c0,-0.53683 0.189,-1.02284 0.49475,-1.37537c0.30498,-0.35177 0.72747,-0.57017 1.19282,-0.57017z" data-paper-data="{&quot;origPos&quot;:null}" id="ID0.13991053588688374" fill="#000000" stroke="none" stroke-width="0.72647"/></g></g></svg>