<svg xmlns="http://www.w3.org/2000/svg" xmlns:xlink="http://www.w3.org/1999/xlink" version="1.1" width="58.02285848946233" height="100.43405233711859" viewBox="1.5046775992171988 1.9204691107528433 58.02285848946233 100.43405233711859">
  <!-- Exported by Scratch - http://scratch.mit.edu/ -->
  <path id="ID0.7276925835758448" fill="#009933" stroke="#000000" stroke-width="2.218842376181081" d="M 27.5115 26.0991 L 33.8808 26.0991 L 33.8808 101.2451 L 27.5115 101.2451 L 27.5115 26.0991 Z "/>
  <path id="ID0.39049806632101536" fill="#E5E5E5" stroke="#000000" stroke-width="1.6625344268090025" stroke-linecap="round" d="M 39.8861 4.5597 C 43.3091 5.7469 48.533 7.3235 48.7059 10.9813 C 48.9688 15.6022 44.1633 19.0842 40.7115 21.9073 C 38.7873 23.7476 35.7762 25.1651 33.3562 24.2888 C 30.7276 23.3338 28.9593 20.3905 28.4795 17.8588 C 27.7287 13.2883 26.9786 7.6182 29.8965 4.318 C 32.1025 1.8276 36.9414 3.536 39.8861 4.5597 Z "/>
  <path id="ID0.39049806632101536" fill="#E5E5E5" stroke="#000000" stroke-width="1.6625345406411982" stroke-linecap="round" d="M 23.1549 55.5899 C 19.6791 54.5676 14.3857 53.2425 14.0382 49.5972 C 13.5547 44.9941 18.1883 41.2864 21.5012 38.3015 C 23.3353 36.3714 26.2752 34.8116 28.7343 35.5712 C 31.4056 36.3994 33.3125 39.2548 33.9128 41.7607 C 34.8811 46.2901 35.9015 51.9178 33.1446 55.3538 C 31.0602 57.9467 26.1452 56.4716 23.1549 55.5899 Z "/>
  <g id="ID0.5187980546616018">
    <path id="ID0.39049806632101536" fill="#E5E5E5" stroke="#000000" stroke-width="1.6625345833812464" stroke-linecap="round" d="M 57.5468 24.5188 C 58.2505 28.0728 59.5274 33.378 56.4575 35.3741 C 52.6017 37.9344 47.1697 35.5447 42.9899 33.9908 C 40.4299 33.2591 37.686 31.3759 37.2204 28.8446 C 36.7173 26.0935 38.3649 23.081 40.3079 21.3884 C 43.8739 18.4326 48.3892 14.922 52.7112 15.7742 C 55.9747 16.4208 56.9435 21.4601 57.5468 24.5188 Z "/>
    <path id="ID0.39049806632101536" fill="#E5E5E5" stroke="#000000" stroke-width="1.66253458709994" stroke-linecap="round" d="M 50.1368 50.3235 C 47.4368 52.7394 43.5219 56.5405 40.2404 54.9155 C 36.0731 52.9016 35.3627 47.0099 34.5707 42.6215 C 33.8964 40.0457 34.1193 36.7252 36.0604 35.0351 C 38.1717 33.2009 41.6033 33.0843 44.0495 33.8941 C 48.4096 35.4572 53.7306 37.5546 55.1988 41.708 C 56.3047 44.8457 52.4616 48.2463 50.1368 50.3235 Z "/>
  </g>
  <g id="ID0.5187980546616018">
    <path id="ID0.39049806632101536" fill="#E5E5E5" stroke="#000000" stroke-width="1.6625344749532427" stroke-linecap="round" d="M 12.6962 10.1945 C 10.0111 12.627 5.8213 16.1228 7.0941 19.5563 C 8.6611 23.9114 14.4461 25.2342 18.7276 26.4809 C 21.2187 27.421 24.5444 27.5466 26.4282 25.7929 C 28.4732 23.8852 28.9482 20.4846 28.3987 17.967 C 27.3003 13.4674 25.7709 7.9561 21.7939 6.0616 C 18.7891 4.6335 15.0052 8.0998 12.6962 10.1945 Z "/>
    <path id="ID0.39049806632101536" fill="#E5E5E5" stroke="#000000" stroke-width="1.662534488910842" stroke-linecap="round" d="M 3.3451 35.3556 C 4.0706 38.9052 4.9447 44.2915 8.5477 44.9451 C 13.0936 45.815 17.1788 41.5106 20.4325 38.4612 C 22.5103 36.7964 24.3125 33.9985 23.7629 31.4841 C 23.1629 28.7525 20.4785 26.6116 18.0321 25.8021 C 13.6005 24.4553 8.0788 22.964 4.4227 25.4214 C 1.6631 27.2797 2.7186 32.3016 3.3451 35.3556 Z "/>
  </g>
  <path id="ID0.7361565814353526" fill="#FF9400" stroke="#000000" stroke-width="2.000000001944933" d="M 34.8493 20.2218 C 37.796 21.1972 40.0694 23.2779 41.3635 25.8508 C 42.6563 28.4244 42.9699 31.4902 41.9946 34.437 C 41.0192 37.3837 38.9385 39.6571 36.3656 40.9512 C 33.792 42.244 30.7262 42.5576 27.7794 41.5823 C 24.8326 40.6069 22.5593 38.5262 21.2652 35.9533 C 19.9724 33.3797 19.6588 30.3139 20.6341 27.3671 C 21.6095 24.4203 23.6902 22.147 26.2631 20.8529 C 28.8367 19.5601 31.9025 19.2465 34.8493 20.2218 Z "/>
</svg>