<svg version="1.1" xmlns="http://www.w3.org/2000/svg" xmlns:xlink="http://www.w3.org/1999/xlink" width="76.6" height="36.28729" viewBox="0,0,76.6,36.28729"><defs><radialGradient cx="233.8354" cy="172.6078" r="17.28727" fx="241.4547" fy="164.16519" gradientUnits="userSpaceOnUse" id="color-1"><stop offset="0.15" stop-color="#990000"/><stop offset="0.42" stop-color="#8d0000"/><stop offset="0.89" stop-color="#6e0000"/><stop offset="1" stop-color="#660000"/></radialGradient></defs><g transform="translate(-213.66,-160.32771)"><g data-paper-data="{&quot;isPaintingLayer&quot;:true}" fill="none" fill-rule="nonzero" stroke="none" stroke-width="none" stroke-linecap="none" stroke-linejoin="miter" stroke-miterlimit="10" stroke-dasharray="" stroke-dashoffset="0" font-family="none" font-weight="none" font-size="none" text-anchor="none" style="mix-blend-mode: normal"><path d="M274.15,192.235c-2.77,1.77 -25,2 -37.45,2c-12.45,0 -22.54,0.09 -22.54,-2.24c0,-2.33 15.13,-4.22 27.5,-5.21c4.46,-0.35 21.5,-0.83 24.75,0.05c5.94,1.61 9.25,4.43 7.74,5.4z" fill="#ff0000" stroke="#000000" stroke-width="1" stroke-linecap="butt"/><path d="M250.05,172.385c1.46,8.4 2.4,15.26 -15.38,18.36c-8.88,1.58 -15.29,-4.35 -16.75,-12.75c-1.46,-8.4 3.74,-15.31 12.59,-16.86c8.85,-1.55 18.07,2.85 19.54,11.25z" fill="url(#color-1)" stroke="#000000" stroke-width="1" stroke-linecap="round"/><path d="M274.66,180.325c2.11502,1.3383 3.67707,3.39381 4.4,5.79c0.71555,2.19905 0.40073,4.60357 -0.85685,6.54428c-1.25758,1.94071 -3.32365,3.21042 -5.62315,3.45572c-5.12602,0.58219 -9.94181,-2.56256 -11.47,-7.49c-0.72348,-2.19923 -0.41208,-4.60779 0.84693,-6.55071c1.25901,-1.94292 3.33017,-3.21115 5.63307,-3.44929c2.48429,-0.29978 4.99356,0.30358 7.07,1.7z" id="ID0.3849619720131159" fill="#ff0000" stroke="#000000" stroke-width="1" stroke-linecap="butt"/><path d="M269.72,192.745c0,0 -1.01,0.03 -1.33,-0.29c-0.62,-0.62 -0.56,-0.7 -1.25,-2.33" id="ID0.5298761413432658" fill="none" stroke="#000000" stroke-width="1" stroke-linecap="round"/><path d="M278.21,173.025c-1.16,4.09 -2.9,6.44 -5.35,9.48" fill="#ff0000" stroke="none" stroke-width="1" stroke-linecap="butt"/><path d="M278.21,173.025c-1.16,4.09 -2.9,6.44 -5.35,9.48" fill="none" stroke="#000000" stroke-width="3.5" stroke-linecap="butt"/><path d="M278.21,173.025c-1.16,4.09 -2.9,6.44 -5.35,9.48" fill="none" stroke="#ff0000" stroke-width="1.5" stroke-linecap="butt"/><path d="M276.09,184.585c2.43,-3.04 4.9,-6.02 7,-8.39" fill="#ff0000" stroke="none" stroke-width="1" stroke-linecap="butt"/><path d="M276.09,184.585c2.43,-3.04 4.9,-6.02 7,-8.39" fill="none" stroke="#000000" stroke-width="3.5" stroke-linecap="butt"/><path d="M276.09,184.585c2.43,-3.04 4.9,-6.02 7,-8.39" fill="none" stroke="#ff0000" stroke-width="1.5" stroke-linecap="butt"/><path d="M286.66,168.325c1.61,0 2.61,2.22 3.1,3.76c0.32,1.18 -0.35,2.52 -0.92,3.56c-0.56947,1.13006 -1.44645,2.07636 -2.53,2.73c-0.87536,0.53092 -1.94927,0.6198 -2.9,0.24c-0.86137,-0.57167 -1.36771,-1.54656 -1.34,-2.58c-0.01779,-1.35927 0.32742,-2.69866 1,-3.88c0.86,-1.45 1.89,-3.83 3.59,-3.83z" id="ID0.257101490162313" fill="#ffffff" stroke="#000000" stroke-width="1" stroke-linecap="butt"/><path d="M286.34,175.055c0.28473,0.15969 0.48289,0.43858 0.54,0.76c0.06768,0.34175 0.01094,0.69643 -0.16,1c-0.16508,0.31304 -0.43895,0.5549 -0.77,0.68c-0.30155,0.12676 -0.64453,0.10862 -0.93103,-0.04925c-0.2865,-0.15787 -0.48505,-0.43811 -0.53897,-0.76075c-0.06768,-0.34175 -0.01094,-0.69643 0.16,-1c0.17111,-0.31201 0.44757,-0.55303 0.78,-0.68c0.29984,-0.11479 0.63436,-0.09661 0.92,0.05z" id="ID0.13991053588688374" fill="#000000" stroke="none" stroke-width="1" stroke-linecap="butt"/><path d="M279.77,165.585c1.74,-0.27 4.12,0.15 5,1.65c0.88,1.5 -0.69,3.43 -1.49,4.88c-0.68904,1.23209 -1.68449,2.26544 -2.89,3c-0.9105,0.59498 -2.06353,0.67815 -3.05,0.22c-0.91487,-0.58907 -1.45676,-1.61222 -1.43,-2.7c-0.04649,-1.41956 0.29954,-2.82442 1,-4.06c0.75,-1.31 1.49,-2.76 2.86,-2.99z" id="ID0.257101490162313-2" fill="#ffffff" stroke="#000000" stroke-width="1" stroke-linecap="butt"/><path d="M280.12,171.575c0.27695,0.16349 0.47279,0.43549 0.54,0.75c0.06838,0.34289 0.00785,0.69896 -0.17,1c-0.16508,0.31304 -0.43895,0.5549 -0.77,0.68c-0.30066,0.11568 -0.63691,0.09375 -0.92,-0.06c-0.29165,-0.14684 -0.49325,-0.42683 -0.54,-0.75c-0.06768,-0.34175 -0.01094,-0.69643 0.16,-1c0.16203,-0.31543 0.43696,-0.55822 0.77,-0.68c0.30312,-0.12166 0.64502,-0.0996 0.93,0.06z" id="ID0.13991053588688374-2" fill="#000000" stroke="none" stroke-width="1" stroke-linecap="butt"/><path d="M234.64,178.875c-0.69,2.9 -3.53,3.86 -5.26,2c-1.73,-1.86 -1.37,-4.55 -0.88,-6.39c0.35,-1.24 1.75,-2.89 4.65,-3c1.15796,-0.12525 2.3292,-0.0268 3.45,0.29c1.85927,0.7919 3.23992,2.40943 3.73,4.37c0.47347,1.93199 0.61883,3.92982 0.43,5.91c-0.05169,2.7302 -0.88455,5.38842 -2.4,7.66" fill="none" stroke="#000000" stroke-width="1" stroke-linecap="round"/></g></g></svg>