<svg xmlns="http://www.w3.org/2000/svg" xmlns:xlink="http://www.w3.org/1999/xlink" version="1.1" width="43.65288972854614" height="33.2338547706604" viewBox="0.03547263145446777 1.6728556156158447 43.65288972854614 33.2338547706604">
  <!-- Exported by Scratch - http://scratch.mit.edu/ -->
  <path id="ID0.4909940124489367" fill="#FF0000" stroke="#000000" stroke-width="1.1146791017092053" stroke-linecap="round" d="M 18.5121 2.4598 C 19.9959 2.1546 21.5043 3.0726 22.9247 3.6913 C 24.2078 4.2488 27.056 5.2599 26.5013 6.0754 C 25.6742 7.3414 22.3248 7.3623 20.1614 7.8534 C 19.5635 7.9892 18.6579 8.4576 18.3118 7.8519 C 17.7503 6.864 18.2411 5.6563 18.328 4.5945 C 18.3079 3.8552 17.9072 2.5851 18.5121 2.4598 Z "/>
  <path id="ID0.4909940124489367" fill="#FF0000" stroke="#000000" stroke-width="1.2078697030621093" stroke-linecap="round" d="M 28.0337 25.1323 C 29.0594 25.1028 30.0125 25.8976 30.7239 27.2057 C 31.435 28.5134 32.0189 30.5354 31.9625 32.3572 C 31.9006 33.3444 31.0909 33.4048 30.5726 33.4978 C 29.0782 33.9342 27.5151 33.9611 25.9799 33.63 C 25.4572 33.6369 24.6192 33.5084 24.5268 32.5711 C 24.3678 30.7581 24.8184 28.7331 25.4672 27.3569 C 26.0846 26.0473 27.008 25.1619 28.0337 25.1323 Z "/>
  <path id="ID0.4021690208464861" fill="#820000" stroke="#000000" stroke-width="1.0799822476319783" stroke-linecap="round" d="M 24.3586 6.1054 C 27.696 6.2302 31.3465 6.7867 33.9979 8.6119 C 36.5676 10.3798 38.8107 13.2106 38.9309 16.1315 C 39.0613 19.2826 37.3104 22.6393 34.7429 24.8103 C 32.2163 26.9485 28.4388 27.8059 25.039 27.7435 C 22.0519 27.8151 19.1896 26.349 16.7605 24.8277 C 14.5049 23.4455 13.3346 20.9195 11.147 19.4565 C 10.5914 19.0862 10.2999 20.5921 9.8996 19.9681 C 7.4433 8.9137 8.9935 14.2051 9.3893 11.7323 C 9.5027 11.0294 10.199 13.7641 11.0903 13.625 C 12.5181 13.3999 13.3414 11.8663 14.4925 11.0161 C 15.859 10.0053 17.137 8.7869 18.7451 7.9981 C 20.462 7.1315 22.3298 6.0297 24.3586 6.1054 Z "/>
  <path id="ID0.3849619720131159" fill="#FF0000" stroke="#000000" stroke-width="1.4529309272766113" d="M 31.8833 6.9478 C 34.9396 6.9478 37.7096 8.0266 39.7154 9.7687 C 41.7204 11.5115 42.9619 13.9175 42.9619 16.5735 C 42.9619 19.2294 41.7204 21.6355 39.7154 23.3783 C 37.7096 25.1203 34.9396 26.1991 31.8833 26.1991 C 28.8271 26.1991 26.0571 25.1203 24.0513 23.3783 C 22.0463 21.6355 20.8047 19.2294 20.8047 16.5735 C 20.8047 13.9175 22.0463 11.5115 24.0513 9.7687 C 26.0571 8.0266 28.8271 6.9478 31.8833 6.9478 Z "/>
  <path id="ID0.257101490162313" fill="#FFFFFF" stroke="#000000" stroke-width="1.3835861632155322" d="M 35.4589 4.6638 C 37.308 3.6588 39.839 5.553 41.3594 7.0002 C 42.4785 8.146 42.556 10.0947 42.5601 11.6381 C 42.5656 13.2534 42.2706 14.9404 41.3903 16.343 C 40.7145 17.4184 39.4678 18.4381 38.2376 18.4381 C 37.0075 18.4381 35.8925 17.6367 35.085 16.343 C 34.2774 15.0485 33.7402 13.0288 33.778 11.2894 C 33.8274 9.0576 33.5145 5.7211 35.4589 4.6638 Z "/>
  <path id="ID0.13991053588688374" fill="#000000" stroke="none" d="M 39.3176 12.4954 C 39.7433 12.4954 40.1298 12.6952 40.4087 13.017 C 40.6884 13.3395 40.8613 13.7841 40.8613 14.2752 C 40.8613 14.7663 40.6884 15.2109 40.4087 15.5335 C 40.1298 15.8553 39.7433 16.0551 39.3176 16.0551 C 38.8919 16.0551 38.5054 15.8553 38.2264 15.5335 C 37.9467 15.2109 37.7738 14.7663 37.7738 14.2752 C 37.7738 13.7841 37.9467 13.3395 38.2264 13.017 C 38.5054 12.6952 38.8919 12.4954 39.3176 12.4954 Z " stroke-width="0.7264654636383057"/>
  <path id="ID0.257101490162313" fill="#FFFFFF" stroke="#000000" stroke-width="1.4529309272766113" d="M 27.6929 5.8375 C 29.5127 4.4361 32.481 3.4111 34.3728 4.5996 C 36.2129 5.8491 35.7538 8.9467 35.753 11.1014 C 35.7523 12.9212 35.2242 15.0171 34.3691 16.3654 C 33.5141 17.713 32.3336 18.5477 31.031 18.5477 C 29.7285 18.5477 28.548 17.713 27.6929 16.3654 C 26.8379 15.0171 26.309 13.0956 26.309 11.1014 C 26.309 9.1073 26.2741 6.9584 27.6929 5.8375 Z "/>
  <path id="ID0.13991053588688374" fill="#000000" stroke="none" d="M 32.1176 12.4454 C 32.5433 12.4454 32.9298 12.6452 33.2087 12.967 C 33.4884 13.2895 33.6613 13.7341 33.6613 14.2252 C 33.6613 14.7163 33.4884 15.1609 33.2087 15.4835 C 32.9298 15.8053 32.5433 16.0051 32.1176 16.0051 C 31.6919 16.0051 31.3054 15.8053 31.0264 15.4835 C 30.7467 15.1609 30.5738 14.7163 30.5738 14.2252 C 30.5738 13.7341 30.7467 13.2895 31.0264 12.967 C 31.3054 12.6452 31.6919 12.4454 32.1176 12.4454 Z " stroke-width="0.7264654636383057"/>
  <path id="ID0.5298761413432658" fill="none" stroke="#000000" stroke-width="1.4529309272766113" stroke-linecap="round" d="M 30.7679 21.0677 C 32.4402 22.1981 32.4344 22.3114 33.4195 22.5206 C 33.9244 22.6231 34.8724 21.9758 34.8724 21.9758 "/>
  <path id="ID0.4909940124489367" fill="#FF0000" stroke="#000000" stroke-width="1.2078696868584715" stroke-linecap="round" d="M 21.8678 25.3602 C 22.8407 25.6865 23.461 26.7613 23.6773 28.2345 C 23.8935 29.7073 23.7438 31.8066 23.0622 33.497 C 22.6633 34.4022 21.8826 34.1795 21.364 34.088 C 19.8108 33.9818 18.3344 33.4677 17.0079 32.6272 C 16.5149 32.4533 15.7726 32.0435 16.0093 31.1319 C 16.4858 29.3754 17.6075 27.6302 18.6913 26.5625 C 19.7227 25.5464 20.8949 25.034 21.8678 25.3602 Z "/>
  <path id="ID0.4021690208464861" fill="#FF0000" stroke="#000000" stroke-width="1.0799822476319783" stroke-linecap="round" d="M 9.3893 11.7323 C 10.5369 15.5525 10.5063 17.9935 9.8996 19.9681 C 9.091 22.0398 8.0568 24.175 6.4975 25.8508 C 5.1888 27.3393 3.2621 28.8801 1.5077 29.2269 C 0.8194 29.3609 1.5236 27.9869 1.6211 27.0785 C 2.0113 23.4404 2.9332 19.7778 2.8686 16.0804 C 2.7631 12.4495 1.6121 8.8871 1.1108 5.2358 C 0.985 4.3232 0.393 2.9308 1.1108 3.0873 C 3.0738 3.5231 5.0391 5.1498 6.4975 6.7192 C 7.8697 8.1065 8.5433 10.0217 9.3893 11.7323 Z "/>
</svg>