<svg xmlns="http://www.w3.org/2000/svg" xmlns:xlink="http://www.w3.org/1999/xlink" version="1.1" width="62.81007766723633" height="32.06410026550293" viewBox="-0.11317825317382812 8.675813674926758 62.81007766723633 32.06410026550293">
  <!-- Exported by Scratch - http://scratch.mit.edu/ -->
  <path id="ID0.4909940124489367" fill="#182BB1" stroke="#000000" stroke-width="1.2078697030621093" stroke-linecap="round" d="M 27.9837 29.8823 C 29.0094 29.8528 29.9625 30.6476 30.6739 31.9557 C 31.385 33.2634 31.9689 35.2854 31.9125 37.1072 C 31.8506 38.0944 31.0409 38.1548 30.5226 38.2478 C 29.0282 38.6842 27.4651 38.7111 25.9299 38.38 C 25.4072 38.3869 24.5692 38.2584 24.4768 37.3211 C 24.3178 35.5081 24.7684 33.4831 25.4172 32.1069 C 26.0346 30.7973 26.958 29.9119 27.9837 29.8823 Z "/>
  <path id="ID0.4021690208464861" fill="#0144D8" stroke="#000000" stroke-width="1.29092494318226" stroke-linecap="round" d="M 37.6529 18.3792 C 40.7193 18.1552 44.253 17.8216 46.8764 18.9931 C 49.9065 20.3466 51.9795 22.7631 52.9246 25.1315 C 54.2128 28.3614 57.6437 32.7985 54.361 35.1577 C 49.8884 37.9977 41.9622 36.7005 36.292 36.2831 C 32.6752 36.016 29.6632 34.1438 26.3881 33.1627 C 22.168 31.8982 17.6591 30.9825 13.6113 29.5308 C 12.6013 29.0827 12.7162 28.5496 12.6285 27.9961 C 12.4077 26.5812 12.2535 25.3095 12.6285 24.0061 C 12.8115 23.3831 13.2182 22.7795 13.9893 22.5227 C 16.8637 21.5671 20.0239 20.941 23.1372 20.3742 C 27.8669 19.5138 32.7236 18.6196 37.6529 18.3792 Z "/>
  <path id="ID0.39371468499302864" fill="none" stroke="#01248D" stroke-width="4" stroke-linecap="round" d="M 48.1 34.5 L 35.85 33.9 L 25.6 30.3 L 14.85 27.35 L 22.6 28.7 L 31.35 29.85 L 41 30.7 L 48.1 34.5 Z "/>
  <path id="ID0.3849619720131159" fill="#4170FF" stroke="#000000" stroke-width="1.368016922899868" d="M 50.9562 17.4978 C 53.6434 17.4978 56.0789 18.5766 57.8424 20.3187 C 59.6053 22.0615 60.6969 24.4675 60.6969 27.1235 C 60.6969 29.7794 59.6053 32.1855 57.8424 33.9283 C 56.0789 35.6703 53.6434 36.7491 50.9562 36.7491 C 48.2691 36.7491 45.8336 35.6703 44.07 33.9283 C 42.3071 32.1855 41.2155 29.7794 41.2155 27.1235 C 41.2155 24.4675 42.3071 22.0615 44.07 20.3187 C 45.8336 18.5766 48.2691 17.4978 50.9562 17.4978 Z "/>
  <path id="ID0.257101490162313" fill="#FFFFFF" stroke="#000000" stroke-width="1.3835861632155322" d="M 53.8764 17.0968 C 55.486 16.4336 57.5985 17.433 58.9879 18.4917 C 60.0191 19.2917 60.3368 20.9041 60.3601 22.1881 C 60.3896 23.8034 60.0706 25.4904 59.1903 26.893 C 58.5145 27.9684 57.2678 28.9881 56.0376 28.9881 C 54.8075 28.9881 53.6925 28.1867 52.885 26.893 C 52.0774 25.5985 51.3948 23.5697 51.578 21.8394 C 51.7605 20.1111 52.3135 17.8661 53.8764 17.0968 Z "/>
  <path id="ID0.13991053588688374" fill="#000000" stroke="none" d="M 57.0176 23.0954 C 57.4433 23.0954 57.8298 23.2952 58.1087 23.617 C 58.3884 23.9395 58.5613 24.3841 58.5613 24.8752 C 58.5613 25.3663 58.3884 25.8109 58.1087 26.1335 C 57.8298 26.4553 57.4433 26.6551 57.0176 26.6551 C 56.5919 26.6551 56.2054 26.4553 55.9264 26.1335 C 55.6467 25.8109 55.4738 25.3663 55.4738 24.8752 C 55.4738 24.3841 55.6467 23.9395 55.9264 23.617 C 56.2054 23.2952 56.5919 23.0954 57.0176 23.0954 Z " stroke-width="0.7264654636383057"/>
  <path id="ID0.257101490162313" fill="#FFFFFF" stroke="#000000" stroke-width="1.4529309272766113" d="M 45.5162 17.9012 C 47.4849 16.834 50.1539 16.085 52.127 17.0294 C 53.577 17.79 53.3032 20.1946 53.253 21.7514 C 53.1942 23.5632 52.7242 25.6671 51.8691 27.0154 C 51.0141 28.363 49.8336 29.1977 48.531 29.1977 C 47.2285 29.1977 46.048 28.363 45.1929 27.0154 C 44.3379 25.6671 43.748 23.5683 43.809 21.7514 C 43.8584 20.2636 44.2776 18.5543 45.5162 17.9012 Z "/>
  <path id="ID0.13991053588688374" fill="#000000" stroke="none" d="M 49.6176 23.0954 C 50.0433 23.0954 50.4298 23.2952 50.7087 23.617 C 50.9884 23.9395 51.1613 24.3841 51.1613 24.8752 C 51.1613 25.3663 50.9884 25.8109 50.7087 26.1335 C 50.4298 26.4553 50.0433 26.6551 49.6176 26.6551 C 49.1919 26.6551 48.8054 26.4553 48.5264 26.1335 C 48.2467 25.8109 48.0738 25.3663 48.0738 24.8752 C 48.0738 24.3841 48.2467 23.9395 48.5264 23.617 C 48.8054 23.2952 49.1919 23.0954 49.6176 23.0954 Z " stroke-width="0.7264654636383057"/>
  <path id="ID0.5298761413432658" fill="none" stroke="#000000" stroke-width="1.4529309272766113" stroke-linecap="round" d="M 48.4679 31.6677 C 50.1402 32.7981 50.1344 32.9114 51.1195 33.1206 C 51.6244 33.2231 52.5724 32.5758 52.5724 32.5758 "/>
  <path id="ID0.4909940124489367" fill="#4170FF" stroke="#000000" stroke-width="1.2078697161705334" stroke-linecap="round" d="M 25.9973 30.0981 C 26.8616 30.6513 27.2018 31.8448 27.0531 33.3263 C 26.9045 34.8074 26.2485 36.8072 25.1762 38.281 C 24.5691 39.062 23.866 38.656 23.3853 38.4411 C 21.9046 37.9602 20.5976 37.1024 19.5154 35.9643 C 19.0795 35.6758 18.4593 35.0977 18.9107 34.271 C 19.8001 32.6832 21.3127 31.2635 22.6238 30.4915 C 23.8714 29.7568 25.1331 29.545 25.9973 30.0981 Z "/>
  <path id="ID0.4021690208464861" fill="#4170FF" stroke="#000000" stroke-width="0.971200659242261" stroke-linecap="round" d="M 12.3292 19.3323 C 13.2566 23.1525 13.2319 25.5935 12.7416 27.5681 C 12.0882 29.6398 11.2378 31.733 9.9924 33.4508 C 8.7525 35.1613 7.2093 36.6458 5.4563 37.5942 C 4.4253 38.1559 2.3378 38.5754 1.9282 37.85 C 1.5827 37.0919 3.5016 35.7967 3.9442 34.6273 C 5.4315 30.7519 7.4787 26.9246 7.7931 22.7085 C 8.0442 19.3364 6.2645 16.1342 5.6395 12.8358 C 5.4838 12.0112 5.0595 10.5308 5.6395 10.6873 C 7.2258 11.1231 8.8139 12.7498 9.9924 14.3192 C 11.1012 15.7065 11.6456 17.6217 12.3292 19.3323 Z "/>
  <path id="ID0.4909940124489367" fill="#7A9BFF" stroke="#000000" stroke-width="1.4431326352659402" stroke-linecap="round" d="M 3.6705 16.1181 C 2.5961 15.3559 2.6993 13.9827 4.2397 13.7312 C 10.4017 12.7255 16.8649 12.1104 23.8528 12.9162 C 29.6621 13.5158 36.0168 15.382 41.7706 17.8534 C 43.2091 18.4713 41.6025 19.443 41.3379 20.1619 C 40.9235 21.2859 40.6939 22.6596 39.5333 23.3668 C 37.3022 24.7336 34.3307 25.2584 31.5395 25.9902 C 28.3365 26.8321 25.629 29.0388 21.5735 27.8571 C 18.2728 26.8937 17.5714 22.8137 14.6381 20.8265 C 11.3304 18.7215 6.8424 18.3682 3.6705 16.1181 Z "/>
</svg>