<svg version="1.1" xmlns="http://www.w3.org/2000/svg" xmlns:xlink="http://www.w3.org/1999/xlink" width="35.91238" height="33.57541" viewBox="0,0,35.91238,33.57541"><g transform="translate(-221.55249,-136.0387)"><g data-paper-data="{&quot;isPaintingLayer&quot;:true}" fill-rule="nonzero" stroke-linejoin="miter" stroke-miterlimit="10" stroke-dasharray="" stroke-dashoffset="0" style="mix-blend-mode: normal"><path d="M243.86764,141.58469c0.70909,2.25713 0.84018,5.37385 0.98333,8.1381c0.05377,1.03877 -0.2333,2.00668 -0.46287,2.92955c-0.1933,0.77748 -0.3557,1.72151 -0.77033,1.91315c-1.19854,0.73003 -2.54056,1.30197 -3.74647,0.66766c-1.28878,-0.67744 -2.8245,-2.00852 -3.17067,-4.39237c-0.67263,-4.20923 -0.83748,-9.47571 0.45428,-13.18481c0.73279,-2.10381 2.82421,-0.7247 4.05362,0.00752c1.07526,0.64622 2.02825,1.92321 2.6591,3.9212z" fill="#88e2e2" stroke="#000000" stroke-width="1" stroke-linecap="round"/><path d="M237.5659,158.60498c0.21513,0.47268 0.35575,1.13671 0.37092,1.87911c0.01517,0.74245 -0.09794,1.42428 -0.29312,1.92594c-0.19507,0.50159 -0.47208,0.82294 -0.78464,0.84496c-0.31258,0.02201 -0.6019,-0.25949 -0.81689,-0.73218c-0.2151,-0.47272 -0.35572,-1.13671 -0.37089,-1.87915c-0.01517,-0.74245 0.09794,-1.42428 0.29312,-1.92589c0.19507,-0.50164 0.47205,-0.82295 0.78464,-0.84501c0.31258,-0.02201 0.60191,0.25949 0.81686,0.73223z" fill="#cccc00" stroke="none" stroke-width="1" stroke-linecap="butt"/><path d="M240.10856,139.64819c0.14494,0.38283 0.21362,0.87378 0.17164,1.38205c-0.04198,0.50826 -0.18675,0.93846 -0.38683,1.22311c-0.20004,0.28465 -0.45534,0.4232 -0.71837,0.34834c-0.26305,-0.07486 -0.48423,-0.34903 -0.62915,-0.73186c-0.14494,-0.38283 -0.21362,-0.87379 -0.17163,-1.38205c0.04198,-0.50826 0.18674,-0.93845 0.38682,-1.2231c0.20004,-0.28465 0.45532,-0.42322 0.71837,-0.34836c0.26305,0.07486 0.48423,0.34905 0.62915,0.73186z" fill="#f5f500" stroke="none" stroke-width="0.92" stroke-linecap="butt"/><path d="M231.33959,162.09151l-0.103,-12.06516l16.90591,-1.40418l1.978,12.06516z" fill="#5681ff" stroke="#000000" stroke-width="1" stroke-linecap="butt"/><path d="M224.83439,163.9999l-0.34794,-3.25137l32.07714,-1.6756l0.34794,3.25137z" fill="#5681ff" stroke="#000000" stroke-width="1" stroke-linecap="butt"/><path d="M227.45336,169.11411c-1.83817,-0.13535 -5.00369,-0.2704 -5.36749,-2.16232c-0.64127,-3.3355 1.0941,-7.00262 3.19694,-9.64428c1.14498,-1.51468 3.56104,-1.6426 5.46207,-1.43646c1.77883,0.19254 3.39035,1.31806 4.76642,2.47951c0.4936,0.35837 0.43659,1.11833 0.46848,1.77608c0.03797,0.78082 0.13908,1.6245 -0.23132,2.33645c-0.9858,1.89443 -2.05717,4.04669 -3.64597,5.27695c-1.41053,1.08732 -3.03975,1.48822 -4.64912,1.37407z" fill="#99b2ff" stroke="#000000" stroke-width="1" stroke-linecap="round"/><path d="M239.33723,146.00719c0.73386,2.85429 0.03902,6.3113 -0.5231,9.3927c-0.21128,1.15795 -1.08726,2.04432 -1.83368,2.91463c-0.62859,0.73333 -1.24614,1.66491 -2.14029,1.63612c-2.63886,0.10766 -5.51809,-0.03808 -7.75196,-1.41508c-2.38762,-1.47121 -5.07145,-3.79271 -5.03535,-6.57725c-0.05981,-4.95182 1.22844,-10.76093 4.97162,-14.04806c2.1233,-1.86446 5.9118,0.82656 8.16296,2.32319c1.96709,1.31543 3.4938,3.24537 4.14979,5.77376z" fill="#99ffff" stroke="#000000" stroke-width="1" stroke-linecap="round"/><path d="M226.74936,160.00963c0.40067,0.12676 0.69774,0.44973 0.85407,0.86926c0.15649,0.41959 0.17207,0.93571 0.00986,1.44837c-0.16222,0.51263 -0.47184,0.92586 -0.84122,1.17903c-0.36923,0.25322 -0.79801,0.34651 -1.19868,0.21971c-0.40063,-0.12676 -0.6977,-0.44974 -0.85403,-0.86926c-0.15652,-0.41959 -0.17211,-0.93571 -0.0099,-1.44834c0.16222,-0.51266 0.47185,-0.92585 0.84125,-1.17903c0.36923,-0.25325 0.79801,-0.34654 1.19863,-0.21974z" fill="#ffff00" stroke="none" stroke-width="0.53624" stroke-linecap="butt"/><path d="M224.56171,164.21367c0.2728,0.08631 0.47507,0.30621 0.5815,0.59184c0.10654,0.28569 0.11715,0.63708 0.00671,0.98612c-0.11045,0.34903 -0.32126,0.63037 -0.57274,0.80275c-0.25139,0.1724 -0.54333,0.23592 -0.81612,0.14959c-0.27277,-0.08631 -0.47503,-0.3062 -0.58147,-0.59184c-0.10656,-0.28569 -0.11719,-0.63708 -0.00674,-0.9861c0.11045,-0.34905 0.32126,-0.63037 0.57277,-0.80275c0.25139,-0.17243 0.54333,-0.23595 0.8161,-0.14962z" fill="#ffff00" stroke="none" stroke-width="0.53624" stroke-linecap="butt"/><path d="M228.90625,139.7432c0.58717,0 1.11902,0.24819 1.50409,0.64957c0.38506,0.40138 0.62333,0.95522 0.62333,1.5665c0,0.61128 -0.23827,1.16512 -0.62333,1.56649c-0.38506,0.40138 -0.91692,0.64958 -1.50409,0.64958c-0.58717,0 -1.11902,-0.2482 -1.50409,-0.64958c-0.38506,-0.40138 -0.62333,-0.95522 -0.62333,-1.56648c0,-0.61128 0.23827,-1.16512 0.62333,-1.5665c0.38506,-0.40138 0.91692,-0.64957 1.50409,-0.64957z" fill="#ffff00" stroke="none" stroke-width="1" stroke-linecap="butt"/></g></g></svg>