<svg version="1.1" xmlns="http://www.w3.org/2000/svg" xmlns:xlink="http://www.w3.org/1999/xlink" width="28.37509" height="37.06672" viewBox="0,0,28.37509,37.06672"><g transform="translate(-225.07603,-155.4499)"><g data-paper-data="{&quot;isPaintingLayer&quot;:true}" fill-rule="nonzero" stroke-linejoin="miter" stroke-miterlimit="10" stroke-dasharray="" stroke-dashoffset="0" style="mix-blend-mode: normal"><path d="M238.96991,189.47231c-0.18112,-0.77921 0.57743,-2.51797 0.57743,-2.51797l4.62982,1.06173c0,0 -0.01486,2.0388 -0.57743,2.51797c-0.97093,0.27153 -3.2405,0.16554 -4.62982,-1.06173z" fill="#76b8f5" stroke="#000000" stroke-width="0.5" stroke-linecap="butt"/><path d="M241.42097,189.38871c0.64997,0.14905 1.18396,0.52412 1.52161,1.00974c0.33756,0.48547 0.53399,1.15694 0.34324,1.67245c-0.12321,0.27452 -0.63943,0.16751 -0.97452,0.11469c-0.98052,-0.10401 -1.96957,-0.33636 -2.91043,-0.66743c-0.33054,-0.07827 -0.84867,-0.24399 -0.82717,-0.52786c0.05404,-0.54608 0.51095,-1.05947 1.03768,-1.35578c0.50129,-0.28192 1.15958,-0.39488 1.80958,-0.24582z" fill="#001d82" stroke="#000000" stroke-width="0.5" stroke-linecap="round"/><path d="M250.06994,188.07843c0,0 -2.62504,-9.24462 -2.80667,-11.40987c-0.18163,-2.16524 1.2093,-1.22519 1.80018,-0.35699c3.54865,5.21412 3.75782,11.09007 3.75782,11.09007z" data-paper-data="{&quot;index&quot;:null}" fill="#fff427" stroke="#000000" stroke-width="0.5" stroke-linecap="butt"/><path d="M252.53499,187.28907c0.39228,0.30159 0.58904,0.84316 0.66613,1.35722c0.03542,0.26692 -0.50082,0.70104 -0.72811,0.75931c-0.63923,0.2673 -0.47045,0.40269 -1.15386,0.45546c-0.23231,0.03422 -0.84975,-0.25385 -0.95616,-0.51663c-0.17122,-0.49164 -0.32356,-1.05203 -0.12042,-1.49146c0.20319,-0.43956 0.55262,-0.7666 0.99991,-0.87663c0.44731,-0.11003 0.91917,0.02577 1.29251,0.31273z" data-paper-data="{&quot;index&quot;:null}" fill="#001d82" stroke="#000000" stroke-width="0.5" stroke-linecap="round"/><path d="M236.48287,190.87126c-0.51719,-0.61031 -0.63708,-2.50355 -0.63708,-2.50355l4.60329,-1.17141c0,0 0.91849,1.82025 0.63708,2.50355c-0.73953,0.68522 -2.80668,1.62812 -4.60329,1.17141z" fill="#76b8f5" stroke="#000000" stroke-width="0.5" stroke-linecap="butt"/><path d="M238.64511,189.67771c0.59386,-0.15112 1.18786,-0.06881 1.66777,0.18634c0.47979,0.25507 0.92234,0.72141 0.98291,1.22288c0.01458,0.27612 -0.45231,0.40545 -0.74838,0.50299c-0.84514,0.32676 -1.75116,0.55219 -2.65923,0.6767c-0.30305,0.07483 -0.79614,0.15697 -0.89777,-0.08408c-0.18516,-0.46905 -0.02728,-1.08057 0.27882,-1.54396c0.29135,-0.44096 0.78199,-0.80974 1.37588,-0.96087z" fill="#001d82" stroke="#000000" stroke-width="0.5" stroke-linecap="round"/><path d="M240.05831,156.14225c3.0563,0 5.4513,1.0788 7.4571,2.8209c2.005,1.7428 2.7465,4.1488 2.7465,6.8048c0,0.69445 0.29012,14.34405 0.1289,14.99695c-0.45534,1.8441 -1.01966,3.49298 -2.50041,4.78008c-2.0058,1.742 -4.7758,2.8208 -7.8321,2.8208c-3.0562,0 -5.8262,-1.0788 -7.832,-2.8208c-1.66817,-1.45002 -2.3079,-3.3592 -2.64374,-5.48939c-0.06781,-0.43012 0.14714,-13.84146 0.14714,-14.28763c0,-2.656 0.7416,-5.062 2.7466,-6.8048c2.0058,-1.7421 4.5258,-2.8209 7.582,-2.8209z" fill="#fff427" stroke="#000000" stroke-width="0.875" stroke-linecap="butt"/><path d="M245.21407,173.39248c-0.82948,0.85122 -1.33051,0.89332 -2.24702,0.86098c-0.9165,-0.03235 -1.46094,-0.08251 -2.23248,-1.01908" fill="none" stroke="#000000" stroke-width="0.5" stroke-linecap="round"/><path d="M230.486,165.22358h19" fill="none" stroke="#896b58" stroke-width="2.5" stroke-linecap="round"/><path d="M233.15267,187.32081c-3.86267,-1.50785 -3.16667,-5.5 -3.16667,-5.5h10.625v6.5c0,0 -4.47675,0.1639 -7.45833,-1z" fill="#76b8f5" stroke="#000000" stroke-width="0.5" stroke-linecap="butt"/><path d="M229.60544,175.88987l0.0738,-3.09995l9.31233,4.58683l-1.19881,2.47495z" fill="#76b8f5" stroke="#000000" stroke-width="0.5" stroke-linecap="butt"/><path d="M233.56934,187.54303c-1.1581,-0.64361 4.05406,-2.47824 3.91666,-10.09722c3.84994,0.11133 12.875,0 12.875,0c0,0 0.93267,7.51769 -2.625,9.5c-3.80767,2.23231 -11.30023,1.72694 -14.16666,0.59722z" fill="#76b8f5" stroke="#000000" stroke-width="0.5" stroke-linecap="butt"/><path d="M241.34518,184.64739c-0.43667,-0.24268 0.32096,-0.82879 0.26915,-3.70157c1.45165,0.04198 4.8546,0 4.8546,0c0,0 0.35168,2.83459 -0.98977,3.58204c-1.43571,0.8417 -2.99034,0.88067 -4.13399,0.11954z" fill="#76b8f5" stroke="#000000" stroke-width="0.5" stroke-linecap="butt"/><path d="M238.10994,164.83665c0,-2.93293 2.37762,-5.31055 5.31055,-5.31055c2.93293,0 5.31055,2.37762 5.31055,5.31055c0,2.93293 -2.37761,5.31055 -5.31055,5.31055c-2.93293,0 -5.31055,-2.37762 -5.31055,-5.31055z" fill="#ffffff" stroke="#9e9e9e" stroke-width="1.45293" stroke-linecap="butt"/><path d="M239.10994,164.83665c0,-2.93293 2.37762,-5.31055 5.31055,-5.31055c2.93293,0 5.31055,2.37762 5.31055,5.31055c0,2.93293 -2.37761,5.31055 -5.31055,5.31055c-2.93293,0 -5.31055,-2.37762 -5.31055,-5.31055z" fill="#ffffff" stroke="#929292" stroke-width="1.45293" stroke-linecap="butt"/><path d="M240.2399,164.83665c0,-2.93293 2.37762,-5.31055 5.31056,-5.31055c2.93293,0 5.31054,2.37762 5.31054,5.31055c0,2.93293 -2.37761,5.31055 -5.31054,5.31055c-2.93293,0 -5.31056,-2.37762 -5.31056,-5.31055z" fill="#ffffff" stroke="#9e9e9e" stroke-width="1.45293" stroke-linecap="butt"/><path d="M246.15565,162.88817c0.42461,0 0.81014,0.18437 1.08834,0.4813c0.279,0.2976 0.45146,0.70784 0.45146,1.161c0,0.45316 -0.17246,0.86341 -0.45146,1.16111c-0.2782,0.29694 -0.66372,0.4813 -1.08834,0.4813c-0.42461,0 -0.81015,-0.18436 -1.08844,-0.4813c-0.279,-0.29769 -0.45145,-0.70795 -0.45145,-1.16111c0,-0.45316 0.17246,-0.86342 0.45145,-1.161c0.27829,-0.29694 0.66382,-0.4813 1.08844,-0.4813z" fill="#000000" stroke="none" stroke-width="0.72647" stroke-linecap="butt"/><path d="M235.85646,158.47399c0,0 1.15272,-1.17654 1.81245,-1.56483c0.69354,-0.40819 2.25243,-0.82759 2.25243,-0.82759" fill="none" stroke="#000000" stroke-width="0.5" stroke-linecap="round"/><path d="M237.33431,158.58c0,0 1.01576,-1.29664 1.62857,-1.7554c0.64423,-0.48228 2.14727,-1.07126 2.14727,-1.07126" fill="none" stroke="#000000" stroke-width="0.5" stroke-linecap="round"/><path d="M234.30091,158.25177c0,0 1.15272,-1.17654 1.81245,-1.56483c0.69354,-0.40819 2.25243,-0.82759 2.25243,-0.82759" fill="none" stroke="#000000" stroke-width="0.5" stroke-linecap="round"/><path d="M232.49149,157.85567c0,0 1.30085,-1.01035 2.00691,-1.30613c0.74226,-0.31094 2.34346,-0.5163 2.34346,-0.5163" fill="none" stroke="#000000" stroke-width="0.5" stroke-linecap="round"/><path d="M242.04705,155.6999c0,0 1.6012,0.20536 2.34346,0.5163c0.70606,0.29578 2.00691,1.30613 2.00691,1.30613" data-paper-data="{&quot;index&quot;:null}" fill="none" stroke="#000000" stroke-width="0.5" stroke-linecap="round"/><path d="M225.67901,187.4585c0,0 0.07721,-5.87917 3.50792,-11.17164c0.57124,-0.88123 1.94071,-1.85228 1.80774,0.31649c-0.13298,2.16877 -2.54984,11.47 -2.54984,11.47z" fill="#fff427" stroke="#000000" stroke-width="0.5" stroke-linecap="butt"/><path d="M227.24784,186.99786c0.44964,0.09996 0.80633,0.41908 1.01933,0.85396c0.21295,0.43476 0.07323,0.99841 -0.08691,1.49379c-0.10049,0.26511 -0.71131,0.56697 -0.94433,0.53796c-0.68441,-0.03741 -0.51871,-0.17657 -1.16378,-0.42944c-0.22854,-0.05315 -0.7744,-0.47513 -0.74498,-0.74278c0.06553,-0.51565 0.25009,-1.06152 0.63549,-1.37183c0.3668,-0.29527 0.8355,-0.44163 1.28517,-0.34166z" fill="#001d82" stroke="#000000" stroke-width="0.5" stroke-linecap="round"/></g></g></svg>