<svg version="1.1" xmlns="http://www.w3.org/2000/svg" xmlns:xlink="http://www.w3.org/1999/xlink" width="42.88528" height="33.98526" viewBox="0,0,42.88528,33.98526"><g transform="translate(-215.70326,-144.92969)"><g data-paper-data="{&quot;isPaintingLayer&quot;:true}" fill-rule="nonzero" stroke-linejoin="miter" stroke-miterlimit="10" stroke-dasharray="" stroke-dashoffset="0" style="mix-blend-mode: normal"><path d="M236.54437,146.78322c1.53556,0.82375 4.94901,2.32037 4.26256,3.51303c-1.02462,1.85168 -5.06464,1.86536 -7.68433,2.57432c-0.72401,0.19605 -1.82624,0.87811 -2.23069,-0.01156c-0.65606,-1.45103 -0.41328,-0.59395 -0.28575,-2.15004c-0.00842,-1.08386 -1.88529,-3.51773 -1.73228,-4.75339c2.80749,-1.07501 5.97064,-0.08652 7.67049,0.82764z" fill="#11a2ea" stroke="#000000" stroke-width="1.11468" stroke-linecap="round"/><path d="M226.96665,159.33463c2.22241,3.31237 2.91251,5.65399 2.91464,7.71969c-0.16218,2.21799 -0.52124,4.56314 -1.51745,6.62403c-0.81194,1.80806 -2.19902,3.84822 -3.77331,4.69662c-0.61825,0.33088 -0.35023,-1.18962 -0.52475,-2.08641c-0.69924,-3.59153 -0.89761,-7.36316 -2.04893,-10.87733c-1.1708,-3.43857 -3.32049,-6.50359 -4.87553,-9.84502c-0.38915,-0.835 -1.36518,-1.99111 -0.63314,-2.05309c2.00425,-0.16203 4.36165,0.81328 6.21777,1.88321c1.72009,0.92132 2.92817,2.55297 4.2407,3.9383z" fill="#11a2ea" stroke="#000000" stroke-width="1.07998" stroke-linecap="round"/><path d="M229.5566,166.44309c0,0 -0.57971,-2.20135 -0.97108,-3.68753c-0.5983,-2.27196 -0.44502,-9.89507 8.33732,-12.16204c8.93443,-2.30623 13.22503,3.25462 13.82163,5.52011c3.67323,-0.59587 6.41119,-0.36381 7.1176,0.40134c0.68355,1.22748 0.72321,2.29748 0.38588,3.21568c-1.08534,2.95434 -6.07334,4.33713 -6.07334,4.33713c0,0 0.03785,-2.16897 -1.61191,-2.58942c-1.56548,-0.39897 -10.34118,0.12777 -10.34118,0.12777z" fill="#3ebeff" stroke="#000000" stroke-width="1.45293" stroke-linecap="butt"/><path d="M239.72321,154.60714c0,-1.65685 1.28718,-3 2.875,-3c1.58782,0 2.875,1.34315 2.875,3c0,1.65685 -1.28718,3 -2.875,3c-1.58782,0 -2.875,-1.34315 -2.875,-3z" fill="#ffffff" stroke="none" stroke-width="none" stroke-linecap="butt"/><path d="M241.34821,154.5253c0,-0.79241 0.61561,-1.43478 1.375,-1.43478c0.75939,0 1.375,0.64237 1.375,1.43478c0,0.79241 -0.61561,1.43478 -1.375,1.43478c-0.75939,0 -1.375,-0.64237 -1.375,-1.43478z" fill="#000000" stroke="none" stroke-width="none" stroke-linecap="butt"/><path d="M240.38651,159.25222c0,0 4.13881,-1.99851 10.36314,-3.08198" fill="none" stroke="#000000" stroke-width="1.45293" stroke-linecap="round"/></g></g></svg>