<svg xmlns="http://www.w3.org/2000/svg" xmlns:xlink="http://www.w3.org/1999/xlink" version="1.1" width="56.07189965248108" height="35.738773584365845" viewBox="-0.058570683002471924 -0.1648940145969391 56.07189965248108 35.738773584365845">
  <!-- Exported by Scratch - http://scratch.mit.edu/ -->
  <path id="ID0.6192862591706216" fill="#000000" stroke="none" stroke-linecap="round" d="M 26 0.35 C 28.459 0.292 30.838 1.313 33.2 2 C 34.67 2.427 36.524 2.556 37.6 3.7 C 38.79 4.966 38.736 7.013 39.35 8.65 C 39.927 10.178 40.775 11.637 41.3 13.2 C 41.738 14.519 41.481 16.095 42.3 17.2 C 42.913 18.095 45.027 17.453 45.2 18.65 C 45.882 23.435 46.926 28.948 44.5 33.15 C 43.184 35.428 39.136 33.894 36.6 33.3 C 34.693 32.854 32.688 31.884 31.6 30.2 C 29.613 27.121 29.713 23.097 28 19.8 C 27.352 18.553 26.24 17.008 24.8 17.05 C 23.365 17.094 22.324 18.804 21.8 20.15 C 20.618 23.388 21.359 27.216 19.85 30.35 C 19.054 32.003 16.982 32.652 15.4 33.6 C 14.423 34.186 13.481 35.01 12.3 35.05 C 10.087 35.124 7.752 34.847 5.75 33.9 C 4.395 33.257 3.776 31.688 2.8 30.6 C 2.128 29.857 1.026 29.338 0.8 28.4 C 0.41 26.781 0.184 24.853 1.05 23.4 C 1.812 22.05 3.962 22.168 5.1 21 C 5.678 20.407 5.58 19.408 5.75 18.6 C 5.976 17.528 6.082 16.428 6.4 15.35 C 7.017 13.357 7.253 11.113 8.55 9.4 C 10.678 6.603 13.313 3.963 16.4 2.35 C 19.293 0.838 22.705 0.428 26 0.35 Z " stroke-width="1"/>
  <path id="ID0.20554033666849136" fill="#6CB552" stroke="none" stroke-linecap="round" d="M 43.9345 31.8172 C 43.0749 32.6879 41.3122 32.107 40.2832 31.4011 C 39.6456 30.9621 39.9935 29.9062 40.1217 29.0808 C 40.6369 25.7812 41.2189 22.3855 42.2584 19.2826 C 42.5185 18.507 43.2676 18.5234 43.5468 18.8762 C 44.1938 19.695 44.1569 20.8347 44.2596 21.8434 C 44.4947 23.5371 44.6247 25.2766 44.5574 26.9577 C 44.4909 28.5876 45.0429 30.6909 43.9345 31.8172 Z " stroke-width="1.0000000041496127"/>
  <path id="ID0.20554033666849136" fill="#186D2E" stroke="none" stroke-linecap="round" d="M 40.7 16.45 C 40.954 17.154 41.278 18.153 40.8 18.7 C 39.772 19.872 38.102 20.274 36.75 21.05 C 35.417 21.815 34.205 22.947 32.7 23.25 C 31.808 23.484 30.516 23.355 30.05 22.55 C 29.49 21.58 29.501 19.877 30.35 19.2 C 32.995 17.093 36.308 15.792 39.55 14.9 C 40.36 14.677 40.478 15.856 40.7 16.45 Z " stroke-width="1"/>
  <path id="ID0.20554033666849136" fill="#2BB14B" stroke="none" stroke-linecap="round" d="M 40.689 18.5795 C 40.8976 18.5628 41.2199 18.3253 40.8033 19.1081 C 39.135 22.2386 37.7558 25.6173 35.4974 28.3576 C 34.9134 29.0659 33.4733 29.4212 32.7148 28.8744 C 31.6581 27.9986 30.9388 26.3475 31.2263 25.0109 C 31.5436 23.5356 33.1427 22.6346 34.3463 21.7253 C 35.6935 20.7079 37.2656 19.9436 38.7889 19.1751 C 39.4076 18.8673 40.0426 18.5917 40.689 18.5795 Z " stroke-width="1.0000000041496127"/>
  <path id="ID0.20554033666849136" fill="#189364" stroke="none" stroke-linecap="round" d="M 39.8 13.2 C 40.016 13.669 39.694 14.327 39.25 14.65 C 37.947 15.594 36.282 15.915 34.85 16.65 C 33.262 17.465 31.847 18.844 30.1 19.35 C 29.552 19.508 28.325 19.043 28.6 18.55 C 29.431 17.084 31.115 16.047 32.6 15.1 C 34.359 14.013 36.187 13.069 38.25 12.5 C 38.805 12.347 39.56 12.674 39.8 13.2 Z " stroke-width="1"/>
  <path id="ID0.20554033666849136" fill="#6CB552" stroke="none" stroke-linecap="round" d="M 39.15 10.95 C 39.291 11.447 39.044 12.077 38.6 12.4 C 37.297 13.344 35.629 13.659 34.2 14.4 C 32.423 15.322 30.876 16.724 29 17.45 C 28.529 17.6 27.54 17.352 27.9 16.75 C 29.338 14.344 31.111 12.018 33.25 10.25 C 34.407 9.294 36.005 8.746 37.55 8.9 C 38.411 8.987 38.913 10.116 39.15 10.95 Z " stroke-width="1"/>
  <path id="ID0.20554033666849136" fill="#186D2E" stroke="none" stroke-linecap="round" d="M 41.8 19.05 C 42.292 19.278 42.246 19.955 42.2 20.6 C 41.86 23.232 41.466 25.88 40.7 28.4 C 40.413 29.345 39.989 30.626 39.05 30.9 C 37.825 31.167 35.927 30.833 35.5 29.7 C 34.843 27.958 35.765 25.91 36.5 24.2 C 37.232 22.5 38.524 20.971 39.9 19.65 C 40.358 19.189 41.204 18.777 41.8 19.05 Z " stroke-width="1"/>
  <path id="ID0.20554033666849136" fill="#2BB14B" stroke="none" stroke-linecap="round" d="M 37.9 7.65 C 37.913 8.311 37.154 8.755 36.6 9.1 C 35.831 9.574 34.816 9.566 34.05 10.05 C 32.966 10.735 31.914 11.573 31.05 12.55 C 29.897 13.926 29.453 15.902 28.05 17.05 C 27.645 17.381 26.805 16.596 26.8 16.1 C 26.936 14.279 27.726 12.532 28.4 10.9 C 29.355 8.588 29.87 5.796 31.8 4.2 C 33.058 3.161 35.28 3.395 36.7 4.2 C 37.774 4.81 37.952 6.437 37.9 7.65 Z " stroke-width="1"/>
  <path id="ID0.20554033666849136" fill="#6CB552" stroke="none" stroke-linecap="round" d="M 29.65 1.55 C 30.66 1.783 32.13 2.473 32.05 3.5 C 31.896 5.484 29.886 6.918 29.15 8.8 C 28.178 11.155 28.294 13.944 26.95 16.15 C 26.585 16.748 25.105 16.305 24.95 15.5 C 24.329 12.282 24.588 8.953 24.85 5.7 C 24.953 4.426 25.091 2.895 26.05 2.05 C 26.942 1.267 28.471 1.279 29.65 1.55 Z " stroke-width="1"/>
  <path id="ID0.20554033666849136" fill="#189364" stroke="none" stroke-linecap="round" d="M 23 1.2 C 23.951 1.033 25.284 1.033 25.75 1.85 C 26.24 2.719 25.183 3.663 25.05 4.55 C 24.798 6.235 24.666 7.939 24.6 9.55 C 24.526 11.38 24.938 13.25 24.6 15.05 C 24.514 15.509 23.63 16.347 23.35 15.75 C 22.336 13.327 22.118 10.625 21.6 8.05 C 21.255 6.335 20.487 4.556 20.85 2.85 C 21.04 1.981 22.112 1.358 23 1.2 Z " stroke-width="1"/>
  <path id="ID0.20554033666849136" fill="#2BB14B" stroke="none" stroke-linecap="round" d="M 21.2481 4.4077 C 21.8529 6.9971 22.2775 9.6918 22.6378 12.2086 C 22.8257 13.528 23.6715 16.4906 23.0592 16.1895 C 22.2047 15.7694 20.5951 12.4729 19.333 10.6393 C 18.1181 8.8737 16.1145 7.4167 15.5151 5.3217 C 15.2768 4.4799 16.4997 3.62 17.3231 3.1854 C 18.287 2.6803 19.5044 2.203 20.5229 2.5641 C 21.2316 2.8333 21.1454 3.773 21.2481 4.4077 Z " stroke-width="1.0000000041496127"/>
  <path id="ID0.20554033666849136" fill="#186D2E" stroke="none" stroke-linecap="round" d="M 15.3 5.6 C 16.688 6.224 17.443 7.72 18.25 8.95 C 19.786 11.285 22.764 15.683 22.3 16.25 C 21.836 16.817 17.853 13.643 15.8 12.1 C 14.504 11.126 12.995 10.177 12.2 8.75 C 11.847 8.106 12.308 7.113 12.85 6.6 C 13.559 5.946 14.496 5.239 15.3 5.6 Z " stroke-width="1"/>
  <path id="ID0.20554033666849136" fill="#6CB552" stroke="none" stroke-linecap="round" d="M 15.1 10.7 C 17.462 12.463 21.71 15.61 21.85 16.35 C 21.99 17.089 17.853 15.127 15.95 14.45 C 13.71 13.654 11.176 13.312 9.3 11.85 C 8.696 11.348 9.196 10.112 9.7 9.5 C 10.169 8.935 11.068 8.547 11.8 8.7 C 13.086 8.968 14.106 9.908 15.1 10.7 Z " stroke-width="1"/>
  <path id="ID0.20554033666849136" fill="#189364" stroke="none" stroke-linecap="round" d="M 22.05 16.8 C 22.63 17.145 21.851 17.755 21.3 17.7 C 19.103 17.477 16.982 16.724 14.85 16.15 C 12.797 15.597 10.679 15.163 8.8 14.2 C 8.307 13.977 8.012 13.306 8.25 12.85 C 8.507 12.367 9.278 12.222 9.8 12.3 C 11.393 12.537 12.916 13.261 14.4 13.8 C 16.972 14.733 19.728 15.42 22.05 16.8 Z " stroke-width="1"/>
  <path id="ID0.20554033666849136" fill="#186D2E" stroke="none" stroke-linecap="round" d="M 21.3 18.2 C 21.875 18.539 20.871 19.837 20.2 19.9 C 18.002 20.107 15.77 19.497 13.6 19.05 C 11.632 18.645 9.504 18.528 7.85 17.45 C 7.165 16.975 7.191 15.726 7.5 15 C 7.715 14.497 8.528 14.372 9.05 14.45 C 10.643 14.687 12.109 15.482 13.65 15.95 C 16.188 16.72 19.017 16.843 21.3 18.2 Z " stroke-width="1"/>
  <path id="ID0.20554033666849136" fill="#189364" stroke="none" stroke-linecap="round" d="M 19.85 20.45 C 20.539 20.817 20.375 21.976 20.3 22.75 C 20.191 23.735 20.309 25.576 19.3 25.65 C 16.955 25.686 14.971 23.756 12.75 23 C 11.214 22.477 9.429 22.557 8.05 21.7 C 7.254 21.205 6.598 20.135 6.6 19.15 C 6.66 18.431 7.458 17.617 8.2 17.6 C 9.939 17.559 11.606 18.579 13.35 19 C 15.486 19.529 17.858 19.391 19.85 20.45 Z " stroke-width="1"/>
  <path id="ID0.20554033666849136" fill="#2BB14B" stroke="none" stroke-linecap="round" d="M 19.4304 27.8207 C 19.2938 28.6428 18.9652 29.6473 18.2456 30.1486 C 17.6652 30.5037 16.7505 30.5177 16.1648 29.9744 C 13.8323 27.8077 10.4648 24.3331 10.1809 22.5148 C 10.0163 21.456 13.5749 23.339 15.2211 23.9074 C 16.5259 24.3575 18.0337 24.6059 19.0279 25.5668 C 19.5745 26.0946 19.5543 27.0689 19.4304 27.8207 Z " stroke-width="1.0000000041496127"/>
  <path id="ID0.20554033666849136" fill="#6CB552" stroke="none" stroke-linecap="round" d="M 16.6304 31.8707 C 15.6958 32.3831 14.1795 32.8911 13.4008 32.158 C 11.5273 30.275 10.681 27.5294 9.7403 25.0754 C 9.435 24.2782 9.3184 22.3764 9.7818 22.5125 C 10.443 22.7083 11.321 24.8109 12.2329 25.8415 C 13.595 27.3802 15.4212 28.5836 16.6679 30.2735 C 16.9624 30.6968 17.0962 31.6156 16.6304 31.8707 Z " stroke-width="1.0000000041496127"/>
  <path id="ID0.20554033666849136" fill="#189364" stroke="none" stroke-linecap="round" d="M 9.6 23.55 C 9.647 23.918 9.68 24.114 9.85 24.65 C 10.524 26.76 11.85 28.695 12 30.95 C 12.053 31.749 11.114 32.487 10.35 32.7 C 9.805 32.852 9.014 32.442 8.85 31.9 C 8.374 30.331 8.48 28.696 8.6 27.1 C 8.717 25.538 9.145 23.976 9.55 22.55 C 9.657 22.156 9.55 23.188 9.6 23.55 Z " stroke-width="1"/>
  <path id="ID0.20554033666849136" fill="#186D2E" stroke="none" stroke-linecap="round" d="M 9 22.25 C 9.353 22.934 8.86 23.815 8.8 24.6 C 8.627 25.847 8.364 27.094 8.3 28.35 C 8.244 29.447 9.084 31.074 8.3 31.65 C 7.509 32.223 5.526 31.652 5.1 30.6 C 4.463 28.971 5.32 27.059 5.8 25.35 C 6.118 24.245 6.705 23.147 7.5 22.35 C 7.853 21.996 8.776 21.817 9 22.25 Z " stroke-width="1"/>
  <path id="ID0.20554033666849136" fill="#2BB14B" stroke="none" stroke-linecap="round" d="M 5.6104 25.7194 C 5.208 26.9849 5.4979 28.7196 4.4895 29.5232 C 3.8284 30.0507 2.6182 29.1445 2.1716 28.4497 C 1.5827 27.5323 1.3911 26.307 1.6151 25.2217 C 1.8043 24.3096 2.5997 23.52 3.4231 23.0854 C 4.387 22.5803 6.1131 21.8153 6.6229 22.4641 C 7.1661 23.1593 5.9193 24.6341 5.6104 25.7194 Z " stroke-width="1.0000000041496127"/>
  <path id="ID0.786614784039557" fill="#866E93" stroke="#000000" stroke-width="1" stroke-linecap="round" d="M 46.8 9.7 C 47.514 9.71 48.268 11.083 48.35 12 C 48.478 14.561 47.778 19.655 47.4 19.65 C 47.023 19.646 45.576 14.643 45.35 12.05 C 45.357 11.116 46.118 9.691 46.8 9.7 Z "/>
  <path id="ID0.786614784039557" fill="#866E93" stroke="#000000" stroke-width="1" stroke-linecap="round" d="M 53.2 10 C 53.797 10.254 53.883 11.64 53.55 12.35 C 52.206 14.96 48.681 19.619 48.4 19.5 C 48.12 19.381 49.734 13.86 51 11.3 C 51.407 10.548 52.575 9.735 53.2 10 Z "/>
  <g id="ID0.9991875886917114">
    <path id="ID0.3849619720131159" fill="#FF0000" stroke="#000000" stroke-width="1.025055170059204" d="M 47.6848 19.3477 C 49.841 19.3477 51.7952 20.1088 53.2103 21.3379 C 54.6249 22.5674 55.5008 24.2649 55.5008 26.1387 C 55.5008 28.0125 54.6249 29.71 53.2103 30.9395 C 51.7952 32.1686 49.841 32.9297 47.6848 32.9297 C 45.5285 32.9297 43.5743 32.1686 42.1592 30.9395 C 40.7446 29.71 39.8687 28.0125 39.8687 26.1387 C 39.8687 24.2649 40.7446 22.5674 42.1592 21.3379 C 43.5743 20.1088 45.5285 19.3477 47.6848 19.3477 Z "/>
    <path id="ID0.257101490162313" fill="#FFFFFF" stroke="#000000" stroke-width="0.9761317566753648" d="M 50.2436 17.8054 C 51.5481 17.0963 53.3338 18.4327 54.4064 19.4537 C 55.1959 20.2621 55.2506 21.6369 55.2535 22.7258 C 55.2574 23.8654 55.0493 25.0557 54.4282 26.0452 C 53.9514 26.8039 53.0719 27.5233 52.204 27.5233 C 51.3361 27.5233 50.5495 26.9579 49.9798 26.0452 C 49.41 25.1319 49.031 23.707 49.0576 22.4798 C 49.0925 20.9053 48.8718 18.5513 50.2436 17.8054 Z "/>
    <path id="ID0.13991053588688374" fill="#000000" stroke="none" d="M 52.9419 23.3054 C 53.2422 23.3054 53.5149 23.4464 53.7117 23.6734 C 53.909 23.901 54.031 24.2147 54.031 24.5611 C 54.031 24.9076 53.909 25.2213 53.7117 25.4488 C 53.5149 25.6759 53.2422 25.8168 52.9419 25.8168 C 52.6415 25.8168 52.3688 25.6759 52.172 25.4488 C 51.9747 25.2213 51.8527 24.9076 51.8527 24.5611 C 51.8527 24.2147 51.9747 23.901 52.172 23.6734 C 52.3688 23.4464 52.6415 23.3054 52.9419 23.3054 Z " stroke-width="0.512527585029602"/>
    <path id="ID0.257101490162313" fill="#FFFFFF" stroke="#000000" stroke-width="1.025055170059204" d="M 45.0021 18.5935 C 46.286 17.6048 48.3802 16.8817 49.7148 17.7201 C 51.013 18.6017 50.6891 20.7871 50.6886 22.3073 C 50.6881 23.5912 50.3155 25.0698 49.7122 26.021 C 49.109 26.9718 48.2761 27.5607 47.3572 27.5607 C 46.4382 27.5607 45.6054 26.9718 45.0021 26.021 C 44.3989 25.0698 44.0257 23.7142 44.0257 22.3073 C 44.0257 20.9004 44.0011 19.3843 45.0021 18.5935 Z "/>
    <path id="ID0.13991053588688374" fill="#000000" stroke="none" d="M 47.9919 23.2554 C 48.2922 23.2554 48.5649 23.3964 48.7617 23.6234 C 48.959 23.851 49.081 24.1647 49.081 24.5111 C 49.081 24.8576 48.959 25.1713 48.7617 25.3988 C 48.5649 25.6259 48.2922 25.7668 47.9919 25.7668 C 47.6915 25.7668 47.4188 25.6259 47.222 25.3988 C 47.0247 25.1713 46.9027 24.8576 46.9027 24.5111 C 46.9027 24.1647 47.0247 23.851 47.222 23.6234 C 47.4188 23.3964 47.6915 23.2554 47.9919 23.2554 Z " stroke-width="0.512527585029602"/>
    <path id="ID0.5298761413432658" fill="none" stroke="#000000" stroke-width="1.025055170059204" stroke-linecap="round" d="M 46.8879 29.3533 C 48.0678 30.1508 48.0637 30.2307 48.7587 30.3783 C 49.1149 30.4506 49.7837 29.9939 49.7837 29.9939 "/>
  </g>
  <path id="ID0.44839267572388053" fill="#8C5340" stroke="none" stroke-linecap="round" d="M 33.2 28.6 C 33.419 28.87 33.129 29.373 33.3 29.7 C 33.481 29.967 34.05 29.908 34.15 30.2 C 34.22 30.417 33.984 30.729 33.8 30.75 C 33.306 30.788 32.766 30.631 32.45 30.35 C 32.227 30.142 32.238 29.754 32.25 29.45 C 32.261 29.166 32.36 28.855 32.572 28.672 C 32.741 28.527 33.067 28.438 33.2 28.6 Z " stroke-width="1"/>
  <path id="ID0.44839267572388053" fill="#8C5340" stroke="none" stroke-linecap="round" d="M 36.1 30.1 C 36.319 30.37 36.029 30.873 36.2 31.2 C 36.381 31.467 36.95 31.408 37.05 31.7 C 37.12 31.917 36.884 32.229 36.7 32.25 C 36.206 32.288 35.666 32.131 35.35 31.85 C 35.127 31.642 35.138 31.254 35.15 30.95 C 35.161 30.666 35.26 30.355 35.472 30.172 C 35.641 30.027 35.967 29.938 36.1 30.1 Z " stroke-width="1"/>
  <path id="ID0.44839267572388053" fill="#8C5340" stroke="none" stroke-linecap="round" d="M 39.05 30.6 C 39.269 30.87 38.979 31.373 39.15 31.7 C 39.331 31.967 39.9 31.908 40 32.2 C 40.07 32.417 39.834 32.729 39.65 32.75 C 39.156 32.788 38.616 32.631 38.3 32.35 C 38.077 32.142 38.088 31.754 38.1 31.45 C 38.111 31.166 38.21 30.855 38.422 30.672 C 38.591 30.527 38.917 30.438 39.05 30.6 Z " stroke-width="1"/>
  <path id="ID0.44839267572388053" fill="#8C5340" stroke="none" stroke-linecap="round" d="M 42.1 31.45 C 42.319 31.72 42.029 32.223 42.2 32.55 C 42.381 32.817 42.95 32.758 43.05 33.05 C 43.12 33.267 42.884 33.579 42.7 33.6 C 42.206 33.638 41.666 33.481 41.35 33.2 C 41.127 32.992 41.138 32.604 41.15 32.3 C 41.161 32.016 41.26 31.705 41.472 31.522 C 41.641 31.377 41.967 31.288 42.1 31.45 Z " stroke-width="1"/>
  <path id="ID0.44839267572388053" fill="#8C5340" stroke="none" stroke-linecap="round" d="M 11.55 32.2 C 11.769 32.47 11.479 32.973 11.65 33.3 C 11.831 33.567 12.4 33.508 12.5 33.8 C 12.57 34.017 12.334 34.329 12.15 34.35 C 11.656 34.388 11.116 34.231 10.8 33.95 C 10.577 33.742 10.588 33.354 10.6 33.05 C 10.611 32.766 10.71 32.455 10.922 32.272 C 11.091 32.127 11.417 32.038 11.55 32.2 Z " stroke-width="1"/>
  <path id="ID0.44839267572388053" fill="#8C5340" stroke="none" stroke-linecap="round" d="M 7.25 31.7 C 7.469 31.97 7.179 32.473 7.35 32.8 C 7.531 33.067 8.1 33.008 8.2 33.3 C 8.27 33.517 8.034 33.829 7.85 33.85 C 7.356 33.888 6.816 33.731 6.5 33.45 C 6.277 33.242 6.288 32.854 6.3 32.55 C 6.311 32.266 6.41 31.955 6.622 31.772 C 6.791 31.627 7.117 31.538 7.25 31.7 Z " stroke-width="1"/>
</svg>