<svg version="1.1" xmlns="http://www.w3.org/2000/svg" xmlns:xlink="http://www.w3.org/1999/xlink" width="99.33271" height="36.87729" viewBox="0,0,99.33271,36.87729"><defs><radialGradient cx="244.5673" cy="172.4654" r="17.28727" fx="236.94603" fy="164.02217" gradientUnits="userSpaceOnUse" id="color-1"><stop offset="0.15" stop-color="#990000"/><stop offset="0.42" stop-color="#8d0000"/><stop offset="0.89" stop-color="#6e0000"/><stop offset="1" stop-color="#660000"/></radialGradient></defs><g transform="translate(-165.335,-160.40271)"><g data-paper-data="{&quot;isPaintingLayer&quot;:true}" fill="none" fill-rule="nonzero" stroke="none" stroke-width="none" stroke-linecap="none" stroke-linejoin="miter" stroke-miterlimit="10" stroke-dasharray="" stroke-dashoffset="0" font-family="none" font-weight="none" font-size="none" text-anchor="none" style="mix-blend-mode: normal"><path d="M198.9177,186.91c3.25,-0.88 33.29,-0.4 37.75,-0.05c12.37,0.99 27.5,2.88 27.5,5.21c0,2.33 -10.09,2.24 -22.54,2.24c-12.45,0 -47.68,-1.23 -50.45,-3c-1.51,-0.97 1.8,-2.79 7.74,-4.4z" data-paper-data="{&quot;index&quot;:null}" fill="#ff0000" stroke="#000000" stroke-width="1" stroke-linecap="butt"/><path d="M247.8177,161.21c8.85,1.55 14.05,8.46 12.59,16.86c-1.46,8.4 -7.87,14.33 -16.75,12.75c-17.78,-3.1 -16.84,-9.96 -15.38,-18.36c1.47,-8.4 10.69,-12.8 19.54,-11.25z" data-paper-data="{&quot;index&quot;:null}" fill="url(#color-1)" stroke="#000000" stroke-width="1" stroke-linecap="round"/><path d="M193.1677,178.84c2.20269,-0.69937 4.60348,-0.36549 6.53175,0.90837c1.92827,1.27387 3.17732,3.35116 3.39825,5.65163c0.53538,5.09691 -2.60504,9.86197 -7.5,11.38c-2.20269,0.69937 -4.60348,0.36549 -6.53175,-0.90837c-1.92827,-1.27387 -3.17732,-3.35116 -3.39825,-5.65163c-0.31036,-2.48074 0.28242,-4.99033 1.67,-7.07c1.3641,-2.08884 3.43299,-3.61834 5.83,-4.31z" data-paper-data="{&quot;index&quot;:null}" id="ID0.3849619720131159" fill="#ff0000" stroke="#000000" stroke-width="1" stroke-linecap="butt"/><path d="M198.1777,189.13c0,1.77 0.11,1.82 -0.22,2.64c-0.16,0.42 -1.09,0.8 -1.09,0.8" data-paper-data="{&quot;index&quot;:null}" id="ID0.5298761413432658" fill="none" stroke="#000000" stroke-width="1" stroke-linecap="round"/><path d="M189.8877,184.43c-3.47,-1.8 -10.99,-3.25 -13.7,-6.54" data-paper-data="{&quot;index&quot;:null}" fill="#ff0000" stroke="none" stroke-width="1" stroke-linecap="butt"/><path d="M189.8877,184.43c-3.47,-1.8 -10.99,-3.25 -13.7,-6.54" data-paper-data="{&quot;index&quot;:null}" fill="none" stroke="#000000" stroke-width="3.5" stroke-linecap="butt"/><path d="M189.8877,184.43c-3.47,-1.8 -10.99,-3.25 -13.7,-6.54" data-paper-data="{&quot;index&quot;:null}" fill="none" stroke="#ff0000" stroke-width="1.5" stroke-linecap="butt"/><path d="M172.9877,182.75c2.87,1.33 11.32,3.07 14.8,4.87" data-paper-data="{&quot;index&quot;:null}" fill="#ff0000" stroke="none" stroke-width="1" stroke-linecap="butt"/><path d="M172.9877,182.75c2.87,1.33 11.32,3.07 14.8,4.87" data-paper-data="{&quot;index&quot;:null}" fill="none" stroke="#000000" stroke-width="3.5" stroke-linecap="butt"/><path d="M172.9877,182.75c2.87,1.33 11.32,3.07 14.8,4.87" data-paper-data="{&quot;index&quot;:null}" fill="none" stroke="#ff0000" stroke-width="1.5" stroke-linecap="butt"/><path d="M172.3777,179.04c0.91712,1.00574 1.5489,2.23823 1.83,3.57c0.2511,1.00333 -0.03233,2.06524 -0.75,2.81c-0.83618,0.58837 -1.90481,0.73731 -2.87,0.4c-1.20563,-0.39254 -2.27416,-1.12109 -3.08,-2.1c-0.78,-0.89 -1.73,-2.05 -1.67,-3.28c0.13,-1.6 0.62,-3.98 2.2,-4.35c1.63,-0.38 3.17,1.69 4.34,2.95z" data-paper-data="{&quot;index&quot;:null}" id="ID0.257101490162313" fill="#ffffff" stroke="#000000" stroke-width="1" stroke-linecap="butt"/><path d="M170.7077,182.3c0.34878,0.05095 0.66792,0.22471 0.9,0.49c0.24862,0.27325 0.38441,0.6306 0.38,1c0.01308,0.32365 -0.11981,0.63608 -0.36201,0.85116c-0.2422,0.21508 -0.56815,0.31009 -0.88799,0.25884c-0.34964,-0.04835 -0.66964,-0.22257 -0.9,-0.49c-0.2514,-0.27226 -0.39069,-0.62942 -0.39,-1c-0.00521,-0.32142 0.12552,-0.6301 0.36,-0.85c0.24825,-0.2128 0.57651,-0.30763 0.9,-0.26z" data-paper-data="{&quot;index&quot;:null}" id="ID0.13991053588688374" fill="#000000" stroke="none" stroke-width="1" stroke-linecap="butt"/><path d="M177.6677,174.19c0.93045,1.05617 1.55612,2.34552 1.81,3.73c0.25569,1.0572 -0.05029,2.1716 -0.81,2.95c-0.85408,0.66061 -1.98969,0.83095 -3,0.45c-1.33671,-0.45677 -2.5299,-1.25683 -3.46,-2.32c-1.1,-1.23 -3,-2.75 -2.53,-4.44c0.47,-1.69 2.71,-2.57 4.47,-2.69c1.39,-0.08 2.46,1.17 3.52,2.32z" data-paper-data="{&quot;index&quot;:null}" id="ID0.257101490162313-2" fill="#ffffff" stroke="#000000" stroke-width="1" stroke-linecap="butt"/><path d="M176.0077,177.54c0.35265,0.0478 0.67598,0.2219 0.91,0.49c0.23483,0.26189 0.36944,0.59841 0.38,0.95c0.00679,0.32463 -0.12397,0.63701 -0.36,0.86c-0.24928,0.21043 -0.57791,0.30171 -0.9,0.25c-0.71724,-0.11009 -1.25476,-0.7148 -1.28,-1.44c-0.00679,-0.32463 0.12397,-0.63701 0.36,-0.86c0.2462,-0.20878 0.57109,-0.30005 0.89,-0.25z" data-paper-data="{&quot;index&quot;:null}" id="ID0.13991053588688374-2" fill="#000000" stroke="none" stroke-width="1" stroke-linecap="butt"/><path d="M239.9677,189.79c-1.51545,-2.27158 -2.34831,-4.9298 -2.4,-7.66c-0.18883,-1.98018 -0.04347,-3.97801 0.43,-5.91c0.49008,-1.96057 1.87073,-3.5781 3.73,-4.37c1.1208,-0.3168 2.29204,-0.41525 3.45,-0.29c2.9,0.11 4.3,1.76 4.65,3c0.49,1.84 0.85,4.53 -0.88,6.39c-1.73,1.86 -4.57,0.9 -5.26,-2" data-paper-data="{&quot;index&quot;:null}" fill="none" stroke="#000000" stroke-width="1" stroke-linecap="round"/></g></g></svg>