<svg xmlns="http://www.w3.org/2000/svg" xmlns:xlink="http://www.w3.org/1999/xlink" version="1.1" width="27.684763431549072" height="35.95580720901489" viewBox="0.08112019300460815 0.851227879524231 27.684763431549072 35.95580720901489">
  <!-- Exported by Scratch - http://scratch.mit.edu/ -->
  <path id="ID0.4909940124489367" fill="#995900" stroke="#000000" stroke-width="1.4529309272766113" stroke-linecap="round" d="M 13.2046 17.936 C 16.6118 17.936 19.6992 19.564 21.9353 22.1945 C 24.1706 24.8243 25.9156 28.8613 25.5546 32.4653 C 25.2545 34.4166 22.5615 34.49 20.8325 34.6447 C 15.8308 35.4235 10.6402 35.3879 5.5768 34.6447 C 3.8412 34.6287 1.0719 34.3265 0.8547 32.4653 C 0.5002 28.8664 2.1892 24.8824 4.474 22.1945 C 6.6483 19.6366 9.7975 17.936 13.2046 17.936 Z "/>
  <path id="ID0.3849619720131159" fill="#FF9400" stroke="#000000" stroke-width="1.4529309272766113" d="M 13.1833 4.4478 C 16.2396 4.4478 19.0096 5.5266 21.0154 7.2687 C 23.0204 9.0115 24.2619 11.4175 24.2619 14.0735 C 24.2619 16.7294 23.0204 19.1355 21.0154 20.8783 C 19.0096 22.6203 16.2396 23.6991 13.1833 23.6991 C 10.1271 23.6991 7.3571 22.6203 5.3513 20.8783 C 3.3463 19.1355 2.1047 16.7294 2.1047 14.0735 C 2.1047 11.4175 3.3463 9.0115 5.3513 7.2687 C 7.3571 5.5266 10.1271 4.4478 13.1833 4.4478 Z "/>
  <path id="ID0.257101490162313" fill="#FFFFFF" stroke="#000000" stroke-width="1.3835861632155322" d="M 16.7589 2.1638 C 18.608 1.1588 21.139 3.053 22.6594 4.5002 C 23.7785 5.646 23.856 7.5947 23.8601 9.1381 C 23.8656 10.7534 23.5706 12.4404 22.6903 13.843 C 22.0145 14.9184 20.7678 15.9381 19.5376 15.9381 C 18.3075 15.9381 17.1925 15.1367 16.385 13.843 C 15.5774 12.5485 15.0402 10.5288 15.078 8.7894 C 15.1274 6.5576 14.8145 3.2211 16.7589 2.1638 Z "/>
  <path id="ID0.13991053588688374" fill="#000000" stroke="none" d="M 20.6176 9.9954 C 21.0433 9.9954 21.4298 10.1952 21.7087 10.517 C 21.9884 10.8395 22.1613 11.2841 22.1613 11.7752 C 22.1613 12.2663 21.9884 12.7109 21.7087 13.0335 C 21.4298 13.3553 21.0433 13.5551 20.6176 13.5551 C 20.1919 13.5551 19.8054 13.3553 19.5264 13.0335 C 19.2467 12.7109 19.0738 12.2663 19.0738 11.7752 C 19.0738 11.2841 19.2467 10.8395 19.5264 10.517 C 19.8054 10.1952 20.1919 9.9954 20.6176 9.9954 Z " stroke-width="0.7264654636383057"/>
  <path id="ID0.257101490162313" fill="#FFFFFF" stroke="#000000" stroke-width="1.4529309272766113" d="M 9.4429 3.3375 C 11.2627 1.9361 14.231 0.9111 16.1228 2.0996 C 17.9629 3.3491 17.5038 6.4467 17.503 8.6014 C 17.5023 10.4212 16.9742 12.5171 16.1191 13.8654 C 15.2641 15.213 14.0836 16.0477 12.781 16.0477 C 11.4785 16.0477 10.298 15.213 9.4429 13.8654 C 8.5879 12.5171 8.059 10.5956 8.059 8.6014 C 8.059 6.6073 8.0241 4.4584 9.4429 3.3375 Z "/>
  <path id="ID0.13991053588688374" fill="#000000" stroke="none" d="M 13.6176 9.9454 C 14.0433 9.9454 14.4298 10.1452 14.7087 10.467 C 14.9884 10.7895 15.1613 11.2341 15.1613 11.7252 C 15.1613 12.2163 14.9884 12.6609 14.7087 12.9835 C 14.4298 13.3053 14.0433 13.5051 13.6176 13.5051 C 13.1919 13.5051 12.8054 13.3053 12.5264 12.9835 C 12.2467 12.6609 12.0738 12.2163 12.0738 11.7252 C 12.0738 11.2341 12.2467 10.7895 12.5264 10.467 C 12.8054 10.1452 13.1919 9.9454 13.6176 9.9454 Z " stroke-width="0.7264654636383057"/>
  <path id="ID0.5298761413432658" fill="none" stroke="#000000" stroke-width="1.4529309272766113" stroke-linecap="round" d="M 12.0679 18.5677 C 13.7402 19.6981 13.7344 19.8114 14.7195 20.0206 C 15.2244 20.1231 16.1724 19.4758 16.1724 19.4758 "/>
  <path id="ID0.4909940124489367" fill="#FF9400" stroke="#000000" stroke-width="1.3285603471918477" stroke-linecap="round" d="M 20.6966 29.2491 C 22.4397 29.2491 24.0194 29.8927 25.1634 30.9327 C 26.3071 31.9724 27.1999 33.5684 27.0151 34.9933 C 26.8616 35.7647 25.4838 35.7937 24.5992 35.8549 C 22.0402 36.1628 19.3845 36.1487 16.7939 35.8549 C 15.906 35.8486 14.4891 35.7291 14.378 34.9933 C 14.1966 33.5704 15.0608 31.9954 16.2297 30.9327 C 17.3422 29.9215 18.9534 29.2491 20.6966 29.2491 Z "/>
  <path id="ID0.4909940124489367" fill="#FF9400" stroke="#000000" stroke-width="1.3285603471918477" stroke-linecap="round" d="M 8.8966 27.3991 C 10.6397 27.3991 12.2194 28.0427 13.3634 29.0827 C 14.5071 30.1224 15.3999 31.7184 15.2151 33.1433 C 15.0616 33.9147 13.6838 33.9437 12.7992 34.0049 C 10.2402 34.3128 7.5845 34.2987 4.9939 34.0049 C 4.106 33.9986 2.6891 33.8791 2.578 33.1433 C 2.3966 31.7204 3.2608 30.1454 4.4297 29.0827 C 5.5422 28.0715 7.1534 27.3991 8.8966 27.3991 Z "/>
</svg>