<svg version="1.1" xmlns="http://www.w3.org/2000/svg" xmlns:xlink="http://www.w3.org/1999/xlink" width="25.99079" height="46.95788" viewBox="0,0,25.99079,46.95788"><g transform="translate(-227.47167,-144.76441)"><g data-paper-data="{&quot;isPaintingLayer&quot;:true}" fill-rule="nonzero" stroke-linejoin="miter" stroke-miterlimit="10" stroke-dasharray="" stroke-dashoffset="0" style="mix-blend-mode: normal"><path d="M238.3073,145.73881c0,0 0.72927,1.44491 0.95135,2.1775c0.23346,0.77014 0.41698,2.33633 0.41698,2.33633" fill="none" stroke="#000000" stroke-width="0.25" stroke-linecap="round"/><path d="M239.96315,150.97296c0,0 0.81489,-1.98348 1.22953,-2.67318c0.39443,-0.65607 1.20072,-1.3692 1.20072,-1.3692" data-paper-data="{&quot;index&quot;:null}" fill="none" stroke="#000000" stroke-width="0.25" stroke-linecap="round"/><path d="M240.01426,150.05484c0,0 0.23114,-1.61381 0.4646,-2.38395c0.22207,-0.73259 0.90373,-2.12988 0.90373,-2.12988" data-paper-data="{&quot;index&quot;:null}" fill="none" stroke="#000000" stroke-width="0.25" stroke-linecap="round"/><path d="M237.39172,146.93791c0,0 0.90154,1.09408 1.29596,1.75015c0.41465,0.68971 1.13429,2.29223 1.13429,2.29223" fill="none" stroke="#000000" stroke-width="0.25" stroke-linecap="round"/><path d="M239.82247,144.88941c0,0 -0.01571,1.70966 0.0225,2.47421c0.04017,0.80375 -0.02517,3.0461 -0.02517,3.0461" fill="none" stroke="#000000" stroke-width="0.25" stroke-linecap="round"/><path d="M248.17315,187.32081c0,0 -0.34083,-9.60405 0,-11.75c0.34083,-2.14595 1.46695,-0.90086 1.83334,0.08334c2.20045,5.91084 1,11.66666 1,11.66666z" data-paper-data="{&quot;index&quot;:null}" fill="#fff427" stroke="#000000" stroke-width="0.5" stroke-linecap="butt"/><path d="M250.7554,187.14311c0.30889,0.38656 0.37059,0.95946 0.32265,1.47705c-0.02936,0.26765 -0.65378,0.56112 -0.88841,0.56341c-0.68457,0.10687 -0.55302,0.27866 -1.22925,0.16666c-0.23376,-0.02226 -0.76452,-0.44948 -0.80508,-0.73007c-0.04883,-0.51831 -0.0629,-1.09886 0.23932,-1.47705c0.3023,-0.3783 0.71974,-0.61241 1.18036,-0.61241c0.46064,0 0.88641,0.24458 1.1804,0.61241z" data-paper-data="{&quot;index&quot;:null}" fill="#001d82" stroke="#000000" stroke-width="0.5" stroke-linecap="round"/><path d="M234.53184,190.07081c-0.35071,-0.71901 0,-2.58334 0,-2.58334h4.75c0,0 0.44123,1.99054 0,2.58334c-0.88567,0.48168 -3.12151,0.88567 -4.75,0z" fill="#76b8f5" stroke="#000000" stroke-width="0.5" stroke-linecap="butt"/><path d="M240.64295,189.90414c-0.35071,-0.71901 0,-2.58333 0,-2.58333h4.75c0,0 0.44123,1.99054 0,2.58333c-0.88567,0.48168 -3.12151,0.88567 -4.75,0z" fill="#76b8f5" stroke="#000000" stroke-width="0.5" stroke-linecap="butt"/><path d="M240.05831,150.58669c3.0563,0 5.4513,1.0788 7.4571,2.8209c2.005,1.7428 2.7465,4.1488 2.7465,6.8048c0,0.69445 0.29012,19.56627 0.1289,20.21917c-0.45534,1.8441 -1.01966,3.49298 -2.50041,4.78008c-2.0058,1.742 -4.7758,2.8208 -7.8321,2.8208c-3.0562,0 -5.8262,-1.0788 -7.832,-2.8208c-1.66817,-1.45002 -2.3079,-3.3592 -2.64374,-5.48939c-0.06781,-0.43012 0.14714,-19.06368 0.14714,-19.50985c0,-2.656 0.7416,-5.062 2.7466,-6.8048c2.0058,-1.7421 4.5258,-2.8209 7.582,-2.8209z" fill="#fff427" stroke="#000000" stroke-width="0.875" stroke-linecap="butt"/><path d="M245.21407,173.05914c-0.82948,0.85122 -1.33051,0.89332 -2.24702,0.86098c-0.9165,-0.03235 -1.46094,-0.08251 -2.23248,-1.01908" fill="none" stroke="#000000" stroke-width="0.5" stroke-linecap="round"/><path d="M233.15267,186.98747c-3.86267,-1.50785 -3.16667,-5.5 -3.16667,-5.5h10.625v6.5c0,0 -4.47675,0.1639 -7.45833,-1z" fill="#76b8f5" stroke="#000000" stroke-width="0.5" stroke-linecap="butt"/><path d="M229.60544,175.55653l0.0738,-3.09995l9.31233,4.58683l-1.19881,2.47495z" fill="#76b8f5" stroke="#000000" stroke-width="0.5" stroke-linecap="butt"/><path d="M233.56934,187.20969c-1.1581,-0.64361 4.05406,-2.47824 3.91666,-10.09722c3.84994,0.11133 12.875,0 12.875,0c0,0 0.93267,7.51769 -2.625,9.5c-3.80767,2.23231 -11.30023,1.72694 -14.16666,0.59722z" fill="#76b8f5" stroke="#000000" stroke-width="0.5" stroke-linecap="butt"/><path d="M241.34518,184.31405c-0.43667,-0.24268 0.32096,-0.82879 0.26915,-3.70157c1.45165,0.04198 4.8546,0 4.8546,0c0,0 0.35168,2.83459 -0.98977,3.58204c-1.43571,0.8417 -2.99034,0.88067 -4.13399,0.11954z" fill="#76b8f5" stroke="#000000" stroke-width="0.5" stroke-linecap="butt"/><path d="M243.01331,189.27479c0.66684,0 1.27116,0.24622 1.70881,0.64408c0.43753,0.39774 0.77908,1.00831 0.70838,1.55342c-0.05873,0.29511 -0.58581,0.3062 -0.92423,0.32961c-0.97896,0.11779 -1.99492,0.11239 -2.98598,0c-0.33967,-0.00241 -0.88173,-0.04812 -0.92423,-0.32961c-0.06939,-0.54434 0.26121,-1.14687 0.70838,-1.55342c0.42559,-0.38684 1.04198,-0.64408 1.70885,-0.64408z" fill="#001d82" stroke="#000000" stroke-width="0.5" stroke-linecap="round"/><path d="M236.92164,189.44736c0.61279,0 1.16814,0.22626 1.57031,0.59188c0.40207,0.36551 0.71594,0.92659 0.65097,1.42751c-0.05397,0.27119 -0.53833,0.28138 -0.84931,0.30289c-0.89962,0.10825 -1.83325,0.10328 -2.74398,0c-0.31214,-0.00222 -0.81026,-0.04422 -0.84931,-0.30289c-0.06377,-0.50023 0.24004,-1.05392 0.65097,-1.42751c0.3911,-0.35549 0.95753,-0.59188 1.57035,-0.59188z" fill="#001d82" stroke="#000000" stroke-width="0.5" stroke-linecap="round"/><path d="M228.0485,187.32081c0,0 -1.20045,-5.75582 1,-11.66666c0.36639,-0.98419 1.4925,-2.22929 1.83334,-0.08334c0.34083,2.14595 0,11.75 0,11.75z" fill="#fff427" stroke="#000000" stroke-width="0.5" stroke-linecap="butt"/><path d="M229.47998,186.5307c0.46062,0 0.87806,0.23411 1.18036,0.61241c0.30222,0.37819 0.28815,0.95873 0.23932,1.47705c-0.04056,0.2806 -0.57132,0.70782 -0.80508,0.73007c-0.67622,0.112 -0.54467,-0.0598 -1.22924,-0.16666c-0.23463,-0.00229 -0.85905,-0.29576 -0.88841,-0.56341c-0.04793,-0.51758 0.01377,-1.09049 0.32265,-1.47705c0.29398,-0.36783 0.71975,-0.61241 1.1804,-0.61241z" fill="#001d82" stroke="#000000" stroke-width="0.5" stroke-linecap="round"/><path d="M235.486,158.66802h-5" fill="none" stroke="#896b58" stroke-width="2.5" stroke-linecap="round"/><path d="M243.20716,158.73052c0,-2.31269 1.87481,-4.1875 4.1875,-4.1875c2.31269,0 4.1875,1.87481 4.1875,4.1875c0,2.31269 -1.87481,4.1875 -4.1875,4.1875c-2.31269,0 -4.1875,-1.87481 -4.1875,-4.1875z" fill="#ffffff" stroke="#9e9e9e" stroke-width="1.45293" stroke-linecap="butt"/><path d="M244.361,158.73052c0,-2.31269 1.87481,-4.1875 4.1875,-4.1875c2.31269,0 4.1875,1.87481 4.1875,4.1875c0,2.31269 -1.87481,4.1875 -4.1875,4.1875c-2.31269,0 -4.1875,-1.87481 -4.1875,-4.1875z" fill="#ffffff" stroke="#9e9e9e" stroke-width="1.45293" stroke-linecap="butt"/><path d="M235.33216,158.73052c0,-2.31269 1.87481,-4.1875 4.1875,-4.1875c2.31269,0 4.1875,1.87481 4.1875,4.1875c0,2.31269 -1.87481,4.1875 -4.1875,4.1875c-2.31269,0 -4.1875,-1.87481 -4.1875,-4.1875z" fill="#ffffff" stroke="#9e9e9e" stroke-width="1.45293" stroke-linecap="butt"/><path d="M236.486,158.73052c0,-2.31269 1.87481,-4.1875 4.1875,-4.1875c2.31269,0 4.1875,1.87481 4.1875,4.1875c0,2.31269 -1.87481,4.1875 -4.1875,4.1875c-2.31269,0 -4.1875,-1.87481 -4.1875,-4.1875z" fill="#ffffff" stroke="#9e9e9e" stroke-width="1.45293" stroke-linecap="butt"/><path d="M241.26183,157.1941c0.33482,0 0.63881,0.14538 0.85818,0.37952c0.22,0.23466 0.35599,0.55815 0.35599,0.91548c0,0.35733 -0.13599,0.68082 -0.35599,0.91556c-0.21937,0.23415 -0.52336,0.37952 -0.85818,0.37952c-0.33482,0 -0.63882,-0.14537 -0.85826,-0.37952c-0.22,-0.23473 -0.35598,-0.55823 -0.35598,-0.91556c0,-0.35733 0.13599,-0.68083 0.35598,-0.91548c0.21944,-0.23415 0.52344,-0.37952 0.85826,-0.37952z" fill="#000000" stroke="none" stroke-width="0.72647" stroke-linecap="butt"/><path d="M248.35274,157.1941c0.33482,0 0.63881,0.14538 0.85818,0.37952c0.22,0.23466 0.35599,0.55815 0.35599,0.91548c0,0.35733 -0.13599,0.68082 -0.35599,0.91556c-0.21937,0.23415 -0.52336,0.37952 -0.85818,0.37952c-0.33482,0 -0.63882,-0.14537 -0.85826,-0.37952c-0.22,-0.23473 -0.35599,-0.55823 -0.35599,-0.91556c0,-0.35733 0.13599,-0.68083 0.35599,-0.91548c0.21944,-0.23415 0.52344,-0.37952 0.85826,-0.37952z" fill="#000000" stroke="none" stroke-width="0.72647" stroke-linecap="butt"/></g></g></svg>