<svg version="1.1" xmlns="http://www.w3.org/2000/svg" xmlns:xlink="http://www.w3.org/1999/xlink" width="76.68293" height="36.35645" viewBox="0,0,76.68293,36.35645"><defs><radialGradient cx="244.66753" cy="172.6078" r="17.28727" fx="237.04823" fy="164.16519" gradientUnits="userSpaceOnUse" id="color-1"><stop offset="0.15" stop-color="#990000"/><stop offset="0.42" stop-color="#8d0000"/><stop offset="0.89" stop-color="#6e0000"/><stop offset="1" stop-color="#660000"/></radialGradient></defs><g transform="translate(-188.16,-160.32771)"><g data-paper-data="{&quot;isPaintingLayer&quot;:true}" fill="none" fill-rule="nonzero" stroke="none" stroke-width="none" stroke-linecap="none" stroke-linejoin="miter" stroke-miterlimit="10" stroke-dasharray="" stroke-dashoffset="0" font-family="none" font-weight="none" font-size="none" text-anchor="none" style="mix-blend-mode: normal"><path d="M212.09293,186.835c3.25,-0.88 20.29,-0.4 24.75,-0.05c12.37,0.99 27.5,2.88 27.5,5.21c0,2.33 -10.09,2.24 -22.54,2.24c-12.45,0 -34.68,-0.23 -37.45,-2c-1.51,-0.97 1.8,-3.79 7.74,-5.4z" data-paper-data="{&quot;index&quot;:null}" fill="#ff0000" stroke="#000000" stroke-width="1" stroke-linecap="butt"/><path d="M247.99293,161.135c8.85,1.55 14.05,8.46 12.59,16.86c-1.46,8.4 -7.87,14.33 -16.75,12.75c-17.78,-3.1 -16.84,-9.96 -15.38,-18.36c1.47,-8.4 10.69,-12.8 19.54,-11.25z" data-paper-data="{&quot;index&quot;:null}" fill="url(#color-1)" stroke="#000000" stroke-width="1" stroke-linecap="round"/><path d="M210.91293,178.625c2.3029,0.23814 4.37406,1.50637 5.63307,3.44929c1.25901,1.94292 1.57041,4.35148 0.84693,6.55071c-1.52819,4.92744 -6.34398,8.07219 -11.47,7.49c-2.2995,-0.2453 -4.36557,-1.51501 -5.62315,-3.45572c-1.25758,-1.94071 -1.5724,-4.34523 -0.85685,-6.54428c0.72293,-2.39619 2.28498,-4.4517 4.4,-5.79c2.07644,-1.39642 4.58571,-1.99978 7.07,-1.7z" data-paper-data="{&quot;index&quot;:null}" id="ID0.3849619720131159" fill="#ff0000" stroke="#000000" stroke-width="1" stroke-linecap="butt"/><path d="M211.36293,190.125c-0.69,1.63 -0.63,1.71 -1.25,2.33c-0.32,0.32 -1.33,0.29 -1.33,0.29" data-paper-data="{&quot;index&quot;:null}" id="ID0.5298761413432658" fill="none" stroke="#000000" stroke-width="1" stroke-linecap="round"/><path d="M205.64293,182.505c-2.45,-3.04 -4.19,-5.39 -5.35,-9.48" data-paper-data="{&quot;index&quot;:null}" fill="#ff0000" stroke="none" stroke-width="1" stroke-linecap="butt"/><path d="M205.64293,182.505c-2.45,-3.04 -4.19,-5.39 -5.35,-9.48" data-paper-data="{&quot;index&quot;:null}" fill="none" stroke="#000000" stroke-width="3.5" stroke-linecap="butt"/><path d="M205.64293,182.505c-2.45,-3.04 -4.19,-5.39 -5.35,-9.48" data-paper-data="{&quot;index&quot;:null}" fill="none" stroke="#ff0000" stroke-width="1.5" stroke-linecap="butt"/><path d="M195.41293,176.195c2.1,2.37 4.57,5.35 7,8.39" data-paper-data="{&quot;index&quot;:null}" fill="#ff0000" stroke="none" stroke-width="1" stroke-linecap="butt"/><path d="M195.41293,176.195c2.1,2.37 4.57,5.35 7,8.39" data-paper-data="{&quot;index&quot;:null}" fill="none" stroke="#000000" stroke-width="3.5" stroke-linecap="butt"/><path d="M195.41293,176.195c2.1,2.37 4.57,5.35 7,8.39" data-paper-data="{&quot;index&quot;:null}" fill="none" stroke="#ff0000" stroke-width="1.5" stroke-linecap="butt"/><path d="M195.43293,172.155c0.67258,1.18134 1.01779,2.52073 1,3.88c0.02771,1.03344 -0.47863,2.00833 -1.34,2.58c-0.95073,0.3798 -2.02464,0.29092 -2.9,-0.24c-1.08355,-0.65364 -1.96053,-1.59994 -2.53,-2.73c-0.57,-1.04 -1.24,-2.38 -0.92,-3.56c0.49,-1.54 1.49,-3.76 3.1,-3.76c1.7,0 2.73,2.38 3.59,3.83z" data-paper-data="{&quot;index&quot;:null}" id="ID0.257101490162313" fill="#ffffff" stroke="#000000" stroke-width="1" stroke-linecap="butt"/><path d="M193.08293,175.005c0.33243,0.12697 0.60889,0.36799 0.78,0.68c0.17094,0.30357 0.22768,0.65825 0.16,1c-0.05392,0.32264 -0.25247,0.60288 -0.53897,0.76075c-0.2865,0.15787 -0.62948,0.17601 -0.93103,0.04925c-0.33105,-0.1251 -0.60492,-0.36696 -0.77,-0.68c-0.17094,-0.30357 -0.22768,-0.65825 -0.16,-1c0.05711,-0.32142 0.25527,-0.60031 0.54,-0.76c0.28564,-0.14661 0.62016,-0.16479 0.92,-0.05z" data-paper-data="{&quot;index&quot;:null}" id="ID0.13991053588688374" fill="#000000" stroke="none" stroke-width="1" stroke-linecap="butt"/><path d="M201.59293,168.575c0.70046,1.23558 1.04649,2.64044 1,4.06c0.02676,1.08778 -0.51513,2.11093 -1.43,2.7c-0.98647,0.45815 -2.1395,0.37498 -3.05,-0.22c-1.20551,-0.73456 -2.20096,-1.76791 -2.89,-3c-0.8,-1.45 -2.37,-3.38 -1.49,-4.88c0.88,-1.5 3.26,-1.92 5,-1.65c1.37,0.23 2.11,1.68 2.86,2.99z" data-paper-data="{&quot;index&quot;:null}" id="ID0.257101490162313-2" fill="#ffffff" stroke="#000000" stroke-width="1" stroke-linecap="butt"/><path d="M199.31293,171.515c0.33304,0.12178 0.60797,0.36457 0.77,0.68c0.17094,0.30357 0.22768,0.65825 0.16,1c-0.04675,0.32317 -0.24835,0.60316 -0.54,0.75c-0.28309,0.15375 -0.61934,0.17568 -0.92,0.06c-0.33105,-0.1251 -0.60492,-0.36696 -0.77,-0.68c-0.17785,-0.30104 -0.23838,-0.65711 -0.17,-1c0.06721,-0.31451 0.26305,-0.58651 0.54,-0.75c0.28498,-0.1596 0.62688,-0.18166 0.93,-0.06z" data-paper-data="{&quot;index&quot;:null}" id="ID0.13991053588688374-2" fill="#000000" stroke="none" stroke-width="1" stroke-linecap="butt"/><path d="M240.14293,189.715c-1.51545,-2.27158 -2.34831,-4.9298 -2.4,-7.66c-0.18883,-1.98018 -0.04347,-3.97801 0.43,-5.91c0.49008,-1.96057 1.87073,-3.5781 3.73,-4.37c1.1208,-0.3168 2.29204,-0.41525 3.45,-0.29c2.9,0.11 4.3,1.76 4.65,3c0.49,1.84 0.85,4.53 -0.88,6.39c-1.73,1.86 -4.57,0.9 -5.26,-2" data-paper-data="{&quot;index&quot;:null}" fill="none" stroke="#000000" stroke-width="1" stroke-linecap="round"/></g></g></svg>