<svg xmlns="http://www.w3.org/2000/svg" xmlns:xlink="http://www.w3.org/1999/xlink" version="1.1" width="64.23606491088867" height="36.959651947021484" viewBox="-1.5391666293144226 9.780261993408203 64.23606491088867 36.959651947021484">
  <!-- Exported by Scratch - http://scratch.mit.edu/ -->
  <path id="ID0.4909940124489367" fill="#182BB1" stroke="#000000" stroke-width="1.2078697030621093" stroke-linecap="round" d="M 27.5337 35.8823 C 28.5594 35.8528 29.5125 36.6476 30.2239 37.9557 C 30.935 39.2634 31.5189 41.2854 31.4625 43.1072 C 31.4006 44.0944 30.5909 44.1548 30.0726 44.2478 C 28.5782 44.6842 27.0151 44.7111 25.4799 44.38 C 24.9572 44.3869 24.1192 44.2584 24.0268 43.3211 C 23.8678 41.5081 24.3184 39.4831 24.9672 38.1069 C 25.5846 36.7973 26.508 35.9119 27.5337 35.8823 Z "/>
  <path id="ID0.4021690208464861" fill="#0144D8" stroke="#000000" stroke-width="1.29092494318226" stroke-linecap="round" d="M 37.6529 24.3792 C 40.7193 24.1552 44.253 23.8216 46.8764 24.9931 C 49.9065 26.3466 51.9795 28.7631 52.9246 31.1315 C 54.2128 34.3614 57.6437 38.7985 54.361 41.1577 C 49.8884 43.9977 41.9622 42.7005 36.292 42.2831 C 32.6752 42.016 29.6632 40.1438 26.3881 39.1627 C 22.168 37.8982 17.6591 36.9825 13.6113 35.5308 C 12.6013 35.0827 12.7162 34.5496 12.6285 33.9961 C 12.4077 32.5812 12.2535 31.3095 12.6285 30.0061 C 12.8115 29.3831 13.2182 28.7795 13.9893 28.5227 C 16.8637 27.5671 20.0239 26.941 23.1372 26.3742 C 27.8669 25.5138 32.7236 24.6196 37.6529 24.3792 Z "/>
  <path id="ID0.39371468499302864" fill="none" stroke="#01248D" stroke-width="4" stroke-linecap="round" d="M 48.1 40.5 L 35.85 39.9 L 25.6 36.3 L 14.85 33.35 L 22.6 34.7 L 31.35 35.85 L 41 36.7 L 48.1 40.5 Z "/>
  <path id="ID0.3849619720131159" fill="#4170FF" stroke="#000000" stroke-width="1.368016922899868" d="M 50.9562 23.4978 C 53.6434 23.4978 56.0789 24.5766 57.8424 26.3187 C 59.6053 28.0615 60.6969 30.4675 60.6969 33.1235 C 60.6969 35.7794 59.6053 38.1855 57.8424 39.9283 C 56.0789 41.6703 53.6434 42.7491 50.9562 42.7491 C 48.2691 42.7491 45.8336 41.6703 44.07 39.9283 C 42.3071 38.1855 41.2155 35.7794 41.2155 33.1235 C 41.2155 30.4675 42.3071 28.0615 44.07 26.3187 C 45.8336 24.5766 48.2691 23.4978 50.9562 23.4978 Z "/>
  <path id="ID0.257101490162313" fill="#FFFFFF" stroke="#000000" stroke-width="1.3835861632155322" d="M 53.8764 23.0968 C 55.486 22.4336 57.5985 23.433 58.9879 24.4917 C 60.0191 25.2917 60.3368 26.9041 60.3601 28.1881 C 60.3896 29.8034 60.0706 31.4904 59.1903 32.893 C 58.5145 33.9684 57.2678 34.9881 56.0376 34.9881 C 54.8075 34.9881 53.6925 34.1867 52.885 32.893 C 52.0774 31.5985 51.3948 29.5697 51.578 27.8394 C 51.7605 26.1111 52.3135 23.8661 53.8764 23.0968 Z "/>
  <path id="ID0.13991053588688374" fill="#000000" stroke="none" d="M 57.0176 29.0954 C 57.4433 29.0954 57.8298 29.2952 58.1087 29.617 C 58.3884 29.9395 58.5613 30.3841 58.5613 30.8752 C 58.5613 31.3663 58.3884 31.8109 58.1087 32.1335 C 57.8298 32.4553 57.4433 32.6551 57.0176 32.6551 C 56.5919 32.6551 56.2054 32.4553 55.9264 32.1335 C 55.6467 31.8109 55.4738 31.3663 55.4738 30.8752 C 55.4738 30.3841 55.6467 29.9395 55.9264 29.617 C 56.2054 29.2952 56.5919 29.0954 57.0176 29.0954 Z " stroke-width="0.7264654636383057"/>
  <path id="ID0.257101490162313" fill="#FFFFFF" stroke="#000000" stroke-width="1.4529309272766113" d="M 45.5162 23.9012 C 47.4849 22.834 50.1539 22.085 52.127 23.0294 C 53.577 23.79 53.3032 26.1946 53.253 27.7514 C 53.1942 29.5632 52.7242 31.6671 51.8691 33.0154 C 51.0141 34.363 49.8336 35.1977 48.531 35.1977 C 47.2285 35.1977 46.048 34.363 45.1929 33.0154 C 44.3379 31.6671 43.748 29.5683 43.809 27.7514 C 43.8584 26.2636 44.2776 24.5543 45.5162 23.9012 Z "/>
  <path id="ID0.13991053588688374" fill="#000000" stroke="none" d="M 49.6176 29.0954 C 50.0433 29.0954 50.4298 29.2952 50.7087 29.617 C 50.9884 29.9395 51.1613 30.3841 51.1613 30.8752 C 51.1613 31.3663 50.9884 31.8109 50.7087 32.1335 C 50.4298 32.4553 50.0433 32.6551 49.6176 32.6551 C 49.1919 32.6551 48.8054 32.4553 48.5264 32.1335 C 48.2467 31.8109 48.0738 31.3663 48.0738 30.8752 C 48.0738 30.3841 48.2467 29.9395 48.5264 29.617 C 48.8054 29.2952 49.1919 29.0954 49.6176 29.0954 Z " stroke-width="0.7264654636383057"/>
  <path id="ID0.5298761413432658" fill="none" stroke="#000000" stroke-width="1.4529309272766113" stroke-linecap="round" d="M 48.4679 37.6677 C 50.1402 38.7981 50.1344 38.9114 51.1195 39.1206 C 51.6244 39.2231 52.5724 38.5758 52.5724 38.5758 "/>
  <path id="ID0.4909940124489367" fill="#4170FF" stroke="#000000" stroke-width="1.2078697161705334" stroke-linecap="round" d="M 26.3473 36.0981 C 27.2116 36.6513 27.5518 37.8448 27.4031 39.3263 C 27.2545 40.8074 26.5985 42.8072 25.5262 44.281 C 24.9191 45.062 24.216 44.656 23.7353 44.4411 C 22.2546 43.9602 20.9476 43.1024 19.8654 41.9643 C 19.4295 41.6758 18.8093 41.0977 19.2607 40.271 C 20.1501 38.6832 21.6627 37.2635 22.9738 36.4915 C 24.2214 35.7568 25.4831 35.545 26.3473 36.0981 Z "/>
  <path id="ID0.4021690208464861" fill="#4170FF" stroke="#000000" stroke-width="1.0251020488322065" stroke-linecap="round" d="M 12.165 25.2323 C 13.2045 29.0525 13.1768 31.4935 12.6272 33.4681 C 11.8949 35.5398 10.9417 37.633 9.5459 39.3508 C 8.1562 41.0613 6.4265 42.5458 4.4616 43.4942 C 3.3061 44.0559 0.9663 44.4754 0.5072 43.75 C 0.12 42.9919 2.2708 41.6967 2.7669 40.5273 C 4.4339 36.6519 6.7285 32.8246 7.0808 28.6085 C 7.3622 25.2364 5.3675 22.0342 4.667 18.7358 C 4.4924 17.9112 4.0169 16.4308 4.667 16.5873 C 6.445 17.0231 8.225 18.6498 9.5459 20.2192 C 10.7887 21.6065 11.3988 23.5217 12.165 25.2323 Z "/>
  <path id="ID0.4909940124489367" fill="#7A9BFF" stroke="#000000" stroke-width="1.4431326422361082" stroke-linecap="round" d="M 5.364 13.9958 C 4.4755 13.0232 4.8674 11.703 6.4261 11.7838 C 12.6614 12.1069 19.1081 12.8756 25.7665 15.1442 C 31.3167 16.9614 37.1314 20.1321 42.2307 23.7669 C 43.5056 24.6757 41.7295 25.2847 41.3186 25.9312 C 40.6753 26.9418 40.1599 28.2357 38.8757 28.6808 C 36.4056 29.5436 33.3904 29.4268 30.5075 29.5503 C 27.1988 29.6943 24.0851 31.277 20.3722 29.2626 C 17.3506 27.6215 17.5299 23.4855 15.0845 20.9217 C 12.2981 18.1636 7.9869 16.867 5.364 13.9958 Z "/>
</svg>