<svg version="1.1" xmlns="http://www.w3.org/2000/svg" xmlns:xlink="http://www.w3.org/1999/xlink" width="37.88118" height="40.88392" viewBox="0,0,37.88118,40.88392"><g transform="translate(-224.74982,-152.99935)"><g data-paper-data="{&quot;isPaintingLayer&quot;:true}" fill="none" fill-rule="nonzero" stroke="none" stroke-width="none" stroke-linecap="none" stroke-linejoin="miter" stroke-miterlimit="10" stroke-dasharray="" stroke-dashoffset="0" font-family="none" font-weight="none" font-size="none" text-anchor="none" style="mix-blend-mode: normal"><path d="M253.517,179.223c1.311,0 3.369,3.095 2.207,7.442c-0.217,0.813 -1.275,1.028 -1.65,3.591c-1.113,-3 -2.031,-2.625 -4.219,-2.156c1,-2.125 2.843,-1.758 2.843,-2.713c-1.707,-3.37 -0.266,-6.164 0.819,-6.164z" data-paper-data="{&quot;origPos&quot;:null}" fill="#03b000" stroke="#000000" stroke-width="0.8" stroke-linecap="butt"/><path d="M252.528,157.148c2.507,0.927 3.927,2.803 5.681,4.326c1.753,1.522 4.022,3.74 4.022,6.063c0,2.323 -1.921,1.155 -3.674,2.68c-7.576,6.939 -1.698,12.758 -10.951,17.32c-3.902,1.924 -9.023,5.112 -16.563,4.041c-5.125,-0.728 -4.503,-6.407 -4.438,-8.728c0.39,-13.826 14.83,-22.535 18.255,-24.533c2.248,-1.311 6.183,-1.717 7.668,-1.169z" data-paper-data="{&quot;origPos&quot;:null}" id="ID0.3849619720131159_1_" fill="#03b000" stroke="#000000" stroke-width="0.8" stroke-linecap="butt"/><path d="M253.695,153.776c1.377,-0.747 3.256,0.66 4.387,1.737c0.832,0.852 0.89,2.3 0.893,3.447c0.004,1.201 -0.215,2.455 -0.87,3.498c-0.502,0.8 -1.429,1.558 -2.343,1.558c-0.915,0 -1.744,-0.596 -2.345,-1.558c-0.599,-0.962 -0.999,-2.464 -0.971,-3.757c0.036,-1.658 -0.196,-4.138 1.249,-4.925z" data-paper-data="{&quot;origPos&quot;:null}" id="ID0.257101490162313_3_" fill="#ffffff" stroke="#000000" stroke-width="0.6802" stroke-linecap="butt"/><path d="M256.564,159.599c0.316,0 0.604,0.148 0.811,0.388c0.208,0.24 0.336,0.57 0.336,0.937c0,0.364 -0.129,0.695 -0.336,0.935c-0.207,0.24 -0.495,0.388 -0.811,0.388c-0.316,0 -0.604,-0.148 -0.811,-0.388c-0.208,-0.239 -0.337,-0.57 -0.337,-0.935c0,-0.366 0.129,-0.696 0.337,-0.937c0.207,-0.24 0.495,-0.388 0.811,-0.388z" data-paper-data="{&quot;origPos&quot;:null}" id="ID0.13991053588688374_3_" fill="#000000" stroke="none" stroke-width="1" stroke-linecap="butt"/><path d="M248.257,154.649c1.354,-1.04 3.557,-1.807 4.965,-0.921c1.368,0.929 1.026,3.231 1.026,4.834c0,1.353 -0.393,2.911 -1.029,3.913c-0.635,1.002 -1.513,1.623 -2.481,1.623c-0.968,0 -1.847,-0.621 -2.481,-1.623c-0.636,-1.002 -1.03,-2.431 -1.03,-3.913c0,-1.482 -0.025,-3.08 1.03,-3.913z" data-paper-data="{&quot;origPos&quot;:null}" id="ID0.257101490162313_2_" fill="#ffffff" stroke="#000000" stroke-width="0.6802" stroke-linecap="butt"/><path d="M251.36,159.562c0.317,0 0.604,0.148 0.812,0.388c0.208,0.24 0.336,0.57 0.336,0.936c0,0.366 -0.129,0.694 -0.337,0.934c-0.208,0.239 -0.494,0.388 -0.812,0.388c-0.316,0 -0.604,-0.148 -0.811,-0.388c-0.208,-0.24 -0.336,-0.57 -0.336,-0.936c0,-0.366 0.129,-0.695 0.336,-0.936c0.208,-0.238 0.495,-0.386 0.812,-0.386z" data-paper-data="{&quot;origPos&quot;:null}" id="ID0.13991053588688374_2_" fill="#000000" stroke="none" stroke-width="1" stroke-linecap="butt"/><path d="M259.836,169.495c0,0 -2.633,0.987 -4.563,0.982c-4.535,0.01 -8.415,-2.285 -9.98,-4.002" data-paper-data="{&quot;origPos&quot;:null}" id="ID0.5298761413432658_1_" fill="none" stroke="#000000" stroke-width="0.8" stroke-linecap="round"/><path d="M259.837,169.494c-0.417,0.142 -0.853,0.352 -1.28,0.723c-7.576,6.939 -1.698,12.757 -10.951,17.32c-3.902,1.924 -9.023,5.112 -16.563,4.041c-0.832,-0.118 -1.499,-0.377 -2.055,-0.721c8.194,-3.388 14.753,-6.64 16.025,-12.945c0.58,-2.877 1.794,-6.493 4.387,-8.533c0.001,0 0.003,0.001 0.004,0.001c1.337,0.699 3.128,1.103 5.869,1.097c1.93,0.004 4.563,-0.983 4.564,-0.983z" data-paper-data="{&quot;origPos&quot;:null}" fill="#54e851" stroke="#000000" stroke-width="0.8" stroke-linecap="round"/><path d="M239.436,178.454c0.745,1.557 -2.887,9.192 -6.448,10.896c-0.302,0.145 10.909,-0.001 9.18,0.438c-4.313,1.031 -1.101,3.857 -1.656,3.688c-9.906,-3.031 -11.75,0.281 -15.094,-1.438c-1.125,-0.578 1.605,-4.204 2.373,-5.077c-0.517,-0.846 -0.925,-1.716 -1.251,-2.34c-0.8,-1.529 1.539,-4.199 5.1,-5.902c3.561,-1.703 7.052,-1.823 7.796,-0.265z" data-paper-data="{&quot;origPos&quot;:null}" fill="#03b000" stroke="#000000" stroke-width="0.8" stroke-linecap="butt"/><path d="M230.887,184.037l-3.096,2.923" data-paper-data="{&quot;origPos&quot;:null}" fill="none" stroke="#000000" stroke-width="0.8" stroke-linecap="butt"/><path d="M245.855,184.912c0,1.346 0.254,3.072 1.125,4.156c1.839,0.381 2.563,-0.313 4,-0.438c-0.906,1.844 -0.125,2.719 0.781,4.156c-5.547,-0.625 -8.375,-0.272 -8.406,-3.375c-1.323,-1.176 -2.196,-3.884 -2.326,-5.062c-0.393,-3.563 1.823,-8.126 3.67,-8.126c1.531,0.002 3.563,3.939 1.156,8.689z" data-paper-data="{&quot;origPos&quot;:null}" fill="#03b000" stroke="#000000" stroke-width="0.8" stroke-linecap="butt"/><path d="M230.887,174.545c0,-1.10457 0.89543,-2 2,-2c1.10457,0 2,0.89543 2,2c0,1.10457 -0.89543,2 -2,2c-1.10457,0 -2,-0.89543 -2,-2z" data-paper-data="{&quot;origPos&quot;:null}" fill="#026b00" stroke="none" stroke-width="1" stroke-linecap="butt"/><path d="M236.137,171.756c0,-1.31223 1.06377,-2.376 2.376,-2.376c1.31223,0 2.376,1.06377 2.376,2.376c0,1.31223 -1.06377,2.376 -2.376,2.376c-1.31223,0 -2.376,-1.06377 -2.376,-2.376z" data-paper-data="{&quot;origPos&quot;:null}" fill="#026b00" stroke="none" stroke-width="1" stroke-linecap="butt"/><path d="M236.983,166.099c0,-1.10457 0.89543,-2 2,-2c1.10457,0 2,0.89543 2,2c0,1.10457 -0.89543,2 -2,2c-1.10457,0 -2,-0.89543 -2,-2z" data-paper-data="{&quot;origPos&quot;:null}" fill="#026b00" stroke="none" stroke-width="1" stroke-linecap="butt"/><path d="M242.65,164.226c0,-0.74061 0.60039,-1.341 1.341,-1.341c0.74061,0 1.341,0.60039 1.341,1.341c0,0.74061 -0.60039,1.341 -1.341,1.341c-0.74061,0 -1.341,-0.60039 -1.341,-1.341z" data-paper-data="{&quot;origPos&quot;:null}" fill="#026b00" stroke="none" stroke-width="1" stroke-linecap="butt"/></g></g></svg>