<svg version="1.1" xmlns="http://www.w3.org/2000/svg" xmlns:xlink="http://www.w3.org/1999/xlink" width="28.61823" height="27.05154" viewBox="0,0,28.61823,27.05154"><g transform="translate(-224.53282,-143.67794)"><g data-paper-data="{&quot;isPaintingLayer&quot;:true}" fill-rule="nonzero" stroke-linejoin="miter" stroke-miterlimit="10" stroke-dasharray="" stroke-dashoffset="0" style="mix-blend-mode: normal"><path d="M225.25782,150.46176c0,-3.34619 2.71263,-6.05882 6.05882,-6.05882c3.34619,0 6.05882,2.71263 6.05882,6.05882c0,3.34619 -2.71263,6.05882 -6.05882,6.05882c-3.34619,0 -6.05882,-2.71263 -6.05882,-6.05882z" fill="#d40000" stroke="#000000" stroke-width="1.45" stroke-linecap="butt"/><path d="M228.19899,149.25588c0,-2.12792 1.72503,-3.85294 3.85294,-3.85294c2.12792,0 3.85294,1.72503 3.85294,3.85294c0,2.12792 -1.72503,3.85294 -3.85294,3.85294c-2.12792,0 -3.85294,-1.72503 -3.85294,-3.85294z" fill="#ff0000" stroke="none" stroke-width="0" stroke-linecap="butt"/><path d="M229.26247,169.97251c-1.3802,0.48819 -2.80655,-5.02949 -1.32402,-6.15812c0.2375,-4.31464 1.29429,-10.64037 6.10202,-12.63263c6.62869,-2.74684 14.51914,2.48991 15.7628,5.04952c2.43559,-0.65754 3.46799,6.60871 1.81823,6.18826c-1.56548,-0.39897 -5.05211,-0.36034 -11.69411,1.83365c-4.23986,1.40052 -8.38496,4.36378 -10.66492,5.71932z" fill="#ff0000" stroke="#000000" stroke-width="1.45293" stroke-linecap="butt"/><path d="M228.09239,164.13458c3.40944,-2.87924 8.07415,-5.19198 11.23353,-6.11469c3.26871,-0.95464 7.02021,-2.25218 11.18842,-1.43788" fill="none" stroke="#000000" stroke-width="1.45293" stroke-linecap="round"/><path d="M231.08135,156.99117l-0.2353,2.82353" fill="none" stroke="#dc0000" stroke-width="1" stroke-linecap="round"/><path d="M232.66958,154.75588l0.29412,3.64706" fill="none" stroke="#dc0000" stroke-width="1" stroke-linecap="round"/><path d="M235.08135,157.22647l-0.58823,-3.88235" fill="none" stroke="#dc0000" stroke-width="1" stroke-linecap="round"/></g></g></svg>