<svg xmlns="http://www.w3.org/2000/svg" xmlns:xlink="http://www.w3.org/1999/xlink" version="1.1" width="42.155277729034424" height="58.96891450881958" viewBox="3.5404183864593506 2.5490310192108154 42.155277729034424 58.96891450881958">
  <!-- Exported by Scratch - http://scratch.mit.edu/ -->
  <g id="ID0.7131451372988522">
    <path id="ID0.9395314259454608" fill="#F6F6C6" stroke="#000000" stroke-linecap="round" d="M 29.2545 59.0126 C 31.1417 60.1092 34.3471 62.1501 35.5668 59.4627 C 37.7168 54.7247 37.6566 47.7802 36.7662 42.171 C 36.3161 38.9981 33.9743 37.0807 31.9926 36.0497 C 30.1383 35.0844 28.0271 35.691 26.1334 36.521 C 25.4806 36.728 25.1924 37.9519 24.8624 38.9535 C 24.4704 40.1424 23.9873 41.3842 24.0323 42.7563 C 24.152 46.4075 24.2399 50.5209 25.2599 53.5666 C 26.1677 56.2629 27.6041 58.0459 29.2545 59.0126 Z " stroke-width="0.4167689520651935"/>
    <path id="ID0.9395314259454608" fill="#FFFFCC" stroke="#000000" stroke-linecap="round" d="M 34.6723 8.5627 C 37.5872 7.833 42.571 6.3369 43.8342 10.7503 C 46.0611 18.5312 44.7055 28.4933 42.3998 36.1617 C 41.1725 40.5235 37.4536 42.2298 34.4147 42.8227 C 31.5711 43.3783 28.6451 41.5577 26.0729 39.5133 C 25.1717 38.9223 24.9809 37.0323 24.6892 35.4434 C 24.3426 33.5573 23.8745 31.554 24.19 29.6006 C 25.0295 24.4025 25.9075 18.5251 27.9312 14.6023 C 29.7298 11.1316 32.1218 9.212 34.6723 8.5627 Z " stroke-width="0.6112610875423476"/>
  </g>
  <path id="ID0.996023275423795" fill="#CCCC00" stroke="none" d="M 33.6209 47.7913 C 34.3232 48.0032 34.8892 48.7669 35.2364 49.8303 C 35.5838 50.8937 35.7122 52.2565 35.5393 53.6653 C 35.3664 55.0741 34.9247 56.265 34.3504 57.0504 C 33.7763 57.8358 33.07 58.2159 32.3677 58.0041 C 31.6654 57.7923 31.0994 57.0285 30.7523 55.9652 C 30.4048 54.9017 30.2764 53.5389 30.4493 52.1301 C 30.6222 50.7214 31.0639 49.5304 31.6383 48.7451 C 32.2123 47.9596 32.9187 47.5795 33.6209 47.7913 Z " stroke-width="0.4640564527238055"/>
  <path id="ID0.6398694114759564" fill="#CCCC00" stroke="none" d="M 40.1634 13.54 C 40.6493 13.54 41.0894 13.862 41.408 14.3827 C 41.7267 14.9034 41.9239 15.622 41.9239 16.415 C 41.9239 17.208 41.7267 17.9266 41.408 18.4473 C 41.0894 18.968 40.6493 19.29 40.1634 19.29 C 39.6775 19.29 39.2374 18.968 38.9187 18.4473 C 38.6001 17.9266 38.4029 17.208 38.4029 16.415 C 38.4029 15.622 38.6001 14.9034 38.9187 14.3827 C 39.2374 13.862 39.6775 13.54 40.1634 13.54 Z " stroke-width="0.7716122640590932"/>
  <g id="ID0.7131451372988522">
    <path id="ID0.9395314259454608" fill="#F6F6C6" stroke="#000000" stroke-linecap="round" d="M 10.3329 57.7805 C 8.3066 57.5488 4.817 57.3176 4.4159 54.0788 C 3.709 48.3687 5.622 42.0909 7.9402 37.5686 C 9.2024 34.9756 11.8658 34.7566 13.9615 35.1095 C 15.9224 35.4391 17.6989 37.3659 19.2159 39.3542 C 19.76 39.9677 19.6972 41.2687 19.7323 42.3947 C 19.7742 43.7314 19.8857 45.1757 19.4773 46.3945 C 18.3906 49.6376 17.2095 53.3221 15.4581 55.4282 C 13.9031 57.2896 12.1071 57.9759 10.3329 57.7805 Z " stroke-width="0.4089907596998341"/>
    <path id="ID0.9395314259454608" fill="#FFFFCC" stroke="#000000" stroke-linecap="round" d="M 18.8494 8.3392 C 16.3678 5.7771 12.1914 1.1703 9.8507 4.3621 C 5.7243 9.9894 4.3041 19.9341 4.3701 28.4112 C 4.3302 33.1781 7.2889 37.1523 9.9209 39.6709 C 12.3836 42.0282 15.5576 42.2777 18.4666 42.0934 C 19.4523 42.1427 20.1331 40.5479 20.826 39.2925 C 21.6489 37.8026 22.6146 36.2852 22.8475 34.3029 C 23.4671 29.0278 24.2331 23.1097 23.4241 18.2234 C 22.701 13.895 21.0179 10.5911 18.8494 8.3392 Z " stroke-width="0.5998531127744644"/>
  </g>
  <path id="ID0.6544284904375672" fill="#CC0000" stroke="#000000" stroke-width="1.1657290203927664" stroke-linecap="round" d="M 26.5941 32.9771 C 28.3119 33.3969 29.8703 36.2811 29.9322 38.4095 C 30.0292 41.6757 28.0372 44.5429 26.7696 47.4805 C 26.0175 49.2275 25.3074 50.8756 24.0798 52.1032 C 22.971 53.1979 21.5354 54.3339 20.0335 54.1744 C 18.6813 54.0312 17.6572 52.4716 17.3597 51.1209 C 16.7053 49.1729 16.8144 47.0179 17.3694 44.9431 C 18.1806 41.8988 19.1882 38.7682 21.1266 36.2574 C 22.5164 34.4502 24.8762 32.5573 26.5941 32.9771 Z "/>
  <g id="ID0.7732332311570644">
    <path id="ID0.3849619720131159" fill="#FF0000" stroke="#000000" stroke-width="1.4529309272766113" d="M 30.1333 22.4478 C 33.1896 22.4478 35.9596 23.5266 37.9654 25.2687 C 39.9704 27.0115 41.2119 29.4175 41.2119 32.0735 C 41.2119 34.7294 39.9704 37.1355 37.9654 38.8783 C 35.9596 40.6203 33.1896 41.6991 30.1333 41.6991 C 27.0771 41.6991 24.3071 40.6203 22.3013 38.8783 C 20.2963 37.1355 19.0547 34.7294 19.0547 32.0735 C 19.0547 29.4175 20.2963 27.0115 22.3013 25.2687 C 24.3071 23.5266 27.0771 22.4478 30.1333 22.4478 Z "/>
    <path id="ID0.257101490162313" fill="#FFFFFF" stroke="#000000" stroke-width="1.3835861632155322" d="M 33.7089 20.1638 C 35.558 19.1588 38.089 21.053 39.6094 22.5002 C 40.7285 23.646 40.806 25.5947 40.8101 27.1381 C 40.8156 28.7534 40.5206 30.4404 39.6403 31.843 C 38.9645 32.9184 37.7178 33.9381 36.4876 33.9381 C 35.2575 33.9381 34.1425 33.1367 33.335 31.843 C 32.5274 30.5485 31.9902 28.5288 32.028 26.7894 C 32.0774 24.5576 31.7645 21.2211 33.7089 20.1638 Z "/>
    <path id="ID0.13991053588688374" fill="#000000" stroke="none" d="M 37.5676 27.9954 C 37.9933 27.9954 38.3798 28.1952 38.6587 28.517 C 38.9384 28.8395 39.1113 29.2841 39.1113 29.7752 C 39.1113 30.2663 38.9384 30.7109 38.6587 31.0335 C 38.3798 31.3553 37.9933 31.5551 37.5676 31.5551 C 37.1419 31.5551 36.7554 31.3553 36.4764 31.0335 C 36.1967 30.7109 36.0238 30.2663 36.0238 29.7752 C 36.0238 29.2841 36.1967 28.8395 36.4764 28.517 C 36.7554 28.1952 37.1419 27.9954 37.5676 27.9954 Z " stroke-width="0.7264654636383057"/>
    <path id="ID0.257101490162313" fill="#FFFFFF" stroke="#000000" stroke-width="1.4529309272766113" d="M 25.9429 21.3375 C 27.7627 19.9361 30.731 18.9111 32.6228 20.0996 C 34.4629 21.3491 34.0038 24.4467 34.003 26.6014 C 34.0023 28.4212 33.4742 30.5171 32.6191 31.8654 C 31.7641 33.213 30.5836 34.0477 29.281 34.0477 C 27.9785 34.0477 26.798 33.213 25.9429 31.8654 C 25.0879 30.5171 24.559 28.5956 24.559 26.6014 C 24.559 24.6073 24.5241 22.4584 25.9429 21.3375 Z "/>
    <path id="ID0.13991053588688374" fill="#000000" stroke="none" d="M 30.3676 27.9454 C 30.7933 27.9454 31.1798 28.1452 31.4587 28.467 C 31.7384 28.7895 31.9113 29.2341 31.9113 29.7252 C 31.9113 30.2163 31.7384 30.6609 31.4587 30.9835 C 31.1798 31.3053 30.7933 31.5051 30.3676 31.5051 C 29.9419 31.5051 29.5554 31.3053 29.2764 30.9835 C 28.9967 30.6609 28.8238 30.2163 28.8238 29.7252 C 28.8238 29.2341 28.9967 28.7895 29.2764 28.467 C 29.5554 28.1452 29.9419 27.9454 30.3676 27.9454 Z " stroke-width="0.7264654636383057"/>
    <path id="ID0.5298761413432658" fill="none" stroke="#000000" stroke-width="1.4529309272766113" stroke-linecap="round" d="M 29.0179 36.5677 C 30.6902 37.6981 30.6844 37.8114 31.6695 38.0206 C 32.1744 38.1231 33.1224 37.4758 33.1224 37.4758 "/>
  </g>
  <path id="ID0.996023275423795" fill="#CCCC00" stroke="none" d="M 9.3497 44.529 C 10.038 44.8672 10.5484 45.7289 10.817 46.8482 C 11.0859 47.9677 11.1127 49.3447 10.834 50.7125 C 10.5553 52.0802 10.0233 53.1827 9.3887 53.8582 C 8.7543 54.5338 8.0176 54.7827 7.3293 54.4444 C 6.641 54.1062 6.1305 53.2445 5.8619 52.1252 C 5.5931 51.0057 5.5663 49.6287 5.845 48.261 C 6.1237 46.8932 6.6557 45.7908 7.2903 45.1153 C 7.9246 44.4396 8.6613 44.1907 9.3497 44.529 Z " stroke-width="0.4565154105278437"/>
  <path id="ID0.6398694114759564" fill="#CCCC00" stroke="none" d="M 11.8505 7.5 C 12.3837 7.5 12.8666 7.85 13.2163 8.416 C 13.566 8.982 13.7823 9.763 13.7823 10.625 C 13.7823 11.487 13.566 12.268 13.2163 12.834 C 12.8666 13.4 12.3837 13.75 11.8505 13.75 C 11.3173 13.75 10.8343 13.4 10.4847 12.834 C 10.135 12.268 9.9186 11.487 9.9186 10.625 C 9.9186 9.763 10.135 8.982 10.4847 8.416 C 10.8343 7.85 11.3173 7.5 11.8505 7.5 Z " stroke-width="0.8410319359033321"/>
</svg>