<svg xmlns="http://www.w3.org/2000/svg" xmlns:xlink="http://www.w3.org/1999/xlink" version="1.1" width="54.192001819610596" height="68.34734010696411" viewBox="-0.29217076301574707 2.374117612838745 54.192001819610596 68.34734010696411">
  <!-- Exported by Scratch - http://scratch.mit.edu/ -->
  <g id="ID0.8807225120253861">
    <path id="ID0.9395314259454608" fill="#99B2FF" stroke="#000000" stroke-linecap="round" d="M 23.9713 58.6582 C 24.9316 60.5591 26.7079 61.7187 27.5713 63.8782 C 28.2944 65.6915 27.8566 70.7708 28.5689 69.8942 C 29.5217 68.9259 30.1749 63.3285 31.154 59.9083 C 32.5941 54.8875 35.4108 50.0791 35.8673 44.9665 C 36.1444 41.8281 34.6843 39.1842 33.1078 37.5532 C 31.6329 36.0266 29.4669 35.922 27.4426 36.102 C 26.7673 36.0883 26.1461 37.167 25.5488 38.0192 C 24.8396 39.0306 24.0292 40.0632 23.6801 41.3919 C 22.7514 44.928 21.6607 48.8964 21.7545 52.1448 C 21.8421 55.0221 23.0013 56.7412 23.9713 58.6582 Z " stroke-width="0.4150596533141884"/>
    <path id="ID0.9395314259454608" fill="#99FFFF" stroke="#000000" stroke-linecap="round" d="M 43.4561 12.1506 C 47.1282 12.6733 53.8055 12.9828 53.1251 18.5735 C 51.9831 26.914 44.9383 34.0008 39.8112 40.0131 C 37.3938 42.8491 34.1727 43.7959 31.5048 43.4998 C 29.3809 43.4325 27.7516 41.2698 26.5078 39.0029 C 25.9414 37.9731 26.1848 36.272 26.3629 34.6554 C 26.5739 32.7363 26.7036 30.6655 27.5587 28.897 C 29.8343 24.1908 32.3401 18.8465 35.3697 15.7463 C 38.0577 13.0061 40.8942 11.7856 43.4561 12.1506 Z " stroke-width="0.6087541747167126"/>
    <path id="ID0.996023275423795" fill="#FFFF00" stroke="none" d="M 32.609 46.3316 C 32.1903 46.092 31.6733 46.2325 31.176 46.6534 C 30.6786 47.0742 30.2011 47.7753 29.8618 48.6562 C 29.5225 49.5371 29.385 50.4328 29.4372 51.1681 C 29.4892 51.9032 29.7308 52.4779 30.1495 52.7175 C 30.5682 52.9571 31.0853 52.8166 31.5826 52.3957 C 32.08 51.9749 32.5575 51.2738 32.8967 50.3929 C 33.236 49.512 33.3736 48.6163 33.3214 47.881 C 33.2694 47.1459 33.0278 46.5712 32.609 46.3316 Z " stroke-width="0.30861900363769423"/>
    <path id="ID0.6398694114759564" fill="#FFFF00" stroke="none" d="M 48.1632 17.3446 C 47.8079 16.8592 47.3076 16.6942 46.7861 16.8203 C 46.2646 16.9464 45.7223 17.3626 45.283 18.0394 C 44.8437 18.7163 44.5898 19.5265 44.5344 20.2893 C 44.4789 21.0521 44.6224 21.7667 44.9778 22.2521 C 45.3331 22.7376 45.8334 22.9025 46.3549 22.7765 C 46.8764 22.6504 47.4186 22.2342 47.8579 21.5573 C 48.2973 20.8805 48.5511 20.0702 48.6066 19.3074 C 48.662 18.5447 48.5185 17.8301 48.1632 17.3446 Z " stroke-width="0.804251607839717"/>
    <path id="ID0.996023275423795" fill="#FFFF00" stroke="none" d="M 30.042 54.5426 C 29.775 54.3898 29.4453 54.4794 29.1282 54.7478 C 28.811 55.0161 28.5065 55.4633 28.2901 56.025 C 28.0738 56.5867 27.9861 57.1579 28.0194 57.6267 C 28.0525 58.0955 28.2066 58.462 28.4736 58.6148 C 28.7406 58.7676 29.0703 58.678 29.3874 58.4096 C 29.7046 58.1413 30.0091 57.6941 30.2255 57.1324 C 30.4418 56.5707 30.5295 55.9995 30.4962 55.5307 C 30.4631 55.0619 30.309 54.6954 30.042 54.5426 Z " stroke-width="0.19680053573894168"/>
  </g>
  <g id="ID0.8807225120253861">
    <path id="ID0.9395314259454608" fill="#99B2FF" stroke="#000000" stroke-linecap="round" d="M 13.2865 58.1316 C 11.5172 58.2816 9.6447 56.8115 7.8006 57.5575 C 5.2042 58.6096 0.4295 63.9697 0.4343 62.831 C 0.4486 61.9434 5.6417 55.7709 7.8571 51.5219 C 10.1 47.2239 11.0013 41.3027 13.7812 37.7869 C 15.4897 35.632 18.0317 35.5508 20.0398 36.1926 C 21.919 36.7927 23.3923 38.9482 24.6021 41.1284 C 25.0501 41.8118 24.8053 43.0911 24.6813 44.2108 C 24.5344 45.54 24.4406 46.9855 23.8681 48.1352 C 22.3446 51.1944 20.6664 54.6774 18.6502 56.5181 C 16.8613 58.1439 15.0718 57.9819 13.2865 58.1316 Z " stroke-width="0.40758937678144747"/>
    <path id="ID0.9395314259454608" fill="#99FFFF" stroke="#000000" stroke-linecap="round" d="M 28.6112 10.4285 C 25.9055 6.98 21.3714 0.3271 18.4496 4.3571 C 14.1733 10.4994 14.4951 21.9384 14.215 30.7732 C 14.0821 34.9395 15.6097 38.8024 17.5251 41.3577 C 18.9485 43.4924 21.3111 43.8713 23.4854 43.7934 C 24.474 43.7593 25.3393 42.4958 26.1964 41.3497 C 27.214 39.9894 28.3758 38.6219 28.8835 36.6918 C 30.2343 31.5557 31.8192 25.8035 31.7125 20.8528 C 31.6115 16.4666 30.499 12.8343 28.6112 10.4285 Z " stroke-width="0.5977977471216895"/>
    <path id="ID0.996023275423795" fill="#FFFF00" stroke="none" d="M 15.1054 41.9088 C 15.5223 42.1947 15.7744 42.808 15.8448 43.5681 C 15.9155 44.3283 15.8044 45.2353 15.4951 46.1079 C 15.1858 46.9805 14.7363 47.6554 14.2598 48.0404 C 13.7835 48.4254 13.2803 48.5207 12.8634 48.2348 C 12.4466 47.9489 12.1945 47.3356 12.124 46.5755 C 12.0533 45.8152 12.1645 44.9083 12.4737 44.0356 C 12.783 43.163 13.2325 42.4881 13.709 42.1032 C 14.1854 41.7181 14.6885 41.6229 15.1054 41.9088 Z " stroke-width="0.302019130630137"/>
    <path id="ID0.6398694114759564" fill="#FFFF00" stroke="none" d="M 22.3988 8.692 C 22.9224 8.7664 23.3474 9.1804 23.6111 9.7895 C 23.8748 10.3987 23.9774 11.2021 23.8561 12.0555 C 23.7348 12.909 23.4124 13.652 22.9894 14.1636 C 22.5664 14.6751 22.0429 14.9542 21.5193 14.8798 C 20.9958 14.8054 20.5708 14.3915 20.3071 13.7823 C 20.0434 13.1731 19.9408 12.3697 20.0621 11.5163 C 20.1834 10.6629 20.5058 9.9198 20.9288 9.4083 C 21.3518 8.8967 21.8753 8.6176 22.3988 8.692 Z " stroke-width="0.8390217416221956"/>
    <path id="ID0.996023275423795" fill="#FFFF00" stroke="none" d="M 11.7223 49.4237 C 11.9881 49.606 12.1489 49.9971 12.1938 50.4818 C 12.2389 50.9666 12.168 51.545 11.9708 52.1014 C 11.7736 52.6579 11.4869 53.0882 11.1831 53.3337 C 10.8793 53.5793 10.5584 53.64 10.2926 53.4577 C 10.0268 53.2754 9.866 52.8843 9.8211 52.3996 C 9.776 51.9148 9.8469 51.3364 10.0441 50.78 C 10.2413 50.2235 10.528 49.7932 10.8318 49.5477 C 11.1356 49.3021 11.4565 49.2414 11.7223 49.4237 Z " stroke-width="0.19259191452113367"/>
  </g>
  <path id="ID0.6544284904375672" fill="#0033CC" stroke="#000000" stroke-width="1.1657290203927664" stroke-linecap="round" d="M 31.5941 34.9771 C 33.3119 35.3969 34.8703 38.2811 34.9322 40.4095 C 35.0292 43.6757 33.0372 46.5429 31.7696 49.4805 C 31.0175 51.2275 30.3074 52.8756 29.0798 54.1032 C 27.971 55.1979 26.5354 56.3339 25.0335 56.1744 C 23.6813 56.0312 22.6572 54.4716 22.3597 53.1209 C 21.7053 51.1729 21.8144 49.0179 22.3694 46.9431 C 23.1806 43.8988 24.1882 40.7682 26.1266 38.2574 C 27.5164 36.4502 29.8762 34.5573 31.5941 34.9771 Z "/>
  <g id="ID0.7732332311570644">
    <path id="ID0.3849619720131159" fill="#003FFF" stroke="#000000" stroke-width="1.4529309272766113" d="M 35.1333 24.4478 C 38.1896 24.4478 40.9596 25.5266 42.9654 27.2687 C 44.9704 29.0115 46.2119 31.4175 46.2119 34.0735 C 46.2119 36.7294 44.9704 39.1355 42.9654 40.8783 C 40.9596 42.6203 38.1896 43.6991 35.1333 43.6991 C 32.0771 43.6991 29.3071 42.6203 27.3013 40.8783 C 25.2963 39.1355 24.0547 36.7294 24.0547 34.0735 C 24.0547 31.4175 25.2963 29.0115 27.3013 27.2687 C 29.3071 25.5266 32.0771 24.4478 35.1333 24.4478 Z "/>
    <path id="ID0.257101490162313" fill="#FFFFFF" stroke="#000000" stroke-width="1.3835861632155322" d="M 38.7089 22.1638 C 40.558 21.1588 43.089 23.053 44.6094 24.5002 C 45.7285 25.646 45.806 27.5947 45.8101 29.1381 C 45.8156 30.7534 45.5206 32.4404 44.6403 33.843 C 43.9645 34.9184 42.7178 35.9381 41.4876 35.9381 C 40.2575 35.9381 39.1425 35.1367 38.335 33.843 C 37.5274 32.5485 36.9902 30.5288 37.028 28.7894 C 37.0774 26.5576 36.7645 23.2211 38.7089 22.1638 Z "/>
    <path id="ID0.13991053588688374" fill="#000000" stroke="none" d="M 42.5676 29.9954 C 42.9933 29.9954 43.3798 30.1952 43.6587 30.517 C 43.9384 30.8395 44.1113 31.2841 44.1113 31.7752 C 44.1113 32.2663 43.9384 32.7109 43.6587 33.0335 C 43.3798 33.3553 42.9933 33.5551 42.5676 33.5551 C 42.1419 33.5551 41.7554 33.3553 41.4764 33.0335 C 41.1967 32.7109 41.0238 32.2663 41.0238 31.7752 C 41.0238 31.2841 41.1967 30.8395 41.4764 30.517 C 41.7554 30.1952 42.1419 29.9954 42.5676 29.9954 Z " stroke-width="0.7264654636383057"/>
    <path id="ID0.257101490162313" fill="#FFFFFF" stroke="#000000" stroke-width="1.4529309272766113" d="M 30.9429 23.3375 C 32.7627 21.9361 35.731 20.9111 37.6228 22.0996 C 39.4629 23.3491 39.0038 26.4467 39.003 28.6014 C 39.0023 30.4212 38.4742 32.5171 37.6191 33.8654 C 36.7641 35.213 35.5836 36.0477 34.281 36.0477 C 32.9785 36.0477 31.798 35.213 30.9429 33.8654 C 30.0879 32.5171 29.559 30.5956 29.559 28.6014 C 29.559 26.6073 29.5241 24.4584 30.9429 23.3375 Z "/>
    <path id="ID0.13991053588688374" fill="#000000" stroke="none" d="M 35.3676 29.9454 C 35.7933 29.9454 36.1798 30.1452 36.4587 30.467 C 36.7384 30.7895 36.9113 31.2341 36.9113 31.7252 C 36.9113 32.2163 36.7384 32.6609 36.4587 32.9835 C 36.1798 33.3053 35.7933 33.5051 35.3676 33.5051 C 34.9419 33.5051 34.5554 33.3053 34.2764 32.9835 C 33.9967 32.6609 33.8238 32.2163 33.8238 31.7252 C 33.8238 31.2341 33.9967 30.7895 34.2764 30.467 C 34.5554 30.1452 34.9419 29.9454 35.3676 29.9454 Z " stroke-width="0.7264654636383057"/>
    <path id="ID0.5298761413432658" fill="none" stroke="#000000" stroke-width="1.4529309272766113" stroke-linecap="round" d="M 34.0179 38.5677 C 35.6902 39.6981 35.6844 39.8114 36.6695 40.0206 C 37.1744 40.1231 38.1224 39.4758 38.1224 39.4758 "/>
  </g>
</svg>