<svg version="1.1" xmlns="http://www.w3.org/2000/svg" xmlns:xlink="http://www.w3.org/1999/xlink" width="122.73" height="37.94462" viewBox="0,0,122.73,37.94462"><defs><radialGradient cx="244.6527" cy="172.1293" r="17.28727" fx="237.03067" fy="163.68566" gradientUnits="userSpaceOnUse" id="color-1"><stop offset="0.15" stop-color="#990000"/><stop offset="0.42" stop-color="#8d0000"/><stop offset="0.89" stop-color="#6e0000"/><stop offset="1" stop-color="#660000"/></radialGradient></defs><g transform="translate(-141.9434,-160.28272)"><g data-paper-data="{&quot;isPaintingLayer&quot;:true}" fill="none" fill-rule="nonzero" stroke="none" stroke-width="none" stroke-linecap="none" stroke-linejoin="miter" stroke-miterlimit="10" stroke-dasharray="" stroke-dashoffset="0" font-family="none" font-weight="none" font-size="none" text-anchor="none" style="mix-blend-mode: normal"><path d="M185.9234,186.79c3.25,-0.88 46.29,-0.4 50.75,-0.05c12.37,0.99 27.5,2.88 27.5,5.21c0,2.33 -10.09,2.24 -22.54,2.24c-12.45,0 -60.68,-1.23 -63.45,-3c-1.51,-0.97 1.8,-2.79 7.74,-4.4z" data-paper-data="{&quot;index&quot;:null}" fill="#ff0000" stroke="#000000" stroke-width="1" stroke-linecap="butt"/><path d="M247.8234,161.09c8.85,1.55 14.05,8.46 12.59,16.86c-1.46,8.4 -7.87,14.33 -16.75,12.75c-17.78,-3.1 -16.84,-9.96 -15.38,-18.36c1.47,-8.4 10.69,-12.8 19.54,-11.25z" data-paper-data="{&quot;index&quot;:null}" fill="url(#color-1)" stroke="#000000" stroke-width="1" stroke-linecap="round"/><path d="M174.8234,179.65c2.00309,-1.15621 4.4225,-1.34145 6.57825,-0.50364c2.15575,0.83781 3.81512,2.60822 4.51175,4.81364c1.62042,4.90234 -0.48039,10.26363 -5,12.76c-2.00524,1.1445 -4.41975,1.32345 -6.57181,0.48708c-2.15206,-0.83638 -3.81206,-2.59884 -4.51819,-4.79708c-0.80878,-2.36727 -0.74494,-4.94565 0.18,-7.27c0.89461,-2.34983 2.60571,-4.29879 4.82,-5.49z" data-paper-data="{&quot;index&quot;:null}" id="ID0.3849619720131159" fill="#ff0000" stroke="#000000" stroke-width="1" stroke-linecap="butt"/><path d="M181.8634,188.7c0.4,1.72 0.49,1.75 0.35,2.62c-0.08,0.44 -0.91,1 -0.91,1" data-paper-data="{&quot;index&quot;:null}" id="ID0.5298761413432658" fill="none" stroke="#000000" stroke-width="1" stroke-linecap="round"/><path d="M172.7734,185.85c-3.76,-1 -16.43,1.65 -19.76,-1" data-paper-data="{&quot;index&quot;:null}" fill="#ff0000" stroke="none" stroke-width="1" stroke-linecap="butt"/><path d="M172.7734,185.85c-3.76,-1 -16.43,1.65 -19.76,-1" data-paper-data="{&quot;index&quot;:null}" fill="none" stroke="#000000" stroke-width="3.5" stroke-linecap="butt"/><path d="M172.7734,185.85c-3.76,-1 -16.43,1.65 -19.76,-1" data-paper-data="{&quot;index&quot;:null}" fill="none" stroke="#ff0000" stroke-width="1.5" stroke-linecap="butt"/><path d="M150.9034,190.28c3.08,0.69 16.71,-1.89 20.48,-0.86" data-paper-data="{&quot;index&quot;:null}" fill="#ff0000" stroke="none" stroke-width="1" stroke-linecap="butt"/><path d="M150.9034,190.28c3.08,0.69 16.71,-1.89 20.48,-0.86" data-paper-data="{&quot;index&quot;:null}" fill="none" stroke="#000000" stroke-width="3.5" stroke-linecap="butt"/><path d="M150.9034,190.28c3.08,0.69 16.71,-1.89 20.48,-0.86" data-paper-data="{&quot;index&quot;:null}" fill="none" stroke="#ff0000" stroke-width="1.5" stroke-linecap="butt"/><path d="M148.5434,187.01c1.1071,0.78926 1.98386,1.85931 2.54,3.1c0.45536,0.92638 0.40248,2.02179 -0.14,2.9c-0.69326,0.7511 -1.70531,1.12318 -2.72,1c-1.25887,-0.13953 -2.45376,-0.62787 -3.45,-1.41c-0.96,-0.7 -2.13,-1.64 -2.33,-2.85c-0.21,-1.6 -0.23,-4.02 1.23,-4.72c1.54,-0.75 3.47,0.99 4.87,1.98z" data-paper-data="{&quot;index&quot;:null}" id="ID0.257101490162313" fill="#ffffff" stroke="#000000" stroke-width="1" stroke-linecap="butt"/><path d="M145.4934,189.84c0.35708,-0.02407 0.7112,0.07862 1,0.29c0.28878,0.20484 0.49456,0.50641 0.58,0.85c0.08542,0.31718 0.02185,0.65599 -0.17274,0.92063c-0.19459,0.26464 -0.49904,0.42634 -0.82726,0.43937c-0.3568,0.02153 -0.71008,-0.08092 -1,-0.29c-0.28508,-0.21085 -0.48687,-0.5153 -0.57,-0.86c-0.07995,-0.31357 -0.01776,-0.64644 0.17,-0.91c0.19658,-0.25865 0.49579,-0.4192 0.82,-0.44z" data-paper-data="{&quot;index&quot;:null}" id="ID0.13991053588688374" fill="#000000" stroke="none" stroke-width="1" stroke-linecap="butt"/><path d="M152.6734,181.14c1.15154,0.82353 2.05445,1.94785 2.61,3.25c0.47979,0.97896 0.41927,2.13641 -0.16,3.06c-0.70189,0.83111 -1.78395,1.23972 -2.86,1.08c-1.40797,-0.16179 -2.74907,-0.68927 -3.89,-1.53c-1.34,-0.98 -3.53,-2.1 -3.41,-3.81c0.12,-1.71 2.11,-3.08 3.8,-3.57c1.34,-0.34 2.65,0.66 3.91,1.52z" data-paper-data="{&quot;index&quot;:null}" id="ID0.257101490162313-2" fill="#ffffff" stroke="#000000" stroke-width="1" stroke-linecap="butt"/><path d="M149.6534,184.08c0.35727,-0.02583 0.71198,0.07703 1,0.29c0.28508,0.20845 0.48985,0.50854 0.58,0.85c0.08542,0.31718 0.02185,0.65599 -0.17274,0.92063c-0.19459,0.26464 -0.49904,0.42634 -0.82726,0.43937c-0.3568,0.02153 -0.71008,-0.08092 -1,-0.29c-0.2844,-0.20715 -0.48632,-0.50825 -0.57,-0.85c-0.07627,-0.3169 -0.01449,-0.65128 0.17,-0.92c0.19658,-0.25865 0.49579,-0.4192 0.82,-0.44z" data-paper-data="{&quot;index&quot;:null}" id="ID0.13991053588688374-2" fill="#000000" stroke="none" stroke-width="1" stroke-linecap="butt"/><path d="M239.9734,189.67c-1.51545,-2.27158 -2.34831,-4.9298 -2.4,-7.66c-0.18883,-1.98018 -0.04347,-3.97801 0.43,-5.91c0.49008,-1.96057 1.87073,-3.5781 3.73,-4.37c1.1208,-0.3168 2.29204,-0.41525 3.45,-0.29c2.9,0.11 4.3,1.76 4.65,3c0.49,1.84 0.85,4.53 -0.88,6.39c-1.73,1.86 -4.57,0.9 -5.26,-2" data-paper-data="{&quot;index&quot;:null}" fill="none" stroke="#000000" stroke-width="1" stroke-linecap="round"/></g></g></svg>