<svg version="1.1" xmlns="http://www.w3.org/2000/svg" xmlns:xlink="http://www.w3.org/1999/xlink" width="51.19167" height="95.47651" viewBox="0,0,51.19167,95.47651"><defs><radialGradient cx="244.19047" cy="172.9086" r="17.28727" fx="236.56425" fy="164.4672" gradientUnits="userSpaceOnUse" id="color-1"><stop offset="0.15" stop-color="#990000"/><stop offset="0.42" stop-color="#8d0000"/><stop offset="0.89" stop-color="#6e0000"/><stop offset="1" stop-color="#660000"/></radialGradient></defs><g transform="translate(-213.62,-99.41881)"><g data-paper-data="{&quot;isPaintingLayer&quot;:true}" fill="none" fill-rule="nonzero" stroke="none" stroke-width="none" stroke-linecap="none" stroke-linejoin="miter" stroke-miterlimit="10" stroke-dasharray="" stroke-dashoffset="0" font-family="none" font-weight="none" font-size="none" text-anchor="none" style="mix-blend-mode: normal"><path d="M226.32167,151.615c0.41,8.24 1.6,24.44 6.05,34.33c0.6,1.37 2.87,0.88 4.44,1c12.37,0.99 27.5,2.85 27.5,5.19c0,2.34 -10.09,2.26 -22.54,2.26c-12.45,0 -20.7,-3.24 -20.45,-43c0.01,-1.74 4.88,-1.34 5,0.22z" data-paper-data="{&quot;index&quot;:null}" fill="#ff0000" stroke="#000000" stroke-width="1" stroke-linecap="butt"/><path d="M247.96167,161.295c8.85,1.55 14.05,8.42 12.59,16.84c-1.46,8.42 -7.87,14.32 -16.75,12.77c-17.78,-3.1 -16.84,-9.96 -15.38,-18.36c1.47,-8.41 10.69,-12.8 19.54,-11.25z" data-paper-data="{&quot;index&quot;:null}" fill="url(#color-1)" stroke="#000000" stroke-width="1" stroke-linecap="round"/><path d="M230.65167,137.995c1.79722,1.45238 2.84167,3.63928 2.84167,5.95c0,2.31072 -1.04445,4.49762 -2.84167,5.95c-3.96919,3.29318 -9.72081,3.29318 -13.69,0c-1.79722,-1.45238 -2.84167,-3.63928 -2.84167,-5.95c0,-2.31072 1.04445,-4.49762 2.84167,-5.95c1.91387,-1.61593 4.34535,-2.48913 6.85,-2.46c2.50122,-0.02673 4.92875,0.84633 6.84,2.46z" data-paper-data="{&quot;index&quot;:null}" id="ID0.3849619720131159" fill="#ff0000" stroke="#000000" stroke-width="1" stroke-linecap="butt"/><path d="M224.81167,145.875c-1.46,1 -1.46,1.09 -2.32,1.27c-0.44,0.09 -1.27,-0.47 -1.27,-0.47" data-paper-data="{&quot;index&quot;:null}" id="ID0.5298761413432658" fill="none" stroke="#000000" stroke-width="1" stroke-linecap="round"/><path d="M224.16167,138.365c-0.48,-5.77 -0.68,-23.11 0.52,-29.11" data-paper-data="{&quot;index&quot;:null}" fill="#ff0000" stroke="none" stroke-width="1" stroke-linecap="butt"/><path d="M224.16167,138.365c-0.48,-5.77 -0.68,-23.11 0.52,-29.11" data-paper-data="{&quot;index&quot;:null}" fill="none" stroke="#000000" stroke-width="3.5" stroke-linecap="butt"/><path d="M224.16167,138.365c-0.48,-5.77 -0.68,-23.11 0.52,-29.11" data-paper-data="{&quot;index&quot;:null}" fill="none" stroke="#ff0000" stroke-width="1.5" stroke-linecap="butt"/><path d="M218.81167,109.135c0.52,4.65 1,23.36 1.49,29.14" data-paper-data="{&quot;index&quot;:null}" fill="#ff0000" stroke="none" stroke-width="1" stroke-linecap="butt"/><path d="M218.81167,109.135c0.52,4.65 1,23.36 1.49,29.14" data-paper-data="{&quot;index&quot;:null}" fill="none" stroke="#000000" stroke-width="3.5" stroke-linecap="butt"/><path d="M218.81167,109.135c0.52,4.65 1,23.36 1.49,29.14" data-paper-data="{&quot;index&quot;:null}" fill="none" stroke="#ff0000" stroke-width="1.5" stroke-linecap="butt"/><path d="M221.21167,105.135c0.02595,1.3729 -0.31956,2.7273 -1,3.92c-0.47175,0.91203 -1.37719,1.51942 -2.4,1.61c-1.01611,-0.09957 -1.92318,-0.67949 -2.44,-1.56c-0.63736,-1.09319 -0.94958,-2.34555 -0.9,-3.61c0,-1.19 0.06,-2.69 0.92,-3.57c1.17,-1.11 3.11,-2.56 4.53,-1.79c1.49,0.76 1.25,3.32 1.29,5z" data-paper-data="{&quot;index&quot;:null}" id="ID0.257101490162313" fill="#ffffff" stroke="#000000" stroke-width="1" stroke-linecap="butt"/><path d="M217.81167,103.435c0.24223,0.27516 0.36777,0.63384 0.35,1c0.01266,0.3654 -0.11224,0.72225 -0.35,1c-0.1868,0.27357 -0.48977,0.4452 -0.82046,0.46477c-0.33068,0.01957 -0.65178,-0.11513 -0.86954,-0.36477c-0.23776,-0.27775 -0.36266,-0.6346 -0.35,-1c-0.01777,-0.36616 0.10777,-0.72484 0.35,-1c0.20618,-0.25214 0.5143,-0.39886 0.84,-0.4c0.31335,-0.02732 0.62322,0.08204 0.85,0.3z" data-paper-data="{&quot;index&quot;:null}" id="ID0.13991053588688374" fill="#000000" stroke="none" stroke-width="1" stroke-linecap="butt"/><path d="M228.36167,105.085c0.01078,1.40414 -0.35527,2.78547 -1.06,4c-0.51275,0.96133 -1.48327,1.59198 -2.57,1.67c-1.08433,-0.07763 -2.05201,-0.70888 -2.56,-1.67c-0.70038,-1.2345 -1.0658,-2.63067 -1.06,-4.05c0,-1.66 -0.39,-4.1 1.06,-5c1.45,-0.9 3.73,-0.12 5.13,0.95c1.09,0.86 1.06,2.51 1.06,4.1z" data-paper-data="{&quot;index&quot;:null}" id="ID0.257101490162313-2" fill="#ffffff" stroke="#000000" stroke-width="1" stroke-linecap="butt"/><path d="M224.93167,103.465c0.23607,0.27872 0.36073,0.6349 0.35,1c0.00794,0.36467 -0.11638,0.71988 -0.35,1c-0.20504,0.25373 -0.51378,0.40118 -0.84,0.40118c-0.32622,0 -0.63496,-0.14745 -0.84,-0.40118c-0.23362,-0.28012 -0.35794,-0.63533 -0.35,-1c-0.01073,-0.3651 0.11393,-0.72128 0.35,-1c0.20792,-0.24991 0.51493,-0.39611 0.84,-0.4c0.32507,0.00389 0.63208,0.15009 0.84,0.4z" data-paper-data="{&quot;index&quot;:null}" id="ID0.13991053588688374-2" fill="#000000" stroke="none" stroke-width="1" stroke-linecap="butt"/><path d="M240.11167,189.875c-1.51363,-2.26873 -2.34641,-4.92322 -2.4,-7.65c-0.1892,-1.98349 -0.04384,-3.98467 0.43,-5.92c0.49008,-1.96057 1.87073,-3.5781 3.73,-4.37c1.1208,-0.3168 2.29204,-0.41525 3.45,-0.29c2.9,0.11 4.3,1.76 4.65,3c0.49,1.84 0.85,4.53 -0.88,6.39c-1.73,1.86 -4.57,0.9 -5.26,-2" data-paper-data="{&quot;index&quot;:null}" fill="none" stroke="#000000" stroke-width="1" stroke-linecap="round"/></g></g></svg>