<svg xmlns="http://www.w3.org/2000/svg" xmlns:xlink="http://www.w3.org/1999/xlink" version="1.1" width="27.684763431549072" height="36.60580492019653" viewBox="0.08112019300460815 0.3512282371520996 27.684763431549072 36.60580492019653">
  <defs>
    <radialGradient id="grad_1" cx="0.4416" cy="0.4515" r="0.72592">
      <stop offset="0" stop-color="#990000" stop-opacity="1"/>
      <stop offset="1" stop-color="#660000" stop-opacity="1"/>
    </radialGradient>
  <radialGradient id="grad_1-.7264654636383057,0,0,0.7264654636383057,-162.6,-92.85" cx="11.7568" cy="25.7377" r="15.5128" gradientUnits="userSpaceOnUse">
      <stop offset="0" stop-color="#990000" stop-opacity="1"/>
      <stop offset="1" stop-color="#660000" stop-opacity="1"/>
    </radialGradient></defs>
  <!-- Exported by Scratch - http://scratch.mit.edu/ -->
  <path id="ID0.4909940124489367" fill="url(#grad_1-.7264654636383057,0,0,0.7264654636383057,-162.6,-92.85)" stroke="#000000" stroke-width="1.4529309272766113" stroke-linecap="round" d="M 13.2046 17.936 C 16.6118 17.936 19.6992 19.564 21.9353 22.1945 C 24.1706 24.8243 25.9156 28.8613 25.5546 32.4653 C 25.2545 34.4166 22.5615 34.49 20.8325 34.6447 C 15.8308 35.4235 10.6402 35.3879 5.5768 34.6447 C 3.8412 34.6287 1.0719 34.3265 0.8547 32.4653 C 0.5002 28.8664 2.1892 24.8824 4.474 22.1945 C 6.6483 19.6366 9.7975 17.936 13.2046 17.936 Z "/>
  <path id="ID0.3849619720131159" fill="#FF0000" stroke="#000000" stroke-width="1.4529309272766113" d="M 14.1833 3.9478 C 17.2396 3.9478 20.0096 5.0266 22.0154 6.7687 C 24.0204 8.5115 25.2619 10.9175 25.2619 13.5735 C 25.2619 16.2294 24.0204 18.6355 22.0154 20.3783 C 20.0096 22.1203 17.2396 23.1991 14.1833 23.1991 C 11.1271 23.1991 8.3571 22.1203 6.3513 20.3783 C 4.3463 18.6355 3.1047 16.2294 3.1047 13.5735 C 3.1047 10.9175 4.3463 8.5115 6.3513 6.7687 C 8.3571 5.0266 11.1271 3.9478 14.1833 3.9478 Z "/>
  <path id="ID0.257101490162313" fill="#FFFFFF" stroke="#000000" stroke-width="1.3835861632155322" d="M 17.7589 1.6638 C 19.608 0.6588 22.139 2.553 23.6594 4.0002 C 24.7785 5.146 24.856 7.0947 24.8601 8.6381 C 24.8656 10.2534 24.5706 11.9404 23.6903 13.343 C 23.0145 14.4184 21.7678 15.4381 20.5376 15.4381 C 19.3075 15.4381 18.1925 14.6367 17.385 13.343 C 16.5774 12.0485 16.0402 10.0288 16.078 8.2894 C 16.1274 6.0576 15.8145 2.7211 17.7589 1.6638 Z "/>
  <path id="ID0.13991053588688374" fill="#000000" stroke="none" d="M 21.6176 9.4954 C 22.0433 9.4954 22.4298 9.6952 22.7087 10.017 C 22.9884 10.3395 23.1613 10.7841 23.1613 11.2752 C 23.1613 11.7663 22.9884 12.2109 22.7087 12.5335 C 22.4298 12.8553 22.0433 13.0551 21.6176 13.0551 C 21.1919 13.0551 20.8054 12.8553 20.5264 12.5335 C 20.2467 12.2109 20.0738 11.7663 20.0738 11.2752 C 20.0738 10.7841 20.2467 10.3395 20.5264 10.017 C 20.8054 9.6952 21.1919 9.4954 21.6176 9.4954 Z " stroke-width="0.7264654636383057"/>
  <path id="ID0.257101490162313" fill="#FFFFFF" stroke="#000000" stroke-width="1.4529309272766113" d="M 10.4429 2.8375 C 12.2627 1.4361 15.231 0.4111 17.1228 1.5996 C 18.9629 2.8491 18.5038 5.9467 18.503 8.1014 C 18.5023 9.9212 17.9742 12.0171 17.1191 13.3654 C 16.2641 14.713 15.0836 15.5477 13.781 15.5477 C 12.4785 15.5477 11.298 14.713 10.4429 13.3654 C 9.5879 12.0171 9.059 10.0956 9.059 8.1014 C 9.059 6.1073 9.0241 3.9584 10.4429 2.8375 Z "/>
  <path id="ID0.13991053588688374" fill="#000000" stroke="none" d="M 14.6176 9.4454 C 15.0433 9.4454 15.4298 9.6452 15.7087 9.967 C 15.9884 10.2895 16.1613 10.7341 16.1613 11.2252 C 16.1613 11.7163 15.9884 12.1609 15.7087 12.4835 C 15.4298 12.8053 15.0433 13.0051 14.6176 13.0051 C 14.1919 13.0051 13.8054 12.8053 13.5264 12.4835 C 13.2467 12.1609 13.0738 11.7163 13.0738 11.2252 C 13.0738 10.7341 13.2467 10.2895 13.5264 9.967 C 13.8054 9.6452 14.1919 9.4454 14.6176 9.4454 Z " stroke-width="0.7264654636383057"/>
  <path id="ID0.5298761413432658" fill="none" stroke="#000000" stroke-width="1.4529309272766113" stroke-linecap="round" d="M 13.0679 18.0677 C 14.7402 19.1981 14.7344 19.3114 15.7195 19.5206 C 16.2244 19.6231 17.1724 18.9758 17.1724 18.9758 "/>
  <path id="ID0.4909940124489367" fill="#FF0000" stroke="#000000" stroke-width="1.3285603471918477" stroke-linecap="round" d="M 20.6966 29.2491 C 22.4397 29.2491 24.0194 29.8927 25.1634 30.9327 C 26.3071 31.9724 27.1999 33.5684 27.0151 34.9933 C 26.8616 35.7647 25.4838 35.7937 24.5992 35.8549 C 22.0402 36.1628 19.3845 36.1487 16.7939 35.8549 C 15.906 35.8486 14.4891 35.7291 14.378 34.9933 C 14.1966 33.5704 15.0608 31.9954 16.2297 30.9327 C 17.3422 29.9215 18.9534 29.2491 20.6966 29.2491 Z "/>
  <path id="ID0.4909940124489367" fill="#FF0000" stroke="#000000" stroke-width="1.3285603471918477" stroke-linecap="round" d="M 8.8966 29.3991 C 10.6397 29.3991 12.2194 30.0427 13.3634 31.0827 C 14.5071 32.1224 15.3999 33.7184 15.2151 35.1433 C 15.0616 35.9147 13.6838 35.9437 12.7992 36.0049 C 10.2402 36.3128 7.5845 36.2987 4.9939 36.0049 C 4.106 35.9986 2.6891 35.8791 2.578 35.1433 C 2.3966 33.7204 3.2608 32.1454 4.4297 31.0827 C 5.5422 30.0715 7.1534 29.3991 8.8966 29.3991 Z "/>
</svg>