<svg version="1.1" xmlns="http://www.w3.org/2000/svg" xmlns:xlink="http://www.w3.org/1999/xlink" width="51.19167" height="95.7541" viewBox="0,0,51.19167,95.7541"><defs><radialGradient cx="234.2412" cy="172.9086" r="17.28727" fx="241.86742" fy="164.4672" gradientUnits="userSpaceOnUse" id="color-1"><stop offset="0.15" stop-color="#990000"/><stop offset="0.42" stop-color="#8d0000"/><stop offset="0.89" stop-color="#6e0000"/><stop offset="1" stop-color="#660000"/></radialGradient></defs><g transform="translate(-213.62,-99.1409)"><g data-paper-data="{&quot;isPaintingLayer&quot;:true}" fill="none" fill-rule="nonzero" stroke="none" stroke-width="none" stroke-linecap="none" stroke-linejoin="miter" stroke-miterlimit="10" stroke-dasharray="" stroke-dashoffset="0" font-family="none" font-weight="none" font-size="none" text-anchor="none" style="mix-blend-mode: normal"><path d="M257.11,151.395c0.25,39.76 -8,43 -20.45,43c-12.45,0 -22.54,0.08 -22.54,-2.26c0,-2.34 15.13,-4.2 27.5,-5.19c1.57,-0.12 3.84,0.37 4.44,-1c4.45,-9.89 5.64,-26.09 6.05,-34.33c0.12,-1.56 4.99,-1.96 5,-0.22z" fill="#ff0000" stroke="#000000" stroke-width="1" stroke-linecap="butt"/><path d="M250.01,172.545c1.46,8.4 2.4,15.26 -15.38,18.36c-8.88,1.55 -15.29,-4.35 -16.75,-12.77c-1.46,-8.42 3.74,-15.29 12.59,-16.84c8.85,-1.55 18.07,2.84 19.54,11.25z" fill="url(#color-1)" stroke="#000000" stroke-width="1" stroke-linecap="round"/><path d="M254.62,135.535c2.50465,-0.02913 4.93613,0.84407 6.85,2.46c1.79722,1.45238 2.84167,3.63928 2.84167,5.95c0,2.31072 -1.04445,4.49762 -2.84167,5.95c-3.96919,3.29318 -9.72081,3.29318 -13.69,0c-1.79722,-1.45238 -2.84167,-3.63928 -2.84167,-5.95c0,-2.31072 1.04445,-4.49762 2.84167,-5.95c1.91125,-1.61367 4.33878,-2.48673 6.84,-2.46z" id="ID0.3849619720131159" fill="#ff0000" stroke="#000000" stroke-width="1" stroke-linecap="butt"/><path d="M257.21,146.675c0,0 -0.83,0.56 -1.27,0.47c-0.86,-0.18 -0.86,-0.27 -2.32,-1.27" id="ID0.5298761413432658" fill="none" stroke="#000000" stroke-width="1" stroke-linecap="round"/><path d="M253.75,109.255c1.2,6 1,23.34 0.52,29.11" fill="#ff0000" stroke="none" stroke-width="1" stroke-linecap="butt"/><path d="M253.75,109.255c1.2,6 1,23.34 0.52,29.11" fill="none" stroke="#000000" stroke-width="3.5" stroke-linecap="butt"/><path d="M253.75,109.255c1.2,6 1,23.34 0.52,29.11" fill="none" stroke="#ff0000" stroke-width="1.5" stroke-linecap="butt"/><path d="M258.13,138.275c0.49,-5.78 0.97,-24.49 1.49,-29.14" fill="#ff0000" stroke="none" stroke-width="1" stroke-linecap="butt"/><path d="M258.13,138.275c0.49,-5.78 0.97,-24.49 1.49,-29.14" fill="none" stroke="#000000" stroke-width="3.5" stroke-linecap="butt"/><path d="M258.13,138.275c0.49,-5.78 0.97,-24.49 1.49,-29.14" fill="none" stroke="#ff0000" stroke-width="1.5" stroke-linecap="butt"/><path d="M258.51,100.135c1.42,-0.77 3.36,0.68 4.53,1.79c0.86,0.88 0.92,2.38 0.92,3.57c0.04958,1.26445 -0.26264,2.51681 -0.9,3.61c-0.51682,0.88051 -1.42389,1.46043 -2.44,1.56c-1.02281,-0.09058 -1.92825,-0.69797 -2.4,-1.61c-0.68044,-1.1927 -1.02595,-2.5471 -1,-3.92c0.04,-1.68 -0.2,-4.24 1.29,-5z" id="ID0.257101490162313" fill="#ffffff" stroke="#000000" stroke-width="1" stroke-linecap="butt"/><path d="M261.47,103.135c0.3257,0.00114 0.63382,0.14786 0.84,0.4c0.24223,0.27516 0.36777,0.63384 0.35,1c0.01266,0.3654 -0.11224,0.72225 -0.35,1c-0.21776,0.24964 -0.53886,0.38434 -0.86954,0.36477c-0.33069,-0.01957 -0.63366,-0.1912 -0.82046,-0.46477c-0.23776,-0.27775 -0.36266,-0.6346 -0.35,-1c-0.01777,-0.36616 0.10777,-0.72484 0.35,-1c0.22678,-0.21796 0.53665,-0.32732 0.85,-0.3z" id="ID0.13991053588688374" fill="#000000" stroke="none" stroke-width="1" stroke-linecap="butt"/><path d="M251.13,100.985c1.4,-1.07 3.68,-1.85 5.13,-0.95c1.45,0.9 1.06,3.34 1.06,5c0.0058,1.41933 -0.35962,2.8155 -1.06,4.05c-0.50799,0.96112 -1.47567,1.59237 -2.56,1.67c-1.08673,-0.07802 -2.05725,-0.70867 -2.57,-1.67c-0.70473,-1.21453 -1.07078,-2.59586 -1.06,-4c0,-1.59 -0.03,-3.24 1.06,-4.1z" id="ID0.257101490162313-2" fill="#ffffff" stroke="#000000" stroke-width="1" stroke-linecap="butt"/><path d="M254.34,103.065c0.32507,0.00389 0.63208,0.15009 0.84,0.4c0.23607,0.27872 0.36073,0.6349 0.35,1c0.00794,0.36467 -0.11638,0.71988 -0.35,1c-0.20504,0.25373 -0.51378,0.40118 -0.84,0.40118c-0.32622,0 -0.63496,-0.14745 -0.84,-0.40118c-0.23362,-0.28012 -0.35794,-0.63533 -0.35,-1c-0.01073,-0.3651 0.11393,-0.72128 0.35,-1c0.20792,-0.24991 0.51493,-0.39611 0.84,-0.4z" id="ID0.13991053588688374-2" fill="#000000" stroke="none" stroke-width="1" stroke-linecap="butt"/><path d="M234.6,179.035c-0.69,2.9 -3.53,3.86 -5.26,2c-1.73,-1.86 -1.37,-4.55 -0.88,-6.39c0.35,-1.24 1.75,-2.89 4.65,-3c1.15796,-0.12525 2.3292,-0.0268 3.45,0.29c1.85927,0.7919 3.23992,2.40943 3.73,4.37c0.47384,1.93533 0.6192,3.93651 0.43,5.92c-0.05359,2.72678 -0.88637,5.38127 -2.4,7.65" fill="none" stroke="#000000" stroke-width="1" stroke-linecap="round"/></g></g></svg>