<svg version="1.1" xmlns="http://www.w3.org/2000/svg" xmlns:xlink="http://www.w3.org/1999/xlink" width="37.25" height="36.25" viewBox="0,0,37.25,36.25"><g transform="translate(-223.5625,-149.25)"><g data-paper-data="{&quot;isPaintingLayer&quot;:true}" fill-rule="nonzero" stroke-linecap="butt" stroke-linejoin="miter" stroke-miterlimit="10" stroke-dasharray="" stroke-dashoffset="0" style="mix-blend-mode: normal"><path d="M223.5625,185.5v-36.25h37.25v36.25z" fill="none" stroke="none" stroke-width="0"/><path d="M241.43331,155.1978c3.40115,0 6.48368,1.34498 8.7158,3.51692c2.23122,2.17282 3.61281,5.17246 3.61281,8.48379c0,3.31121 -0.75658,8.31098 -2.36281,10.10879c-2.23211,2.17182 -6.56465,1.8918 -9.9658,1.8918c-3.40103,0 -7.60857,0.28002 -9.84068,-1.8918c-1.48122,-1.29782 -2.48792,-6.79758 -2.48792,-10.10879c0,-3.31133 1.38169,-6.31097 3.61292,-8.48379c2.23211,-2.17194 5.31465,-3.51692 8.71568,-3.51692z" fill="#ff0000" stroke="#000000" stroke-width="1.45293"/><path d="M245.68331,161.6978c1.98729,0 3.78842,0.09684 5.09264,1.06064c1.30371,0.96419 2.11096,2.29529 2.11096,3.7647c0,1.46936 -0.44207,3.68801 -1.38059,4.48579c-1.30423,0.96374 -3.83573,0.83949 -5.82301,0.83949c-1.98722,0 -4.44568,0.12426 -5.74991,-0.83949c-0.86548,-0.57591 -1.45369,-3.01643 -1.45369,-4.48579c0,-1.46941 0.80732,-2.80051 2.11103,-3.7647c1.30423,-0.9638 3.10535,-1.06064 5.09257,-1.06064z" fill="#7dd8d8" stroke="#000000" stroke-width="1.45293"/><path d="M246.62081,162.4478c1.45278,0 2.76947,0.07079 3.72291,0.77537c0.95306,0.70486 1.54319,1.67794 1.54319,2.75213c0,1.07415 -0.32317,2.69607 -1.00926,3.27928c-0.95344,0.70453 -2.80406,0.61369 -4.25684,0.61369c-1.45273,0 -3.24996,0.09084 -4.2034,-0.61369c-0.6327,-0.42101 -1.0627,-2.20513 -1.0627,-3.27928c0,-1.07419 0.59018,-2.04727 1.54324,-2.75213c0.95344,-0.70457 2.27013,-0.77537 3.72286,-0.77537z" fill="#93ffff" stroke="none" stroke-width="0"/><path d="M247.5583,163.0728c0.78034,0 1.48758,0.02794 1.9997,0.30605c0.51192,0.27822 0.8289,0.6623 0.8289,1.0863c0,0.42398 -0.17359,1.06418 -0.54211,1.29438c-0.51212,0.27809 -1.50616,0.24223 -2.28649,0.24223c-0.78031,0 -1.74566,0.03586 -2.25779,-0.24223c-0.33984,-0.16618 -0.57081,-0.87039 -0.57081,-1.29438c0,-0.424 0.31701,-0.80809 0.82893,-1.0863c0.51212,-0.2781 1.21936,-0.30605 1.99967,-0.30605z" fill="#ffffff" stroke="none" stroke-width="0"/></g></g></svg>