<svg viewBox="0 0 579.2 700.9" xmlns:xlink="http://www.w3.org/1999/xlink" height="700.9" width="579.2" xmlns="http://www.w3.org/2000/svg" id="a"><defs><style>.c{opacity:.1;stroke:#bfc6db;}.c,.d{fill:none;}.e{fill:url(#b);}.d{opacity:.3;stroke:#dadfef;}</style><linearGradient gradientUnits="userSpaceOnUse" y2="702.7" x2="289.6" y1="43.2" x1="289.6" id="b"><stop stop-opacity=".5" stop-color="#3c4b92" offset="0"></stop><stop stop-opacity=".8" stop-color="#414c86" offset=".2"></stop><stop stop-opacity=".9" stop-color="#444d7e" offset=".3"></stop><stop stop-color="#464e7c" offset=".4"></stop><stop stop-color="#393d5b" offset=".5"></stop><stop stop-color="#2d2c3b" offset=".7"></stop><stop stop-color="#252227" offset=".9"></stop><stop stop-color="#231f20" offset="1"></stop></linearGradient></defs><path d="m571.4,43.2c-23.9,0-23.9,3.1-47.8,3.1s-23.9-3.1-47.8-3.1-23.9,3.1-47.8,3.1-23.9-3.1-47.8-3.1-23.9,3.1-47.8,3.1-23.9-3.1-47.8-3.1-23.9,3.1-47.8,3.1-23.9-3.1-47.8-3.1-23.9,3.1-47.8,3.1-23.9-3.1-47.8-3.1-23.9,3.1-47.8,3.1-23.8-1-45.3-2.9v659.3h579.2V43.4c-2.3-.1-4.9-.2-7.9-.2Z" class="e"></path><path d="m579.2,44.4c-2.3-.1-4.9-.2-7.9-.2-23.9,0-23.9,3.1-47.8,3.1s-23.9-3.1-47.8-3.1-23.9,3.1-47.8,3.1-23.9-3.1-47.8-3.1-23.9,3.1-47.8,3.1-23.9-3.1-47.8-3.1-23.9,3.1-47.8,3.1-23.9-3.1-47.8-3.1-23.9,3.1-47.8,3.1-23.9-3.1-47.8-3.1-23.9,3.1-47.8,3.1-23.8-1-45.3-2.9" class="c"></path><path d="m579.2,43.4c-2.3-.1-4.9-.2-7.9-.2-23.9,0-23.9,3.1-47.8,3.1s-23.9-3.1-47.8-3.1-23.9,3.1-47.8,3.1-23.9-3.1-47.8-3.1-23.9,3.1-47.8,3.1-23.9-3.1-47.8-3.1-23.9,3.1-47.8,3.1-23.9-3.1-47.8-3.1-23.9,3.1-47.8,3.1-23.9-3.1-47.8-3.1-23.9,3.1-47.8,3.1-23.8-1-45.3-2.9" class="d"></path></svg>