<svg version="1.1" xmlns="http://www.w3.org/2000/svg" xmlns:xlink="http://www.w3.org/1999/xlink" width="100.11463" height="59.12726" viewBox="0,0,100.11463,59.12726"><defs><radialGradient cx="226.52292" cy="169.88233" r="12.47112" gradientUnits="userSpaceOnUse" id="color-1"><stop offset="0" stop-color="#990000"/><stop offset="1" stop-color="#660000"/></radialGradient><radialGradient cx="235.41531" cy="164.00545" r="10.72662" gradientUnits="userSpaceOnUse" id="color-2"><stop offset="0" stop-color="#990000"/><stop offset="1" stop-color="#660000"/></radialGradient><radialGradient cx="244.35183" cy="162.24365" r="7.64382" gradientUnits="userSpaceOnUse" id="color-3"><stop offset="0" stop-color="#990000"/><stop offset="1" stop-color="#660000"/></radialGradient><radialGradient cx="250.44771" cy="162.427" r="7.23591" gradientUnits="userSpaceOnUse" id="color-4"><stop offset="0" stop-color="#990000"/><stop offset="1" stop-color="#660000"/></radialGradient></defs><g transform="translate(-184.33487,-132.50275)"><g data-paper-data="{&quot;isPaintingLayer&quot;:true}" fill="none" fill-rule="nonzero" stroke="none" stroke-width="none" stroke-linecap="none" stroke-linejoin="miter" stroke-miterlimit="10" stroke-dasharray="" stroke-dashoffset="0" font-family="none" font-weight="none" font-size="none" text-anchor="none" style="mix-blend-mode: normal"><path d="M210.63335,150.02001c4.55,5.04 5.95,12.54 2.29,15.84c-3.65,3.3 -12.75,1.97 -19.36,-8c-5.26,-7.94 -7.24,-1.91 -8.37,-2.43c-1.22,-0.56 0.03,-5.19 3.33,-7.38c8.31,-5.53 17.56,-3.06 22.11,1.97z" data-paper-data="{&quot;origPos&quot;:null}" fill="#ff0000" stroke="#000000" stroke-width="0.8" stroke-linecap="butt"/><path d="M243.25335,187.72001c3.38,2.34 -4.19,2.92 -8.13,2.92c-3.93,0 -8.88,-0.85 -6.13,-3.92c2.71,-3.01 -0.13,-3.16 6.99,-2.83c3.95,0.19 2,0.18 7.27,3.83z" data-paper-data="{&quot;origPos&quot;:null}" fill="#ff0000" stroke="#000000" stroke-width="0.8" stroke-linecap="butt"/><path d="M225.46335,176.22001c0,-4.83249 3.88169,-8.75 8.67,-8.75c4.78831,0 8.67,3.91751 8.67,8.75c0,4.83249 -3.88169,8.75 -8.67,8.75c-4.78831,0 -8.67,-3.91751 -8.67,-8.75z" data-paper-data="{&quot;origPos&quot;:null}" fill="#ff0000" stroke="#000000" stroke-width="0.8" stroke-linecap="butt"/><path d="M238.44335,169.33001c-3.93,9.68 -14.83,14.39 -24.34,10.53c-9.51,-3.86 -14.03,-14.84 -10.1,-24.52c3.93,-9.68 16.17,-14.45 24.91,-9.08c5.16,3.16 13.46,13.39 9.53,23.07z" data-paper-data="{&quot;origPos&quot;:null}" fill="#ff0000" stroke="#000000" stroke-width="0.8" stroke-linecap="butt"/><path d="M246.51335,166.29001c-2.48,6.11 -8.92,7.47 -15.33,6.65c-7.74,-0.99 -12.36,-8.63 -9.88,-14.74c2.48,-6.11 9.1,-11.57 18.87,-7.38c5.93,2.55 8.82,9.36 6.34,15.47z" data-paper-data="{&quot;origPos&quot;:null}" fill="#ff0000" stroke="#000000" stroke-width="0.8" stroke-linecap="butt"/><path d="M234.65282,154.29092c2.03045,-4.99923 8.01949,-7.28797 13.37691,-5.11204c5.35741,2.17593 8.05445,7.99254 6.024,12.99177c-2.03045,4.99923 -8.01949,7.28797 -13.37691,5.11204c-5.35741,-2.17593 -8.05445,-7.99254 -6.024,-12.99177z" data-paper-data="{&quot;origPos&quot;:null}" fill="#ff0000" stroke="#000000" stroke-width="0.8" stroke-linecap="butt"/><path d="M238.90335,159.90001c0.8,3.02 0.83,6.25 -0.46,9.43c-3.94,9.68 -14.83,14.39 -24.34,10.53c-0.98,-0.39 -1.89,-0.88 -2.76,-1.42c2.05,-4.05 6.78,-11.04 12.73,-11.9c3.83,-0.56 8.25,1.01 11.15,-5.46c1.69,0.1 2.71,-0.47 3.68,-1.18z" data-paper-data="{&quot;origPos&quot;:null}" fill="url(#color-1)" stroke="#000000" stroke-width="0.8" stroke-linecap="round"/><path d="M231.17335,172.95001c-4.07,-0.52 -7.26,-2.88 -9.03,-5.89c0.63,-0.23 1.27,-0.42 1.93,-0.52c3.83,-0.56 8.25,1.01 11.15,-5.46c4.58,0.27 4.2,-4.31 11.35,-3.65c1.08,2.74 1.15,5.88 -0.06,8.86c-2.48,6.11 -8.92,7.47 -15.34,6.66z" data-paper-data="{&quot;origPos&quot;:null}" fill="url(#color-2)" stroke="#000000" stroke-width="0.8" stroke-linecap="round"/><path d="M240.68335,167.28001c-2.7,-1.09 -4.73,-3.12 -5.81,-5.49c0.11,-0.23 0.24,-0.45 0.35,-0.71c4.92,0.29 4.11,-5.03 13.08,-3.41c2.55,0.46 4.63,1.49 6.25,2.79c-0.11,0.58 -0.27,1.15 -0.5,1.71c-2.03,5 -8.02,7.29 -13.37,5.11z" data-paper-data="{&quot;origPos&quot;:null}" fill="url(#color-3)" stroke="#000000" stroke-width="0.8" stroke-linecap="round"/><path d="M249.95335,166.46001c-4.02,-1.64 -6.82,-4.91 -7.85,-8.6c1.38,-0.51 3.27,-0.73 6.2,-0.2c6.21,1.13 9.61,5.61 10.5,9.3c-2.76,0.81 -5.88,0.71 -8.85,-0.5z" data-paper-data="{&quot;origPos&quot;:null}" fill="url(#color-4)" stroke="#000000" stroke-width="0.8" stroke-linecap="round"/><path d="M215.79335,187.31001c2.48,2.09 -3.19,3.92 -7.13,3.92c-3.93,0 -7.13,0.21 -7.13,-3.92c0,-5.48 0,-10.25 7.13,-9.92c3.94,0.19 1.88,5.5 7.13,9.92z" data-paper-data="{&quot;origPos&quot;:null}" fill="#ff0000" stroke="#000000" stroke-width="0.8" stroke-linecap="butt"/><path d="M205.29335,176.06001c0,-5.29089 3.88169,-9.58 8.67,-9.58c4.78831,0 8.67,4.28911 8.67,9.58c0,5.29089 -3.88169,9.58 -8.67,9.58c-4.78831,0 -8.67,-4.28911 -8.67,-9.58z" data-paper-data="{&quot;origPos&quot;:null}" fill="#ff0000" stroke="#000000" stroke-width="0.8" stroke-linecap="butt"/><path d="M221.51335,171.92001c-2.27,-4.88 -4.57,-1.62 -3.55,-4.37c0.66,-1.76 1.08,-3.43 1.77,-4.24c0.37,-0.83 1.04,-1.72 1.95,-2.51c0.85,-0.73 1.76,-1.23 2.59,-1.49c0.99,-0.59 2.71,-0.1 4.08,1.22c1.53,1.48 2.05,3.43 1.15,4.36c-0.89,0.92 -2.83,0.5 -4.35,-0.94c-0.14,0.13 -0.27,0.27 -0.42,0.4c-0.55,0.48 -1.13,0.85 -1.69,1.13c0.16,0.5 0.28,1.06 0.34,1.65c0.26,2.52 -1.32,5.97 -1.87,4.79z" data-paper-data="{&quot;origPos&quot;:null}" fill="#ff0000" stroke="#000000" stroke-width="0.8" stroke-linecap="butt"/><path d="M218.25335,168.08001c0.4,-0.31 0.66,0.33 0.97,0.96c0.3,0.63 0.55,1.27 0.13,1.34c-2.02,0.32 -3.46,0.51 -3.6,0.23c-0.11,-0.22 0.99,-1.34 2.5,-2.53z" data-paper-data="{&quot;origPos&quot;:null}" fill="#ffffff" stroke="#000000" stroke-width="0.8" stroke-linecap="round"/><path d="M219.88335,170.69001c0.24,-0.43 0.78,0.03 1.34,0.47c0.57,0.44 1.08,0.9 0.71,1.12c-1.79,1.05 -3.08,1.76 -3.33,1.56c-0.19,-0.14 0.37,-1.53 1.28,-3.15z" data-paper-data="{&quot;origPos&quot;:null}" fill="#ffffff" stroke="#000000" stroke-width="0.8" stroke-linecap="round"/><path d="M278.99335,146.30001c-0.34,-0.4 0.47,-0.71 1.28,-1.07c0.81,-0.35 1.62,-0.64 1.65,-0.21c0.18,2.11 0.26,3.62 -0.1,3.78c-0.27,0.13 -1.52,-0.97 -2.83,-2.5z" data-paper-data="{&quot;origPos&quot;:null}" fill="#ffffff" stroke="#000000" stroke-width="0.8" stroke-linecap="round"/><path d="M275.16335,147.23001c-0.33,-0.42 0.5,-0.69 1.33,-1c0.83,-0.31 1.65,-0.56 1.66,-0.13c0.08,2.12 0.08,3.63 -0.29,3.77c-0.27,0.11 -1.47,-1.05 -2.7,-2.64z" data-paper-data="{&quot;origPos&quot;:null}" fill="#ffffff" stroke="#000000" stroke-width="0.8" stroke-linecap="round"/><path d="M271.59335,148.91001c-0.32,-0.42 0.51,-0.69 1.34,-0.99c0.83,-0.3 1.65,-0.54 1.66,-0.11c0.06,2.12 0.05,3.63 -0.32,3.77c-0.28,0.1 -1.47,-1.07 -2.68,-2.67z" data-paper-data="{&quot;origPos&quot;:null}" fill="#ffffff" stroke="#000000" stroke-width="0.8" stroke-linecap="round"/><path d="M264.47335,150.31001c-0.28,-0.45 0.57,-0.64 1.43,-0.86c0.85,-0.23 1.69,-0.39 1.67,0.04c-0.14,2.12 -0.29,3.62 -0.67,3.72c-0.3,0.08 -1.37,-1.19 -2.43,-2.9z" data-paper-data="{&quot;origPos&quot;:null}" fill="#ffffff" stroke="#000000" stroke-width="0.8" stroke-linecap="round"/><path d="M260.69335,150.97001c-0.28,-0.45 0.57,-0.64 1.43,-0.86c0.85,-0.23 1.69,-0.39 1.67,0.04c-0.14,2.12 -0.29,3.62 -0.67,3.72c-0.3,0.08 -1.37,-1.19 -2.43,-2.9z" data-paper-data="{&quot;origPos&quot;:null}" fill="#ffffff" stroke="#000000" stroke-width="0.8" stroke-linecap="round"/><path d="M255.20335,151.67001c-0.26,-0.46 0.61,-0.6 1.47,-0.78c0.86,-0.18 1.71,-0.3 1.66,0.14c-0.26,2.11 -0.49,3.6 -0.87,3.68c-0.3,0.05 -1.3,-1.28 -2.26,-3.04z" data-paper-data="{&quot;origPos&quot;:null}" fill="#ffffff" stroke="#000000" stroke-width="0.8" stroke-linecap="round"/><path d="M272.35728,138.62309c-1.3592,-2.08068 -1.35156,-4.49217 0.01706,-5.38622c1.36862,-0.89405 3.57996,0.0679 4.93916,2.14858c1.3592,2.08068 1.35156,4.49217 -0.01706,5.38622c-1.36862,0.89405 -3.57996,-0.0679 -4.93916,-2.14858z" data-paper-data="{&quot;origPos&quot;:null}" fill="#ff0000" stroke="#000000" stroke-width="0.8" stroke-linecap="butt"/><path d="M248.98335,151.62001l-0.26,0.98c0.5,1.57 1.43,3.74 7.98,6.86c5.73,1.65 7.2,3.82 10.34,5.45c8.68,-0.26 11.23,2.72 11.58,3.06c0.56,0.52 2.28,0.45 2.28,0.45l0.89,0.12c0.05,0.4 0.16,0.89 0.38,1.52c0.59,1.68 -0.9,2.88 -1.79,5.11c-3.4,8.5 -16.94,6.65 -29.19,0.94c-11.81,-5.5 -9.68,-10.39 -11.12,-19.59c-1.02,-6.5 4.2,-7.42 4.02,-11.31c-0.18,-4 3.23,-6.42 6.55,-7c1.4,-0.24 2.67,-0.16 3.83,0.05c1.68,0.26 3.14,0.81 4.43,1.07c1.2,0.21 2.27,0.12 3.23,-0.76c0.68,-0.62 1.39,-1.1 2.1,-1.45c7.73,-5.66 14.7,-1.93 19.17,3.71c0.83,1.06 0.65,2.52 0.58,3.37c-0.2,2.31 -7.9,4.15 -12.8,6.37c-3.45,0.81 -5.97,0.12 -11.39,2.6c-8.5,2.31 -10.15,-0.13 -10.81,-1.55z" data-paper-data="{&quot;origPos&quot;:null}" fill="#ff0000" stroke="#000000" stroke-width="0.8" stroke-linecap="butt"/><path d="M260.8919,139.80647c-0.38447,-2.45546 0.61318,-4.65101 2.22833,-4.90391c1.61515,-0.2529 3.23616,1.53263 3.62063,3.98809c0.38447,2.45546 -0.61318,4.65101 -2.22833,4.90391c-1.61515,0.2529 -3.23616,-1.53263 -3.62063,-3.98809z" data-paper-data="{&quot;origPos&quot;:null}" fill="#ff0000" stroke="#000000" stroke-width="0.8" stroke-linecap="butt"/><path d="M262.44151,139.59944c-0.20834,-1.3314 0.25533,-2.5097 1.03562,-2.6318c0.78029,-0.1221 1.58173,0.85824 1.79006,2.18964c0.20834,1.3314 -0.25533,2.5097 -1.03562,2.6318c-0.78029,0.1221 -1.58173,-0.85824 -1.79006,-2.18964z" data-paper-data="{&quot;origPos&quot;:null}" fill="#000000" stroke="none" stroke-width="1" stroke-linecap="butt"/><path d="M253.37335,136.79001c1.41,-1.07 3.13,-2.44 4.69,-1.94c1.16,0.42 1.83,2.54 2.11,3.48c0.29,0.98 0.33,2.07 -0.18,3.14c-0.39,0.82 -1.28,1.75 -2.34,2.05c-1.06,0.3 -2.15,0.1 -3.07,-0.49c-0.92,-0.59 -1.73,-1.68 -2.01,-2.74c-0.36,-1.36 -0.69,-2.38 0.8,-3.5z" data-paper-data="{&quot;origPos&quot;:null}" id="ID0.257101490162313_13_" fill="#ffffff" stroke="#000000" stroke-width="0.8" stroke-linecap="butt"/><path d="M257.13335,138.23001c0.37,-0.1 0.76,0.04 1.11,0.34c0.35,0.31 0.65,0.79 0.81,1.36c0.17,0.58 0.17,1.14 0.04,1.58c-0.13,0.45 -0.39,0.78 -0.76,0.88c-0.37,0.11 -0.77,-0.03 -1.11,-0.34c-0.35,-0.31 -0.65,-0.79 -0.81,-1.36c-0.16,-0.57 -0.17,-1.14 -0.04,-1.59c0.13,-0.43 0.4,-0.76 0.76,-0.87z" data-paper-data="{&quot;origPos&quot;:null}" id="ID0.13991053588688374_13_" fill="#000000" stroke="none" stroke-width="1" stroke-linecap="butt"/><path d="M246.51335,137.42001c1.32,-1.3 4.47,-0.76 6.3,-0.51c1.8,0.3 1.42,1.36 1.8,2.67c0.32,1.1 0.23,2.5 -0.27,3.53c-0.5,1.03 -1.36,1.83 -2.48,2.15c-1.12,0.32 -2.28,0.11 -3.25,-0.5c-0.97,-0.6 -1.76,-1.64 -2.11,-2.85c-0.35,-1.2 -1.02,-3.46 0.01,-4.49z" data-paper-data="{&quot;origPos&quot;:null}" id="ID0.257101490162313_12_" fill="#ffffff" stroke="#000000" stroke-width="0.8" stroke-linecap="butt"/><path d="M251.11335,139.91001c0.37,-0.11 0.76,0.03 1.11,0.34c0.35,0.31 0.65,0.79 0.81,1.36c0.16,0.57 0.17,1.14 0.04,1.59c-0.13,0.44 -0.4,0.77 -0.76,0.88c-0.37,0.11 -0.76,-0.03 -1.11,-0.34c-0.35,-0.31 -0.65,-0.79 -0.81,-1.36c-0.17,-0.58 -0.17,-1.14 -0.04,-1.59c0.13,-0.44 0.39,-0.77 0.76,-0.88z" data-paper-data="{&quot;origPos&quot;:null}" id="ID0.13991053588688374_12_" fill="#000000" stroke="none" stroke-width="1" stroke-linecap="butt"/><path d="M267.88335,164.52001c-0.15,0.7 -1.16,0.08 -2.2,-0.51c-1.04,-0.59 -2.01,-1.22 -1.58,-1.61c2.13,-1.93 3.69,-3.24 4.16,-2.98c0.35,0.2 0.19,2.45 -0.38,5.1z" data-paper-data="{&quot;origPos&quot;:null}" fill="#ffffff" stroke="#000000" stroke-width="0.8" stroke-linecap="round"/><path d="M273.64335,165.41001c0.06,0.53 -0.79,0.34 -1.65,0.18c-0.87,-0.15 -1.7,-0.36 -1.5,-0.74c1.02,-1.86 1.78,-3.17 2.17,-3.1c0.29,0.06 0.73,1.67 0.98,3.66z" data-paper-data="{&quot;origPos&quot;:null}" fill="#ffffff" stroke="#000000" stroke-width="0.8" stroke-linecap="round"/><path d="M281.02335,167.89001c0,0.53 -0.82,0.25 -1.67,-0.01c-0.85,-0.25 -1.65,-0.55 -1.4,-0.91c1.22,-1.73 2.13,-2.94 2.51,-2.83c0.29,0.1 0.54,1.74 0.56,3.75z" data-paper-data="{&quot;origPos&quot;:null}" fill="#ffffff" stroke="#000000" stroke-width="0.8" stroke-linecap="round"/><path d="M260.02335,160.22001c-0.05,0.42 -0.67,0.11 -1.32,-0.17c-0.64,-0.28 -1.25,-0.6 -1.02,-0.85c1.13,-1.25 1.01,-1.85 1.29,-1.73c0.23,0.1 1.23,1.16 1.05,2.75z" data-paper-data="{&quot;origPos&quot;:null}" fill="#ffffff" stroke="#000000" stroke-width="0.8" stroke-linecap="round"/><path d="M254.00335,157.52001c-0.3,0.65 -1.14,-0.18 -2.02,-0.98c-0.88,-0.8 -1.68,-1.63 -1.18,-1.91c2.49,-1.4 4.3,-2.33 4.69,-1.98c0.3,0.27 -0.35,2.42 -1.49,4.87z" data-paper-data="{&quot;origPos&quot;:null}" fill="#ffffff" stroke="#000000" stroke-width="0.8" stroke-linecap="round"/></g></g></svg>