<svg version="1.1" xmlns="http://www.w3.org/2000/svg" xmlns:xlink="http://www.w3.org/1999/xlink" width="24.3174" height="34.94273" viewBox="0,0,24.3174,34.94273"><g transform="translate(-229.14506,-157.2603)"><g data-paper-data="{&quot;isPaintingLayer&quot;:true}" fill-rule="nonzero" stroke-linejoin="miter" stroke-miterlimit="10" stroke-dasharray="" stroke-dashoffset="0" style="mix-blend-mode: normal"><path d="M232.86494,189.04483c-0.09683,-0.7941 0.84315,-2.44187 0.84315,-2.44187l4.48988,1.5503c0,0 -0.23261,2.02555 -0.84315,2.44188c-0.99438,0.16624 -3.23964,-0.18163 -4.48988,-1.55031z" fill="#76b8f5" stroke="#000000" stroke-width="0.5" stroke-linecap="butt"/><path d="M241.86942,190.44217c-0.56485,-0.56649 -0.83745,-2.44383 -0.83745,-2.44383l4.49349,-1.53982c0,0 1.06268,1.74001 0.83745,2.44382c-0.68169,0.74278 -2.66583,1.84976 -4.49349,1.53983z" fill="#76b8f5" stroke="#000000" stroke-width="0.5" stroke-linecap="butt"/><path d="M240.05831,157.6978c3.0563,0 5.4513,1.0788 7.4571,2.8209c2.005,1.7428 2.7465,4.1488 2.7465,6.8048c0,0.69445 0.29012,13.12182 0.1289,13.77472c-0.45534,1.8441 -1.01966,3.49298 -2.50041,4.78008c-2.0058,1.742 -4.7758,2.8208 -7.8321,2.8208c-3.0562,0 -5.8262,-1.0788 -7.832,-2.8208c-1.66817,-1.45002 -2.3079,-3.3592 -2.64374,-5.48939c-0.06781,-0.43012 0.14714,-12.61924 0.14714,-13.06541c0,-2.656 0.7416,-5.062 2.7466,-6.8048c2.0058,-1.7421 4.5258,-2.8209 7.582,-2.8209z" fill="#fff427" stroke="#000000" stroke-width="0.875" stroke-linecap="butt"/><path d="M245.21407,173.7258c-0.82948,0.85122 -1.33051,0.89332 -2.24702,0.86098c-0.9165,-0.03235 -1.46094,-0.08251 -2.23248,-1.01908" fill="none" stroke="#000000" stroke-width="0.5" stroke-linecap="round"/><path d="M235.486,166.77913h-5" fill="none" stroke="#896b58" stroke-width="2.5" stroke-linecap="round"/><path d="M233.15267,187.65413c-3.86267,-1.50785 -3.16667,-5.5 -3.16667,-5.5h10.625v6.5c0,0 -4.47675,0.1639 -7.45833,-1z" fill="#76b8f5" stroke="#000000" stroke-width="0.5" stroke-linecap="butt"/><path d="M229.60544,176.22319l0.0738,-3.09995l9.31233,4.58683l-1.19881,2.47495z" fill="#76b8f5" stroke="#000000" stroke-width="0.5" stroke-linecap="butt"/><path d="M233.56934,187.87635c-1.1581,-0.64361 4.05406,-2.47824 3.91666,-10.09722c3.84994,0.11133 12.875,0 12.875,0c0,0 0.93267,7.51769 -2.625,9.5c-3.80767,2.23231 -11.30023,1.72694 -14.16666,0.59722z" fill="#76b8f5" stroke="#000000" stroke-width="0.5" stroke-linecap="butt"/><path d="M241.34518,184.98071c-0.43667,-0.24268 0.32096,-0.82879 0.26915,-3.70157c1.45165,0.04198 4.8546,0 4.8546,0c0,0 0.35168,2.83459 -0.98977,3.58204c-1.43571,0.8417 -2.99034,0.88067 -4.13399,0.11954z" fill="#76b8f5" stroke="#000000" stroke-width="0.5" stroke-linecap="butt"/><path d="M243.90776,189.0784c0.63083,-0.21617 1.28233,-0.17916 1.82532,0.05534c0.54284,0.23442 1.06388,0.70131 1.17371,1.2399c0.04011,0.29821 -0.45491,0.47956 -0.76747,0.61142c-0.88791,0.42878 -1.85076,0.75302 -2.82473,0.96797c-0.32211,0.10783 -0.84972,0.24031 -0.98117,-0.0122c-0.24211,-0.49245 -0.12468,-1.16961 0.16655,-1.69917c0.27721,-0.50392 0.77692,-0.94708 1.40777,-1.16326z" fill="#001d82" stroke="#000000" stroke-width="0.5" stroke-linecap="round"/><path d="M235.32735,189.2355c0.57924,0.20001 1.03033,0.59513 1.29114,1.07199c0.26075,0.47672 0.37431,1.10952 0.14941,1.5618c-0.13952,0.23872 -0.60069,0.09027 -0.90166,0.00911c-0.88568,-0.19129 -1.76657,-0.50071 -2.59372,-0.89558c-0.29432,-0.10397 -0.75145,-0.30625 -0.70394,-0.5635c0.10298,-0.49365 0.57087,-0.91786 1.08123,-1.13687c0.48571,-0.20837 1.09828,-0.24695 1.67754,-0.04694z" fill="#001d82" stroke="#000000" stroke-width="0.5" stroke-linecap="round"/><path d="M243.20716,166.84163c0,-2.31269 1.87481,-4.1875 4.1875,-4.1875c2.31269,0 4.1875,1.87481 4.1875,4.1875c0,2.31269 -1.87481,4.1875 -4.1875,4.1875c-2.31269,0 -4.1875,-1.87481 -4.1875,-4.1875z" fill="#ffffff" stroke="#9e9e9e" stroke-width="1.45293" stroke-linecap="butt"/><path d="M244.361,166.84163c0,-2.31269 1.87481,-4.1875 4.1875,-4.1875c2.31269,0 4.1875,1.87481 4.1875,4.1875c0,2.31269 -1.87481,4.1875 -4.1875,4.1875c-2.31269,0 -4.1875,-1.87481 -4.1875,-4.1875z" fill="#ffffff" stroke="#9e9e9e" stroke-width="1.45293" stroke-linecap="butt"/><path d="M235.33216,166.84163c0,-2.31269 1.87481,-4.1875 4.1875,-4.1875c2.31269,0 4.1875,1.87481 4.1875,4.1875c0,2.31269 -1.87481,4.1875 -4.1875,4.1875c-2.31269,0 -4.1875,-1.87481 -4.1875,-4.1875z" fill="#ffffff" stroke="#9e9e9e" stroke-width="1.45293" stroke-linecap="butt"/><path d="M236.486,166.84163c0,-2.31269 1.87481,-4.1875 4.1875,-4.1875c2.31269,0 4.1875,1.87481 4.1875,4.1875c0,2.31269 -1.87481,4.1875 -4.1875,4.1875c-2.31269,0 -4.1875,-1.87481 -4.1875,-4.1875z" fill="#ffffff" stroke="#9e9e9e" stroke-width="1.45293" stroke-linecap="butt"/><path d="M241.26183,165.30521c0.33482,0 0.63881,0.14538 0.85818,0.37952c0.22,0.23466 0.35599,0.55815 0.35599,0.91548c0,0.35733 -0.13599,0.68082 -0.35599,0.91556c-0.21937,0.23415 -0.52336,0.37952 -0.85818,0.37952c-0.33482,0 -0.63882,-0.14537 -0.85826,-0.37952c-0.22,-0.23473 -0.35598,-0.55823 -0.35598,-0.91556c0,-0.35733 0.13599,-0.68083 0.35598,-0.91548c0.21944,-0.23415 0.52344,-0.37952 0.85826,-0.37952z" fill="#000000" stroke="none" stroke-width="0.72647" stroke-linecap="butt"/><path d="M248.35274,165.30521c0.33482,0 0.63881,0.14538 0.85818,0.37952c0.22,0.23466 0.35599,0.55815 0.35599,0.91548c0,0.35733 -0.13599,0.68082 -0.35599,0.91556c-0.21937,0.23415 -0.52336,0.37952 -0.85818,0.37952c-0.33482,0 -0.63882,-0.14537 -0.85826,-0.37952c-0.22,-0.23473 -0.35599,-0.55823 -0.35599,-0.91556c0,-0.35733 0.13599,-0.68083 0.35599,-0.91548c0.21944,-0.23415 0.52344,-0.37952 0.85826,-0.37952z" fill="#000000" stroke="none" stroke-width="0.72647" stroke-linecap="butt"/><path d="M232.29495,188.46928c0,0 -2.87179,-5.13063 -2.54582,-11.42934c0.05428,-1.04877 0.75502,-2.57434 1.72391,-0.62947c0.96887,1.94488 3.52476,11.20886 3.52476,11.20886z" fill="#fff427" stroke="#000000" stroke-width="0.5" stroke-linecap="butt"/><path d="M233.42349,186.95281c0.43941,-0.13818 0.90785,-0.04007 1.30971,0.23012c0.40175,0.27011 0.56248,0.82814 0.67138,1.33723c0.04548,0.27984 -0.33268,0.84661 -0.549,0.93795c-0.61148,0.30969 -0.53752,0.10634 -1.22262,0.20976c-0.22451,0.0682 -0.90821,-0.02444 -1.01651,-0.27096c-0.20099,-0.47937 -0.31399,-1.0444 -0.13529,-1.50581c0.1701,-0.43908 0.50289,-0.80012 0.94233,-0.9383z" fill="#001d82" stroke="#000000" stroke-width="0.5" stroke-linecap="round"/></g></g></svg>