<svg version="1.1" xmlns="http://www.w3.org/2000/svg" xmlns:xlink="http://www.w3.org/1999/xlink" width="32.18571" height="18.94197" viewBox="0,0,32.18571,18.94197"><g transform="translate(-223.87343,-148.22759)"><g data-paper-data="{&quot;isPaintingLayer&quot;:true}" fill-rule="nonzero" stroke="#000000" stroke-linejoin="miter" stroke-miterlimit="10" stroke-dasharray="" stroke-dashoffset="0" style="mix-blend-mode: normal"><path d="M229.5566,166.44309c0,0 -0.43418,-0.24007 -0.4924,-0.86755c-0.06566,-0.70767 0.33653,-1.2399 -0.15784,-1.55249c-1.09372,-0.69154 -2.03483,0.31529 -4.02671,-2.62042c-1.63776,-2.41379 4.20468,-7.94625 9.98438,-10.62528c5.01764,-2.32579 14.07903,-2.52948 14.93159,-0.01333c0.97947,2.8907 0.02282,3.08575 -0.05944,3.8988c-0.05182,0.51219 0.83438,1.0726 0.94948,1.50964c2.02617,1.28648 1.99943,1.22442 4.64701,2.69545c0.68355,1.22748 -0.40491,2.53972 -3.86393,2.84693c-2.80195,0.24886 -7.42368,-1.99107 -7.42368,-1.99107c0,0 -3.46143,1.23711 -5.39625,2.10333c-1.97237,0.88304 -9.0922,4.61599 -9.0922,4.61599z" fill="#ff0000" stroke-width="1.45293" stroke-linecap="butt"/><path d="M229.97474,164.31105c0,0 4.89895,-2.84692 10.77563,-5.31776c0.77472,-0.32573 1.55884,-0.64514 2.37086,-0.95714c2.00532,-0.77051 4.18077,-1.49591 6.80489,-2.16002" fill="none" stroke-width="1" stroke-linecap="round"/><path d="M227.46008,163.13458c0,0 5.34308,-3.10503 11.75254,-5.79987c0.84496,-0.35526 1.70017,-0.70362 2.5858,-1.04391c2.18713,-0.84037 4.5598,-1.63153 7.42182,-2.35585" fill="none" stroke-width="1" stroke-linecap="round"/></g></g></svg>