<svg version="1.1" xmlns="http://www.w3.org/2000/svg" xmlns:xlink="http://www.w3.org/1999/xlink" width="26.09037" height="25.4056" viewBox="0,0,26.09037,25.4056"><g transform="translate(-226.16596,-144.84825)"><g data-paper-data="{&quot;isPaintingLayer&quot;:true}" fill-rule="nonzero" stroke-linejoin="miter" stroke-miterlimit="10" stroke-dasharray="" stroke-dashoffset="0" style="mix-blend-mode: normal"><path d="M228.43846,165.02868c-2.1625,-8.21464 -3.56078,-14.47039 6.52702,-18.79692c9.90059,-2.43512 11.59414,3.92226 14.3378,11.38187c-0.70727,1.77103 -17.91878,8.75796 -20.86482,7.41505z" fill="#fff427" stroke="#716210" stroke-width="1.45293" stroke-linecap="butt"/><path d="M229.3304,169.52739c-0.968,-0.06952 -2.2242,-3.62341 -0.70899,-4.75425c1.96183,-1.38071 0.10087,-0.64173 6.14,-3.42288c4.14852,-1.91048 5.99465,-2.56046 8.97234,-3.09958c3.33775,-0.60431 4.0495,-0.56141 6.16205,-0.34719c0.89703,0.09096 2.57575,5.06371 0.95802,4.44579c-1.53507,-0.58635 -5.49183,-0.28304 -11.09201,2.00802c-6.41096,2.62275 -9.22307,5.25686 -10.43141,5.17009z" fill="#76b8f5" stroke="#504400" stroke-width="1.45293" stroke-linecap="butt"/><path d="M227.83737,157.95271c0,0 1.90474,-1.61886 2.72394,-2.1551c0.80847,-0.5292 2.5345,-1.41649 2.5345,-1.41649" fill="none" stroke="#544236" stroke-width="2.5" stroke-linecap="round"/><path d="M239.77409,151.54796c-0.70423,-2.40065 0.67099,-4.91765 3.07164,-5.62188c2.40065,-0.70423 4.91765,0.67099 5.62188,3.07164c0.70423,2.40065 -0.67099,4.91765 -3.07164,5.62188c-2.40065,0.70423 -4.91765,-0.67099 -5.62188,-3.07164z" fill="#ffffff" stroke="#9e9e9e" stroke-width="1.45293" stroke-linecap="butt"/><path d="M240.97182,151.1966c-0.70423,-2.40065 0.67099,-4.91765 3.07164,-5.62188c2.40065,-0.70423 4.91765,0.67099 5.62188,3.07164c0.70423,2.40065 -0.67099,4.91765 -3.07164,5.62188c-2.40065,0.70423 -4.91765,-0.67099 -5.62188,-3.07164z" fill="#ffffff" stroke="#9e9e9e" stroke-width="1.45293" stroke-linecap="butt"/><path d="M231.59958,153.94595c-0.70423,-2.40065 0.67099,-4.91765 3.07164,-5.62188c2.40065,-0.70423 4.91766,0.67099 5.62189,3.07164c0.70423,2.40065 -0.671,4.91765 -3.07165,5.62188c-2.40065,0.70423 -4.91765,-0.67099 -5.62188,-3.07164z" fill="#ffffff" stroke="#9e9e9e" stroke-width="1.45293" stroke-linecap="butt"/><path d="M232.79731,153.59459c-0.70423,-2.40065 0.67098,-4.91765 3.07163,-5.62188c2.40065,-0.70423 4.91766,0.67099 5.62189,3.07164c0.70423,2.40065 -0.67099,4.91765 -3.07164,5.62188c-2.40065,0.70423 -4.91765,-0.67099 -5.62188,-3.07164z" fill="#ffffff" stroke="#9e9e9e" stroke-width="1.45293" stroke-linecap="butt"/><path d="M238.28693,150.88475c0.34755,-0.10196 0.70738,-0.04361 1.00639,0.13263c0.29982,0.17659 0.53949,0.47097 0.6483,0.84189c0.10881,0.37092 0.06615,0.74812 -0.09074,1.05879c-0.15641,0.30985 -0.42769,0.55332 -0.77525,0.65527c-0.34755,0.10196 -0.70738,0.04363 -1.00647,-0.1326c-0.29984,-0.17667 -0.5395,-0.47106 -0.64831,-0.84198c-0.10881,-0.37092 -0.06615,-0.74814 0.09075,-1.0587c0.15649,-0.30988 0.42778,-0.55334 0.77533,-0.65529z" fill="#000000" stroke="none" stroke-width="0.72647" stroke-linecap="butt"/><path d="M244.14752,149.49338c0.34755,-0.10196 0.70737,-0.04361 1.00638,0.13264c0.29982,0.17659 0.53948,0.47098 0.64829,0.8419c0.10881,0.37092 0.06615,0.74812 -0.09073,1.05878c-0.15641,0.30985 -0.42769,0.55332 -0.77525,0.65528c-0.34755,0.10196 -0.70738,0.04362 -1.00647,-0.13261c-0.29984,-0.17667 -0.53951,-0.47106 -0.64832,-0.84198c-0.10881,-0.37092 -0.06616,-0.74813 0.09076,-1.0587c0.15649,-0.30988 0.42778,-0.55335 0.77534,-0.6553z" fill="#000000" stroke="none" stroke-width="0.72647" stroke-linecap="butt"/></g></g></svg>