<svg version="1.1" xmlns="http://www.w3.org/2000/svg" xmlns:xlink="http://www.w3.org/1999/xlink" width="26.56773" height="42.45357" viewBox="0,0,26.56773,42.45357"><g transform="translate(-226.58332,-128.27591)"><g data-paper-data="{&quot;isPaintingLayer&quot;:true}" fill-rule="nonzero" stroke-linejoin="miter" stroke-miterlimit="10" stroke-dasharray="" stroke-dashoffset="0" style="mix-blend-mode: normal"><path d="M229.26247,169.97251c-1.3802,0.48819 -2.80655,-5.02949 -1.32402,-6.15812c0.2375,-4.31464 -1.95571,-14.64037 5.97702,-17.75763c9.00369,-2.24684 14.64414,7.61491 15.8878,10.17452c2.43559,-0.65754 3.46799,6.60871 1.81823,6.18826c-1.56548,-0.39897 -5.05211,-0.36034 -11.69411,1.83365c-4.23986,1.40052 -8.38496,4.36378 -10.66492,5.71932z" fill="#ff0000" stroke="#000000" stroke-width="1.45293" stroke-linecap="butt"/><path d="M228.09239,164.13458c3.40944,-2.87924 8.07415,-5.19198 11.23353,-6.11469c3.26871,-0.95464 7.02021,-2.25218 11.18842,-1.43788" fill="none" stroke="#000000" stroke-width="1.45293" stroke-linecap="round"/><path d="M231.08135,156.99117l-0.2353,2.82353" fill="none" stroke="#dc0000" stroke-width="1" stroke-linecap="round"/><path d="M232.9637,158.40294l-0.29412,-3.64706" fill="none" stroke="#dc0000" stroke-width="1" stroke-linecap="round"/><path d="M234.49312,153.34411l0.58823,3.88235" fill="none" stroke="#dc0000" stroke-width="1" stroke-linecap="round"/><path d="M236.0668,137.64001c1.26,4.07 1.08,7 0.68,10.86" data-paper-data="{&quot;index&quot;:null}" fill="#ff0000" stroke="none" stroke-width="1" stroke-linecap="butt"/><path d="M236.0668,137.64001c1.26,4.07 1.08,7 0.68,10.86" data-paper-data="{&quot;index&quot;:null}" fill="none" stroke="#000000" stroke-width="3.5" stroke-linecap="butt"/><path d="M236.0668,137.89001c1.26,4.07 1.08,7 0.68,10.86" data-paper-data="{&quot;index&quot;:null}" fill="none" stroke="#ff0000" stroke-width="1.5" stroke-linecap="butt"/><path d="M240.5368,148.5c0.4,-3.86 0.85,-7.73 1.33,-10.86" data-paper-data="{&quot;index&quot;:null}" fill="#ff0000" stroke="none" stroke-width="1" stroke-linecap="butt"/><path d="M240.5368,148.5c0.4,-3.86 0.85,-7.73 1.33,-10.86" data-paper-data="{&quot;index&quot;:null}" fill="none" stroke="#000000" stroke-width="3.5" stroke-linecap="butt"/><path d="M240.5368,148.75c0.4,-3.86 0.85,-7.73 1.33,-10.86" data-paper-data="{&quot;index&quot;:null}" fill="none" stroke="#ff0000" stroke-width="1.5" stroke-linecap="butt"/><path d="M240.9568,129.27001c1.42,-0.77 3.36,0.68 4.53,1.79c0.86,0.88 0.92,2.38 0.92,3.57c0.04958,1.26445 -0.26264,2.51681 -0.9,3.61c-0.51682,0.88051 -1.42389,1.46043 -2.44,1.56c-1.02281,-0.09058 -1.92825,-0.69797 -2.4,-1.61c-0.68044,-1.1927 -1.02595,-2.5471 -1,-3.92c0.04,-1.68 -0.2,-4.24 1.29,-5z" data-paper-data="{&quot;index&quot;:null}" fill="#ffffff" stroke="#000000" stroke-width="1" stroke-linecap="butt"/><path d="M243.9168,135.27001c0.3257,0.00114 0.63382,0.14786 0.84,0.4c0.24223,0.27516 0.36777,0.63384 0.35,1c0.01266,0.3654 -0.11224,0.72225 -0.35,1c-0.21776,0.24964 -0.53886,0.38434 -0.86954,0.36477c-0.33069,-0.01957 -0.63366,-0.1912 -0.82046,-0.46477c-0.23776,-0.27775 -0.36266,-0.6346 -0.35,-1c-0.01777,-0.36616 0.10777,-0.72484 0.35,-1c0.22678,-0.21796 0.53665,-0.32732 0.85,-0.3z" data-paper-data="{&quot;index&quot;:null}" fill="#000000" stroke="none" stroke-width="1" stroke-linecap="butt"/><path d="M233.5768,130.12001c1.4,-1.07 3.68,-1.85 5.13,-0.95c1.45,0.9 1.06,3.34 1.06,5c0.0058,1.41933 -0.35962,2.8155 -1.06,4.05c-0.50799,0.96112 -1.47567,1.59237 -2.56,1.67c-1.08673,-0.07802 -2.05725,-0.70867 -2.57,-1.67c-0.70473,-1.21453 -1.07078,-2.59586 -1.06,-4c0,-1.59 -0.03,-3.24 1.06,-4.1z" data-paper-data="{&quot;index&quot;:null}" fill="#ffffff" stroke="#000000" stroke-width="1" stroke-linecap="butt"/><path d="M236.7868,135.20001c0.32507,0.00389 0.63208,0.15009 0.84,0.4c0.23607,0.27872 0.36073,0.6349 0.35,1c0.00794,0.36467 -0.11638,0.71988 -0.35,1c-0.20504,0.25373 -0.51378,0.40118 -0.84,0.40118c-0.32622,0 -0.63496,-0.14745 -0.84,-0.40118c-0.23362,-0.28012 -0.35794,-0.63533 -0.35,-1c-0.01073,-0.3651 0.11393,-0.72128 0.35,-1c0.20792,-0.24991 0.51493,-0.39611 0.84,-0.4z" data-paper-data="{&quot;index&quot;:null}" fill="#000000" stroke="none" stroke-width="1" stroke-linecap="butt"/></g></g></svg>