<svg xmlns="http://www.w3.org/2000/svg" xmlns:xlink="http://www.w3.org/1999/xlink" version="1.1" width="69.22190117835999" height="26.37531876564026" viewBox="-0.058570683002471924 0.1874295473098755 69.22190117835999 26.37531876564026">
  <!-- Exported by Scratch - http://scratch.mit.edu/ -->
  <path id="ID0.6192862591706216" fill="#000000" stroke="none" stroke-linecap="round" d="M 29.95 3.85 C 31.109 3.612 32.288 3.746 33.5 3.7 C 34.333 3.668 35.166 3.426 36 3.55 C 36.848 3.675 37.615 4.133 38.45 4.35 C 39.369 4.59 40.318 4.576 41.25 4.95 C 42.722 5.542 43.965 6.487 45.45 7.2 C 47.612 8.239 49.676 9.538 52 10.2 C 53.685 10.68 56.634 8.937 57.25 10.55 C 58.938 14.969 59.388 20.324 57.7 24.75 C 56.949 26.718 53.54 25.31 51.4 25.35 C 49.595 25.383 47.706 25.442 46 24.85 C 44.94 24.482 44.593 22.947 43.55 22.55 C 41.008 21.689 38.249 21.514 35.6 21.2 C 33.448 20.945 31.255 20.799 29.1 20.9 C 27.902 20.956 26.671 21.33 25.5 21.7 C 24.366 22.059 23.341 22.723 22.2 23.05 C 21.017 23.443 19.745 23.502 18.55 23.85 C 17.487 24.16 16.472 24.678 15.45 25.05 C 14.39 25.411 13.37 26.064 12.3 26.05 C 10.086 26.022 7.752 25.847 5.75 24.9 C 4.395 24.257 3.776 22.688 2.8 21.6 C 2.128 20.857 1.026 20.338 0.8 19.4 C 0.41 17.781 0.184 15.853 1.05 14.4 C 1.812 13.05 3.579 12.381 5.1 12 C 6.828 11.567 8.773 12.735 10.4 12.05 C 11.764 11.48 11.965 9.509 13.1 8.65 C 14.303 7.756 15.815 7.357 17.2 6.95 C 19.494 6.275 21.88 5.93 24.2 5.35 C 26.098 4.875 27.993 4.165 29.95 3.85 Z " stroke-width="1"/>
  <path id="ID0.20554033666849136" fill="#6CB552" stroke="none" stroke-linecap="round" d="M 56.2345 24.0672 C 55.3749 24.9379 53.6122 24.357 52.5832 23.6511 C 51.9456 23.2121 52.2935 22.1562 52.4217 21.3308 C 52.9369 18.0312 53.5189 14.6355 54.5584 11.5326 C 54.8185 10.757 55.5676 10.7734 55.8468 11.1262 C 56.4938 11.945 56.4569 13.0847 56.5596 14.0934 C 56.7947 15.7871 56.9247 17.5266 56.8574 19.2077 C 56.7909 20.8376 57.3429 22.9409 56.2345 24.0672 Z " stroke-width="1.0000000041496127"/>
  <path id="ID0.20554033666849136" fill="#186D2E" stroke="none" stroke-linecap="round" d="M 48.7111 9.8975 C 49.3432 10.2982 50.2113 10.8893 50.1686 11.6145 C 50.0742 13.1706 49.0007 14.5114 48.4076 15.9531 C 47.8227 17.3744 47.5584 19.0116 46.5546 20.1731 C 45.9929 20.9046 44.8928 21.5942 44.0313 21.2435 C 42.9944 20.8199 41.9597 19.4673 42.216 18.412 C 43.0155 15.1263 44.8368 12.0683 46.8526 9.377 C 47.3561 8.7045 48.1717 9.564 48.7111 9.8975 Z " stroke-width="0.9999999903510588"/>
  <path id="ID0.20554033666849136" fill="#2BB14B" stroke="none" stroke-linecap="round" d="M 51.8849 11.4588 C 52.0582 11.5045 52.3272 11.0703 52.1382 11.9367 C 51.3804 15.4021 50.9682 19.028 49.5366 22.2777 C 49.1664 23.1178 47.8748 23.8749 46.9981 23.5291 C 45.9427 23.112 45.4109 21.7386 45.3788 20.6519 C 45.2794 19.0981 45.9736 17.5872 46.6317 16.2053 C 47.4772 14.4312 48.3013 12.5294 49.7508 11.1932 C 50.2865 10.7356 51.2057 11.2777 51.8849 11.4588 Z " stroke-width="0.9999999935884194"/>
  <path id="ID0.20554033666849136" fill="#189364" stroke="none" stroke-linecap="round" d="M 45.5773 9.1182 C 46.0666 9.2831 46.324 9.9689 46.254 10.5135 C 46.0459 12.109 45.1363 13.5401 44.6876 15.0859 C 44.19 16.8001 44.2213 18.7756 43.3899 20.3933 C 43.1286 20.9002 41.9481 21.4732 41.7785 20.9348 C 41.283 19.3241 41.685 17.3877 42.0159 15.6578 C 42.4331 13.6326 43.0016 11.6553 44.0042 9.7647 C 44.2739 9.2561 45.03 8.9316 45.5773 9.1182 Z " stroke-width="1.0000000027697116"/>
  <path id="ID0.20554033666849136" fill="#6CB552" stroke="none" stroke-linecap="round" d="M 43.5343 7.7467 C 44.0116 7.9443 44.3526 8.5288 44.3307 9.0774 C 44.2632 10.685 43.5043 12.1948 43.171 13.7694 C 42.7282 15.8567 42.9131 18.1915 41.9194 20.1097 C 41.6328 20.7028 40.1494 20.7959 39.9282 20.129 C 39.0742 17.5329 39.1317 14.6656 39.3262 11.9411 C 39.4337 10.4441 39.8549 8.8471 40.9338 7.7306 C 41.536 7.1091 42.733 7.4155 43.5343 7.7467 Z " stroke-width="1.000000011221605"/>
  <path id="ID0.20554033666849136" fill="#186D2E" stroke="none" stroke-linecap="round" d="M 54.6 11.2 C 55.111 11.351 55.046 12.105 55 12.75 C 54.66 15.382 54.266 18.03 53.5 20.55 C 53.213 21.495 52.789 22.776 51.85 23.05 C 50.625 23.317 48.727 22.983 48.3 21.85 C 47.643 20.108 48.64 18.09 49.3 16.35 C 49.921 14.715 50.738 13.105 51.95 11.9 C 52.626 11.27 53.766 10.955 54.6 11.2 Z " stroke-width="1"/>
  <path id="ID0.20554033666849136" fill="#2BB14B" stroke="none" stroke-linecap="round" d="M 42.746 7.8116 C 43.1348 8.4051 42.3716 9.2012 42.1011 9.8765 C 41.8763 10.6307 41.4864 11.319 41.2618 12.0987 C 40.903 13.3471 40.7842 14.6599 40.5014 15.9291 C 40.1853 17.3526 40.3362 18.9926 39.4226 20.0813 C 38.9157 20.7395 37.6712 20.7146 36.9871 20.2505 C 36.1824 19.704 35.8007 18.5722 35.7003 17.6259 C 35.4085 14.7352 34.9286 11.6469 35.8336 8.9652 C 36.3554 7.4191 38.0331 6.1509 39.6434 5.8838 C 40.8621 5.6827 42.0844 6.7917 42.746 7.8116 Z " stroke-width="0.9999999555576683"/>
  <path id="ID0.20554033666849136" fill="#6CB552" stroke="none" stroke-linecap="round" d="M 37.05 5.15 C 38.06 5.383 39.53 6.073 39.45 7.1 C 39.296 9.084 37.214 10.501 36.55 12.4 C 35.772 14.621 36.487 17.291 35.3 19.3 C 34.842 20.067 32.974 19.827 32.75 19 C 31.779 15.907 32.053 12.53 32.25 9.3 C 32.328 8.023 32.491 6.495 33.45 5.65 C 34.342 4.867 35.871 4.879 37.05 5.15 Z " stroke-width="1"/>
  <path id="ID0.20554033666849136" fill="#189364" stroke="none" stroke-linecap="round" d="M 31 4.85 C 31.951 4.683 33.284 4.683 33.75 5.5 C 34.24 6.369 33.183 7.313 33.05 8.2 C 32.798 9.885 32.666 11.589 32.6 13.2 C 32.526 15.03 32.938 16.9 32.6 18.7 C 32.514 19.159 31.63 19.997 31.35 19.4 C 30.336 16.977 30.118 14.275 29.6 11.7 C 29.255 9.985 28.487 8.206 28.85 6.5 C 29.04 5.631 30.112 5.008 31 4.85 Z " stroke-width="1"/>
  <path id="ID0.20554033666849136" fill="#2BB14B" stroke="none" stroke-linecap="round" d="M 29.5481 7.5077 C 30.1529 10.0971 30.5775 12.7918 30.9378 15.3086 C 31.1257 16.628 31.9854 18.2119 31.3592 19.2895 C 30.9636 19.9645 29.515 19.7705 28.9993 19.0055 C 26.7296 15.7587 24.7878 12.1488 23.8151 8.4217 C 23.5713 7.4875 24.7997 6.72 25.6231 6.2854 C 26.587 5.7803 27.8044 5.303 28.8229 5.6641 C 29.5316 5.9333 29.4454 6.873 29.5481 7.5077 Z " stroke-width="1.0000000041496127"/>
  <path id="ID0.20554033666849136" fill="#186D2E" stroke="none" stroke-linecap="round" d="M 27.3344 7.1441 C 28.1878 8.8091 27.5895 10.8278 27.8433 12.6524 C 28.1452 14.8224 29.737 17.0989 29.0711 19.2216 C 28.7179 20.3428 26.2463 20.7987 25.4873 19.8686 C 24.0069 17.9433 24.502 15.1001 23.9842 12.7366 C 23.6332 11.1373 22.8074 9.5458 22.9838 7.9219 C 23.0681 7.1923 24.0184 6.6487 24.7572 6.5435 C 25.7138 6.4198 26.9325 6.3605 27.3344 7.1441 Z " stroke-width="0.9999999879711313"/>
  <path id="ID0.20554033666849136" fill="#6CB552" stroke="none" stroke-linecap="round" d="M 25.354 19.6158 C 25.289 20.4471 24.0483 21.5193 23.6512 20.9436 C 22.4861 19.2518 22.526 16.9179 22.0701 14.9502 C 21.5326 12.6345 20.4543 10.316 20.6741 7.9478 C 20.7712 7.1685 22.1421 6.7004 22.8689 7.0176 C 23.8141 7.4312 24.2988 8.6835 24.4831 9.7244 C 25.1417 12.9599 25.6132 16.2891 25.354 19.6158 Z " stroke-width="0.9999999937458615"/>
  <path id="ID0.20554033666849136" fill="#189364" stroke="none" stroke-linecap="round" d="M 23.4049 21.3644 C 23.4077 22.0477 22.0194 21.6577 21.7439 21.1811 C 20.7747 19.2629 20.642 17.023 20.0701 14.9502 C 19.507 12.9098 18.6523 10.9053 18.4502 8.8036 C 18.3722 8.2682 18.7782 7.6579 19.2906 7.6125 C 19.8359 7.5685 20.3737 8.1396 20.5895 8.6213 C 21.2489 10.0907 21.4603 11.7637 21.8066 13.3041 C 22.4076 15.9733 23.3947 18.6316 23.4049 21.3644 Z " stroke-width="0.9999999937458615"/>
  <path id="ID0.20554033666849136" fill="#186D2E" stroke="none" stroke-linecap="round" d="M 21.7865 21.46 C 21.7677 22.1334 20.1765 21.9814 19.7617 21.4502 C 18.4022 19.7107 17.7124 17.5021 16.9188 15.4335 C 16.1988 13.5577 15.1499 11.7025 15.1659 9.7283 C 15.1966 8.8953 16.2406 8.291 17.0406 8.1125 C 17.6007 7.9878 18.3637 8.4005 18.6343 8.9326 C 19.4073 10.4645 19.6223 12.26 20.067 13.9523 C 20.6732 16.4329 21.8582 18.8754 21.7865 21.46 Z " stroke-width="0.9999999937458615"/>
  <path id="ID0.20554033666849136" fill="#189364" stroke="none" stroke-linecap="round" d="M 19.7021 21.3866 C 19.7289 22.1668 18.6432 22.6044 17.9354 22.9265 C 17.0279 23.3247 15.3955 24.4152 14.924 23.5107 C 13.81 21.3537 15.0385 18.5877 14.6178 16.1816 C 14.2931 14.6254 12.7793 13.3817 12.7188 11.7931 C 12.6809 10.8196 13.3479 9.7531 14.2019 9.2623 C 14.8546 8.9547 15.9585 9.2387 16.3443 9.8727 C 17.2495 11.3582 17.1998 13.3118 17.7073 15.0326 C 18.3174 17.1469 19.6231 19.132 19.7021 21.3866 Z " stroke-width="1.000000017747057"/>
  <path id="ID0.20554033666849136" fill="#2BB14B" stroke="none" stroke-linecap="round" d="M 15.5274 23.0919 C 14.8519 23.4372 13.6265 24.1966 13.3031 23.4042 C 12.0081 20.234 11.6904 16.7088 11.4874 13.2816 C 11.4764 12.4406 12.3581 11.9647 12.7474 12.3135 C 14.043 13.4739 14.7893 15.1835 15.4289 16.8026 C 16.0455 18.365 16.3399 20.0908 16.3506 21.7748 C 16.3545 22.2908 15.9641 22.8426 15.5274 23.0919 Z " stroke-width="0.9999999961527948"/>
  <path id="ID0.20554033666849136" fill="#6CB552" stroke="none" stroke-linecap="round" d="M 13.5023 23.575 C 12.4383 23.6373 10.8506 23.4463 10.4613 22.4502 C 9.5757 19.9459 9.9356 17.1242 10.19 14.4822 C 10.2541 13.8165 10.7835 13.2217 11.2914 13.2446 C 11.7851 13.2727 11.9964 13.8448 12.2076 14.4418 C 13.0291 16.9829 13.8449 19.5677 14.2208 22.148 C 14.3144 22.7935 14.0325 23.5441 13.5023 23.575 Z " stroke-width="0.9999999869246013"/>
  <path id="ID0.20554033666849136" fill="#189364" stroke="none" stroke-linecap="round" d="M 9.55 13.55 C 9.77 13.245 10.346 13.453 10.5 14.1 C 11.117 16.687 12.032 19.328 12 21.95 C 11.99 22.751 11.114 23.487 10.35 23.7 C 9.805 23.852 9.033 23.436 8.85 22.9 C 8.285 21.25 8.087 19.362 8.2 17.55 C 8.326 16.174 8.803 14.785 9.55 13.55 Z " stroke-width="1"/>
  <path id="ID0.20554033666849136" fill="#186D2E" stroke="none" stroke-linecap="round" d="M 9 13.25 C 9.353 13.934 8.86 14.815 8.8 15.6 C 8.627 16.847 8.364 18.094 8.3 19.35 C 8.244 20.447 9.084 22.074 8.3 22.65 C 7.509 23.223 5.526 22.652 5.1 21.6 C 4.463 19.971 5.32 18.059 5.8 16.35 C 6.118 15.245 6.705 14.147 7.5 13.35 C 7.853 12.996 8.776 12.817 9 13.25 Z " stroke-width="1"/>
  <path id="ID0.20554033666849136" fill="#2BB14B" stroke="none" stroke-linecap="round" d="M 5.6104 16.7194 C 5.208 17.9849 5.4979 19.7196 4.4895 20.5232 C 3.8284 21.0507 2.6182 20.1445 2.1716 19.4497 C 1.5827 18.5323 1.3911 17.307 1.6151 16.2217 C 1.8043 15.3096 2.5997 14.52 3.4231 14.0854 C 4.387 13.5803 6.1131 12.8153 6.6229 13.4641 C 7.1661 14.1593 5.9193 15.6341 5.6104 16.7194 Z " stroke-width="1.0000000041496127"/>
  <path id="ID0.786614784039557" fill="#866E93" stroke="#000000" stroke-width="1" stroke-linecap="round" d="M 58.7 0.7 C 59.414 0.71 60.168 2.083 60.25 3 C 60.378 5.561 59.678 10.655 59.3 10.65 C 58.923 10.646 57.476 5.643 57.25 3.05 C 57.257 2.116 58.018 0.691 58.7 0.7 Z "/>
  <path id="ID0.786614784039557" fill="#866E93" stroke="#000000" stroke-width="1" stroke-linecap="round" d="M 65.1 1 C 65.697 1.254 65.783 2.64 65.45 3.35 C 64.106 5.96 60.581 10.619 60.3 10.5 C 60.02 10.381 61.634 4.86 62.9 2.3 C 63.307 1.548 64.475 0.735 65.1 1 Z "/>
  <g id="ID0.9991875886917114">
    <path id="ID0.3849619720131159" fill="#FF0000" stroke="#000000" stroke-width="1.025055170059204" d="M 60.8348 10.3477 C 62.991 10.3477 64.9452 11.1088 66.3603 12.3379 C 67.7749 13.5674 68.6508 15.2649 68.6508 17.1387 C 68.6508 19.0125 67.7749 20.71 66.3603 21.9395 C 64.9452 23.1686 62.991 23.9297 60.8348 23.9297 C 58.6785 23.9297 56.7243 23.1686 55.3092 21.9395 C 53.8946 20.71 53.0187 19.0125 53.0187 17.1387 C 53.0187 15.2649 53.8946 13.5674 55.3092 12.3379 C 56.7243 11.1088 58.6785 10.3477 60.8348 10.3477 Z "/>
    <path id="ID0.257101490162313" fill="#FFFFFF" stroke="#000000" stroke-width="0.9761317566753648" d="M 63.3936 8.8054 C 64.6981 8.0963 66.4838 9.4327 67.5564 10.4537 C 68.3459 11.2621 68.4006 12.6369 68.4035 13.7258 C 68.4074 14.8654 68.1993 16.0557 67.5782 17.0452 C 67.1014 17.8039 66.2219 18.5233 65.354 18.5233 C 64.4861 18.5233 63.6995 17.9579 63.1298 17.0452 C 62.56 16.1319 62.181 14.707 62.2076 13.4798 C 62.2425 11.9053 62.0218 9.5513 63.3936 8.8054 Z "/>
    <path id="ID0.13991053588688374" fill="#000000" stroke="none" d="M 66.0919 14.3054 C 66.3922 14.3054 66.6649 14.4464 66.8617 14.6734 C 67.059 14.901 67.181 15.2147 67.181 15.5611 C 67.181 15.9076 67.059 16.2213 66.8617 16.4488 C 66.6649 16.6759 66.3922 16.8168 66.0919 16.8168 C 65.7915 16.8168 65.5188 16.6759 65.322 16.4488 C 65.1247 16.2213 65.0027 15.9076 65.0027 15.5611 C 65.0027 15.2147 65.1247 14.901 65.322 14.6734 C 65.5188 14.4464 65.7915 14.3054 66.0919 14.3054 Z " stroke-width="0.512527585029602"/>
    <path id="ID0.257101490162313" fill="#FFFFFF" stroke="#000000" stroke-width="1.025055170059204" d="M 58.1521 9.5935 C 59.436 8.6048 61.5302 7.8817 62.8648 8.7201 C 64.163 9.6017 63.8391 11.7871 63.8386 13.3073 C 63.8381 14.5912 63.4655 16.0698 62.8622 17.021 C 62.259 17.9718 61.4261 18.5607 60.5072 18.5607 C 59.5882 18.5607 58.7554 17.9718 58.1521 17.021 C 57.5489 16.0698 57.1757 14.7142 57.1757 13.3073 C 57.1757 11.9004 57.1511 10.3843 58.1521 9.5935 Z "/>
    <path id="ID0.13991053588688374" fill="#000000" stroke="none" d="M 61.1419 14.2554 C 61.4422 14.2554 61.7149 14.3964 61.9117 14.6234 C 62.109 14.851 62.231 15.1647 62.231 15.5111 C 62.231 15.8576 62.109 16.1713 61.9117 16.3988 C 61.7149 16.6259 61.4422 16.7668 61.1419 16.7668 C 60.8415 16.7668 60.5688 16.6259 60.372 16.3988 C 60.1747 16.1713 60.0527 15.8576 60.0527 15.5111 C 60.0527 15.1647 60.1747 14.851 60.372 14.6234 C 60.5688 14.3964 60.8415 14.2554 61.1419 14.2554 Z " stroke-width="0.512527585029602"/>
    <path id="ID0.5298761413432658" fill="none" stroke="#000000" stroke-width="1.025055170059204" stroke-linecap="round" d="M 60.0379 20.3533 C 61.2178 21.1508 61.2137 21.2307 61.9087 21.3783 C 62.2649 21.4506 62.9337 20.9939 62.9337 20.9939 "/>
  </g>
  <path id="ID0.44839267572388053" fill="#8C5340" stroke="none" stroke-linecap="round" d="M 46.7 22.2 C 46.919 22.47 46.629 22.973 46.8 23.3 C 46.981 23.567 47.55 23.508 47.65 23.8 C 47.72 24.017 47.484 24.329 47.3 24.35 C 46.806 24.388 46.266 24.231 45.95 23.95 C 45.727 23.742 45.738 23.354 45.75 23.05 C 45.761 22.766 45.86 22.455 46.072 22.272 C 46.241 22.127 46.567 22.038 46.7 22.2 Z " stroke-width="1"/>
  <path id="ID0.44839267572388053" fill="#8C5340" stroke="none" stroke-linecap="round" d="M 49.45 22.35 C 49.669 22.62 49.379 23.123 49.55 23.45 C 49.731 23.717 50.3 23.658 50.4 23.95 C 50.47 24.167 50.234 24.479 50.05 24.5 C 49.556 24.538 49.016 24.381 48.7 24.1 C 48.477 23.892 48.488 23.504 48.5 23.2 C 48.511 22.916 48.61 22.605 48.822 22.422 C 48.991 22.277 49.317 22.188 49.45 22.35 Z " stroke-width="1"/>
  <path id="ID0.44839267572388053" fill="#8C5340" stroke="none" stroke-linecap="round" d="M 52.1 22.55 C 52.319 22.82 52.029 23.323 52.2 23.65 C 52.381 23.917 52.95 23.858 53.05 24.15 C 53.12 24.367 52.884 24.679 52.7 24.7 C 52.206 24.738 51.666 24.581 51.35 24.3 C 51.127 24.092 51.138 23.704 51.15 23.4 C 51.161 23.116 51.26 22.805 51.472 22.622 C 51.641 22.477 51.967 22.388 52.1 22.55 Z " stroke-width="1"/>
  <path id="ID0.44839267572388053" fill="#8C5340" stroke="none" stroke-linecap="round" d="M 55.8 23.1 C 56.019 23.37 55.729 23.873 55.9 24.2 C 56.081 24.467 56.65 24.408 56.75 24.7 C 56.82 24.917 56.584 25.229 56.4 25.25 C 55.906 25.288 55.366 25.131 55.05 24.85 C 54.827 24.642 54.838 24.254 54.85 23.95 C 54.861 23.666 54.96 23.355 55.172 23.172 C 55.341 23.027 55.667 22.938 55.8 23.1 Z " stroke-width="1"/>
  <path id="ID0.44839267572388053" fill="#8C5340" stroke="none" stroke-linecap="round" d="M 11.55 23.2 C 11.769 23.47 11.479 23.973 11.65 24.3 C 11.831 24.567 12.4 24.508 12.5 24.8 C 12.57 25.017 12.334 25.329 12.15 25.35 C 11.656 25.388 11.116 25.231 10.8 24.95 C 10.577 24.742 10.588 24.354 10.6 24.05 C 10.611 23.766 10.71 23.455 10.922 23.272 C 11.091 23.127 11.417 23.038 11.55 23.2 Z " stroke-width="1"/>
  <path id="ID0.44839267572388053" fill="#8C5340" stroke="none" stroke-linecap="round" d="M 7.25 22.7 C 7.469 22.97 7.179 23.473 7.35 23.8 C 7.531 24.067 8.1 24.008 8.2 24.3 C 8.27 24.517 8.034 24.829 7.85 24.85 C 7.356 24.888 6.816 24.731 6.5 24.45 C 6.277 24.242 6.288 23.854 6.3 23.55 C 6.311 23.266 6.41 22.955 6.622 22.772 C 6.791 22.627 7.117 22.538 7.25 22.7 Z " stroke-width="1"/>
</svg>