<svg version="1.1" xmlns="http://www.w3.org/2000/svg" xmlns:xlink="http://www.w3.org/1999/xlink" width="28.68116" height="21.23843" viewBox="0,0,28.68116,21.23843"><g transform="translate(-225.74453,-149.46704)"><g data-paper-data="{&quot;isPaintingLayer&quot;:true}" fill-rule="nonzero" stroke-linejoin="miter" stroke-miterlimit="10" stroke-dasharray="" stroke-dashoffset="0" style="mix-blend-mode: normal"><path d="M229.20366,169.97251c-1.34184,0.20108 -2.74773,-4.32361 -0.97108,-6.04047c-2.05662,-0.49111 -3.02639,-8.60108 1.16084,-11.69146c5.80773,-4.28638 17.75444,-1.27479 21.17457,3.81423c2.78854,-0.01048 4.70328,7.0793 1.34764,6.42356c-1.56548,-0.39897 -5.34623,-0.41917 -11.98823,1.77482c-4.23986,1.40052 -8.32308,4.45941 -10.72374,5.71932z" fill="#ff0000" stroke="#000000" stroke-width="1.45293" stroke-linecap="butt"/><path d="M228.0924,164.13458c3.40944,-2.87924 7.74076,-5.01573 10.82177,-6.17351c3.39467,-1.27565 6.96139,-1.95806 11.60019,-1.90847" fill="none" stroke="#000000" stroke-width="1.45293" stroke-linecap="round"/><path d="M229.84606,160.16764l-0.70588,-4.29412" fill="none" stroke="#dc0000" stroke-width="1" stroke-linecap="round"/><path d="M230.199,153.99117l1,4.76471" fill="none" stroke="#dc0000" stroke-width="1" stroke-linecap="round"/><path d="M232.78724,158.05l-0.47058,-2.7647" fill="none" stroke="#dc0000" stroke-width="1" stroke-linecap="round"/></g></g></svg>