<svg xmlns="http://www.w3.org/2000/svg" xmlns:xlink="http://www.w3.org/1999/xlink" version="1.1" width="59.74202341214474" height="49.86702341214474" viewBox="1.0799866002020442 0.8999866526541316 59.74202341214474 49.86702341214474">
  <defs>
    <radialGradient id="grad_1" cx="28.3018" cy="27.5366" r="11.3754" gradientUnits="userSpaceOnUse">
      <stop offset="0" stop-color="#990000"/>
      <stop offset="1" stop-color="#660000"/>
    </radialGradient>
  <radialGradient id="grad_1-,0,0,1,1,1" cx="29.3018" cy="28.5366" r="11.3754" gradientUnits="userSpaceOnUse">
      <stop offset="0" stop-color="#990000"/>
      <stop offset="1" stop-color="#660000"/>
    </radialGradient></defs>
  <!-- Exported by Scratch - http://scratch.mit.edu/ -->
  <g id="ID0.49884367175400257">
    <path id="ID0.7507912148721516" fill="#FAFFC7" stroke="#000000" stroke-width="0.8" d="M 38.833 47.466 C 38.833 49.013 35.311 50.267 30.967 50.267 C 26.622 50.267 23.1 49.013 23.1 47.466 C 23.1 45.919 26.622 47.066 30.967 47.066 C 35.311 47.066 38.833 45.919 38.833 47.466 Z "/>
    <path id="ID0.3412957382388413" fill="#ADBBC7" stroke="#000000" stroke-width="0.8" d="M 30.951 26.333 C 19.175 26.333 8.637 29.838 1.58 35.356 C 8.637 43.374 19.175 48.465 30.951 48.465 C 42.727 48.465 53.265 43.373 60.322 35.356 C 53.266 29.838 42.728 26.333 30.951 26.333 Z "/>
    <path id="ID0.38252149941399693" fill="#CFE0ED" stroke="#000000" stroke-width="0.8" d="M 1.58 35.357 C 1.754 35.554 1.932 35.749 2.109 35.943 C 8.306 40.115 18.908 42.867 30.951 42.867 C 42.994 42.867 53.596 40.115 59.793 35.943 C 59.971 35.749 60.148 35.554 60.322 35.357 C 53.265 29.838 42.727 26.334 30.951 26.334 C 19.175 26.334 8.637 29.838 1.58 35.357 Z "/>
    <path id="ID0.5815217420458794" fill="none" stroke="#000000" stroke-width="0.8" d="M 44.484 28.523 C 44.48 30.468 38.424 32.045 30.951 32.045 C 23.478 32.045 17.38 30.467 17.418 28.523 C 17.646 16.722 16.218 1.4 30.951 1.4 C 45.684 1.4 44.508 16.722 44.484 28.523 Z "/>
    <path id="ID0.35156259406358004" fill="#CFCFCF" stroke="#000000" stroke-width="0.8" d="M 44.485 28.216 C 44.485 28.318 44.484 28.421 44.484 28.523 C 44.48 30.468 38.424 32.045 30.951 32.045 C 23.478 32.045 17.38 30.467 17.418 28.523 C 17.42 28.419 17.422 28.316 17.424 28.212 C 16.65 28.698 16.218 29.233 16.218 29.797 C 16.218 32.006 22.815 33.797 30.951 33.797 C 39.087 33.797 45.684 32.006 45.684 29.797 C 45.685 29.236 45.256 28.701 44.485 28.216 Z "/>
    <path id="ID0.3573986738920212" fill="#737D85" stroke="#000000" stroke-width="0.8" d="M 30.951 27.4 C 25.045 27.4 19.959 28.124 17.646 29.166 C 18.808 30.805 24.321 32.046 30.951 32.046 C 37.581 32.046 43.094 30.805 44.256 29.166 C 41.943 28.124 36.857 27.4 30.951 27.4 Z "/>
    <path id="ID0.8960802308283746" fill="url(#grad_1-,0,0,1,1,1)" stroke="#000000" stroke-width="0.8" stroke-linecap="round" d="M 30.951 32.045 C 34.425 32.045 37.591 31.703 39.986 31.144 C 39.438 29.97 38.744 28.887 37.983 27.992 C 36.028 25.693 33.329 24.268 30.349 24.268 C 27.37 24.268 24.617 25.755 22.715 27.992 C 22.005 28.827 21.363 29.807 20.841 30.863 C 23.32 31.587 26.929 32.045 30.951 32.045 Z "/>
    <path id="ID0.3849619720131159_1_" fill="#FF0000" stroke="#000000" stroke-width="0.8" d="M 31.205 12.038 C 33.878 12.038 36.3 12.981 38.054 14.505 C 39.807 16.027 40.892 18.132 40.892 20.454 C 40.892 22.776 39.807 24.88 38.054 26.404 C 36.3 27.927 33.878 28.871 31.205 28.871 C 28.533 28.871 26.111 27.928 24.357 26.404 C 22.604 24.88 21.517 22.776 21.517 20.454 C 21.517 18.132 22.604 16.027 24.357 14.505 C 26.111 12.981 28.533 12.038 31.205 12.038 Z "/>
    <path id="ID0.257101490162313_3_" fill="#FFFFFF" stroke="#000000" stroke-width="0.8" d="M 34.331 10.04 C 35.949 9.162 38.162 10.818 39.49 12.084 C 40.469 13.085 40.537 14.789 40.541 16.139 C 40.546 17.551 40.288 19.027 39.518 20.253 C 38.927 21.193 37.837 22.085 36.762 22.085 C 35.686 22.085 34.711 21.384 34.004 20.253 C 33.299 19.121 32.829 17.355 32.861 15.834 C 32.905 13.882 32.631 10.965 34.331 10.04 Z "/>
    <path id="ID0.13991053588688374_3_" d="M 37.706 16.888 C 38.078 16.888 38.416 17.063 38.66 17.344 C 38.904 17.626 39.056 18.015 39.056 18.445 C 39.056 18.874 38.905 19.263 38.66 19.545 C 38.415 19.827 38.078 20 37.706 20 C 37.334 20 36.995 19.825 36.752 19.544 C 36.507 19.263 36.356 18.873 36.356 18.444 C 36.356 18.014 36.507 17.626 36.752 17.343 C 36.995 17.063 37.334 16.888 37.706 16.888 Z " stroke-width="1"/>
    <path id="ID0.257101490162313_2_" fill="#FFFFFF" stroke="#000000" stroke-width="0.8" d="M 27.936 11.067 C 29.527 9.841 32.123 8.945 33.776 9.984 C 35.384 11.077 34.983 13.785 34.983 15.67 C 34.983 17.261 34.521 19.094 33.772 20.273 C 33.025 21.451 31.993 22.181 30.854 22.181 C 29.715 22.181 28.682 21.451 27.936 20.273 C 27.188 19.094 26.725 17.414 26.725 15.67 C 26.725 13.925 26.694 12.046 27.936 11.067 Z "/>
    <path id="ID0.13991053588688374_2_" d="M 31.585 16.844 C 31.958 16.844 32.295 17.019 32.539 17.3 C 32.783 17.582 32.935 17.971 32.935 18.401 C 32.935 18.83 32.784 19.218 32.539 19.501 C 32.295 19.782 31.958 19.957 31.585 19.957 C 31.213 19.957 30.875 19.782 30.631 19.501 C 30.387 19.219 30.235 18.83 30.235 18.401 C 30.235 17.971 30.386 17.583 30.631 17.3 C 30.875 17.019 31.213 16.844 31.585 16.844 Z " stroke-width="1"/>
    <path id="ID0.5298761413432658_1_" fill="none" stroke="#000000" stroke-width="0.8" stroke-linecap="round" d="M 30.23 24.383 C 31.692 25.372 31.687 25.47 32.548 25.654 C 32.989 25.744 33.819 25.177 33.819 25.177 "/>
    <path id="ID0.7931591728702188" fill="#FFFFFF" d="M 23.9469 4.5745 C 24.4157 4.323 24.9067 4.2207 25.323 4.2584 C 25.7393 4.2961 26.08 4.4742 26.2455 4.7826 C 26.4109 5.091 26.371 5.4734 26.1722 5.841 C 25.9734 6.2087 25.6166 6.5613 25.1479 6.8128 C 24.6791 7.0643 24.1881 7.1666 23.7718 7.1289 C 23.3555 7.0913 23.0148 6.9132 22.8493 6.6048 C 22.6838 6.2963 22.7238 5.914 22.9226 5.5463 C 23.1214 5.1786 23.4781 4.8261 23.9469 4.5745 Z " stroke-width="1.000026647008021"/>
  </g>
</svg>